<svg width="32" height="32" viewBox="0 0 32 32" fill="none" xmlns="http://www.w3.org/2000/svg">
<g clip-path="url(#clip0_57_1001)">
<path fill-rule="evenodd" clip-rule="evenodd" d="M9.33622 26.2966C15.2477 30.1141 21.9724 28.4818 25.7046 24.179C29.6132 19.6734 29.8073 13.2251 26.2046 8.48564C22.6753 3.84615 16.3094 2.31681 11.0523 4.80346C6.33194 7.03571 2.29683 12.8913 4.64525 20.2704C3.73353 20.441 2.82034 20.5954 1.9145 20.788C1.42334 20.8939 1.40717 20.5483 1.33217 20.2513C0.0057615 15.0471 0.864546 10.24 4.33497 6.12398C8.53184 1.14627 13.9963 -0.677174 20.2828 0.962457C26.5987 2.60797 30.4455 6.90777 31.719 13.3148C33.4469 22.0027 26.9692 30.5964 18.1417 31.5272C14.8757 31.8713 11.8214 31.2684 8.9127 29.7641C8.28773 29.442 8.1598 29.1465 8.47743 28.5097C8.82741 27.8083 9.05093 27.0451 9.33622 26.2966Z" fill="#F39FFF"/>
<path fill-rule="evenodd" clip-rule="evenodd" d="M11.2452 21.2512C14.6759 24.2673 18.8228 23.7099 21.4006 21.2777C24.0225 18.7984 24.3887 14.7648 22.2623 11.7737C20.1668 8.83122 16.2273 7.91067 12.9745 9.57971C10.2849 10.9591 7.79682 14.6971 9.82466 19.3454C8.90853 19.5131 7.99975 19.6616 7.10126 19.8572C6.5557 19.9748 6.50423 19.6248 6.38512 19.2602C4.39991 13.231 8.32032 6.72985 14.5744 5.68725C21.2741 4.56965 27.2562 9.90764 26.8048 16.6897C26.5401 20.6527 24.5608 23.635 21.0109 25.401C17.4934 27.1524 13.9936 26.8745 10.629 24.8231C10.1614 24.5393 10.0379 24.2687 10.2673 23.7511C10.6246 22.9556 10.9084 22.1306 11.2452 21.2512Z" fill="#F39FFF"/>
<path fill-rule="evenodd" clip-rule="evenodd" d="M0 23.3026L8.94665 21.4306L5.9762 30.0802C3.9557 27.7862 2.02785 25.5996 0 23.3026Z" fill="#FFD742"/>
<path fill-rule="evenodd" clip-rule="evenodd" d="M16.3905 13.4766C16.6008 13.2354 16.7728 12.9972 16.9846 12.8016C18.3154 11.5811 20.1756 11.9281 21.0359 13.5545C21.452 14.3383 21.3667 15.1427 21.0844 15.9368C20.8226 16.6676 20.3476 17.2647 19.805 17.8029C18.9139 18.6852 17.9963 19.541 17.0875 20.4072C16.8655 20.6204 16.639 20.8292 16.4052 21.0483C15.939 20.6116 15.4699 20.1895 15.0185 19.7498C14.2362 18.991 13.4436 18.2425 12.6921 17.4529C12.0686 16.7941 11.6422 16.0206 11.5142 15.0942C11.2848 13.4163 12.7112 12.084 13.9582 12.0722C14.9435 12.0634 15.6817 12.5149 16.2537 13.284L16.3905 13.4766Z" fill="#FFD742"/>
</g>
<defs>
<clipPath id="clip0_57_1001">
<rect width="32" height="32" fill="white"/>
</clipPath>
</defs>
</svg>
