<svg width="341" height="274" viewBox="0 0 341 274" fill="none" xmlns="http://www.w3.org/2000/svg">
<mask id="mask0_1_1217" style="mask-type:luminance" maskUnits="userSpaceOnUse" x="0" y="0" width="341" height="274">
<path fill-rule="evenodd" clip-rule="evenodd" d="M0 0H340.441V274H0V0Z" fill="white"/>
</mask>
<g mask="url(#mask0_1_1217)">
<path fill-rule="evenodd" clip-rule="evenodd" d="M246.264 183.503C242.697 183.503 239.805 180.611 239.805 177.043C239.805 173.476 242.697 170.584 246.264 170.584C249.832 170.584 252.724 173.476 252.724 177.043C252.724 180.611 249.832 183.503 246.264 183.503ZM102.978 43.1754C99.1477 43.1754 96.0432 40.0706 96.0432 36.2407C96.0432 32.4105 99.1477 29.306 102.978 29.306C106.808 29.306 109.913 32.4105 109.913 36.2407C109.913 40.0706 106.808 43.1754 102.978 43.1754ZM309.6 27.437C271.796 41.6386 220.4 51.9421 184.416 23.9286C170.462 13.0662 156.333 6.57387 142.78 3.05736C100.466 -7.92316 56.0996 11.3849 34.7964 49.5585L16.5324 82.2878C-11.1745 131.937 -2.12675 188.124 29.3367 226.772L59.4002 167.871C59.255 167.875 59.1105 167.882 58.9642 167.882C50.4225 167.882 43.4985 160.958 43.4985 152.416C43.4985 143.875 50.4225 136.951 58.9642 136.951C64.2712 136.951 68.9527 139.625 71.738 143.698L98.2827 91.6914C93.4682 90.6427 88.6059 89.187 84.2764 87.1077C61.2911 76.0693 96.4638 35.367 164.595 49.8298C184.068 53.9634 170.913 67.6379 149.096 72.2574C147.301 72.6376 145.787 73.046 144.529 73.4818H167.632C168.252 71.9188 168.613 70.9568 168.613 70.9568L168.788 70.9804C168.12 70.1111 167.651 68.9743 167.651 68.9743L181.453 63.1149C179.371 68.1364 174.546 70.4956 172.029 71.4185L172.765 71.5178L172.352 73.4818H191.638C191.525 73.2446 191.462 73.0907 191.462 73.0907L205.263 67.2313C204.067 70.1169 201.964 72.1215 199.915 73.4818H261.845V78.6471L256.837 88.4621C262.063 93.6025 265.304 100.754 265.304 108.663C265.304 124.313 252.617 137 236.967 137C235.367 137 233.798 136.865 232.27 136.61L181.296 236.516H97.6445C97.6369 236.551 97.6298 236.59 97.6219 236.624C97.3349 237.896 89.9641 238.969 89.5011 236.516H38.1158C61.2194 259.687 93.3958 274.433 130.623 273.99H130.623C206.157 273.093 273.529 226.282 300.719 155.806L338.86 56.9476C345.938 38.6024 328.007 20.5221 309.6 27.437Z" fill="#E0E9F8"/>
</g>
<path fill-rule="evenodd" clip-rule="evenodd" d="M58.964 136.95C50.4226 136.95 43.4983 143.874 43.4983 152.416C43.4983 160.958 50.4226 167.882 58.964 167.882C59.1102 167.882 59.2548 167.875 59.4 167.871L71.7378 143.698C68.9525 139.625 64.271 136.95 58.964 136.95Z" fill="#C5D6F1"/>
<path fill-rule="evenodd" clip-rule="evenodd" d="M89.5003 236.513C89.1856 234.825 89.2575 233.038 89.5155 231.351H26.9998V236.516H38.116H89.5011C89.5008 236.515 89.5005 236.514 89.5003 236.513Z" fill="#99B9EE"/>
<path fill-rule="evenodd" clip-rule="evenodd" d="M184.177 225.649L145.857 189.089C145.079 189.377 144.223 189.666 143.319 189.93L183.058 227.843L181.267 231.35H102.976C102.98 232.401 101.023 231.794 99.7769 231.35H98.8789C98.4707 231.51 98.1601 231.886 98.1261 232.373C97.9981 234.207 97.8584 235.521 97.6441 236.516H181.296L232.27 136.61C231.462 136.475 230.664 136.308 229.88 136.107L184.177 225.649Z" fill="#99B9EE"/>
<path fill-rule="evenodd" clip-rule="evenodd" d="M188.982 97.1106L216.456 89.1105C221.617 83.6983 228.898 80.326 236.967 80.326C239.317 80.326 241.6 80.614 243.784 81.1535L260.323 76.3376L260.346 76.4174L261.845 73.4817H199.915C198.287 74.5616 196.694 75.2354 195.613 75.6164C194.915 77.8696 191.821 87.8678 188.982 97.1106Z" fill="#F7F7F7"/>
<path fill-rule="evenodd" clip-rule="evenodd" d="M158.542 92.8174C162.145 86.8854 165.9 77.8419 167.631 73.4817H144.529C132.698 77.5791 143.58 84.1273 158.542 92.8174Z" fill="#F7F7F7"/>
<path fill-rule="evenodd" clip-rule="evenodd" d="M98.8788 231.351H99.7768C99.7659 231.347 99.7547 231.343 99.7438 231.339C99.4464 231.233 99.1426 231.247 98.8788 231.351Z" fill="#F7F7F7"/>
<path fill-rule="evenodd" clip-rule="evenodd" d="M258.925 79.2031L247.757 82.455C250.408 83.5473 252.857 85.0288 255.032 86.8304L258.925 79.2031Z" fill="#F7F7F7"/>
<path fill-rule="evenodd" clip-rule="evenodd" d="M167.225 97.9053C169.347 99.1754 170.975 100.554 172.169 102.006L176.869 100.638C177.651 96.7373 179.372 91.3998 183.161 86.7968C188.896 79.8295 191.347 76.4149 192.388 74.8062C192.063 74.3285 191.8 73.8203 191.638 73.4817H172.352L167.225 97.9053Z" fill="#F7F7F7"/>
<path fill-rule="evenodd" clip-rule="evenodd" d="M97.8548 224.741C97.9988 224.879 98.1458 225.023 98.2962 225.176C101.817 228.762 102.974 230.544 102.977 231.35H181.267L183.058 227.843L143.319 189.93C140.114 190.864 136.318 191.461 133.346 190.417C133.346 190.417 130.083 185.818 136.249 183.185L118.411 166.166L104.769 175.894C98.2408 196.081 97.8294 218.426 97.8548 224.741Z" fill="#F7F7F7"/>
<path fill-rule="evenodd" clip-rule="evenodd" d="M89.5153 231.351C90.0252 228.014 91.2659 225.076 91.7149 224.089C90.8677 207.855 91.9537 194.383 93.6873 183.796L26.9998 231.351H89.5153Z" fill="#F7F7F7"/>
<path fill-rule="evenodd" clip-rule="evenodd" d="M140.67 181.975C141.463 181.842 141.885 180.992 141.543 180.265C140.552 178.159 138.769 173.802 147.817 181.108C148.087 181.326 148.33 181.536 148.559 181.741L148.554 181.722C148.554 181.722 179.171 168.683 179.601 165.013C180.032 161.344 163.476 151.003 163.476 151.003L167.608 141.419C167.608 141.419 185.743 150.701 192.057 163.041C198.531 175.695 159.865 183.686 149.876 187.353C149.876 187.353 149.875 187.353 149.875 187.353C149.875 187.353 148.233 188.21 145.857 189.089L184.178 225.649L229.881 136.107C217.66 132.96 208.63 121.866 208.63 108.663C208.63 102.586 210.544 96.9562 213.8 92.3421L188.153 99.8101C186.655 104.695 185.309 109.112 184.538 111.704C182.486 118.61 173.528 124.15 169.48 125.98C170.33 128.286 171.38 130.134 172.162 131.338C172.769 132.271 172.597 133.507 171.754 134.233L165.518 139.603C166.223 140.184 166.921 140.787 167.608 141.419L163.476 151.003L150.219 146.081C150.219 146.082 143.84 153.508 133.626 155.316L120.367 164.771L138.801 182.358C139.374 182.217 139.995 182.088 140.67 181.975Z" fill="#F7F7F7"/>
<path fill-rule="evenodd" clip-rule="evenodd" d="M176.446 103.219L173.549 104.062C173.981 104.879 174.294 105.712 174.494 106.557C175.055 106.407 175.629 106.266 176.217 106.137C176.217 106.137 176.217 105.017 176.446 103.219Z" fill="#F7F7F7"/>
<path fill-rule="evenodd" clip-rule="evenodd" d="M138.801 182.358L120.367 164.771L118.411 166.166L136.249 183.185C136.965 182.879 137.811 182.6 138.801 182.358Z" fill="#99B9EE"/>
<path fill-rule="evenodd" clip-rule="evenodd" d="M176.868 100.637L172.169 102.006C172.721 102.677 173.179 103.363 173.549 104.062L176.446 103.219C176.541 102.466 176.676 101.596 176.868 100.637Z" fill="#99B9EE"/>
<path fill-rule="evenodd" clip-rule="evenodd" d="M260.323 76.3376L243.784 81.1535C245.15 81.4908 246.477 81.9271 247.757 82.4546L258.925 79.203L255.032 86.83C255.657 87.3481 256.259 87.8932 256.837 88.4621L261.845 78.647V73.4817L260.346 76.4174L260.323 76.3376Z" fill="#99B9EE"/>
<path fill-rule="evenodd" clip-rule="evenodd" d="M213.8 92.3422C214.606 91.2 215.494 90.1196 216.456 89.1106L188.981 97.1107C188.702 98.0207 188.425 98.9228 188.153 99.8102L213.8 92.3422Z" fill="#99B9EE"/>
<path fill-rule="evenodd" clip-rule="evenodd" d="M93.6873 183.796C96.7517 165.08 101.838 155.379 101.838 155.379L111.308 160.716C108.634 165.404 106.489 170.574 104.769 175.894L118.411 166.166L120.368 164.77L133.626 155.316C128.925 156.148 123.412 155.79 117.334 152.968L111.308 160.716L101.838 155.379C101.838 155.379 104.791 145.884 109.99 138.355C109.235 136.695 108.811 134.852 108.811 132.91C108.811 132.91 87.6404 107.664 121.982 97.0117C131.64 94.0163 115.258 95.3878 98.2827 91.691L71.7379 143.698L59.4002 167.871L29.3369 226.772L26.9998 231.35L93.6873 183.796Z" fill="white"/>
<path fill-rule="evenodd" clip-rule="evenodd" d="M246.264 170.584C242.697 170.584 239.805 173.476 239.805 177.043C239.805 180.611 242.697 183.503 246.264 183.503C249.831 183.503 252.723 180.611 252.723 177.043C252.723 173.476 249.831 170.584 246.264 170.584Z" fill="#C5D6F1"/>
<path fill-rule="evenodd" clip-rule="evenodd" d="M247.757 82.4547C246.477 81.9272 245.15 81.4909 243.784 81.1533C241.6 80.6139 239.317 80.3259 236.967 80.3259C228.898 80.3259 221.617 83.6984 216.456 89.1106C215.494 90.1193 214.607 91.2 213.801 92.3419C210.544 96.956 208.63 102.586 208.63 108.663C208.63 121.866 217.66 132.96 229.881 136.106C230.664 136.308 231.462 136.476 232.27 136.61C233.798 136.865 235.367 137 236.967 137C252.617 137 265.304 124.313 265.304 108.663C265.304 100.754 262.063 93.6026 256.837 88.4622C256.259 87.8933 255.657 87.348 255.032 86.8301C252.857 85.0285 250.408 83.547 247.757 82.4547Z" fill="#C5D6F1"/>
<path fill-rule="evenodd" clip-rule="evenodd" d="M102.977 29.306C99.1476 29.306 96.0428 32.4108 96.0428 36.2407C96.0428 40.0706 99.1476 43.1754 102.977 43.1754C106.807 43.1754 109.912 40.0706 109.912 36.2407C109.912 32.4108 106.807 29.306 102.977 29.306Z" fill="#C5D6F1"/>
<path fill-rule="evenodd" clip-rule="evenodd" d="M158.543 92.8178C161.335 94.4399 164.269 96.1362 167.225 97.9056H167.225L172.352 73.4821L172.765 71.5181L172.03 71.4188C171.064 71.7726 170.437 71.9161 170.437 71.9161C169.852 72.0949 169.269 71.6072 168.788 70.9807L168.613 70.9571C168.613 70.9571 168.252 71.9189 167.632 73.4821C165.9 77.8423 162.145 86.8858 158.543 92.8178Z" fill="#0B4870"/>
<path fill-rule="evenodd" clip-rule="evenodd" d="M184.538 111.705C185.309 109.112 186.655 104.695 188.153 99.8103C188.425 98.9229 188.702 98.0208 188.981 97.1108C191.82 87.8682 194.915 77.8698 195.613 75.6165C194.778 75.9109 194.247 76.0323 194.247 76.0323C193.574 76.2383 192.903 75.5619 192.388 74.8064C191.346 76.415 188.896 79.8297 183.161 86.7969C179.372 91.3999 177.651 96.7374 176.868 100.638C176.676 101.596 176.541 102.467 176.445 103.219C176.217 105.017 176.217 106.138 176.217 106.138C175.628 106.266 175.055 106.408 174.494 106.557C175.66 111.477 173.043 116.798 168.287 121.486C168.553 123.119 168.981 124.629 169.479 125.98C173.528 124.15 182.485 118.61 184.538 111.705Z" fill="#0B4870"/>
<path fill-rule="evenodd" clip-rule="evenodd" d="M150.219 146.081L163.476 151.002L167.608 141.418C166.921 140.787 166.223 140.184 165.518 139.602L171.754 134.233C172.598 133.507 172.769 132.271 172.163 131.338C171.38 130.134 170.33 128.286 169.48 125.98C168.981 124.628 168.554 123.119 168.288 121.486C160.506 129.156 147.004 135.132 135.006 134.881C134.852 135.909 134.577 136.897 134.199 137.833C134.647 138.941 134.895 140.15 134.895 141.419C134.895 146.712 130.604 151.003 125.311 151.003C121.215 151.003 117.721 148.433 116.349 144.817C113.539 143.486 111.278 141.188 109.99 138.355C104.791 145.884 101.838 155.379 101.838 155.379L111.308 160.716L117.334 152.968C123.412 155.791 128.925 156.148 133.626 155.316C143.84 153.508 150.219 146.082 150.219 146.081Z" fill="#347AF0"/>
<path fill-rule="evenodd" clip-rule="evenodd" d="M121.983 146.081C119.967 146.081 118.057 145.627 116.349 144.817C117.721 148.433 121.215 151.003 125.311 151.003C130.604 151.003 134.896 146.712 134.896 141.419C134.896 140.15 134.647 138.941 134.199 137.833C132.249 142.668 127.516 146.081 121.983 146.081Z" fill="#FCD2B1"/>
<path fill-rule="evenodd" clip-rule="evenodd" d="M116.349 144.818C118.057 145.627 119.966 146.082 121.982 146.082C127.516 146.082 132.249 142.668 134.199 137.833C134.577 136.897 134.852 135.909 135.006 134.881C126.971 134.714 119.61 131.754 115.093 124.64L108.811 132.91C108.811 134.853 109.235 136.695 109.99 138.355C111.279 141.189 113.539 143.486 116.349 144.818Z" fill="#FFE3CA"/>
<path fill-rule="evenodd" clip-rule="evenodd" d="M194.248 76.0321C194.248 76.0321 194.778 75.9107 195.613 75.6164C196.694 75.2354 198.287 74.5616 199.915 73.4817C201.965 72.1214 204.067 70.1168 205.263 67.2314L191.462 73.0906C191.462 73.0906 191.526 73.2445 191.639 73.4817C191.8 73.8203 192.063 74.3285 192.389 74.8062C192.904 75.5618 193.575 76.2381 194.248 76.0321Z" fill="#0B4870"/>
<path fill-rule="evenodd" clip-rule="evenodd" d="M170.438 71.9159C170.438 71.9159 171.065 71.7727 172.03 71.4187C174.546 70.496 179.371 68.1366 181.453 63.1153L167.651 68.9744C167.651 68.9744 168.121 70.1115 168.788 70.9806C169.269 71.6071 169.853 72.095 170.438 71.9159Z" fill="#0B4870"/>
<path fill-rule="evenodd" clip-rule="evenodd" d="M121.983 97.0119C87.6407 107.664 108.811 132.91 108.811 132.91L115.094 124.64C119.61 131.754 126.971 134.714 135.007 134.881C147.005 135.131 160.506 129.156 168.288 121.486C173.044 116.798 175.661 111.477 174.495 106.557C174.294 105.712 173.982 104.878 173.55 104.062C173.179 103.363 172.721 102.676 172.17 102.006C170.976 100.554 169.348 99.1755 167.226 97.9051H167.225C164.27 96.1359 161.336 94.4394 158.543 92.8173C143.581 84.1271 132.699 77.5791 144.529 73.4815C145.788 73.0457 147.302 72.6373 149.096 72.2574C170.914 67.6376 184.069 53.9632 164.596 49.8295C96.4642 35.3668 61.2913 76.069 84.2766 87.1074C88.6063 89.1867 93.4686 90.6425 98.2832 91.6911C115.259 95.388 131.64 94.0163 121.983 97.0119Z" fill="#FDB32A"/>
<path fill-rule="evenodd" clip-rule="evenodd" d="M149.876 187.353C159.865 183.686 198.531 175.695 192.057 163.041C185.744 150.701 167.608 141.419 167.608 141.419L163.476 151.003C163.476 151.003 180.032 161.344 179.601 165.013C179.171 168.682 148.554 181.722 148.554 181.722L148.559 181.741C148.33 181.536 148.087 181.326 147.817 181.108C138.769 173.802 140.552 178.159 141.543 180.265C141.885 180.992 141.463 181.842 140.67 181.975C139.995 182.088 139.375 182.217 138.801 182.358C137.811 182.6 136.966 182.879 136.249 183.185C130.083 185.818 133.346 190.416 133.346 190.416C136.318 191.461 140.114 190.864 143.319 189.93C144.223 189.667 145.079 189.377 145.857 189.089C148.233 188.21 149.875 187.353 149.875 187.353L149.876 187.353Z" fill="#FCD2B1"/>
<path fill-rule="evenodd" clip-rule="evenodd" d="M98.8792 231.351C99.1431 231.247 99.4468 231.233 99.7442 231.339C99.7551 231.343 99.7663 231.347 99.7772 231.351C101.024 231.794 102.98 232.401 102.977 231.351C102.974 230.544 101.818 228.762 98.2966 225.176C98.146 225.023 97.9992 224.879 97.8549 224.741C97.8295 218.426 98.241 196.081 104.769 175.894C106.489 170.574 108.634 165.404 111.308 160.717L101.838 155.379C101.838 155.379 96.7519 165.08 93.6875 183.796C91.9539 194.383 90.8679 207.854 91.7151 224.089C91.2658 225.076 90.0254 228.014 89.5155 231.351C89.2574 233.038 89.1858 234.825 89.5002 236.513C89.5005 236.514 89.501 236.515 89.5012 236.516C89.964 238.968 97.335 237.896 97.622 236.625C97.6299 236.59 97.637 236.551 97.6446 236.516C97.8587 235.521 97.9984 234.207 98.1267 232.373C98.1604 231.886 98.4713 231.511 98.8792 231.351Z" fill="#FCD2B1"/>
</svg>
