<svg width="24" height="24" viewBox="0 0 24 24" fill="none" xmlns="http://www.w3.org/2000/svg">
<path d="M3.60357 7.19689L10.7416 4.08789C10.8594 4.0374 10.9861 4.01101 11.1142 4.01027C11.2423 4.00953 11.3693 4.03445 11.4877 4.08356C11.6061 4.13268 11.7134 4.205 11.8034 4.29625C11.8933 4.3875 11.9641 4.49584 12.0116 4.61489L16.9356 16.5169C17.0369 16.7583 17.0398 17.0298 16.9438 17.2734C16.8478 17.517 16.6604 17.7135 16.4216 17.8209L9.28457 20.9299C9.16673 20.9805 9.03994 21.007 8.91169 21.0079C8.78343 21.0087 8.65631 20.9838 8.53783 20.9347C8.41935 20.8856 8.31192 20.8132 8.22187 20.7219C8.13183 20.6305 8.061 20.5221 8.01357 20.4029L3.08957 8.49989C2.98855 8.2584 2.98574 7.98703 3.08173 7.7435C3.17773 7.49997 3.36495 7.3045 3.60357 7.19689Z" stroke="#E98A0A" stroke-width="1.5" stroke-linecap="round" stroke-linejoin="round"/>
<path d="M15 4H16C16.2652 4 16.5196 4.10536 16.7071 4.29289C16.8946 4.48043 17 4.73478 17 5V8.5" stroke="#E98A0A" stroke-width="1.5" stroke-linecap="round" stroke-linejoin="round"/>
<path d="M20 6C20.264 6.112 20.52 6.217 20.768 6.315C21.0121 6.41859 21.2051 6.6149 21.3045 6.86075C21.4039 7.1066 21.4015 7.38187 21.298 7.626L19 13" stroke="#E98A0A" stroke-width="1.5" stroke-linecap="round" stroke-linejoin="round"/>
</svg>
