<svg width="52" height="60" viewBox="0 0 52 60" fill="none" xmlns="http://www.w3.org/2000/svg">
<g clip-path="url(#clip0_1_4368)">
<path d="M26.6875 38.1484C26.5312 38.1484 26.3958 38.0911 26.2812 37.9766C26.1667 37.862 26.1094 37.7266 26.1094 37.5703C26.1094 37.487 26.125 37.4115 26.1562 37.3438C26.1875 37.276 26.2292 37.2161 26.2812 37.1641L33.5312 30.1484L26.1719 23.0391C26.1198 22.987 26.0781 22.9271 26.0469 22.8594C26.0156 22.7917 26 22.7161 26 22.6328C26 22.4766 26.0573 22.3411 26.1719 22.2266C26.2865 22.112 26.4219 22.0547 26.5781 22.0547C26.651 22.0547 26.7214 22.0677 26.7891 22.0938C26.8568 22.1198 26.9167 22.1589 26.9688 22.2109L34.7656 29.7422C34.8177 29.7943 34.8594 29.8568 34.8906 29.9297C34.9219 30.0026 34.9375 30.0755 34.9375 30.1484C34.9375 30.2318 34.9219 30.3099 34.8906 30.3828C34.8594 30.4557 34.8177 30.5182 34.7656 30.5703L27.0781 37.9766C27.0365 38.0286 26.9792 38.0703 26.9062 38.1016C26.8333 38.1328 26.7604 38.1484 26.6875 38.1484Z" fill="black" fill-opacity="0.54"/>
</g>
<defs>
<clipPath id="clip0_1_4368">
<rect width="16" height="16" fill="white" transform="matrix(1 0 0 -1 26 38)"/>
</clipPath>
</defs>
</svg>
