<svg width="62" height="51" viewBox="0 0 62 51" fill="none" xmlns="http://www.w3.org/2000/svg">
<path d="M55.0224 0H6.97759C3.12398 0 0 3.12398 0 6.97759V27.525C0 31.3786 3.12398 34.5026 6.97759 34.5026H55.0224C58.8761 34.5026 62 31.3786 62 27.525V6.97759C62 3.12398 58.8761 0 55.0224 0Z" fill="#E98A0A"/>
<path d="M16.6117 30.5665L2.13354 50.2469L25.4885 31.8877L16.6117 30.5665Z" fill="#E98A0A"/>
<path d="M17.1472 17.2444C17.1499 17.6484 17.0325 18.0441 16.8097 18.3812C16.5869 18.7182 16.2689 18.9814 15.8962 19.1373C15.5235 19.2931 15.1128 19.3346 14.7164 19.2565C14.32 19.1783 13.9558 18.9841 13.6701 18.6984C13.3844 18.4127 13.1902 18.0485 13.112 17.6521C13.0339 17.2557 13.0754 16.845 13.2312 16.4723C13.3871 16.0996 13.6503 15.7816 13.9874 15.5589C14.3244 15.3361 14.7201 15.2186 15.1241 15.2213C15.6607 15.2213 16.1753 15.4345 16.5547 15.8139C16.9341 16.1933 17.1472 16.7078 17.1472 17.2444Z" fill="white"/>
<path d="M27.7307 17.2444C27.7334 17.6484 27.6159 18.0441 27.3932 18.3812C27.1704 18.7182 26.8524 18.9814 26.4797 19.1373C26.1069 19.2931 25.6963 19.3346 25.2999 19.2565C24.9035 19.1783 24.5393 18.9841 24.2536 18.6984C23.9679 18.4127 23.7736 18.0485 23.6955 17.6521C23.6173 17.2557 23.6588 16.845 23.8147 16.4723C23.9706 16.0996 24.2338 15.7816 24.5708 15.5589C24.9079 15.3361 25.3036 15.2186 25.7076 15.2213C26.2441 15.2213 26.7587 15.4345 27.1381 15.8139C27.5175 16.1933 27.7307 16.7078 27.7307 17.2444Z" fill="white"/>
<path d="M38.3141 17.2444C38.3168 17.6484 38.1994 18.0441 37.9766 18.3812C37.7538 18.7182 37.4359 18.9814 37.0631 19.1373C36.6904 19.2931 36.2797 19.3346 35.8833 19.2565C35.4869 19.1783 35.1227 18.9841 34.837 18.6984C34.5514 18.4127 34.3571 18.0485 34.2789 17.6521C34.2008 17.2557 34.2423 16.845 34.3981 16.4723C34.554 16.0996 34.8172 15.7816 35.1543 15.5589C35.4913 15.3361 35.887 15.2186 36.291 15.2213C36.8276 15.2213 37.3422 15.4345 37.7216 15.8139C38.101 16.1933 38.3141 16.7078 38.3141 17.2444Z" fill="white"/>
<path d="M48.8976 17.2444C48.9003 17.6484 48.7828 18.0441 48.5601 18.3812C48.3373 18.7182 48.0193 18.9814 47.6466 19.1373C47.2738 19.2931 46.8631 19.3346 46.4668 19.2565C46.0704 19.1783 45.7062 18.9841 45.4205 18.6984C45.1348 18.4127 44.9406 18.0485 44.8624 17.6521C44.7843 17.2557 44.8257 16.845 44.9816 16.4723C45.1375 16.0996 45.4007 15.7816 45.7377 15.5589C46.0748 15.3361 46.4705 15.2186 46.8745 15.2213C47.411 15.2213 47.9256 15.4345 48.305 15.8139C48.6844 16.1933 48.8976 16.7078 48.8976 17.2444Z" fill="white"/>
</svg>
