<svg width="26" height="26" viewBox="0 0 26 26" fill="none" xmlns="http://www.w3.org/2000/svg">
<path d="M8.82602 21.2416H8.2348C3.50507 21.2416 1.1402 20.0591 1.1402 14.147V8.2348C1.1402 3.50507 3.50507 1.1402 8.2348 1.1402H17.6943C22.424 1.1402 24.7889 3.50507 24.7889 8.2348V14.147C24.7889 18.8767 22.424 21.2416 17.6943 21.2416H17.1031C16.7365 21.2416 16.3818 21.4189 16.1571 21.7145L14.3835 24.0794C13.603 25.1199 12.326 25.1199 11.5456 24.0794L9.77197 21.7145C9.58278 21.4544 9.14528 21.2416 8.82602 21.2416Z" stroke="#0060FF" stroke-width="2.25" stroke-miterlimit="10" stroke-linecap="round" stroke-linejoin="round"/>
<path d="M17.69 11.7824H17.7006" stroke="#0060FF" stroke-width="3" stroke-linecap="round" stroke-linejoin="round"/>
<path d="M12.9592 11.7824H12.9698" stroke="#0060FF" stroke-width="3" stroke-linecap="round" stroke-linejoin="round"/>
<path d="M8.22814 11.7824H8.23876" stroke="#0060FF" stroke-width="3" stroke-linecap="round" stroke-linejoin="round"/>
</svg>
