<svg width="56" height="56" viewBox="0 0 56 56" fill="none" xmlns="http://www.w3.org/2000/svg">
<g clip-path="url(#clip0_60_11695)">
<path d="M28.3516 40.1523L21.8594 40.1289C21.8438 40.1289 21.8281 40.1289 21.8125 40.1289C21.7969 40.1289 21.7812 40.1289 21.7656 40.1289C21.6406 40.1289 21.5195 40.1094 21.4023 40.0703C21.2852 40.0312 21.1797 39.9727 21.0859 39.8945C20.9766 39.7852 20.8906 39.6602 20.8281 39.5195C20.7656 39.3789 20.7344 39.2227 20.7344 39.0508C20.7344 39.0352 20.7344 39.0195 20.7344 39.0039C20.7344 38.9883 20.7344 38.9648 20.7344 38.9336C20.7344 38.5898 20.7383 38.2461 20.7461 37.9023C20.7539 37.5586 20.7578 37.2148 20.7578 36.8711C20.7578 36.3711 20.7617 35.8711 20.7695 35.3711C20.7773 34.8711 20.7734 34.3711 20.7578 33.8711C20.7578 33.668 20.7383 33.5078 20.6992 33.3906C20.6602 33.2734 20.6094 33.207 20.5469 33.1914C20.5469 33.1914 20.543 33.1914 20.5352 33.1914C20.5273 33.1914 20.5156 33.1914 20.5 33.1914C20.3594 33.1914 20.2188 33.2109 20.0781 33.25C19.9375 33.2891 19.8047 33.3398 19.6797 33.4023H19.7031C19.5469 33.4805 19.3867 33.543 19.2227 33.5898C19.0586 33.6367 18.8906 33.668 18.7188 33.6836H18.6953C18.6797 33.6836 18.6562 33.6875 18.625 33.6953C18.5938 33.7031 18.5703 33.707 18.5547 33.707C18.1797 33.707 17.832 33.625 17.5117 33.4609C17.1914 33.2969 16.9297 33.0742 16.7266 32.793C16.4922 32.4961 16.3125 32.1602 16.1875 31.7852C16.0625 31.4102 16 31.0117 16 30.5898C16 30.1836 16.0664 29.793 16.1992 29.418C16.332 29.043 16.5156 28.6992 16.75 28.3867H16.7266C16.9609 28.1211 17.2383 27.9102 17.5586 27.7539C17.8789 27.5977 18.2266 27.5195 18.6016 27.5195C18.6641 27.5195 18.7227 27.5195 18.7773 27.5195C18.832 27.5195 18.8906 27.5273 18.9531 27.543H18.9297C19.0391 27.5586 19.1484 27.5781 19.2578 27.6016C19.3672 27.625 19.4688 27.6523 19.5625 27.6836L19.5391 27.6602C19.6484 27.6914 19.8242 27.7422 20.0664 27.8125C20.3086 27.8828 20.4766 27.8633 20.5703 27.7539C20.5859 27.7227 20.6016 27.6953 20.6172 27.6719C20.6328 27.6484 20.6484 27.6211 20.6641 27.5898V27.5664C20.6953 27.3945 20.7188 27.2109 20.7344 27.0156C20.75 26.8203 20.7578 26.6211 20.7578 26.418C20.7578 26.3555 20.7578 26.2891 20.7578 26.2188C20.7578 26.1484 20.7578 26.082 20.7578 26.0195C20.7578 25.9414 20.7539 25.8633 20.7461 25.7852C20.7383 25.707 20.7344 25.6289 20.7344 25.5508L20.7578 22.1055C20.7578 22.1055 20.7578 22.1016 20.7578 22.0938C20.7578 22.0859 20.7578 22.082 20.7578 22.082C20.7578 22.0039 20.7617 21.9258 20.7695 21.8477C20.7773 21.7695 20.7969 21.6992 20.8281 21.6367C20.8906 21.4805 20.9922 21.3555 21.1328 21.2617C21.2734 21.168 21.4297 21.1133 21.6016 21.0977C21.6484 21.082 21.6914 21.0742 21.7305 21.0742C21.7695 21.0742 21.8203 21.0742 21.8828 21.0742C21.8984 21.0742 21.9141 21.0742 21.9297 21.0742C21.9453 21.0742 21.9609 21.0742 21.9766 21.0742H26.125C26.3281 21.0742 26.5977 21.0625 26.9336 21.0391C27.2695 21.0156 27.4688 20.918 27.5312 20.7461C27.5312 20.7461 27.5352 20.7227 27.543 20.6758C27.5508 20.6289 27.5312 20.5586 27.4844 20.4648C27.3906 20.2305 27.3203 19.9805 27.2734 19.7148C27.2266 19.4492 27.2031 19.1758 27.2031 18.8945C27.2031 18.8789 27.2031 18.8672 27.2031 18.8594C27.2031 18.8516 27.2031 18.8398 27.2031 18.8242C27.2031 18.4023 27.2969 18.0117 27.4844 17.6523C27.6719 17.293 27.9219 17.0039 28.2344 16.7852H28.2578C28.7266 16.457 29.2656 16.2539 29.875 16.1758C30.5 16.1133 31.0859 16.168 31.6328 16.3398C32.1797 16.5117 32.6484 16.8086 33.0391 17.2305C33.4141 17.668 33.5859 18.2227 33.5547 18.8945C33.5547 19.082 33.5352 19.2656 33.4961 19.4453C33.457 19.625 33.4062 19.793 33.3438 19.9492V19.9258C33.3125 20.0664 33.2578 20.207 33.1797 20.3477C33.1016 20.4883 33.0781 20.6289 33.1094 20.7695C33.125 20.832 33.1562 20.8867 33.2031 20.9336C33.25 20.9805 33.3047 21.0195 33.3672 21.0508C33.4297 21.0664 33.5039 21.0781 33.5898 21.0859C33.6758 21.0938 33.7578 21.0977 33.8359 21.0977C33.8672 21.0977 33.8945 21.0977 33.918 21.0977C33.9414 21.0977 33.9688 21.0898 34 21.0742C34.5469 21.0742 35.0859 21.0742 35.6172 21.0742C36.1484 21.0742 36.6797 21.0742 37.2109 21.0742C37.5078 21.0898 37.8086 21.0977 38.1133 21.0977C38.418 21.0977 38.7266 21.0977 39.0391 21.0977C39.0547 21.0977 39.0664 21.0977 39.0742 21.0977C39.082 21.0977 39.0938 21.0977 39.1094 21.0977C39.2344 21.0977 39.3516 21.1211 39.4609 21.168C39.5703 21.2148 39.6719 21.2773 39.7656 21.3555C39.8281 21.4336 39.8789 21.5234 39.918 21.625C39.957 21.7266 39.9766 21.8398 39.9766 21.9648C39.9766 21.9648 39.9766 21.9727 39.9766 21.9883C39.9766 22.0039 39.9766 22.0195 39.9766 22.0352L40 28.6914C40 28.707 40 28.7148 40 28.7148C40 28.8242 39.9805 28.9258 39.9414 29.0195C39.9023 29.1133 39.8516 29.1992 39.7891 29.2773C39.6172 29.4961 39.3984 29.5977 39.1328 29.582C38.8672 29.5664 38.5625 29.4258 38.2188 29.1602C38.0781 29.0352 37.9141 28.9414 37.7266 28.8789C37.5391 28.8164 37.3359 28.7852 37.1172 28.7852C36.7422 28.7852 36.4023 28.8906 36.0977 29.1016C35.793 29.3125 35.5703 29.5898 35.4297 29.9336C35.3828 30.043 35.3516 30.1562 35.3359 30.2734C35.3203 30.3906 35.3125 30.5117 35.3125 30.6367C35.3125 30.7773 35.3242 30.9141 35.3477 31.0469C35.3711 31.1797 35.4062 31.3086 35.4531 31.4336C35.6094 31.7305 35.8359 31.9688 36.1328 32.1484C36.4297 32.3281 36.7578 32.418 37.1172 32.418C37.3203 32.418 37.5117 32.3867 37.6914 32.3242C37.8711 32.2617 38.0391 32.1758 38.1953 32.0664L38.2891 31.9961C38.3828 31.918 38.4844 31.8516 38.5938 31.7969C38.7031 31.7422 38.8125 31.6992 38.9219 31.668L38.9453 31.6445C38.9766 31.6445 39.0078 31.6445 39.0391 31.6445C39.0703 31.6445 39.1016 31.6445 39.1328 31.6445C39.1953 31.6445 39.2578 31.6484 39.3203 31.6562C39.3828 31.6641 39.4453 31.6836 39.5078 31.7148C39.6484 31.7773 39.7656 31.8789 39.8594 32.0195C39.9531 32.1602 40 32.3086 40 32.4648C40 32.4805 40 32.4961 40 32.5117C40 32.5273 40 32.543 40 32.5586V39.2383C40 39.2383 40 39.2422 40 39.25C40 39.2578 40 39.2695 40 39.2852C40 39.3477 39.9922 39.4102 39.9766 39.4727C39.9609 39.5352 39.9453 39.5977 39.9297 39.6602C39.8984 39.707 39.8711 39.75 39.8477 39.7891C39.8242 39.8281 39.7969 39.8633 39.7656 39.8945C39.6875 39.9727 39.5938 40.0312 39.4844 40.0703C39.375 40.1094 39.2656 40.1289 39.1562 40.1289C39.1406 40.1289 39.125 40.1289 39.1094 40.1289C39.0938 40.1289 39.0859 40.1289 39.0859 40.1289H32.2422C32.1641 40.1289 32.0898 40.1211 32.0195 40.1055C31.9492 40.0898 31.8828 40.0586 31.8203 40.0117V40.0352C31.7266 39.9727 31.6445 39.8984 31.5742 39.8125C31.5039 39.7266 31.4609 39.6289 31.4453 39.5195C31.4453 39.5039 31.4414 39.4844 31.4336 39.4609C31.4258 39.4375 31.4219 39.4102 31.4219 39.3789C31.4219 39.1914 31.4609 39.0117 31.5391 38.8398C31.6172 38.668 31.7188 38.5195 31.8438 38.3945C31.9531 38.2383 32.0352 38.0703 32.0898 37.8906C32.1445 37.7109 32.1719 37.5195 32.1719 37.3164C32.1719 36.9727 32.0898 36.6641 31.9258 36.3906C31.7617 36.1172 31.5469 35.8945 31.2812 35.7227C31.1406 35.6445 30.9922 35.5859 30.8359 35.5469C30.6797 35.5078 30.5156 35.4883 30.3438 35.4883C30.1719 35.4883 30.0039 35.5117 29.8398 35.5586C29.6758 35.6055 29.5234 35.668 29.3828 35.7461C29.1328 35.9023 28.9297 36.1172 28.7734 36.3906C28.6172 36.6641 28.5391 36.9648 28.5391 37.293C28.5391 37.5273 28.582 37.75 28.668 37.9609C28.7539 38.1719 28.875 38.3633 29.0312 38.5352C29.125 38.6289 29.1992 38.7383 29.2539 38.8633C29.3086 38.9883 29.3359 39.1211 29.3359 39.2617C29.3359 39.3242 29.3281 39.3828 29.3125 39.4375C29.2969 39.4922 29.2812 39.5508 29.2656 39.6133V39.5898C29.2031 39.7617 29.0977 39.8984 28.9492 40C28.8008 40.1016 28.6328 40.1523 28.4453 40.1523C28.4297 40.1523 28.4141 40.1523 28.3984 40.1523C28.3828 40.1523 28.3672 40.1523 28.3516 40.1523ZM21.8828 39.168L28.0469 39.1914C28.0781 39.1914 28.1055 39.1797 28.1289 39.1562C28.1523 39.1328 28.1641 39.1055 28.1641 39.0742C28.1641 39.0586 28.1641 39.043 28.1641 39.0273C28.1641 39.0117 28.1562 39.0039 28.1406 39.0039C27.9688 38.7695 27.832 38.5078 27.7305 38.2188C27.6289 37.9297 27.5781 37.6211 27.5781 37.293C27.5781 37.1836 27.5859 37.0781 27.6016 36.9766C27.6172 36.875 27.6328 36.7773 27.6484 36.6836V36.707C27.7266 36.2695 27.9023 35.8789 28.1758 35.5352C28.4492 35.1914 28.7812 34.9336 29.1719 34.7617H29.1953C29.3516 34.6836 29.5195 34.6289 29.6992 34.5977C29.8789 34.5664 30.0703 34.5508 30.2734 34.5508C30.5703 34.5508 30.8555 34.5938 31.1289 34.6797C31.4023 34.7656 31.6562 34.8867 31.8906 35.043V35.0195C32.2656 35.2695 32.5664 35.5898 32.793 35.9805C33.0195 36.3711 33.1406 36.8008 33.1562 37.2695C33.1562 37.2695 33.1562 37.2734 33.1562 37.2812C33.1562 37.2891 33.1562 37.293 33.1562 37.293C33.1562 37.4961 33.1367 37.6914 33.0977 37.8789C33.0586 38.0664 33 38.2383 32.9219 38.3945C32.8906 38.457 32.8594 38.5195 32.8281 38.582C32.7969 38.6445 32.7656 38.707 32.7344 38.7695C32.7031 38.8164 32.6602 38.875 32.6055 38.9453C32.5508 39.0156 32.5469 39.0898 32.5938 39.168C32.6094 39.168 32.6289 39.1719 32.6523 39.1797C32.6758 39.1875 32.7031 39.1914 32.7344 39.1914C32.75 39.1914 32.7617 39.1914 32.7695 39.1914C32.7773 39.1914 32.7891 39.1914 32.8047 39.1914H32.7812C32.8281 39.1914 32.8711 39.1914 32.9102 39.1914C32.9492 39.1914 32.9844 39.1914 33.0156 39.1914C33.0938 39.1914 33.1719 39.1914 33.25 39.1914C33.3281 39.1914 33.4062 39.1914 33.4844 39.1914H38.6172C38.7266 39.1914 38.8203 39.1523 38.8984 39.0742C38.9766 38.9961 39.0156 38.9023 39.0156 38.793V32.6523C39 32.668 38.9766 32.6836 38.9453 32.6992C38.9141 32.7148 38.8906 32.7383 38.875 32.7695L38.7578 32.8398C38.5234 33.0117 38.2656 33.1445 37.9844 33.2383C37.7031 33.332 37.4062 33.3789 37.0938 33.3789C36.7656 33.3789 36.4531 33.3281 36.1562 33.2266C35.8594 33.125 35.5938 32.9883 35.3594 32.8164C35.0469 32.5508 34.793 32.2305 34.5977 31.8555C34.4023 31.4805 34.3047 31.0742 34.3047 30.6367C34.3047 30.418 34.332 30.2031 34.3867 29.9922C34.4414 29.7812 34.5156 29.582 34.6094 29.3945L34.5859 29.418C34.6328 29.3086 34.6797 29.207 34.7266 29.1133C34.7734 29.0195 34.8359 28.9336 34.9141 28.8555C35.1797 28.543 35.5 28.3008 35.875 28.1289C36.25 27.957 36.6562 27.8711 37.0938 27.8711C37.4062 27.8711 37.7109 27.918 38.0078 28.0117C38.3047 28.1055 38.5781 28.2461 38.8281 28.4336H38.8047C38.8516 28.4648 38.8945 28.4961 38.9336 28.5273C38.9727 28.5586 39.0078 28.582 39.0391 28.5977C39.0234 28.4727 39.0117 28.3398 39.0039 28.1992C38.9961 28.0586 38.9922 27.918 38.9922 27.7773C38.9922 27.6523 38.9961 27.5234 39.0039 27.3906C39.0117 27.2578 39.0234 27.1289 39.0391 27.0039V27.0508C39.0391 26.4883 39.0391 25.9258 39.0391 25.3633C39.0391 25.0664 39.043 24.7695 39.0508 24.4727C39.0586 24.1758 39.0625 23.8789 39.0625 23.582C39.0625 23.3945 39.0586 23.2031 39.0508 23.0078C39.043 22.8125 39.0391 22.6133 39.0391 22.4102C39.0391 22.3008 39.0312 22.2188 39.0156 22.1641C39 22.1094 38.9453 22.0742 38.8516 22.0586C38.5703 22.0273 38.2852 22.0195 37.9961 22.0352C37.707 22.0508 37.4375 22.0586 37.1875 22.0586C36.6562 22.043 36.1289 22.0352 35.6055 22.0352C35.082 22.0352 34.5547 22.043 34.0234 22.0586C33.9922 22.0586 33.957 22.0586 33.918 22.0586C33.8789 22.0586 33.8438 22.0586 33.8125 22.0586C33.6875 22.0586 33.5625 22.0508 33.4375 22.0352C33.3125 22.0195 33.1875 21.9961 33.0625 21.9648H33.0859C32.8516 21.9023 32.6484 21.7812 32.4766 21.6016C32.3047 21.4219 32.1953 21.207 32.1484 20.957C32.1484 20.9102 32.1445 20.8672 32.1367 20.8281C32.1289 20.7891 32.125 20.7539 32.125 20.7227C32.125 20.5664 32.1445 20.4219 32.1836 20.2891C32.2227 20.1562 32.2734 20.0273 32.3359 19.9023L32.3828 19.7852C32.4453 19.6602 32.4922 19.5234 32.5234 19.375C32.5547 19.2266 32.5781 19.082 32.5938 18.9414V18.918C32.5938 18.918 32.5938 18.9102 32.5938 18.8945C32.5938 18.8789 32.5938 18.8633 32.5938 18.8477C32.5938 18.7695 32.5898 18.6992 32.582 18.6367C32.5742 18.5742 32.5625 18.5117 32.5469 18.4492C32.4844 18.168 32.3516 17.9219 32.1484 17.7109C31.9453 17.5 31.7109 17.3477 31.4453 17.2539C31.2891 17.207 31.125 17.168 30.9531 17.1367C30.7812 17.1055 30.6094 17.0898 30.4375 17.0898C30.125 17.0898 29.832 17.1289 29.5586 17.207C29.2852 17.2852 29.0312 17.4023 28.7969 17.5586C28.6094 17.6992 28.457 17.8828 28.3398 18.1094C28.2227 18.3359 28.1641 18.582 28.1641 18.8477C28.1641 18.8633 28.1641 18.875 28.1641 18.8828C28.1641 18.8906 28.1641 18.9023 28.1641 18.918V18.8945C28.1641 19.1289 28.1836 19.3477 28.2227 19.5508C28.2617 19.7539 28.3203 19.957 28.3984 20.1602V20.1367C28.4297 20.2148 28.4531 20.3008 28.4688 20.3945C28.4844 20.4883 28.4922 20.582 28.4922 20.6758C28.4922 20.7539 28.4883 20.832 28.4805 20.9102C28.4727 20.9883 28.4531 21.0586 28.4219 21.1211C28.2344 21.5742 27.8906 21.8398 27.3906 21.918C26.8906 21.9961 26.4688 22.0352 26.125 22.0352H24.5547C24.3359 22.0352 24.1133 22.0312 23.8867 22.0234C23.6602 22.0156 23.4297 22.0117 23.1953 22.0117C23.0859 22.0117 22.9727 22.0117 22.8555 22.0117C22.7383 22.0117 22.625 22.0117 22.5156 22.0117C22.4844 22.0117 22.4531 22.0117 22.4219 22.0117C22.3906 22.0117 22.3594 22.0117 22.3281 22.0117C22.2344 22.0117 22.1445 22.0117 22.0586 22.0117C21.9727 22.0117 21.8906 22.0195 21.8125 22.0352H21.8359C21.7266 22.0508 21.6797 22.1914 21.6953 22.457C21.7109 22.7227 21.7188 22.9258 21.7188 23.0664C21.7188 23.8945 21.7109 24.7227 21.6953 25.5508L21.7188 26.0195C21.7344 26.1133 21.7461 26.207 21.7539 26.3008C21.7617 26.3945 21.7656 26.4961 21.7656 26.6055C21.7656 26.9492 21.7188 27.2773 21.625 27.5898C21.5312 27.9023 21.3984 28.1914 21.2266 28.457C20.9766 28.7227 20.6641 28.832 20.2891 28.7852C19.9141 28.7383 19.5781 28.668 19.2812 28.5742C19.2188 28.5586 19.1523 28.543 19.082 28.5273C19.0117 28.5117 18.9375 28.4961 18.8594 28.4805C18.8125 28.4805 18.7695 28.4766 18.7305 28.4688C18.6914 28.4609 18.6484 28.457 18.6016 28.457C18.3828 28.457 18.1758 28.5039 17.9805 28.5977C17.7852 28.6914 17.625 28.8164 17.5 28.9727C17.3281 29.1914 17.1953 29.4414 17.1016 29.7227C17.0078 30.0039 16.9609 30.3008 16.9609 30.6133C16.9609 30.9102 17.0078 31.1953 17.1016 31.4688C17.1953 31.7422 17.3281 31.9961 17.5 32.2305L17.4766 32.207C17.6172 32.3789 17.7812 32.5117 17.9688 32.6055C18.1562 32.6992 18.3594 32.7461 18.5781 32.7461C18.5938 32.7461 18.6094 32.7461 18.625 32.7461C18.6406 32.7461 18.6562 32.7461 18.6719 32.7461H18.6484C18.7734 32.7305 18.8945 32.7031 19.0117 32.6641C19.1289 32.625 19.2344 32.582 19.3281 32.5352C19.4844 32.4414 19.6523 32.3711 19.832 32.3242C20.0117 32.2773 20.2031 32.2539 20.4062 32.2539C20.4844 32.2539 20.5625 32.2578 20.6406 32.2656C20.7188 32.2734 20.7969 32.2852 20.875 32.3008C21.1406 32.3945 21.3477 32.5742 21.4961 32.8398C21.6445 33.1055 21.7188 33.4414 21.7188 33.8477C21.7344 34.3633 21.7383 34.8711 21.7305 35.3711C21.7227 35.8711 21.7188 36.3789 21.7188 36.8945C21.7031 37.2383 21.6953 37.582 21.6953 37.9258C21.6953 38.2695 21.6953 38.6133 21.6953 38.957C21.6953 38.957 21.6953 38.9648 21.6953 38.9805C21.6953 38.9961 21.6953 39.0039 21.6953 39.0039C21.6953 39.0352 21.6992 39.0664 21.707 39.0977C21.7148 39.1289 21.7188 39.1602 21.7188 39.1914C21.7188 39.1914 21.7344 39.1875 21.7656 39.1797C21.7969 39.1719 21.8359 39.168 21.8828 39.168Z" fill="#707070"/>
</g>
<defs>
<clipPath id="clip0_60_11695">
<rect width="24" height="24" fill="white" transform="matrix(1 0 0 -1 16 40)"/>
</clipPath>
</defs>
</svg>
