<svg width="25" height="41" viewBox="0 0 25 41" fill="none" xmlns="http://www.w3.org/2000/svg">
<g clip-path="url(#clip0_57_2481)">
<path d="M14.0684 16.993C17.1805 20.105 20.2927 23.2173 23.4052 26.3298C23.8289 26.7345 24.0745 27.291 24.0879 27.8768C24.1013 28.4626 23.8814 29.0298 23.4767 29.4535C23.0719 29.8772 22.5154 30.1227 21.9296 30.1361C21.3438 30.1495 20.7767 29.9297 20.353 29.5249L20.3051 29.477C14.0606 23.2325 7.81605 16.988 1.57152 10.7435C1.23748 10.4133 1.01728 9.98531 0.942878 9.52156C0.868477 9.05781 0.943743 8.58241 1.15775 8.16432C1.31802 7.85221 1.5503 7.58274 1.83536 7.3782C2.12042 7.17365 2.45008 7.03992 2.79707 6.98803C3.14407 6.93614 3.49844 6.96761 3.83087 7.07982C4.16329 7.19204 4.46424 7.38177 4.7088 7.63334C7.82939 10.752 10.9493 13.8719 14.0684 16.993Z" fill="#E98A0A"/>
<path d="M10.9465 16.978L20.2833 7.6412C20.6869 7.21636 21.2428 6.96926 21.8286 6.95425C22.4144 6.93924 22.9822 7.15756 23.407 7.56117C23.8318 7.96479 24.0789 8.52063 24.0939 9.10643C24.109 9.69224 23.8906 10.26 23.487 10.6849L4.74059 29.4313C4.39425 29.7987 3.93276 30.0367 3.43262 30.1059C2.93247 30.175 2.4237 30.0711 1.99066 29.8115C1.70351 29.6393 1.45932 29.4041 1.27661 29.1235C1.09391 28.843 0.977492 28.5245 0.936168 28.1923C0.894845 27.86 0.929696 27.5227 1.03811 27.206C1.14652 26.8892 1.32564 26.6013 1.56187 26.3641C3.46996 24.4474 5.38591 22.54 7.29829 20.6277L10.9465 16.978Z" fill="#E98A0A"/>
</g>
<defs>
<clipPath id="clip0_57_2481">
<rect width="24.73" height="24.73" fill="white" transform="translate(0 6.04565) scale(1.0109)"/>
</clipPath>
</defs>
</svg>
