<svg width="56" height="56" viewBox="0 0 56 56" fill="none" xmlns="http://www.w3.org/2000/svg">
<g clip-path="url(#clip0_60_11742)">
<path d="M36.8359 24.8945C36.8359 24.8945 36.8359 24.8828 36.8359 24.8594C36.8359 24.8359 36.8359 24.8164 36.8359 24.8008C36.8359 23.5977 36.6094 22.4648 36.1562 21.4023C35.6875 20.3242 35.0586 19.3906 34.2695 18.6016C33.4805 17.8125 32.5547 17.1836 31.4922 16.7148C30.4141 16.2617 29.2734 16.0352 28.0703 16.0352C26.8516 16.0352 25.7109 16.2617 24.6484 16.7148C23.5859 17.1836 22.6562 17.8125 21.8594 18.6016C21.0625 19.3906 20.4375 20.3242 19.9844 21.4023C19.5156 22.4648 19.2812 23.5977 19.2812 24.8008C19.2812 24.8164 19.2812 24.8359 19.2812 24.8594C19.2812 24.8828 19.2812 24.9023 19.2812 24.918V24.8945C18.375 24.8945 17.6016 25.2188 16.9609 25.8672C16.3203 26.5156 16 27.293 16 28.1992V30.4023C16 31.3086 16.3203 32.082 16.9609 32.7227C17.6016 33.3633 18.375 33.6836 19.2812 33.6836H20.3828C20.6797 33.6836 20.9375 33.5781 21.1562 33.3672C21.375 33.1562 21.4844 32.8945 21.4844 32.582V25.9961C21.4844 25.6992 21.375 25.4414 21.1562 25.2227C20.9375 25.0039 20.6797 24.8945 20.3828 24.8945C20.3828 23.8477 20.5859 22.8555 20.9922 21.918C21.3984 20.9805 21.9492 20.1641 22.6445 19.4688C23.3398 18.7734 24.1484 18.2305 25.0703 17.8398C26.0078 17.4336 27.0078 17.2305 28.0703 17.2305C29.1328 17.2305 30.125 17.4336 31.0469 17.8398C31.9844 18.2305 32.8008 18.7734 33.4961 19.4688C34.1914 20.1641 34.7422 20.9805 35.1484 21.918C35.5547 22.8555 35.7578 23.8477 35.7578 24.8945C35.4453 24.8945 35.1836 25.0039 34.9727 25.2227C34.7617 25.4414 34.6562 25.6992 34.6562 25.9961V32.582C34.6562 32.7539 34.6953 32.918 34.7734 33.0742C34.8516 33.2305 34.9531 33.3555 35.0781 33.4492C34.7656 34.168 34.3594 34.8203 33.8594 35.4062C33.3594 35.9922 32.7891 36.4883 32.1484 36.8945H32.125C31.9219 36.5977 31.6562 36.3555 31.3281 36.168C31 35.9805 30.6484 35.8867 30.2734 35.8867H28.0703C27.4609 35.8867 26.9414 36.0977 26.5117 36.5195C26.082 36.9414 25.8672 37.457 25.8672 38.0664C25.8672 38.6758 26.082 39.1953 26.5117 39.625C26.9414 40.0547 27.4609 40.2695 28.0703 40.2695H30.2734C30.8672 40.2695 31.3789 40.0547 31.8086 39.625C32.2383 39.1953 32.4531 38.6758 32.4531 38.0664C32.4531 38.0508 32.4531 38.0391 32.4531 38.0312C32.4531 38.0234 32.4531 38.0117 32.4531 37.9961C33.2969 37.4961 34.0352 36.8828 34.668 36.1562C35.3008 35.4297 35.8047 34.6289 36.1797 33.7539L36.2031 33.6836H36.8594C37.7656 33.6836 38.5391 33.3633 39.1797 32.7227C39.8203 32.082 40.1406 31.3086 40.1406 30.4023V28.1992C40.1406 27.293 39.8164 26.5156 39.168 25.8672C38.5195 25.2188 37.7422 24.8945 36.8359 24.8945ZM20.6875 26.418V32.2305C20.6875 32.3867 20.6367 32.5156 20.5352 32.6172C20.4336 32.7188 20.3125 32.7695 20.1719 32.7695H19.2109C18.5234 32.7695 17.9414 32.5273 17.4648 32.043C16.9883 31.5586 16.75 30.9805 16.75 30.3086V28.3633C16.75 27.6758 16.9883 27.0938 17.4648 26.6172C17.9414 26.1406 18.5234 25.9023 19.2109 25.9023H20.1719C20.3125 25.9023 20.4375 25.9531 20.5469 26.0547C20.6562 26.1562 20.7109 26.2773 20.7109 26.418H20.6875ZM31.6328 38.2773C31.5547 38.6523 31.3711 38.9609 31.082 39.2031C30.793 39.4453 30.4531 39.5664 30.0625 39.5664C30.0625 39.5664 30.0547 39.5664 30.0391 39.5664C30.0234 39.5664 30.0156 39.5664 30.0156 39.5664H28.1406C27.7344 39.5664 27.3828 39.418 27.0859 39.1211C26.7891 38.8242 26.6406 38.4727 26.6406 38.0664C26.6406 38.0195 26.6406 37.9766 26.6406 37.9375C26.6406 37.8984 26.6484 37.8633 26.6641 37.832C26.6953 37.6445 26.7578 37.4727 26.8516 37.3164C26.9453 37.1602 27.0703 37.0273 27.2266 36.918V36.8945C27.3047 36.832 27.3906 36.7773 27.4844 36.7305C27.5781 36.6836 27.6719 36.6523 27.7656 36.6367L27.7891 36.6133C27.8672 36.5977 27.957 36.582 28.0586 36.5664C28.1602 36.5508 28.2656 36.543 28.375 36.543C28.3906 36.543 28.4062 36.543 28.4219 36.543C28.4375 36.543 28.4531 36.543 28.4688 36.543H30.1328C30.5547 36.543 30.9102 36.6914 31.1992 36.9883C31.4883 37.2852 31.6328 37.6445 31.6328 38.0664C31.6328 38.0977 31.6328 38.1328 31.6328 38.1719C31.6328 38.2109 31.6328 38.2539 31.6328 38.3008V38.2773ZM39.3672 30.2383C39.3672 30.9258 39.1289 31.5078 38.6523 31.9844C38.1758 32.4609 37.5938 32.6992 36.9062 32.6992H35.9453C35.8047 32.6992 35.6836 32.6484 35.582 32.5469C35.4805 32.4453 35.4297 32.3242 35.4297 32.1836V26.3711C35.4297 26.2148 35.4805 26.0859 35.582 25.9844C35.6836 25.8828 35.8047 25.832 35.9453 25.832H36.9062C37.5938 25.832 38.1758 26.0742 38.6523 26.5586C39.1289 27.043 39.3672 27.6211 39.3672 28.293V30.2383Z" fill="#707070"/>
</g>
<defs>
<clipPath id="clip0_60_11742">
<rect width="24" height="24" fill="white" transform="matrix(1 0 0 -1 16 40)"/>
</clipPath>
</defs>
</svg>
