<svg width="929" height="1295" viewBox="0 0 929 1295" fill="none" xmlns="http://www.w3.org/2000/svg">
<g opacity="0.7" clip-path="url(#clip0_57_2714)">
<mask id="mask0_57_2714" style="mask-type:luminance" maskUnits="userSpaceOnUse" x="0" y="0" width="929" height="1295">
<path d="M929 0H0V1295H929V0Z" fill="white"/>
</mask>
<g mask="url(#mask0_57_2714)">
<g style="mix-blend-mode:multiply">
<g opacity="0.85">
<path d="M666 936.5C825.886 936.5 955.5 806.886 955.5 647C955.5 487.114 825.886 357.5 666 357.5C506.114 357.5 376.5 487.114 376.5 647C376.5 806.886 506.114 936.5 666 936.5Z" stroke="#E98A0A"/>
</g>
<g opacity="0.65">
<path d="M666 1039.5C882.772 1039.5 1058.5 863.772 1058.5 647C1058.5 430.228 882.772 254.5 666 254.5C449.228 254.5 273.5 430.228 273.5 647C273.5 863.772 449.228 1039.5 666 1039.5Z" stroke="#E98A0A"/>
</g>
<g opacity="0.45">
<path d="M666 1150.5C944.075 1150.5 1169.5 925.075 1169.5 647C1169.5 368.925 944.075 143.5 666 143.5C387.925 143.5 162.5 368.925 162.5 647C162.5 925.075 387.925 1150.5 666 1150.5Z" stroke="#E98A0A"/>
</g>
<g opacity="0.25">
<path d="M666 1279.5C1015.32 1279.5 1298.5 996.32 1298.5 647C1298.5 297.68 1015.32 14.5 666 14.5C316.68 14.5 33.5 297.68 33.5 647C33.5 996.32 316.68 1279.5 666 1279.5Z" stroke="#E98A0A"/>
</g>
<path d="M666 851.5C778.942 851.5 870.5 759.942 870.5 647C870.5 534.058 778.942 442.5 666 442.5C553.058 442.5 461.5 534.058 461.5 647C461.5 759.942 553.058 851.5 666 851.5Z" stroke="#E98A0A"/>
</g>
</g>
</g>
<defs>
<clipPath id="clip0_57_2714">
<rect width="929" height="1295" fill="white"/>
</clipPath>
</defs>
</svg>
