<svg width="28" height="32" viewBox="0 0 28 32" fill="none" xmlns="http://www.w3.org/2000/svg">
<path d="M27.4199 11.4295V29.6951C27.4216 29.8979 27.3854 30.0993 27.313 30.2889C27.2343 30.4718 27.1205 30.6375 26.9782 30.7768C26.8432 30.9237 26.6768 31.0381 26.4913 31.1116C26.3083 31.1899 26.1117 31.2314 25.9127 31.2337H1.50946C1.3113 31.2342 1.11511 31.1953 0.932034 31.1195C0.748956 31.0436 0.582725 30.9322 0.442954 30.7917C0.165482 30.5056 0.00733845 30.1246 0.000976562 29.7261V2.27421C0.00801009 1.87382 0.171253 1.49199 0.455889 1.21032C0.740525 0.928651 1.12393 0.769409 1.52435 0.766601H16.7578V9.90697C16.7558 10.1076 16.794 10.3065 16.8698 10.4922C16.9457 10.678 17.0577 10.8468 17.1995 10.9887C17.3414 11.1306 17.5102 11.2428 17.6959 11.3187C17.8817 11.3945 18.0808 11.4324 18.2814 11.4304L27.4199 11.4295ZM27.4199 8.38227H19.8028V0.765625L27.4199 8.38227ZM7.61734 8.38227V11.4295H12.1865V8.38227H7.61734ZM7.61734 14.4806V17.5268H19.8028V14.4806H7.61734ZM7.61734 20.5789V23.6258H19.8028V20.5789H7.61734Z" fill="#FCCBF7"/>
</svg>
