<svg width="28" height="23" viewBox="0 0 28 23" fill="none" xmlns="http://www.w3.org/2000/svg">
<path fill-rule="evenodd" clip-rule="evenodd" d="M5.95639 1.56795e-07H5.92349H5.92346C5.04256 -6.45834e-06 4.33497 -1.17723e-05 3.76259 0.0467539C3.17417 0.0948291 2.66173 0.196107 2.18901 0.436967C1.43465 0.821334 0.821334 1.43465 0.436967 2.18901C0.196106 2.66173 0.0948288 3.17417 0.0467536 3.76259C-1.2308e-05 4.33497 -6.75074e-06 5.04257 1.67779e-07 5.92348V5.92349V5.95639V6.10909C1.67779e-07 6.53084 0.341892 6.87273 0.763637 6.87273C1.18538 6.87273 1.52727 6.53084 1.52727 6.10909V5.95639C1.52727 5.03497 1.52787 4.38984 1.56895 3.88696C1.60931 3.39299 1.6849 3.10391 1.79778 2.88238C2.03572 2.41539 2.41539 2.03572 2.88238 1.79778C3.10391 1.6849 3.39299 1.60931 3.88696 1.56895C4.38983 1.52787 5.03497 1.52727 5.95639 1.52727H7.38182C7.80356 1.52727 8.14545 1.18538 8.14545 0.763637C8.14545 0.341893 7.80356 1.56795e-07 7.38182 1.56795e-07H5.95639ZM22.0436 1.52727C22.965 1.52727 23.6102 1.52787 24.113 1.56895C24.607 1.60931 24.8961 1.6849 25.1176 1.79778C25.5846 2.03572 25.9643 2.41539 26.2022 2.88238C26.3151 3.10391 26.3907 3.39299 26.431 3.88696C26.4721 4.38984 26.4727 5.03497 26.4727 5.95639V6.10909C26.4727 6.53084 26.8146 6.87273 27.2364 6.87273C27.6581 6.87273 28 6.53084 28 6.10909V5.95639V5.92347C28 5.04257 28 4.33497 27.9532 3.76259C27.9052 3.17417 27.8039 2.66173 27.563 2.18901C27.1787 1.43465 26.5654 0.821334 25.811 0.436967C25.3383 0.196107 24.8258 0.0948291 24.2374 0.0467539C23.665 -1.17719e-05 22.9574 -6.45834e-06 22.0765 1.56795e-07H22.0765H22.0436H20.6182C20.1964 1.56795e-07 19.8545 0.341893 19.8545 0.763637C19.8545 1.18538 20.1964 1.52727 20.6182 1.52727H22.0436ZM1.52727 16.8C1.52727 16.3783 1.18538 16.0364 0.763637 16.0364C0.341892 16.0364 1.67779e-07 16.3783 1.67779e-07 16.8V16.9527V16.9856C-6.75069e-06 17.8665 -1.25161e-05 18.5741 0.0467536 19.1465C0.0948288 19.7349 0.196106 20.2474 0.436967 20.7201C0.821334 21.4744 1.43465 22.0878 2.18901 22.4721C2.66173 22.713 3.17417 22.8143 3.76259 22.8623C4.33497 22.9091 5.04257 22.9091 5.92347 22.9091H5.95639H7.38182C7.80356 22.9091 8.14545 22.5672 8.14545 22.1455C8.14545 21.7237 7.80356 21.3818 7.38182 21.3818H5.95639C5.03497 21.3818 4.38983 21.3812 3.88696 21.3401C3.39299 21.2998 3.10391 21.2242 2.88238 21.1113C2.41539 20.8734 2.03572 20.4937 1.79778 20.0267C1.6849 19.8052 1.60931 19.5161 1.56895 19.0221C1.52787 18.5193 1.52727 17.8741 1.52727 16.9527V16.8ZM28 16.8C28 16.3783 27.6581 16.0364 27.2364 16.0364C26.8146 16.0364 26.4727 16.3783 26.4727 16.8V16.9527C26.4727 17.8741 26.4721 18.5193 26.431 19.0221C26.3907 19.5161 26.3151 19.8052 26.2022 20.0267C25.9643 20.4937 25.5846 20.8734 25.1176 21.1113C24.8961 21.2242 24.607 21.2998 24.113 21.3401C23.6102 21.3812 22.965 21.3818 22.0436 21.3818H20.6182C20.1964 21.3818 19.8545 21.7237 19.8545 22.1455C19.8545 22.5672 20.1964 22.9091 20.6182 22.9091H22.0436H22.0765C22.9574 22.9091 23.665 22.9091 24.2374 22.8623C24.8258 22.8143 25.3383 22.713 25.811 22.4721C26.5654 22.0878 27.1787 21.4744 27.563 20.7201C27.8039 20.2474 27.9052 19.7349 27.9532 19.1465C28 18.5741 28 17.8665 28 16.9856V16.9527V16.8ZM4.85834 7.63636C4.88578 7.1871 4.94744 6.86837 5.08606 6.59631C5.30569 6.16525 5.65616 5.81479 6.08722 5.59515C6.57727 5.34545 7.21879 5.34545 8.50182 5.34545H19.4982C20.7812 5.34545 21.4227 5.34545 21.9128 5.59515C22.3438 5.81479 22.6943 6.16525 22.9139 6.59631C23.0526 6.86837 23.1142 7.1871 23.1417 7.63636H4.85834ZM4.83636 9.92727H23.1636V13.8982C23.1636 15.1812 23.1636 15.8227 22.9139 16.3128C22.6943 16.7438 22.3438 17.0943 21.9128 17.3139C21.4227 17.5636 20.7812 17.5636 19.4982 17.5636H8.50182C7.21879 17.5636 6.57727 17.5636 6.08722 17.3139C5.65616 17.0943 5.30569 16.7438 5.08606 16.3128C4.83636 15.8227 4.83636 15.1812 4.83636 13.8982V9.92727ZM10.9455 14.5091H6.36364V16.0364H10.9455V14.5091Z" fill="#929DA9"/>
</svg>
