<svg width="32" height="32" viewBox="0 0 32 32" fill="none" xmlns="http://www.w3.org/2000/svg">
<path d="M16.0001 31.9996C12.8356 31.9997 9.74216 31.0614 7.11094 29.3034C4.47973 27.5453 2.42894 25.0465 1.21793 22.1229C0.00691703 19.1993 -0.309928 15.9822 0.307465 12.8786C0.924858 9.77488 2.44876 6.92399 4.68645 4.68642C7.68688 1.68585 11.7564 9.37692e-05 15.9997 3.91178e-09C20.2431 -9.37614e-05 24.3127 1.68548 27.3133 4.68592C30.3138 7.68635 31.9996 11.7559 31.9997 15.9992C31.9998 20.2426 30.3142 24.3122 27.3138 27.3127C25.8314 28.803 24.0682 29.9846 22.1263 30.7891C20.1843 31.5936 18.1021 32.005 16.0001 31.9996ZM13.4662 18.459C12.907 18.4521 12.3524 18.5613 11.8376 18.7797C11.3228 18.9982 10.8589 19.321 10.4753 19.728C10.085 20.1154 9.7751 20.576 9.56318 21.0834C9.35126 21.5908 9.24154 22.135 9.24031 22.6849V24.3758H22.7629V22.6849C22.7603 21.5747 22.3168 20.5111 21.5299 19.728C21.1459 19.3216 20.6819 18.999 20.1672 18.7807C19.6525 18.5623 19.0981 18.4528 18.539 18.459H13.4662ZM16.0001 6.62536C15.3316 6.63919 14.6721 6.78249 14.0582 7.04734C13.4368 7.28805 12.8767 7.66375 12.4182 8.14731C11.9418 8.59851 11.5668 9.14596 11.3182 9.75326C11.061 10.3692 10.9285 11.0302 10.9285 11.6977C10.9285 12.3652 11.061 13.0262 11.3182 13.6421C11.5659 14.2499 11.941 14.7975 12.4182 15.2481C12.8771 15.7311 13.4371 16.1068 14.0582 16.3481C14.6719 16.6134 15.3316 16.756 16.0001 16.768C16.6706 16.7768 17.3355 16.6461 17.9528 16.3842C18.5701 16.1224 19.1262 15.7352 19.586 15.2471C20.0572 14.7837 20.4314 14.2312 20.6868 13.6217C20.9423 13.0123 21.0738 12.358 21.0738 11.6972C21.0738 11.0364 20.9423 10.3821 20.6868 9.77266C20.4314 9.16319 20.0572 8.61067 19.586 8.14731C19.1263 7.65904 18.5702 7.27163 17.9529 7.00963C17.3356 6.74763 16.6706 6.61678 16.0001 6.62536Z" fill="#FCCBF7"/>
</svg>
