<svg width="27" height="24" viewBox="0 0 27 24" fill="none" xmlns="http://www.w3.org/2000/svg">
<g clip-path="url(#clip0_57_2797)">
<path d="M23.9886 12.4079C22.7067 11.9517 21.3215 11.8685 19.9941 12.168C18.6676 12.468 17.4531 13.1377 16.4913 14.0995C15.5295 15.0613 14.8599 16.2759 14.5596 17.6027C14.2606 18.9304 14.3441 20.3157 14.8006 21.5979H1.19375C1.03583 21.5994 0.87905 21.5693 0.732862 21.5095C0.586673 21.4498 0.454017 21.3616 0.342345 21.2499C0.230673 21.1382 0.142245 21.0052 0.0824933 20.859C0.0227413 20.7128 -0.00732699 20.5562 -0.00584659 20.3983V1.20163C-0.00746404 1.04364 0.0225438 0.886924 0.0822472 0.740644C0.141951 0.594364 0.230154 0.461524 0.341853 0.349802C0.453553 0.23808 0.586611 0.149736 0.732862 0.0900205C0.879112 0.0303049 1.0358 0.000414099 1.19375 0.00203188H22.7851C22.943 0.000551181 23.0998 0.0306256 23.246 0.0903897C23.3922 0.150154 23.5248 0.238354 23.6365 0.350048C23.7482 0.461743 23.8366 0.594672 23.8964 0.74089C23.9561 0.887108 23.9859 1.04368 23.9845 1.20163L23.9886 12.4079ZM12.065 10.4169L4.37571 3.89039L2.81635 5.71403L12.077 13.5844L21.1694 5.71403L19.6103 3.89039L12.065 10.4169ZM22.7893 17.9999H26.3883V20.3993H22.7893V23.9992H20.3903V20.3993H16.792V17.9999H20.3903V14.3999H22.7893V17.9999Z" fill="#727272"/>
</g>
<defs>
<clipPath id="clip0_57_2797">
<rect width="26.17" height="23.8" fill="white" transform="scale(1.00841)"/>
</clipPath>
</defs>
</svg>
