<svg width="14" height="10" viewBox="0 0 14 10" fill="none" xmlns="http://www.w3.org/2000/svg">
<g clip-path="url(#clip0_1_1054)">
<path d="M9 7.86621C8.95443 7.86621 8.90885 7.85645 8.86328 7.83691C8.81771 7.81738 8.77865 7.78809 8.74609 7.74902L4.10742 2.9541C4.07487 2.92155 4.04883 2.88249 4.0293 2.83691C4.00977 2.79134 4 2.74577 4 2.7002C4 2.60254 4.03581 2.5179 4.10742 2.44629C4.17904 2.37467 4.26367 2.33887 4.36133 2.33887C4.41341 2.33887 4.46224 2.34863 4.50781 2.36816C4.55339 2.3877 4.59245 2.41699 4.625 2.45605L9 6.9873L13.4531 2.37793C13.4857 2.34538 13.5247 2.31771 13.5703 2.29492C13.6159 2.27214 13.6647 2.26074 13.7168 2.26074C13.8145 2.26074 13.8991 2.29655 13.9707 2.36816C14.0423 2.43978 14.0781 2.52441 14.0781 2.62207C14.0781 2.67415 14.0684 2.72135 14.0488 2.76367C14.0293 2.80599 14.0033 2.84342 13.9707 2.87598L9.26367 7.74902C9.23112 7.78809 9.19206 7.81738 9.14648 7.83691C9.10091 7.85645 9.05208 7.86621 9 7.86621Z" fill="white"/>
</g>
<defs>
<clipPath id="clip0_1_1054">
<rect width="10" height="10" fill="white" transform="matrix(1 0 0 -1 4 10)"/>
</clipPath>
</defs>
</svg>
