<svg width="48" height="32" viewBox="0 0 48 32" fill="none" xmlns="http://www.w3.org/2000/svg">
<g clip-path="url(#clip0_30_10016)">
<g clip-path="url(#clip1_30_10016)">
<g clip-path="url(#clip2_30_10016)">
<mask id="mask0_30_10016" style="mask-type:luminance" maskUnits="userSpaceOnUse" x="0" y="0" width="32" height="32">
<path d="M0 0H32V32H0V0Z" fill="white"/>
</mask>
<g mask="url(#mask0_30_10016)">
<path d="M-16 0H48.0013V32.0006H-16V0Z" fill="#000066"/>
<path d="M-16 0V3.57779L40.846 32.0008H48.0013V28.423L-8.84467 0.000192H-16V0ZM48.0013 0V3.5776L-8.84467 32.0006H-16V28.423L40.846 0H48.0013Z" fill="black"/>
<path d="M10.6672 0V32.0006H21.3341V0H10.6672ZM-16 10.6669V21.3338H48.0013V10.6669H-16Z" fill="black"/>
<path d="M-16 12.8003V19.2004H48.0013V12.8003H-16ZM12.8006 0V32.0006H19.2006V0H12.8006ZM-16 32.0006L5.33376 21.3338H10.104L-11.2298 32.0006H-16ZM-16 0L5.33376 10.6669H0.56352L-16 2.38528V0ZM21.8973 10.6669L43.231 0H48.0013L26.6675 10.6669H21.8973ZM48.0013 32.0006L26.6675 21.3338H31.4378L48.0013 29.6156V32.0006Z" fill="#CC0000"/>
</g>
</g>
</g>
</g>
<defs>
<clipPath id="clip0_30_10016">
<rect width="32" height="32" rx="16" fill="white"/>
</clipPath>
<clipPath id="clip1_30_10016">
<rect width="32" height="32" fill="white"/>
</clipPath>
<clipPath id="clip2_30_10016">
<rect width="32" height="32" fill="white"/>
</clipPath>
</defs>
</svg>
