<svg width="53" height="46" viewBox="0 0 53 46" fill="none" xmlns="http://www.w3.org/2000/svg">
<path d="M26.4308 9.5483C33.0731 9.5483 38.47 14.9452 38.47 21.5875C38.47 23.1097 38.1932 24.6319 37.6397 26.0157L44.6971 33.0731C48.295 30.0287 51.2011 26.1541 53 21.5875C48.8486 10.9321 38.47 3.45953 26.4308 3.45953C23.1097 3.45953 19.7885 4.01305 16.8825 5.1201L22.141 10.3786C23.3864 9.96345 24.9086 9.5483 26.4308 9.5483ZM2.35248 3.04439L7.88773 8.57964L8.99478 9.68668C4.98172 12.7311 1.79896 16.8825 0 21.7259C4.15144 32.3812 14.53 39.8538 26.5692 39.8538C30.3055 39.8538 33.9034 39.1619 37.0862 37.7781L38.0548 38.7467L45.1123 45.8042L48.1567 42.7598L5.39687 0L2.35248 3.04439ZM15.6371 16.329L19.3734 20.0653C19.235 20.6188 19.235 21.0339 19.235 21.5875C19.235 25.6005 22.4178 28.7833 26.4308 28.7833C26.9843 28.7833 27.5379 28.6449 27.953 28.6449L31.6893 32.3812C30.0287 33.2115 28.2298 33.6266 26.4308 33.6266C19.7885 33.6266 14.3916 28.2298 14.3916 21.5875C14.3916 19.7885 14.8068 17.9896 15.6371 16.329ZM26.0157 14.53L33.6266 22.141V21.7259C33.6266 17.7128 30.4439 14.53 26.4308 14.53H26.0157Z" fill="white"/>
</svg>
