<svg width="24" height="24" viewBox="0 0 24 24" fill="none" xmlns="http://www.w3.org/2000/svg">
<g clip-path="url(#clip0_57_1390)">
<path d="M6.43676 15.5402H6.25286C5.88504 15.6321 5.42527 15.816 5.42527 16.3678C5.42527 16.8275 5.51722 17.2873 5.70113 17.6551C6.1609 18.8505 6.98849 19.7701 8.27584 20.4137C8.82757 20.6896 9.37929 20.8735 9.93102 21.0574L10.7586 21.3333L11.0345 21.4252V22.3448C11.0345 22.7126 11.2184 22.9885 11.4023 23.1724C11.6781 23.3563 12.046 23.4482 12.3218 23.2643C12.5977 23.1724 12.8735 22.8965 12.8735 22.6206C12.9655 22.4367 12.9655 22.1609 12.9655 21.885V21.1494L13.6092 20.9655C13.7931 20.8735 13.977 20.8735 14.1609 20.7816C15.0804 20.5976 15.8161 20.1379 16.4598 19.5862L16.6437 19.4022C17.3793 18.6666 18.1149 18.0229 18.3908 17.0114C18.8506 15.0804 18.3908 13.6091 17.1034 12.5057C16.4598 11.954 15.7241 11.5862 14.8965 11.3103C14.0689 11.0344 13.1494 10.8505 12.2299 10.5747L11.2184 10.2988C10.2069 10.0229 9.28734 9.74707 8.45975 9.19535C7.90803 8.82753 7.54021 8.18385 7.44826 7.54018C7.3563 7.35627 7.54021 6.80454 7.90803 6.34477C8.27584 5.97696 8.64366 5.60914 9.01148 5.42523C10.5747 4.50569 12.3218 4.32179 14.3448 5.14937C15.4483 5.51719 16.1839 6.34477 16.5517 7.44822C16.6437 7.72408 16.7356 7.90799 16.8276 8.18385C16.9195 8.18385 17.0115 8.27581 17.0115 8.27581C17.3793 8.45972 17.7471 8.55167 18.1149 8.27581C18.4827 8.0919 18.5747 7.81604 18.5747 7.44822C18.5747 6.8965 18.3908 6.34477 18.1149 5.79305C17.1954 4.22983 15.908 3.31029 13.977 2.75857L13.0575 2.57466V1.93098V1.47121C13.0575 0.827533 12.5977 0.459717 12.046 0.459717C11.8621 0.459717 11.2184 0.459717 11.1264 1.47121V2.57466L10.2069 2.75857C9.93102 2.85052 9.5632 2.94248 9.28734 3.03443C7.54021 3.67811 6.43676 4.59765 5.88504 5.885C5.14941 7.44822 5.24136 8.82753 6.06895 10.0229C6.62067 10.8505 7.3563 11.4022 8.3678 11.862C9.37929 12.3218 10.3908 12.5976 11.4942 12.7816L12.2299 12.9655C13.1494 13.1494 14.0689 13.5172 14.8965 13.793C15.4483 13.977 16 14.4367 16.2758 14.8965C16.9195 15.908 16.5517 17.2873 15.5402 18.1149C14.3448 19.0344 12.9655 19.4022 11.3103 19.2183C9.10343 18.9425 7.81607 17.931 7.3563 15.9999C7.1724 15.7241 6.89653 15.5402 6.43676 15.5402Z" fill="black"/>
</g>
<defs>
<clipPath id="clip0_57_1390">
<rect width="24" height="24" fill="white"/>
</clipPath>
</defs>
</svg>
