<svg width="14" height="16" viewBox="0 0 14 16" fill="none" xmlns="http://www.w3.org/2000/svg">
<path d="M1.55559 10.9038H10.1116C10.3179 10.9038 10.5158 10.8219 10.6617 10.6759C10.8076 10.5299 10.8896 10.3314 10.8896 10.125C10.8896 9.91849 10.8076 9.72055 10.6617 9.57455C10.5158 9.42855 10.3179 9.34666 10.1116 9.34666H3.88948C2.85818 9.34666 1.86916 8.93647 1.13992 8.20676C0.410679 7.47704 0.00100308 6.48762 0.00100308 5.45565C0.00100308 4.42368 0.410679 3.43376 1.13992 2.70404C1.86916 1.97433 2.85818 1.56463 3.88948 1.56463H5.44558V0.00852619H8.55651V1.56563H12.4447V4.67885H3.88948C3.68314 4.67885 3.48533 4.76073 3.33942 4.90673C3.19351 5.05273 3.11144 5.25067 3.11144 5.45715C3.11144 5.66363 3.19351 5.86157 3.33942 6.00757C3.48533 6.15357 3.68314 6.23545 3.88948 6.23545H10.1116C11.1429 6.23545 12.1319 6.64565 12.8612 7.37536C13.5904 8.10508 14.0001 9.0945 14.0001 10.1265C14.0001 11.1584 13.5904 12.1484 12.8612 12.8781C12.1319 13.6078 11.1429 14.018 10.1116 14.018H8.55551V15.5746H5.44457V14.018H1.55559V10.9038Z" fill="#E98A0A"/>
</svg>
