<svg width="32" height="16" viewBox="0 0 32 16" fill="none" xmlns="http://www.w3.org/2000/svg">
<g clip-path="url(#clip0_60_11705)">
<path d="M16.5781 12.5703C16.5677 12.5703 16.5625 12.5703 16.5625 12.5703C16.4062 12.5703 16.2734 12.513 16.1641 12.3984C16.0547 12.2839 16 12.1484 16 11.9922C16 11.9193 16.013 11.849 16.0391 11.7812C16.0651 11.7135 16.1042 11.6536 16.1562 11.6016L23.6875 3.80469C23.7396 3.7526 23.8021 3.71094 23.875 3.67969C23.9479 3.64844 24.0208 3.63281 24.0938 3.63281C24.1771 3.63281 24.2552 3.64844 24.3281 3.67969C24.401 3.71094 24.4635 3.7526 24.5156 3.80469L31.9219 11.4766C31.974 11.5286 32.0156 11.5911 32.0469 11.6641C32.0781 11.737 32.0938 11.8099 32.0938 11.8828C32.0938 12.0495 32.0391 12.1875 31.9297 12.2969C31.8203 12.4062 31.6875 12.4609 31.5312 12.4609C31.4479 12.4609 31.3698 12.4453 31.2969 12.4141C31.224 12.3828 31.1615 12.3359 31.1094 12.2734H31.0938L24.0938 5.02344L16.9844 12.3984C16.9323 12.4505 16.8698 12.4922 16.7969 12.5234C16.724 12.5547 16.651 12.5703 16.5781 12.5703Z" fill="#707070"/>
</g>
<defs>
<clipPath id="clip0_60_11705">
<rect width="16" height="16" fill="white" transform="matrix(1 0 0 -1 16 16)"/>
</clipPath>
</defs>
</svg>
