<svg width="80" height="80" viewBox="0 0 80 80" fill="none" xmlns="http://www.w3.org/2000/svg">
<g clip-path="url(#clip0_30_11627)">
<path d="M29.5408 75.0208C28.914 73.7684 28.2828 72.5176 27.6576 71.2648C27.4052 70.7588 27.206 70.2092 26.8672 69.7696C25.892 68.498 23.9956 68.294 23.5604 69.3884C23.2004 70.296 22.8436 71.2036 22.488 72.1128C24.7319 73.3239 27.0955 74.2984 29.5408 75.0208ZM35.5728 55.076C35.3591 55.0344 35.1454 54.9929 34.9316 54.9516C34.7672 55.7944 34.6036 56.6384 34.4392 57.4824L35.12 57.61L35.5728 55.076ZM12.5656 35.7292C12.3124 35.8684 12.048 36.5276 12.1648 36.7204C13.3304 38.662 13.1852 40.8728 13.5604 42.9748C13.9432 45.1104 14.7688 47.0512 16.2824 49.134C17.2492 46.3196 18.4004 44.0244 18.1368 41.2656C17.9788 39.6196 18.336 37.9288 18.4112 36.2556C18.4608 35.1508 18.4196 34.0416 18.4196 32.6984C16.392 33.736 14.458 34.694 12.5656 35.7292Z" fill="#EAE4E9"/>
<path d="M22.1548 53.3528C22.3704 53.0476 22.694 52.7408 22.7364 52.4056C23.0172 50.174 22.7988 47.994 21.908 45.5304C21.652 46.1524 21.5372 46.4332 21.4224 46.7136C20.4224 49.15 19.5044 51.6252 18.372 53.998C18.03 54.7136 17.1352 55.504 16.4176 55.5852C15.9152 55.6424 15.2832 54.5524 14.7104 53.9724C14.6788 53.9408 14.664 53.8904 14.648 53.8468C13.63 50.922 12.5804 48.0072 11.6068 45.0676C11.12 43.5952 10.6936 42.1696 9.52524 40.9968C8.79964 40.2688 8.37804 39.1808 8.00724 38.1848C7.86444 37.8044 8.13484 37.1616 8.40124 36.7596C8.95524 35.92 9.63284 35.1608 10.1684 34.4844C10.4688 34.6688 11.1496 35.3812 11.4768 35.2444C15.4004 33.6076 18.342 30.7052 18.9456 26.5608C19.3612 23.7124 19.9284 21.41 22.2896 19.7252C22.4 19.6456 22.4612 19.5004 22.5592 19.4C23.6212 18.3032 25.8384 18.088 26.9292 18.9516C27.9928 19.794 29.1208 20.5616 30.1332 21.46C30.8204 22.0692 31.4624 22.784 31.9416 23.5648C33.3664 25.8852 33.8584 28.4728 33.9696 31.1704C34.0372 32.8112 33.9968 34.5684 36.3152 34.896C37.3732 35.046 37.7124 35.9116 37.6568 36.9164C37.544 38.9624 37.8108 40.8924 38.688 42.8132C39.0348 43.5732 38.5248 44.7372 38.368 45.7124C38.1948 46.7856 37.824 47.8516 37.818 48.9228C37.8084 50.6072 38.386 52.3596 38.0852 53.9652C37.3708 57.778 36.2768 61.5192 35.368 65.2968C35.2564 65.7616 35.2328 66.2996 35.3492 66.758C35.7876 68.4892 36.362 70.186 36.7728 71.9216C37.1288 73.4248 37.4544 74.9368 37.7808 76.4476C38.4944 76.4892 39.212 76.5096 39.9324 76.5096C42.5004 76.5096 45.0292 76.2488 47.4992 75.7312C47.4508 74.9448 47.398 74.0996 47.3408 73.196C47.3408 73.1 47.6492 71.8268 48.2668 69.3768C48.1248 69.3296 47.7916 69.3048 47.2692 69.3048C46.6512 69.3532 46.2712 69.3532 46.1288 69.3048V66.9988C46.1752 66.134 46.1288 65.462 45.9864 64.9812C45.8908 64.7416 45.5816 64.0932 45.06 63.0356C44.5848 62.1716 44.3228 61.404 44.276 60.7304C44.2303 60.6368 44.1551 60.5608 44.062 60.514C43.9668 60.514 43.8952 60.4416 43.8484 60.298C43.658 59.53 42.9688 58.1368 41.782 56.1192C40.6412 54.2456 39.952 52.6608 39.7148 51.3636C39.5724 50.4516 39.548 48.5776 39.6436 45.7432C39.7384 43.2936 39.8576 41.6608 40.0004 40.8436C40.0948 40.4596 40.2852 39.7876 40.5704 38.826C40.8076 38.01 40.95 37.3612 40.9976 36.8808C41.3772 33.4224 41.4964 31.8372 41.3544 32.1252C41.782 31.1164 42.5896 30.6608 43.7776 30.7564C46.39 29.5076 48.1008 27.9948 48.9092 26.2168C48.6236 25.8816 49.6212 26.962 51.9016 29.4588C52.5668 30.228 52.8752 30.612 52.8284 30.612C52.9704 30.612 53.1136 30.516 53.256 30.3236C53.3984 30.1796 53.5408 30.156 53.6836 30.2516C54.0632 30.6364 54.8948 33.11 56.1776 37.6728C56.4628 33.782 55.964 30.9244 54.6808 29.0988C54.6808 28.9548 54.728 28.8352 54.8236 28.7384C54.9652 28.6428 55.0372 28.5708 55.0372 28.522C51.8536 26.0256 50.1432 24.68 49.9056 24.4876C50.3332 23.4792 50.5228 22.6628 50.476 22.038C50.476 21.894 50.4284 21.6776 50.3336 21.3892C50.238 21.1496 50.1912 20.9568 50.1912 20.8132C49.906 19.084 50.0956 17.5712 50.7616 16.2736C51.4264 14.9772 52.4472 14.2568 53.826 14.1124C56.296 13.8236 58.5532 14.5692 60.5964 16.346C60.6908 16.5872 60.834 16.8504 61.024 17.1384C61.2136 17.5232 61.3328 17.7632 61.3804 17.8592C61.5232 18.3396 61.2848 18.772 60.668 19.156L61.0244 19.8044C61.0244 19.8044 60.8824 20.3088 60.5968 21.3176C60.644 21.366 60.8824 21.3176 61.3096 21.1736C61.6896 21.0296 61.998 21.0544 62.236 21.2456C62.3304 21.2456 62.4252 21.1736 62.5208 21.0296C62.5673 20.9824 62.623 20.9452 62.6844 20.9203C62.7459 20.8955 62.8118 20.8835 62.878 20.8852C63.1148 20.8852 63.376 20.9576 63.6616 21.102C63.756 21.102 63.8512 21.03 63.9468 20.8852C63.9936 20.7416 64.1128 20.694 64.3032 20.7416C64.4924 20.79 64.8964 20.8384 65.5148 20.8852C66.0372 20.934 66.4164 21.006 66.6552 21.102C67.2252 21.9664 67.6284 23.144 67.8664 24.6324C68.1988 24.8248 68.7684 25.4248 69.5768 26.4336C70.2416 27.2508 70.9308 27.7552 71.644 27.9464C72.7844 31.4536 73.782 35.296 74.6368 39.4752C73.9244 40.5324 72.3796 41.06 70.0044 41.06C69.4356 41.06 67.0236 40.75 62.7684 40.1284C62.8044 40.32 62.8412 41.1104 62.8776 42.5016C62.924 42.838 62.8776 43.3908 62.7348 44.1588C62.6396 44.8796 62.616 45.4556 62.6632 45.888C62.6632 45.9364 63.0668 47.4256 63.8748 50.3552C64.1596 51.508 64.4684 53.0696 64.8012 55.0384C65.1808 57.2972 65.466 58.882 65.6568 59.7944C65.7036 60.0824 65.846 60.6588 66.084 61.5236C66.274 62.244 66.4156 62.7972 66.5116 63.1808C66.638 64.0164 66.5836 64.722 66.35 65.2992C69.4985 62.0493 72.017 58.2438 73.778 54.0756C75.6928 49.548 76.6644 44.7372 76.6644 39.7784C76.6644 34.8192 75.6928 30.0088 73.778 25.4808C71.9276 21.1068 69.2792 17.1788 65.9052 13.8048C62.5316 10.4312 58.6032 7.78281 54.2292 5.93281C49.7016 4.01761 44.8908 3.04681 39.932 3.04681C34.9728 3.04681 30.1628 4.01761 25.6344 5.93281C21.2604 7.78281 17.3324 10.4316 13.9588 13.8048C10.5852 17.1788 7.93644 21.1068 6.08644 25.4808C4.17124 30.0088 3.20044 34.8188 3.20044 39.7784C3.20044 44.7372 4.17164 49.548 6.08644 54.0756C7.93644 58.4496 10.5852 62.378 13.9588 65.7512C14.2528 66.0452 14.5508 66.3328 14.8524 66.6156C15.1912 64.8824 15.6356 63.1732 16.4132 61.6624C17.9436 58.6944 20.2092 56.1068 22.1548 53.3528Z" fill="#EAE4E9"/>
<path d="M62.236 24.1996C62.7108 24.4408 62.9956 24.2964 63.0912 23.7672C62.3308 23.7672 62.0688 23.36 62.3072 22.5424C62.2116 22.4468 62.0688 22.3984 61.88 22.3984C61.6896 22.3512 61.5704 22.3264 61.5236 22.3264C61.57 22.6148 61.5236 22.9276 61.3808 23.2628C61.5236 23.6484 61.8084 23.96 62.236 24.1996ZM64.8016 32.846C65.1354 32.9118 65.468 32.9838 65.7992 33.062C66.8512 33.4872 67.4496 33.7556 67.596 33.8672C67.7064 33.39 67.512 32.7136 67.0108 31.8372C66.3448 30.6844 65.9416 29.892 65.7992 29.4596C65.3672 27.976 65.1704 27.206 65.21 27.1496C63.9364 26.862 62.9684 26.4796 62.3068 26.0012C62.2053 25.7989 62.086 25.606 61.9504 25.4248C61.712 25.3292 61.4272 25.0644 61.0952 24.6324C60.7804 24.27 60.4876 24.036 60.2168 23.9296C60.2448 24.0748 60.2056 24.6212 60.0976 25.5692H58.886V26.434C58.6952 26.4824 58.6008 26.554 58.6008 26.65C58.6476 26.7468 58.6476 26.8192 58.6008 26.8664C58.5557 26.9604 58.4805 27.0365 58.3872 27.0828C58.2448 27.1312 58.1488 27.2032 58.102 27.2992L57.3184 28.8124H56.8192C56.5808 28.7648 56.4148 28.7648 56.3204 28.8124C56.3672 28.8124 56.4148 28.8372 56.4628 28.8844C56.5092 28.9328 56.5572 28.9568 56.6048 28.9568L56.32 29.7492C56.32 29.7492 56.7232 30.83 57.5312 32.9916C57.4836 32.656 57.3644 31.9828 57.1748 30.974C57.0324 30.1096 56.9364 29.4608 56.89 29.0284L60.0256 29.5332C59.8832 29.5332 61.166 30.542 63.874 32.5592C64.0644 32.6544 64.3744 32.7504 64.8016 32.846ZM47.2696 48.3368C47.3644 48.818 47.2696 49.4428 46.9848 50.2108C46.6516 50.98 46.5092 51.5076 46.5572 51.7964C46.6036 51.94 46.628 52.012 46.628 52.012C46.628 52.012 46.7228 52.1328 46.9136 52.3728C47.1028 52.7092 47.222 52.9488 47.27 53.0928L47.6264 54.1012C48.6704 51.46 48.5524 49.5384 47.2696 48.3368Z" fill="#EAE4E9"/>
<path d="M22.1628 72.9452L21.8368 73.7808C22.8494 74.3202 23.8857 74.8142 24.9424 75.2612C26.7765 76.0373 28.6684 76.6693 30.6008 77.1512C30.4268 76.7984 30.2524 76.446 30.0772 76.094C27.3276 75.3495 24.6722 74.2931 22.1628 72.9452ZM37.9756 77.3488C38.0408 77.6484 38.106 77.9484 38.172 78.248C38.7568 78.2736 39.3436 78.288 39.9324 78.288C42.51 78.2901 45.0815 78.0347 47.6084 77.5256C47.5912 77.236 47.5732 76.9364 47.554 76.6264C45.0462 77.1415 42.4925 77.4004 39.9324 77.3992C39.2798 77.3987 38.6273 77.3819 37.9756 77.3488ZM75.4164 54.7676C77.4248 50.02 78.4428 44.976 78.4428 39.7776C78.4428 34.5792 77.4244 29.5356 75.4164 24.7872C73.4764 20.2012 70.7 16.0828 67.1632 12.5464C63.6272 9.01001 59.5084 6.23321 54.9228 4.29401C50.1744 2.28561 45.1308 1.26721 39.9324 1.26721C34.734 1.26721 29.6908 2.28561 24.942 4.29401C20.3564 6.23361 16.238 9.01041 12.7012 12.5464C9.16476 16.0828 6.38796 20.2012 4.44876 24.7872C2.44076 29.5356 1.42236 34.5792 1.42236 39.7776C1.42236 44.976 2.44076 50.0196 4.44916 54.7676C6.38876 59.3536 9.16556 63.4724 12.7016 67.0088C13.2784 67.5853 13.8731 68.1437 14.4848 68.6832C14.5428 68.3404 14.6016 67.994 14.6624 67.6484C7.07596 60.7656 2.31156 50.828 2.31156 39.7776C2.31156 19 19.1548 2.15641 39.9324 2.15641C60.7096 2.15641 77.5532 18.9996 77.5532 39.7776C77.5532 50.4268 73.1284 60.0424 66.0168 66.8864L66.2024 67.9368C66.5277 67.6328 66.8479 67.3233 67.1628 67.0084C70.7 63.4724 73.4764 59.3536 75.4164 54.7676Z" fill="#B21A9D"/>
<path d="M39.9328 76.5092C39.2124 76.5092 38.4948 76.4884 37.7812 76.4472L37.976 77.3488C38.6278 77.382 39.2803 77.3987 39.9328 77.3988C42.5436 77.3988 45.0928 77.1324 47.5544 76.626L47.4992 75.7308C45.0107 76.2507 42.4751 76.5115 39.9328 76.5092ZM25.6352 73.6232C24.563 73.1697 23.5127 72.6656 22.488 72.1128L22.1632 72.9456C24.6727 74.2936 27.3281 75.35 30.0776 76.0944C29.8992 75.7364 29.72 75.3784 29.5412 75.0208C28.2139 74.6291 26.9098 74.1625 25.6352 73.6232ZM13.9592 65.7508C10.5856 62.3772 7.93685 58.4488 6.08685 54.0752C4.17165 49.5476 3.20085 44.7368 3.20085 39.778C3.20085 34.8188 4.17205 30.0084 6.08685 25.4804C7.93685 21.1064 10.5856 17.1784 13.9592 13.8044C17.3332 10.4308 21.2612 7.78243 25.6348 5.93243C30.1628 4.01723 34.9732 3.04643 39.9324 3.04643C44.8912 3.04643 49.7016 4.01723 54.2296 5.93243C58.604 7.78243 62.5324 10.4312 65.9056 13.8044C69.2796 17.1784 71.928 21.1064 73.7784 25.4804C75.6932 30.0084 76.6648 34.8184 76.6648 39.778C76.6648 44.7368 75.6932 49.5476 73.7784 54.0752C72.0173 58.2433 69.4988 62.0488 66.3504 65.2988C66.2378 65.5803 66.0753 65.8391 65.8708 66.0628L66.0172 66.8872C73.1284 60.0432 77.5536 50.4276 77.5536 39.7784C77.5536 19.0008 60.71 2.15723 39.9328 2.15723C19.1552 2.15683 2.31165 19 2.31165 39.7776C2.31165 50.828 7.07605 60.7656 14.662 67.648C14.7224 67.3036 14.786 66.9588 14.8528 66.6152C14.5504 66.3319 14.2525 66.0437 13.9592 65.7508ZM57.6752 103.097L57.6616 103.133C57.6628 103.138 57.6676 103.127 57.6752 103.097Z" fill="#B21A9D"/>
<path d="M62.7347 40.1232L62.7683 40.128C62.7571 40.0684 62.7459 40.066 62.7347 40.1232Z" fill="#B21A9D"/>
<path d="M66.512 63.18C66.416 62.7964 66.274 62.2432 66.0844 61.5228C65.846 60.658 65.704 60.0812 65.6572 59.7936C65.4664 58.8816 65.1816 57.2968 64.8016 55.0376C64.4688 53.0688 64.16 51.5072 63.8752 50.3544C63.0668 47.4248 62.6636 45.9356 62.6636 45.8872C62.6164 45.4548 62.6396 44.8788 62.7352 44.158C62.878 43.39 62.9248 42.8372 62.878 42.5008C62.8412 41.1096 62.8044 40.3192 62.7688 40.1276L62.7352 40.1228C62.7464 40.0656 62.7576 40.068 62.7688 40.1276C67.024 40.7492 69.436 41.0592 70.0048 41.0592C72.38 41.0592 73.9248 40.5316 74.6372 39.4744C73.782 35.2952 72.7844 31.4528 71.6444 27.9456C70.9312 27.7544 70.242 27.2504 69.5772 26.4328C68.7688 25.424 68.1992 24.824 67.8668 24.6316C67.6284 23.1432 67.2252 21.9656 66.6556 21.1012C66.4168 21.0052 66.0376 20.9336 65.5152 20.8844C64.8968 20.8372 64.4924 20.7888 64.3036 20.7408C64.1132 20.6936 63.9944 20.7408 63.9472 20.8844C63.8516 21.0288 63.7564 21.1012 63.662 21.1012C63.3764 20.9568 63.1152 20.8844 62.8784 20.8844C62.7356 20.8844 62.6168 20.9332 62.5212 21.0288C62.4256 21.1728 62.3308 21.2448 62.2364 21.2448C61.998 21.0536 61.69 21.0288 61.31 21.1728C60.8828 21.3168 60.6444 21.3652 60.5972 21.3168C60.8828 20.308 61.0248 19.8036 61.0248 19.8036L60.6684 19.1552C61.2852 18.7712 61.524 18.3384 61.3808 17.8584C61.3336 17.7628 61.214 17.5228 61.0244 17.1376C60.834 16.8496 60.6912 16.5864 60.5968 16.3452C58.554 14.5684 56.2964 13.8228 53.8264 14.1116C52.4476 14.2556 51.4268 14.9764 50.762 16.2728C50.096 17.5704 49.9064 19.0832 50.1916 20.8124C50.1916 20.9564 50.2384 21.1492 50.334 21.3884C50.4288 21.6768 50.4764 21.8932 50.4764 22.0372C50.5232 22.662 50.334 23.4784 49.906 24.4868C50.1436 24.6792 51.854 26.0248 55.0376 28.5212C55.0376 28.57 54.9656 28.642 54.824 28.7376C54.777 28.7848 54.7401 28.8411 54.7156 28.9031C54.691 28.965 54.6793 29.0314 54.6812 29.098C55.9644 30.9236 56.4632 33.7812 56.178 37.672C54.8952 33.1092 54.0636 30.6356 53.684 30.2508C53.5412 30.1548 53.3988 30.1788 53.2564 30.3228C53.114 30.5152 52.9708 30.6112 52.8288 30.6112C52.8752 30.6112 52.5672 30.2272 51.902 29.458C49.6216 26.9608 48.624 25.8804 48.9096 26.216C48.1012 27.9936 46.3904 29.5068 43.778 30.7556C42.59 30.66 41.7828 31.1152 41.3548 32.1244C41.4968 31.836 41.378 33.4216 40.998 36.88C40.9504 37.3608 40.8076 38.0092 40.5708 38.8252C40.2856 39.7868 40.0952 40.4588 40.0008 40.8428C39.8584 41.66 39.7392 43.2928 39.644 45.7424C39.5484 48.5768 39.5728 50.4508 39.7152 51.3628C39.9524 52.6596 40.6416 54.2448 41.7824 56.1184C42.9692 58.136 43.6584 59.5292 43.8488 60.2972C43.8956 60.4408 43.9672 60.5132 44.0624 60.5132C44.1572 60.562 44.2288 60.634 44.2764 60.7296C44.3232 61.4032 44.5848 62.1708 45.0604 63.0348C45.5824 64.0928 45.8912 64.7412 45.9868 64.9804C46.1292 65.4612 46.176 66.1332 46.1292 66.998V69.304C46.2712 69.3524 46.6516 69.3524 47.2696 69.304C47.792 69.304 48.1252 69.3288 48.2672 69.376C47.6492 71.826 47.3412 73.0992 47.3412 73.1952C47.3984 74.0988 47.4508 74.944 47.4996 75.7304C49.8061 75.2472 52.0601 74.5412 54.23 73.6224C58.6044 71.7724 62.5328 69.1244 65.906 65.75C66.0556 65.6008 66.2036 65.4496 66.3504 65.2976C66.584 64.7212 66.6388 64.0156 66.512 63.18ZM47.6256 54.1012L47.2692 53.0928C47.2212 52.9492 47.102 52.7092 46.9128 52.3728L46.6272 52.012C46.6272 52.012 46.6028 51.94 46.5564 51.7964C46.5084 51.5076 46.6508 50.98 46.984 50.2108C47.2688 49.4428 47.3636 48.8184 47.2688 48.3368C48.5524 49.5384 48.6704 51.46 47.6256 54.1012ZM61.5236 22.3264C61.57 22.3264 61.6896 22.3512 61.88 22.3984C62.0692 22.3984 62.2116 22.4472 62.3072 22.5424C62.0688 23.36 62.3308 23.7672 63.0912 23.7672C62.996 24.2964 62.7108 24.4408 62.236 24.1996C61.8084 23.96 61.5236 23.6484 61.3804 23.2628C61.5236 22.9276 61.57 22.6148 61.5236 22.3264ZM60.0264 29.5316L56.8908 29.0268C56.9372 29.4592 57.0328 30.108 57.1756 30.9724C57.3652 31.9812 57.484 32.6544 57.532 32.99C56.7236 30.8284 56.3208 29.7476 56.3208 29.7476L56.6056 28.9552C56.558 28.9552 56.51 28.9312 56.4636 28.8828C56.4156 28.8356 56.368 28.8108 56.3212 28.8108C56.4156 28.7632 56.5816 28.7632 56.82 28.8108H57.3192L58.1028 27.2976C58.1496 27.2016 58.2452 27.1296 58.388 27.0812C58.4824 27.034 58.554 26.9616 58.6016 26.8648C58.6484 26.8176 58.6484 26.7456 58.6016 26.6484C58.6016 26.5524 58.696 26.4808 58.8868 26.4324V25.5676H60.0984C60.2064 24.62 60.2456 24.0736 60.2176 23.928C60.2018 23.9217 60.1858 23.9158 60.1696 23.9104C60.1928 23.8756 60.2084 23.882 60.2176 23.928C60.4888 24.0344 60.7812 24.2684 61.096 24.6308C61.428 25.0628 61.7128 25.3276 61.9512 25.4232C62.094 25.6156 62.2116 25.808 62.3076 25.9996C62.9692 26.478 63.9372 26.8604 65.2108 27.148C65.2152 27.142 65.2212 27.1436 65.23 27.1524L65.2108 27.148C65.1708 27.2044 65.368 27.9744 65.8 29.458C65.9424 29.8904 66.3456 30.6828 67.0116 31.8356C67.5128 32.712 67.7072 33.3884 67.5968 33.8656C67.6484 33.9052 67.644 33.9252 67.5816 33.9252C67.588 33.906 67.5916 33.8852 67.5968 33.8656C67.4504 33.754 66.852 33.486 65.8 33.0604C65.4689 32.9823 65.1363 32.9103 64.8024 32.8444C64.3752 32.7488 64.0652 32.6528 63.876 32.556C61.1668 30.5404 59.884 29.5316 60.0264 29.5316Z" fill="#B21A9D"/>
<path d="M67.596 33.8672C67.5908 33.8872 67.5872 33.9076 67.5808 33.9268C67.6432 33.9268 67.6476 33.9068 67.596 33.8672ZM65.21 27.1496L65.2292 27.154C65.2208 27.1452 65.2144 27.1436 65.21 27.1496ZM60.1692 23.9116C60.1848 23.9168 60.2008 23.9228 60.2172 23.9292C60.208 23.8832 60.192 23.8768 60.1692 23.9116ZM47.5544 76.626C47.5736 76.936 47.5916 77.2356 47.6088 77.5252C50.1167 77.0174 52.5671 76.2589 54.9232 75.2612C59.0852 73.5032 62.9038 71.0236 66.2028 67.9368C66.1424 67.5916 66.08 67.2416 66.0172 66.8864C60.9976 71.718 54.64 75.1684 47.5544 76.626Z" fill="#B21A9D"/>
<path d="M66.3505 65.2984C66.2037 65.4504 66.0556 65.6016 65.906 65.7508C62.5324 69.1252 58.604 71.7732 54.23 73.6232C52.06 74.5419 49.806 75.2479 47.4996 75.7312L47.5549 76.6264C54.6404 75.1684 60.9981 71.718 66.0177 66.8868L65.8712 66.0624C66.0755 65.8385 66.2378 65.5797 66.3505 65.2984ZM26.8673 69.7696C27.2061 70.2096 27.4052 70.7592 27.6576 71.2648C28.2829 72.5176 28.9137 73.7684 29.5408 75.0208C32.2238 75.8109 34.9888 76.2895 37.7812 76.4472C37.4549 74.9364 37.1292 73.424 36.7732 71.9212C36.3628 70.1856 35.788 68.4888 35.3496 66.7576C35.2332 66.2992 35.2568 65.7612 35.3684 65.2964C36.2772 61.5188 37.3716 57.7776 38.0856 53.9648C38.386 52.3588 37.8084 50.6064 37.8184 48.9224C37.8244 47.8508 38.1952 46.7848 38.3684 45.712C38.5252 44.7368 39.0352 43.5728 38.6884 42.8128C37.8112 40.892 37.5444 38.962 37.6572 36.916C37.7124 35.9112 37.3736 35.0456 36.3156 34.8956C33.9972 34.568 34.0377 32.8108 33.9701 31.17C33.8589 28.472 33.3669 25.8848 31.9421 23.5644C31.4629 22.7836 30.8209 22.0692 30.1336 21.4596C29.1213 20.5612 27.9932 19.7936 26.9296 18.9512C25.8389 18.0876 23.6213 18.3024 22.5596 19.3996C22.4616 19.5 22.4004 19.6452 22.29 19.7248C19.9289 21.4096 19.3617 23.712 18.9461 26.5604C18.3425 30.7052 15.4008 33.6072 11.4772 35.244C11.15 35.3804 10.4692 34.6684 10.1688 34.484C9.63325 35.1604 8.95565 35.9196 8.40165 36.7592C8.13525 37.1612 7.86485 37.8044 8.00765 38.1844C8.37885 39.1804 8.80005 40.268 9.52565 40.9964C10.694 42.1692 11.12 43.5948 11.6072 45.0672C12.5808 48.0072 13.63 50.922 14.6484 53.8464C14.6648 53.89 14.6796 53.9404 14.7108 53.972C15.2832 54.552 15.9152 55.642 16.418 55.5848C17.1352 55.5036 18.0304 54.7132 18.3724 53.9976C19.5052 51.6248 20.4229 49.1496 21.4229 46.7132L21.9085 45.53C22.7993 47.9936 23.0177 50.1736 22.7368 52.4052C22.6945 52.7404 22.3705 53.0472 22.1553 53.3524C20.2097 56.1064 17.944 58.694 16.4141 61.6616C15.6364 63.172 15.192 64.8816 14.8532 66.6148C17.1509 68.7682 19.7171 70.6159 22.4881 72.112C22.8437 71.2032 23.2005 70.2952 23.5605 69.3876C23.9957 68.2936 25.8917 68.498 26.8673 69.7696ZM34.9317 54.952L35.5728 55.0764L35.1201 57.6108L34.4392 57.4832C34.6036 56.6388 34.7673 55.7948 34.9317 54.952ZM18.4116 36.2556C18.3364 37.9288 17.9792 39.6196 18.1372 41.2656C18.4008 44.024 17.2493 46.3196 16.2829 49.134C14.7692 47.0512 13.9432 45.11 13.5608 42.9748C13.1856 40.8728 13.3304 38.662 12.1652 36.7204C12.0484 36.5276 12.3128 35.8684 12.5661 35.7292C14.4584 34.6944 16.3924 33.736 18.4204 32.6984C18.42 34.0416 18.4608 35.1508 18.4116 36.2556ZM37.9757 77.3488C35.3056 77.2127 32.6576 76.7921 30.0769 76.094C30.2521 76.446 30.4269 76.7984 30.6005 77.1512C33.0813 77.7682 35.6177 78.1356 38.1716 78.248L37.9757 77.3488ZM14.6624 67.648C14.6016 67.9936 14.5429 68.3396 14.4849 68.6828C16.7277 70.6639 19.1952 72.3749 21.8369 73.7808L22.1629 72.9452C19.4563 71.4915 16.9375 69.7126 14.6624 67.648Z" fill="#B21A9D"/>
<path d="M22.488 72.1124C19.717 70.6163 17.1508 68.7686 14.8532 66.6152C14.7864 66.9588 14.7228 67.3036 14.6624 67.648C16.9375 69.7125 19.4563 71.4914 22.1628 72.9452L22.488 72.1124ZM29.5408 75.0208C29.72 75.3784 29.8992 75.7364 30.0772 76.0944C32.6579 76.7925 35.3059 77.2132 37.976 77.3492L37.7812 76.4476C34.9887 76.2894 32.2238 75.8106 29.5408 75.0208Z" fill="#B21A9D"/>
</g>
<defs>
<clipPath id="clip0_30_11627">
<rect width="80" height="80" fill="white"/>
</clipPath>
</defs>
</svg>
