<svg width="37" height="20" viewBox="0 0 37 20" fill="none" xmlns="http://www.w3.org/2000/svg">
<g clip-path="url(#clip0_88_6984)">
<path d="M14.8672 13.0493L15.0138 13.1968L15.1622 13.0493C15.3363 12.8752 15.543 12.7371 15.7705 12.6429C15.998 12.5486 16.2418 12.5002 16.488 12.5002C16.7342 12.5002 16.9781 12.5486 17.2055 12.6429C17.433 12.7371 17.6397 12.8752 17.8138 13.0493C17.988 13.2234 18.1261 13.4301 18.2203 13.6576C18.3145 13.8851 18.363 14.1289 18.363 14.3752C18.363 14.6214 18.3145 14.8652 18.2203 15.0927C18.1261 15.3202 17.988 15.5269 17.8138 15.701L15.0138 18.5002L12.2155 15.701C11.8639 15.3494 11.6663 14.8724 11.6663 14.3752C11.6663 13.8779 11.8639 13.401 12.2155 13.0493C12.5671 12.6977 13.0441 12.5002 13.5413 12.5002C14.0386 12.5002 14.5155 12.6977 14.8672 13.0493ZM9.99967 11.6668V13.3335C8.67359 13.3335 7.40182 13.8603 6.46414 14.798C5.52646 15.7356 4.99967 17.0074 4.99967 18.3335H3.33301C3.33303 16.6015 4.00712 14.9374 5.21257 13.6937C6.41801 12.45 8.06016 11.7243 9.79134 11.6702L9.99967 11.6668ZM9.99967 0.833496C12.7622 0.833496 14.9997 3.071 14.9997 5.8335C15.0001 7.12727 14.4989 8.37082 13.6014 9.30267C12.7039 10.2345 11.4801 10.7821 10.1872 10.8302L9.99967 10.8335C7.23717 10.8335 4.99967 8.596 4.99967 5.8335C4.99921 4.53972 5.50043 3.29617 6.39793 2.36432C7.29543 1.43247 8.51929 0.884931 9.81217 0.836829L9.99967 0.833496ZM9.99967 2.50016C8.15801 2.50016 6.66634 3.99183 6.66634 5.8335C6.66634 7.67516 8.15801 9.16683 9.99967 9.16683C11.8413 9.16683 13.333 7.67516 13.333 5.8335C13.333 3.99183 11.8413 2.50016 9.99967 2.50016Z" fill="#433E42"/>
</g>
<defs>
<clipPath id="clip0_88_6984">
<rect width="20" height="20" fill="white"/>
</clipPath>
</defs>
</svg>
