<svg width="8" height="17" viewBox="0 0 8 17" fill="none" xmlns="http://www.w3.org/2000/svg">
<g clip-path="url(#clip0_57_2404)">
<mask id="mask0_57_2404" style="mask-type:luminance" maskUnits="userSpaceOnUse" x="0" y="9" width="8" height="5">
<path d="M7.71273 13.7357V9.01281H0.0100933V13.7357H7.71273Z" fill="white"/>
</mask>
<g mask="url(#mask0_57_2404)">
<path d="M3.94392 11.7114C4.73251 10.8802 5.48635 10.0764 6.25177 9.28412C6.38181 9.14166 6.55722 9.04877 6.74807 9.0213C6.93893 8.99383 7.1334 9.03347 7.2983 9.13347C7.45733 9.22341 7.5815 9.36427 7.65082 9.53339C7.72015 9.7025 7.73059 9.89004 7.68048 10.0658C7.62611 10.2354 7.5327 10.3898 7.40779 10.5167C6.4504 11.4923 5.4867 12.4615 4.51667 13.4244C4.43688 13.5218 4.33646 13.6003 4.22267 13.6543C4.10888 13.7082 3.98454 13.7361 3.85864 13.7361C3.73274 13.7361 3.60841 13.7082 3.49461 13.6543C3.38082 13.6003 3.28041 13.5218 3.20061 13.4244C2.23269 12.458 1.26828 11.4891 0.307383 10.5178C0.2184 10.4413 0.146232 10.3472 0.0954363 10.2414C0.0446406 10.1355 0.0163204 10.0204 0.0122643 9.90304C0.00820808 9.78573 0.0285036 9.66885 0.0718691 9.55978C0.115235 9.45072 0.180729 9.35183 0.264216 9.26937C0.3483 9.18862 0.447835 9.12572 0.556838 9.08444C0.665839 9.04317 0.782057 9.02438 0.898503 9.0292C1.01495 9.03402 1.12922 9.06236 1.23444 9.1125C1.33966 9.16265 1.43366 9.23356 1.51079 9.32099C2.2899 10.0816 3.06585 10.8475 3.94392 11.7114Z" fill="black"/>
</g>
</g>
<defs>
<clipPath id="clip0_57_2404">
<rect width="7.31" height="4.47" fill="white" transform="translate(0 9.01281) scale(1.05657)"/>
</clipPath>
</defs>
</svg>
