<svg width="52" height="57" viewBox="0 0 52 57" fill="none" xmlns="http://www.w3.org/2000/svg">
<path d="M24 21.5C24 20.9696 24.2107 20.4609 24.5858 20.0858C24.9609 19.7107 25.4696 19.5 26 19.5C26.5304 19.5 27.0391 19.7107 27.4142 20.0858C27.7893 20.4609 28 20.9696 28 21.5C29.1484 22.043 30.1274 22.8883 30.8321 23.9453C31.5367 25.0023 31.9404 26.2311 32 27.5V30.5C32.0753 31.1217 32.2954 31.7171 32.6428 32.2381C32.9902 32.7592 33.4551 33.1914 34 33.5H18C18.5449 33.1914 19.0098 32.7592 19.3572 32.2381C19.7046 31.7171 19.9247 31.1217 20 30.5V27.5C20.0596 26.2311 20.4633 25.0023 21.1679 23.9453C21.8726 22.8883 22.8516 22.043 24 21.5Z" stroke="#828082" stroke-width="1.3" stroke-linecap="round" stroke-linejoin="round"/>
<path d="M23 33.5V34.5C23 35.2956 23.3161 36.0587 23.8787 36.6213C24.4413 37.1839 25.2044 37.5 26 37.5C26.7956 37.5 27.5587 37.1839 28.1213 36.6213C28.6839 36.0587 29 35.2956 29 34.5V33.5" stroke="#828082" stroke-width="1.3" stroke-linecap="round" stroke-linejoin="round"/>
<path d="M35.0001 23.227C34.3441 21.8003 33.3916 20.5297 32.2061 19.5" stroke="#828082" stroke-width="1.3" stroke-linecap="round" stroke-linejoin="round"/>
<path d="M17 23.227C17.6553 21.8004 18.6071 20.5299 19.792 19.5" stroke="#828082" stroke-width="1.3" stroke-linecap="round" stroke-linejoin="round"/>
</svg>
