<svg width="40" height="20" viewBox="0 0 40 20" fill="none" xmlns="http://www.w3.org/2000/svg">
<g clip-path="url(#clip0_1_2625)">
<path d="M10 20.127C8.61979 20.127 7.32422 19.8665 6.11328 19.3457C4.88932 18.8249 3.82487 18.112 2.91992 17.207C2.01497 16.3021 1.30208 15.2376 0.78125 14.0137C0.260417 12.8027 0 11.5072 0 10.127C0 8.74675 0.260417 7.45117 0.78125 6.24023C1.30208 5.01628 2.01497 3.95182 2.91992 3.04688C3.82487 2.14193 4.88932 1.42904 6.11328 0.908203C7.32422 0.387369 8.61979 0.126953 10 0.126953C11.3802 0.126953 12.6758 0.387369 13.8867 0.908203C15.1107 1.42904 16.1751 2.14193 17.0801 3.04688C17.985 3.95182 18.6979 5.01628 19.2188 6.24023C19.7396 7.45117 20 8.74675 20 10.127C20 11.5072 19.7396 12.8027 19.2188 14.0137C18.6979 15.2376 17.985 16.3021 17.0801 17.207C16.1751 18.112 15.1107 18.8249 13.8867 19.3457C12.6758 19.8665 11.3802 20.127 10 20.127ZM10 0.966797C8.73698 0.966797 7.54557 1.20117 6.42578 1.66992C5.31901 2.15169 4.34896 2.80924 3.51562 3.64258C2.68229 4.47591 2.02474 5.44596 1.54297 6.55273C1.07422 7.67253 0.839844 8.86393 0.839844 10.127C0.839844 11.39 1.07422 12.5814 1.54297 13.7012C2.02474 14.8079 2.68229 15.778 3.51562 16.6113C4.34896 17.4447 5.31901 18.1022 6.42578 18.584C7.54557 19.0527 8.73698 19.2871 10 19.2871C11.263 19.2871 12.4544 19.0527 13.5742 18.584C14.681 18.1022 15.651 17.4447 16.4844 16.6113C17.3177 15.778 17.9753 14.8079 18.457 13.7012C18.9258 12.5814 19.1602 11.39 19.1602 10.127C19.1602 8.86393 18.9193 7.67253 18.4375 6.55273C17.9557 5.44596 17.3014 4.47917 16.4746 3.65234C15.6478 2.82552 14.681 2.17122 13.5742 1.68945C12.4544 1.20768 11.263 0.966797 10 0.966797ZM12.4609 17.041H7.83203V16.416L8.30078 16.377C8.37891 16.3639 8.45052 16.3509 8.51562 16.3379C8.58073 16.3249 8.65234 16.3053 8.73047 16.2793L8.71094 16.2988C8.78906 16.2728 8.86393 16.2337 8.93555 16.1816C9.00716 16.1296 9.0625 16.0645 9.10156 15.9863H9.12109C9.16016 15.9082 9.18945 15.8268 9.20898 15.7422C9.22852 15.6576 9.23828 15.5697 9.23828 15.4785C9.23828 15.4655 9.23828 15.4557 9.23828 15.4492C9.23828 15.4427 9.23828 15.4329 9.23828 15.4199V9.52148C9.23828 9.52148 9.23828 9.51823 9.23828 9.51172C9.23828 9.50521 9.23828 9.50195 9.23828 9.50195C9.23828 9.39779 9.22526 9.30013 9.19922 9.20898C9.17318 9.11784 9.14062 9.02669 9.10156 8.93555V8.95508C9.04948 8.86393 8.99089 8.78255 8.92578 8.71094C8.86068 8.63932 8.78906 8.57747 8.71094 8.52539V8.50586C8.63281 8.4668 8.55143 8.43099 8.4668 8.39844C8.38216 8.36589 8.28776 8.33659 8.18359 8.31055C8.09245 8.2845 7.99154 8.26497 7.88086 8.25195C7.77018 8.23893 7.66276 8.22591 7.55859 8.21289H7.53906V7.58789L10.918 7.37305L11.0547 7.50977V15.3027C11.0547 15.3158 11.0547 15.3255 11.0547 15.332C11.0547 15.3385 11.0547 15.3483 11.0547 15.3613C11.0547 15.4525 11.0645 15.5436 11.084 15.6348C11.1035 15.7259 11.1328 15.804 11.1719 15.8691C11.224 15.9473 11.2858 16.0156 11.3574 16.0742C11.429 16.1328 11.5039 16.1751 11.582 16.2012C11.6471 16.2272 11.7122 16.25 11.7773 16.2695C11.8424 16.2891 11.9076 16.3118 11.9727 16.3379H12.0117C12.0768 16.3639 12.1452 16.3835 12.2168 16.3965C12.2884 16.4095 12.3698 16.416 12.4609 16.416V17.041ZM11.2695 4.44336C11.2695 4.44336 11.2695 4.44661 11.2695 4.45312C11.2695 4.45964 11.2695 4.46289 11.2695 4.46289C11.2695 4.64518 11.237 4.81771 11.1719 4.98047C11.1068 5.14323 11.0221 5.28971 10.918 5.41992C10.8008 5.53711 10.6673 5.63477 10.5176 5.71289C10.3678 5.79102 10.2018 5.83008 10.0195 5.83008C9.85026 5.83008 9.69075 5.79427 9.54102 5.72266C9.39128 5.65104 9.26432 5.55664 9.16016 5.43945C9.04297 5.32227 8.95182 5.18555 8.88672 5.0293C8.82161 4.87305 8.78906 4.71029 8.78906 4.54102C8.78906 4.528 8.78906 4.52148 8.78906 4.52148C8.78906 4.33919 8.82161 4.16992 8.88672 4.01367C8.95182 3.85742 9.04297 3.7207 9.16016 3.60352C9.26432 3.48633 9.39128 3.39193 9.54102 3.32031C9.69075 3.2487 9.85026 3.21289 10.0195 3.21289C10.0195 3.21289 10.0228 3.21289 10.0293 3.21289C10.0358 3.21289 10.0456 3.21289 10.0586 3.21289C10.2279 3.21289 10.3874 3.24544 10.5371 3.31055C10.6868 3.37565 10.8138 3.4668 10.918 3.58398C11.0352 3.68815 11.123 3.8151 11.1816 3.96484C11.2402 4.11458 11.2695 4.27409 11.2695 4.44336Z" fill="#FF0000"/>
</g>
<defs>
<clipPath id="clip0_1_2625">
<rect width="20" height="20" fill="white" transform="matrix(1 0 0 -1 0 20)"/>
</clipPath>
</defs>
</svg>
