<svg width="220" height="220" viewBox="0 0 220 220" fill="none" xmlns="http://www.w3.org/2000/svg">
<path d="M104.166 117.598V107.833C104.166 104.091 107.068 101.148 111.362 99.4685C108.593 98.4388 105.662 97.9132 102.708 97.9168C97.1955 97.9168 92.103 99.7164 87.9876 102.758C89.2637 106.367 91.4062 109.608 94.2271 112.195C97.048 114.783 100.461 116.638 104.166 117.598ZM130.066 106.918C128.914 105.363 125.079 103.75 120.208 103.75C114.357 103.75 110 106.075 110 107.833V118.333C114.048 118.336 118.026 117.284 121.545 115.283C125.063 113.281 128 110.398 130.066 106.918ZM102.854 93.5418C104.594 93.5418 106.264 92.8504 107.494 91.6197C108.725 90.389 109.416 88.7198 109.416 86.9793C109.416 85.2388 108.725 83.5696 107.494 82.3389C106.264 81.1082 104.594 80.4168 102.854 80.4168C101.113 80.4168 99.4442 81.1082 98.2135 82.3389C96.9827 83.5696 96.2913 85.2388 96.2913 86.9793C96.2913 88.7198 96.9827 90.389 98.2135 91.6197C99.4442 92.8504 101.113 93.5418 102.854 93.5418ZM120.208 96.4585C121.755 96.4585 123.239 95.8439 124.333 94.75C125.427 93.656 126.041 92.1723 126.041 90.6252C126.041 89.0781 125.427 87.5943 124.333 86.5004C123.239 85.4064 121.755 84.7918 120.208 84.7918C118.661 84.7918 117.177 85.4064 116.083 86.5004C114.989 87.5943 114.375 89.0781 114.375 90.6252C114.375 92.1723 114.989 93.656 116.083 94.75C117.177 95.8439 118.661 96.4585 120.208 96.4585ZM110 124.167C93.8909 124.167 80.833 111.109 80.833 95.0002C80.833 78.8914 93.8909 65.8335 110 65.8335C126.108 65.8335 139.166 78.8914 139.166 95.0002C139.166 111.109 126.108 124.167 110 124.167Z" fill="#EC407A"/>
<g opacity="0.1">
<path d="M165.55 46.6767C181.977 57.5667 195.287 75.0934 189.31 88.9534C183.333 102.813 158.107 113.007 144.467 123.603C130.827 134.2 128.81 145.163 121 154C113.19 162.837 99.55 169.51 85.5434 168.263C71.5 167.053 57.0901 157.96 50.0867 144.98C43.0834 132.037 43.5234 115.17 45.2467 97.4234C47.0067 79.6767 50.1234 60.9767 61.1234 49.1334C72.1234 37.2534 91.08 32.1934 110.33 31.8267C129.58 31.46 149.123 35.75 165.55 46.6767Z" fill="#EC407A"/>
</g>
</svg>
