<svg width="20" height="27" viewBox="0 0 20 27" fill="none" xmlns="http://www.w3.org/2000/svg">
<g clip-path="url(#clip0_60_609)">
<path opacity="0.5" d="M15.7534 6.64384C16.3516 7.661 16.6669 8.81963 16.6667 9.99967C16.6667 11.7678 15.9643 13.4635 14.7141 14.7137C13.4638 15.964 11.7681 16.6663 10 16.6663V15.4163C12.9867 15.4163 15.4167 12.9863 15.4167 9.99967C15.4161 9.04122 15.1592 8.10037 14.6725 7.27467L15.7534 6.64384ZM10 3.33301V4.58301C8.56398 4.58477 7.18725 5.15602 6.17181 6.17146C5.15637 7.1869 4.58512 8.56363 4.58336 9.99967C4.58336 10.7372 4.73252 11.4413 5.00086 12.083L3.84586 12.5638C3.42371 11.5507 3.25823 10.449 3.3641 9.3566C3.46997 8.26417 3.84392 7.21477 4.45275 6.30156C5.06158 5.38835 5.88647 4.63958 6.85417 4.12173C7.82188 3.60387 8.90247 3.33295 10 3.33301Z" fill="#99FF99"/>
<path opacity="0.2" d="M18.6308 4.96667C19.5271 6.49269 19.9997 8.23027 20 10C20 15.5233 15.5233 20 10 20V18.75C14.825 18.75 18.75 14.825 18.75 10C18.75 8.39333 18.3075 6.8925 17.5492 5.59667L18.6308 4.96667ZM10 0V1.25C5.17584 1.25 1.25 5.17583 1.25 10C1.25 11.1925 1.49167 12.3283 1.925 13.365L0.769168 13.8467C0.260759 12.628 -0.000682352 11.3205 1.33746e-06 10C1.33746e-06 4.4775 4.4775 0 10 0Z" fill="#99FF99"/>
<path d="M4.44662 15.9834C3.96412 16.7534 4.10495 17.3542 4.86912 17.9059C5.70328 18.5084 6.63578 18.4859 7.04578 17.7642C7.58745 16.8117 8.03829 15.8042 8.44579 14.9834L6.17912 13.2892C5.54245 14.2776 4.98495 15.1242 4.44662 15.9834ZM12.5 2.97506L6.18162 12.5976C7.17495 13.2092 7.80162 13.6217 8.45495 13.9809C8.63662 14.0809 8.91578 14.0901 9.11745 14.0317C10.0441 13.7609 10.3466 13.2892 11.7558 13.2151C13.1258 13.1426 13.3175 12.8826 14.1166 11.6284C14.3083 11.3276 14.4641 10.7709 14.0275 10.4926C13.7925 10.3426 13.3475 10.3009 13.1216 10.4426C12.8958 10.5842 12.9075 10.5876 12.5716 10.8767C12.1516 11.2351 11.685 11.4359 11.2475 11.7601C11.1825 11.8084 10.6191 11.9234 10.8058 11.1867C10.9983 10.4201 11.4991 9.12506 11.4991 9.12506C11.4991 9.12506 12.7183 7.2184 12.9891 6.8534C13.1225 6.67423 15.6141 5.39506 15.8058 3.58923C16.0625 1.17506 14.4625 1.10923 12.5 2.97506Z" fill="#99FF99"/>
</g>
<defs>
<clipPath id="clip0_60_609">
<rect width="20" height="20" fill="white"/>
</clipPath>
</defs>
</svg>
