<svg width="80" height="80" viewBox="0 0 80 80" fill="none" xmlns="http://www.w3.org/2000/svg">
<g clip-path="url(#clip0_30_11670)">
<path fill-rule="evenodd" clip-rule="evenodd" d="M15.6088 26.1828C17.5464 19.0236 21.1504 15.6472 26.7732 15.6368C32.3852 15.6264 36.04 19.046 37.9436 26.2072C41.6868 25.5216 45.2072 26.0228 48.178 28.6812C49.9428 30.26 51.1656 32.1704 51.6744 34.4952C52.8248 39.7516 50.4988 44.098 44.7032 47.3548C46.6084 50.5636 47.156 53.9872 45.768 57.5444C44.868 59.8496 43.2708 61.6176 41.1768 62.926C36.7504 65.6932 32.0308 64.8844 26.708 60.3736C24.3908 63.1276 21.4356 64.5908 17.7648 64.4928C15.2172 64.4252 12.984 63.5944 11.0328 61.9664C6.77164 58.4108 5.98164 53.4168 8.79884 47.372C3.01844 44.4424 0.221237 39.7644 2.31924 33.4508C4.37444 27.2676 9.33604 25.1736 15.6088 26.1828ZM26.9008 47.6128C30.8504 47.59 34.0808 44.3176 34.042 40.3788C34.0028 36.4404 30.7376 33.2444 26.772 33.2624C22.8 33.2804 19.6348 36.5072 19.6676 40.5056C19.7004 44.5088 22.8828 47.6364 26.9008 47.6128Z" fill="#EAE4E9"/>
<path d="M35.9261 65.4132C33.0024 65.4136 30.0112 64.1652 26.8024 61.6024C24.338 64.204 21.2917 65.4764 17.7409 65.3812C14.9977 65.308 12.5493 64.3892 10.4637 62.6484C8.16845 60.7336 6.79565 58.408 6.38285 55.738C6.00925 53.3184 6.43565 50.6408 7.65005 47.768C4.89125 46.2324 2.92805 44.3212 1.80885 42.0772C0.49725 39.4476 0.38525 36.4508 1.47565 33.1704C2.37605 30.4612 3.84165 28.39 5.83165 27.0136C7.71445 25.712 10.0349 25.0516 12.7293 25.0516C13.4469 25.0516 14.1961 25.0992 14.9657 25.1936C17.0581 18.178 20.9261 14.7592 26.7712 14.7476H26.798C29.8241 14.7476 32.3708 15.7056 34.368 17.5944C36.212 19.3384 37.5956 21.8328 38.5856 25.2028C39.3268 25.0975 40.0743 25.0435 40.8228 25.0412C43.8885 25.0412 46.5629 26.0428 48.7705 28.0184C50.7472 29.7872 52.016 31.902 52.542 34.3044C53.1628 37.1392 52.8372 39.7608 51.5753 42.0968C50.4389 44.1996 48.5332 46.0752 45.9033 47.6812C47.6772 51.0736 47.9109 54.4964 46.5956 57.8668C45.6637 60.254 43.9993 62.2092 41.6477 63.6792C39.8081 64.83 37.8829 65.4132 35.9261 65.4132ZM26.7085 59.4844C26.9181 59.4844 27.122 59.5588 27.2832 59.6952C30.4121 62.3468 33.2393 63.636 35.9264 63.6356C37.5672 63.6356 39.1308 63.1568 40.7061 62.172C42.726 60.9096 44.1504 59.2436 44.94 57.2208C45.5588 55.6344 45.7769 54.0208 45.5881 52.424C45.4076 50.9004 44.8525 49.348 43.9389 47.8084C43.8782 47.7066 43.8386 47.5936 43.8224 47.4762C43.8061 47.3587 43.8136 47.2393 43.8443 47.1248C43.875 47.0103 43.9283 46.9031 44.001 46.8095C44.0738 46.716 44.1646 46.6379 44.268 46.58C46.998 45.046 48.9305 43.2536 50.0117 41.2528C51.0657 39.302 51.3329 37.0924 50.8056 34.6856C50.3553 32.6272 49.302 30.88 47.5852 29.344C45.6864 27.6452 43.4753 26.8196 40.8232 26.8196C39.9701 26.8196 39.0549 26.9076 38.1036 27.082C37.8837 27.1224 37.6566 27.0783 37.4677 26.9586C37.2788 26.8388 37.1421 26.6522 37.0849 26.436C36.1833 23.046 34.8588 20.5056 33.1468 18.8868C31.4676 17.2984 29.3909 16.5264 26.7985 16.5264H26.7748C24.17 16.5312 22.0913 17.3 20.4185 18.8764C18.6921 20.5044 17.3993 22.9704 16.4669 26.416C16.4094 26.628 16.2755 26.8111 16.091 26.9303C15.9065 27.0494 15.6845 27.096 15.4677 27.0612C14.5156 26.908 13.5945 26.8304 12.7293 26.8304C10.4033 26.8304 8.42245 27.3844 6.84285 28.4772C5.17685 29.6292 3.93845 31.3972 3.16245 33.7324C2.22645 36.5496 2.30605 39.0904 3.40005 41.2836C4.44325 43.3756 6.39485 45.1572 9.20045 46.5784C9.40626 46.6827 9.56348 46.8628 9.63887 47.0809C9.71426 47.2989 9.70192 47.5377 9.60445 47.7468C8.28045 50.5884 7.78765 53.1856 8.14005 55.4668C8.48405 57.6968 9.64925 59.654 11.6025 61.2836C13.3985 62.7824 15.4217 63.5412 17.7881 63.6044C19.5017 63.6508 21.0833 63.3244 22.4937 62.6364C23.7853 62.0068 24.9745 61.0528 26.0277 59.8012C26.1111 59.7019 26.2153 59.622 26.3329 59.5672C26.4505 59.5125 26.5787 59.4842 26.7085 59.4844ZM26.8564 48.5016C22.364 48.5016 18.8157 44.9928 18.7793 40.5124C18.7613 38.332 19.5865 36.2856 21.1025 34.75C22.6056 33.2276 24.618 32.3832 26.7684 32.3736H26.806C31.2428 32.3736 34.8881 35.9608 34.9313 40.37C34.9524 42.51 34.1269 44.538 32.6072 46.0812C31.0824 47.6296 29.058 48.4896 26.906 48.5016H26.8564ZM26.8056 34.1512H26.7761C25.1017 34.1592 23.5361 34.8148 22.3673 35.9988C21.1856 37.1956 20.5429 38.7932 20.5569 40.4984C20.5853 43.9892 23.3524 46.7236 26.8568 46.7236H26.8964C28.572 46.7144 30.1504 46.0432 31.3412 44.8336C32.5264 43.6292 33.1704 42.0504 33.154 40.3872C33.1193 36.9488 30.272 34.1512 26.8056 34.1512Z" fill="#B21A9D"/>
<path fill-rule="evenodd" clip-rule="evenodd" d="M55.5184 28.3108L50.4308 27.5864L44.736 33.2564L45.786 38.9152C45.786 38.9152 51.3288 48.5608 52.2152 48.5384C53.102 48.5156 60.7312 49.52 60.7312 49.52L67.0404 45.8904L66.832 37.7584L62.932 31.3224" fill="#6D015F"/>
<path d="M39.1403 29.1924C41.2191 29.1924 42.9043 27.5072 42.9043 25.4284C42.9043 23.3496 41.2191 21.6644 39.1403 21.6644C37.0615 21.6644 35.3763 23.3496 35.3763 25.4284C35.3763 27.5072 37.0615 29.1924 39.1403 29.1924Z" fill="#6D015F"/>
<path fill-rule="evenodd" clip-rule="evenodd" d="M46.9128 37.1984L47.282 39.1188C50.7368 36.8 53.0248 33.8456 54.3688 30.7164C53.9652 29.6684 53.4728 29.01 53.5824 28.4768C53.6696 28.0548 54.4756 27.5264 54.9968 27.4852C63.7764 26.8028 70.91 36.1176 68.0844 44.4332C67.8824 45.028 68.1048 46.0272 68.5128 46.5224C69.9468 48.2596 71.548 49.8584 72.8272 51.9408C72.4356 51.8508 72.0036 51.8376 71.66 51.6564C70.6824 51.1412 69.6848 50.6332 68.7956 49.9844C66.8896 48.5924 65.314 48.4012 62.9344 49.6196C55.5744 53.388 45.4952 47.2568 44.888 39.0124C44.7732 37.4508 45.6488 37.3284 46.9128 37.1984ZM62.8212 32.888C60.9548 38.8284 57.3624 43.2272 52.1384 46.3704C53.346 47.6676 54.4392 47.8 55.854 46.8612C59.7324 44.2844 62.5144 40.906 64.1224 36.512C64.6916 34.9564 64.4896 33.858 62.8212 32.888ZM58.0148 30.0388C56.0816 35.3616 52.8296 39.3568 48.2016 42.3508C48.726 43.0416 49.1212 43.5616 49.5584 44.1388C55.1284 41.2064 58.5864 36.8656 60.1092 30.8184L58.0148 30.0388ZM59.9632 48.208C64.0872 47.6784 67.0424 43.9884 66.3544 40.1924C64.2464 42.8368 62.0388 45.6056 59.9632 48.208Z" fill="#B21A9D"/>
<path fill-rule="evenodd" clip-rule="evenodd" d="M48.0024 20.1488C50.9096 22.594 52.3748 25.6444 51.3212 29.4932C50.3796 32.934 48.042 35.0488 44.546 35.7768C41.2496 36.4624 38.596 34.9976 36.1708 33.018C30.4604 28.3556 30.72 24.3684 37.0168 20.6044C38.4236 19.7628 40.0048 19.2132 42.154 18.234C41.2008 17.8768 40.626 17.4592 40.0788 17.4924C38.36 17.5968 37.1712 17.0092 36.9376 15.2452C36.7376 13.7372 37.488 12.6676 39.0272 12.4024C40.7792 12.0992 41.682 13.0116 42.168 14.6636C42.5292 15.892 43.0544 17.1276 43.7788 18.17C44.1192 18.6592 45.1576 18.9772 45.7764 18.8532C46.2312 18.7628 46.744 17.8544 46.808 17.2644C46.858 16.8028 46.3764 16.086 45.9288 15.8032C44.4668 14.8808 43.872 13.6808 44.676 12.1288C45.3644 10.8012 46.61 10.2964 48.02 10.9628C49.5988 11.708 49.8464 12.9688 49.3168 14.6156C48.7584 16.3528 48.4596 18.1724 48.0024 20.1488ZM42.3292 24.9208C42.3404 23.4272 41.0376 22.1136 39.5332 22.2052C37.9212 22.3024 36.9972 23.2512 36.8416 24.8268C36.6988 26.2768 38.0584 27.6524 39.53 27.6852C40.9852 27.7168 42.3176 26.4012 42.3292 24.9208ZM63.8308 28.308L62.1484 27.2328C64.5152 24.1904 67.1488 21.9704 71.1504 21.9852C74.8224 21.9992 77.7796 23.9492 78.8488 27.1504C79.8944 30.2808 78.7724 33.8788 75.7936 35.9064C74.308 36.9172 72.4872 37.438 70.596 38.2792L69.67 35.5852C70.8752 35.2432 72.0464 35.0596 73.086 34.5872C75.9224 33.2964 77.3056 30.3004 76.3496 27.7888C75.3656 25.2028 72.138 23.6764 69.2464 24.8432C67.3856 25.5932 65.7968 27.0184 63.8308 28.308ZM68.3972 20.3128C67.1688 20.9608 66.3136 21.406 65.0056 20.3292C62.5288 18.2908 58.8808 19.4156 57.154 22.552C56.6632 23.4436 56.416 24.4688 56.0092 25.5616L53.9568 25.6144C53.6636 22.0252 56.1484 18.486 59.7892 17.188C63.0204 16.0364 66.138 17.1172 68.3972 20.3128Z" fill="#B21A9D"/>
</g>
<defs>
<clipPath id="clip0_30_11670">
<rect width="80" height="80" fill="white"/>
</clipPath>
</defs>
</svg>
