<svg width="168" height="112" viewBox="0 0 168 112" fill="none" xmlns="http://www.w3.org/2000/svg">
<g clip-path="url(#clip0_57_2706)">
<path d="M111.069 80.7304C111.081 76.9727 110.01 73.2913 107.984 70.1265C105.874 67.0932 103.015 64.6574 99.6852 63.0559L102.324 57.271C106.814 59.344 110.623 62.6492 113.308 66.8022C115.994 70.9551 117.445 75.7851 117.493 80.7304H111.069ZM95.0013 80.7304C95.0123 78.216 94.5168 75.7251 93.5445 73.4062C92.5723 71.0873 91.1429 68.9879 89.342 67.2331C87.5748 65.4043 85.4575 63.9499 83.1163 62.9566C80.7752 61.9633 78.2582 61.4514 75.7151 61.4514C73.1719 61.4514 70.6549 61.9633 68.3138 62.9566C65.9726 63.9499 63.8553 65.4043 62.0881 67.2331C60.2883 68.9885 58.8601 71.0881 57.8885 73.4069C56.917 75.7258 56.4217 78.2163 56.4327 80.7304H50.0029C50.0118 73.8755 52.7114 67.2982 57.5214 62.414C62.3913 57.6745 68.9194 55.0226 75.7151 55.0226C82.5107 55.0226 89.0379 57.6745 93.9078 62.414C98.7171 67.2986 101.416 73.8758 101.425 80.7304H95.0013ZM95.0013 48.5918C97.3813 48.1936 99.5805 47.0719 101.3 45.3794C103.064 43.6593 104.196 41.3947 104.513 38.9517C104.893 36.6399 104.498 34.2673 103.39 32.203C102.326 30.0546 100.54 28.3491 98.3446 27.385L100.145 20.9572C103.375 22.2583 106.14 24.4972 108.084 27.385C110.046 30.3355 111.087 33.8028 111.073 37.346C111.102 41.7546 109.447 46.008 106.446 49.2376C103.496 52.5421 99.4064 54.6092 94.9965 55.0245L95.0013 48.5918ZM56.4327 32.5289C56.4327 28.7151 57.5642 24.9869 59.6832 21.8158C61.8022 18.6447 64.8135 16.1731 68.3372 14.7136C71.8609 13.2541 75.7384 12.8722 79.4792 13.6163C83.2199 14.3603 86.6568 16.1969 89.3537 18.8937C92.0507 21.5905 93.8872 25.0264 94.6313 28.767C95.3754 32.5076 94.9934 36.3848 93.5338 39.9083C92.0742 43.4318 89.6026 46.4435 86.4313 48.5623C83.26 50.6812 79.5311 51.8121 75.717 51.8121C70.6036 51.8087 65.7009 49.776 62.0852 46.1604C58.4694 42.5449 56.4361 37.6421 56.4327 32.5289ZM62.8614 32.5289C62.8614 35.0715 63.6155 37.557 65.0281 39.6711C66.4408 41.7851 68.4486 43.4328 70.7978 44.4058C73.1469 45.3788 75.7316 45.6334 78.2254 45.1374C80.7193 44.6414 83.0095 43.417 84.8075 41.6191C86.6055 39.8213 87.8305 37.5306 88.3265 35.0369C88.8226 32.5432 88.5682 29.9584 87.5952 27.6094C86.6221 25.2604 84.9737 23.2526 82.8595 21.84C80.7454 20.4275 78.2597 19.6735 75.717 19.6735C72.3083 19.6769 69.0408 21.0324 66.6304 23.4425C64.22 25.8526 62.8651 29.1204 62.8614 32.5289ZM87.0367 11.3331C86.4459 10.938 85.9402 10.4289 85.5486 9.83576C85.157 9.24262 84.8871 8.57733 84.7557 7.87883C84.5365 6.53842 84.8472 5.16527 85.6218 4.04959C85.9961 3.4397 86.4935 2.91426 87.0816 2.50663C87.6697 2.09899 88.3359 1.81805 89.0383 1.68164C89.7408 1.54523 90.4641 1.55633 91.1621 1.71423C91.86 1.87213 92.5171 2.17339 93.0924 2.59888L93.5631 2.75085L93.9126 2.43691C94.3065 1.84304 94.8117 1.33077 95.3997 0.928208C95.9975 0.530257 96.6595 0.23837 97.3565 0.0653792C98.0578 -0.0293507 98.7694 -0.00501343 99.4626 0.137365C100.16 0.290719 100.821 0.577612 101.409 0.982198C102.001 1.33214 102.498 1.82289 102.856 2.41091C103.222 2.95824 103.489 3.56522 103.647 4.20456C103.78 4.93047 103.774 5.67511 103.631 6.39912C103.519 7.07803 103.241 7.71881 102.822 8.26476L96.4806 17.7859L87.0367 11.3331Z" fill="white"/>
</g>
<defs>
<clipPath id="clip0_57_2706">
<rect width="67.5" height="80.73" fill="white" transform="translate(50)"/>
</clipPath>
</defs>
</svg>
