<svg width="56" height="56" viewBox="0 0 56 56" fill="none" xmlns="http://www.w3.org/2000/svg">
<g clip-path="url(#clip0_1_4320)">
<path d="M39.9766 39.5898C39.5391 38.668 39.0156 37.8086 38.4062 37.0117C37.7812 36.2305 37.0859 35.5234 36.3203 34.8906C35.5547 34.2578 34.7266 33.7148 33.8359 33.2617C32.9453 32.8242 32.0078 32.4805 31.0234 32.2305L30.9297 32.207C31.7266 31.9102 32.4688 31.5039 33.1562 30.9883C33.8281 30.457 34.4062 29.8516 34.8906 29.1719C35.375 28.4922 35.75 27.7461 36.0156 26.9336C36.2812 26.1055 36.4141 25.2461 36.4141 24.3555C36.4141 23.1992 36.1953 22.1055 35.7578 21.0742C35.3203 20.0586 34.7227 19.1719 33.9648 18.4141C33.207 17.6562 32.3203 17.0586 31.3047 16.6211C30.2734 16.1836 29.1797 15.9648 28.0234 15.9648C26.8672 15.9648 25.7812 16.1836 24.7656 16.6211C23.75 17.0586 22.8633 17.6562 22.1055 18.4141C21.3477 19.1719 20.75 20.0586 20.3125 21.0742C19.8594 22.1055 19.6328 23.1992 19.6328 24.3555C19.6328 25.2461 19.7734 26.0977 20.0547 26.9102C20.3203 27.7383 20.6914 28.4922 21.168 29.1719C21.6445 29.8516 22.2188 30.4492 22.8906 30.9648C23.5469 31.4805 24.2734 31.8867 25.0703 32.1836L25.1172 32.207C24.1016 32.457 23.1406 32.8086 22.2344 33.2617C21.3281 33.7148 20.4922 34.2539 19.7266 34.8789C18.9609 35.5039 18.2656 36.207 17.6406 36.9883C17.0312 37.7539 16.5078 38.5898 16.0703 39.4961L16.0469 39.5898C16.0312 39.6211 16.0195 39.6523 16.0117 39.6836C16.0039 39.7148 16 39.7539 16 39.8008C16 39.8945 16.0273 39.9805 16.082 40.0586C16.1367 40.1367 16.2031 40.1992 16.2812 40.2461C16.3125 40.2617 16.3477 40.2734 16.3867 40.2812C16.4258 40.2891 16.4609 40.293 16.4922 40.293C16.6016 40.293 16.6953 40.2656 16.7734 40.2109C16.8516 40.1562 16.9062 40.0898 16.9375 40.0117H16.9609C17.4453 38.9492 18.0625 37.9805 18.8125 37.1055C19.5781 36.2305 20.4375 35.4805 21.3906 34.8555C22.3438 34.2305 23.3828 33.7461 24.5078 33.4023C25.6172 33.0586 26.7812 32.8867 28 32.8867C29.2344 32.8867 30.4062 33.0586 31.5156 33.4023C32.6406 33.7461 33.6797 34.2266 34.6328 34.8438C35.5859 35.4609 36.4375 36.207 37.1875 37.082C37.9375 37.9414 38.5547 38.8867 39.0391 39.918L39.0625 40.0117C39.1094 40.1055 39.1758 40.1836 39.2617 40.2461C39.3477 40.3086 39.4453 40.3398 39.5547 40.3398C39.6953 40.3398 39.8125 40.293 39.9062 40.1992C40 40.1055 40.0469 39.9883 40.0469 39.8477C40.0469 39.8008 40.043 39.7539 40.0352 39.707C40.0273 39.6602 40.0078 39.6133 39.9766 39.5664V39.5898ZM20.5938 24.4492C20.5938 24.4336 20.5938 24.418 20.5938 24.4023C20.5938 24.3867 20.5938 24.3711 20.5938 24.3555C20.5938 23.3242 20.7891 22.3633 21.1797 21.4727C21.5703 20.5664 22.1016 19.7773 22.7734 19.1055C23.4453 18.4336 24.2344 17.9023 25.1406 17.5117C26.0469 17.1211 27.0078 16.9258 28.0234 16.9258C29.0547 16.9258 30.0234 17.1211 30.9297 17.5117C31.8359 17.9023 32.625 18.4336 33.2969 19.1055C33.9688 19.7773 34.5 20.5664 34.8906 21.4727C35.2812 22.3633 35.4766 23.3242 35.4766 24.3555C35.4766 25.3867 35.2812 26.3555 34.8906 27.2617C34.5 28.168 33.9688 28.957 33.2969 29.6289C32.625 30.3008 31.8359 30.832 30.9297 31.2227C30.0234 31.6133 29.0547 31.8086 28.0234 31.8086C28.0234 31.8086 28.0195 31.8086 28.0117 31.8086C28.0039 31.8086 28 31.8086 28 31.8086C26.9844 31.8086 26.0234 31.6133 25.1172 31.2227C24.2266 30.8477 23.4453 30.3242 22.7734 29.6523C22.1016 28.9805 21.5703 28.1992 21.1797 27.3086C20.7891 26.418 20.5938 25.4648 20.5938 24.4492Z" fill="white"/>
</g>
<defs>
<clipPath id="clip0_1_4320">
<rect width="24" height="24" fill="white" transform="matrix(1 0 0 -1 16 40)"/>
</clipPath>
</defs>
</svg>
