<svg width="38" height="28" viewBox="0 0 38 28" fill="none" xmlns="http://www.w3.org/2000/svg">
<g clip-path="url(#clip0_30_11564)">
<path fill-rule="evenodd" clip-rule="evenodd" d="M14.0008 4.99127C16.87 4.99127 19.5134 5.78525 21.9611 7.26306C23.8288 8.38668 25.4366 9.8011 26.7448 11.5467C27.0729 11.9857 27.3827 12.4445 27.6711 12.9104C28.1149 13.6339 28.1069 14.3788 27.6648 15.1046C26.3608 17.2528 24.5834 19.0748 22.4683 20.4318C21.2242 21.2322 19.9057 21.8772 18.4928 22.3225C16.7615 22.8669 14.9897 23.0832 13.1791 22.9881C11.4237 22.8968 9.69877 22.4927 8.08555 21.7948C6.39959 21.0709 4.8411 20.0804 3.46986 18.8613C2.25557 17.7853 1.20699 16.5356 0.358136 15.1529C-0.118093 14.3851 -0.122847 13.6173 0.354966 12.8526C2.44926 9.50316 5.36844 7.17986 9.06733 5.82487C10.584 5.26861 12.2916 4.99286 14.0008 4.99127ZM20.0951 8.4984C20.9461 10.0602 21.1909 11.7076 20.8573 13.4342C20.5174 15.183 19.5562 16.5436 18.1711 17.6244C15.9041 19.393 12.4897 19.4865 10.1109 17.8312C8.84942 16.9517 7.88428 15.8154 7.38904 14.3431C6.71392 12.3391 6.89142 10.393 7.92787 8.50078C7.84704 8.5404 7.79554 8.55863 7.74799 8.58557C7.27731 8.87162 6.79554 9.13628 6.3415 9.44611C4.61249 10.622 3.2266 12.1307 2.08159 13.87C2.01899 13.9691 2.01899 14.0349 2.08159 14.1299C2.81045 15.2366 3.66771 16.2532 4.63547 17.1585C5.88587 18.3201 7.27573 19.2749 8.84229 19.9532C10.9722 20.8724 13.1933 21.1751 15.4952 20.9239C16.9262 20.77 18.3197 20.3695 19.6141 19.7401C22.2496 18.4509 24.3241 16.5309 25.9366 14.0943C25.9849 14.0198 25.981 13.9707 25.9318 13.9025C25.7607 13.6593 25.6006 13.4104 25.4271 13.1704C24.187 11.4564 22.6862 10.0174 20.8597 8.93263C20.6069 8.78287 20.3502 8.6442 20.0951 8.4984ZM9.22343 11.8685C9.25671 12.023 9.2678 12.1894 9.33119 12.3304C9.46749 12.6426 9.81772 12.8043 10.145 12.7345C10.4944 12.6616 10.7163 12.3764 10.7512 12.0206C10.7868 11.6561 10.8146 11.2805 10.9263 10.9382C11.3558 9.63073 12.5499 8.79 13.9968 8.74246C14.4413 8.72661 14.7543 8.40728 14.7456 7.97701C14.7369 7.55546 14.412 7.24405 13.9794 7.24405C13.8447 7.24405 13.7092 7.25514 13.5745 7.26465C11.2076 7.45007 9.28365 9.4984 9.22343 11.8685Z" fill="#E785FB"/>
</g>
<defs>
<clipPath id="clip0_30_11564">
<rect width="28" height="28" fill="white"/>
</clipPath>
</defs>
</svg>
