<svg width="24" height="24" viewBox="0 0 24 24" fill="none" xmlns="http://www.w3.org/2000/svg">
<g clip-path="url(#clip0_57_1328)">
<path fill-rule="evenodd" clip-rule="evenodd" d="M0 19.8524V2.31333C0.0275948 2.31184 0.0544438 2.30736 0.0798011 2.30736C3.13611 2.30736 6.19316 2.30289 9.24947 2.31034C10.3048 2.31333 11.1983 2.7183 11.9269 3.48126C11.9478 3.50438 11.9694 3.52526 12.0186 3.57448C12.0365 3.54391 12.0477 3.5096 12.0694 3.48648C12.7995 2.71905 13.6952 2.31333 14.755 2.31034C17.8121 2.30289 20.8676 2.30736 23.9239 2.30736H24V19.8524H23.8866C20.8348 19.8524 17.786 19.8509 14.7356 19.8539C13.8347 19.8539 13.0404 20.5714 12.9405 21.4626C12.9308 21.5387 12.9248 21.6148 12.9181 21.6938H11.0909C11.0692 21.5529 11.0566 21.4082 11.0237 21.2702C10.9302 20.868 10.7034 20.5093 10.3802 20.2523C10.057 19.9953 9.65641 19.8552 9.24351 19.8547C6.2051 19.8517 3.16818 19.8532 0.130516 19.8532L0 19.8524ZM11.0819 5.9976C11.0758 5.92046 11.0689 5.84339 11.061 5.7664C10.9611 4.87517 10.1668 4.15621 9.26663 4.15472C6.81889 4.15174 4.37265 4.15472 1.92567 4.15472C1.89956 4.15472 1.87346 4.15845 1.84736 4.15845V18.0043H1.96892C4.39354 18.0058 6.81889 17.9998 9.24425 18.008C10.3078 18.011 11.205 18.419 11.9359 19.1894C11.9567 19.2103 11.9657 19.2438 11.9806 19.2707C12.0119 19.2409 12.0172 19.2379 12.0216 19.2334C12.0351 19.2207 12.047 19.2066 12.0604 19.1931C12.7928 18.4182 13.6922 18.0103 14.7587 18.0073C17.1841 17.9991 19.6094 18.0051 22.0355 18.0036H22.1511V4.15323H22.081L14.7483 4.15397C14.3529 4.1572 13.969 4.28801 13.6539 4.52693C13.3388 4.76586 13.1092 5.10013 12.9994 5.48002C12.9531 5.64782 12.936 5.82159 12.9024 5.99611C12.3043 5.9976 11.695 5.9976 11.0819 5.9976Z" fill="black"/>
<path fill-rule="evenodd" clip-rule="evenodd" d="M12.9189 7.85327V9.69093H11.0843V7.85327H12.9189ZM11.0843 11.5458H12.9189V13.3819H11.0843V11.5458ZM12.9175 17.0781H11.082V15.2427H12.9175V17.0781Z" fill="black"/>
</g>
<defs>
<clipPath id="clip0_57_1328">
<rect width="24" height="24" fill="white"/>
</clipPath>
</defs>
</svg>
