<svg width="220" height="220" viewBox="0 0 220 220" fill="none" xmlns="http://www.w3.org/2000/svg">
<path d="M137.62 72.6875L133.712 71.0542V97.3917L140.8 80.3C141.995 77.325 140.625 73.9125 137.62 72.6875ZM80.7454 83.4792L95.2121 118.333C96.1162 120.579 98.2454 121.95 100.491 122.008C101.25 122.008 102.037 121.863 102.795 121.542L124.291 112.646C126.479 111.742 127.82 109.583 127.879 107.425C127.908 106.667 127.762 105.821 127.5 105.062L112.916 70.2083C112.07 67.9625 109.912 66.5917 107.637 66.5625C106.879 66.5625 106.12 66.7375 105.391 67L83.9246 75.8958C80.9496 77.1208 79.5204 80.5333 80.7454 83.4792ZM127.85 72.3958C127.85 70.8487 127.235 69.365 126.141 68.271C125.047 67.1771 123.563 66.5625 122.016 66.5625H117.787L127.85 90.8875" fill="#7B1FA2"/>
<g opacity="0.1">
<path d="M165.55 46.6767C181.977 57.5667 195.287 75.0934 189.31 88.9534C183.333 102.813 158.107 113.007 144.467 123.603C130.827 134.2 128.81 145.163 121 154C113.19 162.837 99.55 169.51 85.5434 168.263C71.5 167.053 57.0901 157.96 50.0867 144.98C43.0834 132.037 43.5234 115.17 45.2467 97.4234C47.0067 79.6767 50.1234 60.9767 61.1234 49.1334C72.1234 37.2534 91.08 32.1934 110.33 31.8267C129.58 31.46 149.123 35.75 165.55 46.6767Z" fill="#7B1FA2"/>
</g>
</svg>
