<svg width="16" height="16" viewBox="0 0 16 16" fill="none" xmlns="http://www.w3.org/2000/svg">
<g opacity="0.8" clip-path="url(#clip0_60_628)">
<path d="M15.75 6.7505L12.26 10.1545L13.087 14.9625C13.119 15.1742 13.0996 15.3393 13.029 15.458C12.9583 15.5767 12.8493 15.636 12.702 15.636C12.593 15.636 12.4648 15.5975 12.3175 15.5205L7.99997 13.251L3.68247 15.5205C3.53513 15.5975 3.40697 15.636 3.29797 15.636C3.15063 15.636 3.04163 15.5767 2.97097 15.458C2.9003 15.3393 2.88097 15.1742 2.91297 14.9625L3.73997 10.1545L0.240466 6.7505C0.0351331 6.5455 -0.0387003 6.35483 0.0189664 6.1785C0.0766331 6.00217 0.2498 5.8915 0.538466 5.8465L5.36547 5.1445L7.52897 0.7695C7.65697 0.5065 7.81397 0.375 7.99997 0.375C8.17963 0.375 8.33663 0.5065 8.47097 0.7695L10.6345 5.1445L15.4615 5.8465C15.7501 5.89117 15.9233 6.00183 15.981 6.1785C16.0386 6.35517 15.9616 6.54583 15.75 6.7505Z" fill="#FFCC00"/>
</g>
<defs>
<clipPath id="clip0_60_628">
<rect width="16" height="16" fill="white"/>
</clipPath>
</defs>
</svg>
