<svg width="52" height="60" viewBox="0 0 52 60" fill="none" xmlns="http://www.w3.org/2000/svg">
<g clip-path="url(#clip0_1_4383)">
<path d="M34.375 38.1484C34.3646 38.1484 34.3594 38.1484 34.3594 38.1484C34.2865 38.1484 34.2161 38.1328 34.1484 38.1016C34.0807 38.0703 34.0208 38.0286 33.9688 37.9766L26.1719 30.4609C26.1198 30.4089 26.0781 30.3464 26.0469 30.2734C26.0156 30.2005 26 30.1224 26 30.0391C26 29.9557 26.0156 29.8802 26.0469 29.8125C26.0781 29.7448 26.1198 29.6849 26.1719 29.6328L33.8438 22.2109C33.8958 22.1589 33.9557 22.1198 34.0234 22.0938C34.0911 22.0677 34.1615 22.0547 34.2344 22.0547C34.401 22.0547 34.5391 22.112 34.6484 22.2266C34.7578 22.3411 34.8125 22.4766 34.8125 22.6328C34.8125 22.7161 34.7969 22.7917 34.7656 22.8594C34.7344 22.9271 34.6927 22.987 34.6406 23.0391L27.4062 30.0391L34.7656 37.1641C34.8177 37.2161 34.8594 37.276 34.8906 37.3438C34.9219 37.4115 34.9375 37.487 34.9375 37.5703C34.9375 37.7266 34.8828 37.862 34.7734 37.9766C34.6641 38.0911 34.5312 38.1484 34.375 38.1484C34.375 38.1484 34.3724 38.1484 34.3672 38.1484C34.362 38.1484 34.3594 38.1484 34.3594 38.1484H34.375Z" fill="#E98A0A"/>
</g>
<defs>
<clipPath id="clip0_1_4383">
<rect width="16" height="16" fill="white" transform="matrix(1 0 0 -1 26 38)"/>
</clipPath>
</defs>
</svg>
