<svg width="43" height="42" viewBox="0 0 43 42" fill="none" xmlns="http://www.w3.org/2000/svg">
<path opacity="0.4" d="M30.54 18.1525C30.0612 17.4131 29.5139 16.7496 28.9471 16.1524L25.2627 19.726C25.38 20.0767 25.4484 20.4559 25.4484 20.854C25.4484 22.9773 23.6795 24.6836 21.5002 24.6836C21.0898 24.6836 20.6989 24.6172 20.3373 24.5035L16.9559 27.7832C18.3827 28.5605 19.9268 28.9681 21.5002 28.9681C23.2398 28.9681 24.9305 28.4752 26.4746 27.5557C28.0186 26.6268 29.4064 25.2713 30.54 23.5461C31.5173 22.0673 31.5173 19.6407 30.54 18.1525Z" fill="white"/>
<path d="M23.4745 18.9391L19.5263 22.7686C19.0279 22.2757 18.7054 21.5932 18.7054 20.8538C18.7054 19.3656 19.9563 18.1428 21.5004 18.1428C22.2626 18.1428 22.9663 18.4556 23.4745 18.9391Z" fill="white"/>
<path opacity="0.4" d="M27.6085 14.9298L24.2955 18.1432C23.5821 17.4417 22.5951 17.0247 21.5005 17.0247C19.3114 17.0247 17.5523 18.7404 17.5523 20.8542C17.5523 21.9159 17.9921 22.8732 18.7055 23.5652L15.4023 26.7786H15.3926C14.3078 25.9255 13.311 24.8354 12.4607 23.5463C11.4834 22.058 11.4834 19.6409 12.4607 18.1527C13.5944 16.4275 14.9821 15.072 16.5262 14.143C18.0703 13.233 19.761 12.7306 21.5005 12.7306C23.6799 12.7306 25.7908 13.5079 27.6085 14.9298Z" fill="white"/>
<path d="M24.2952 20.8539C24.2952 22.3422 23.0442 23.565 21.5001 23.565C21.4415 23.565 21.3926 23.565 21.334 23.546L24.2756 20.6928C24.2952 20.7497 24.2952 20.7971 24.2952 20.8539Z" fill="white"/>
<path d="M31.0481 11.5927C30.7549 11.3084 30.276 11.3084 29.9828 11.5927L11.9521 29.0911C11.6589 29.3755 11.6589 29.8399 11.9521 30.1243C12.0987 30.257 12.2844 30.3328 12.4798 30.3328C12.6753 30.3328 12.861 30.257 13.0076 30.1148L31.0481 12.6165C31.351 12.3321 31.351 11.8771 31.0481 11.5927Z" fill="white"/>
</svg>
