<svg width="14" height="12" viewBox="0 0 14 12" fill="none" xmlns="http://www.w3.org/2000/svg">
<path d="M13.7165 0.235977C13.5428 0.0762608 13.313 -0.0083193 13.0773 0.000646532C12.8415 0.00961236 12.6188 0.111394 12.4578 0.283839L4.27287 9.12353L1.63115 5.20272C1.49876 5.00705 1.29431 4.87171 1.06246 4.82629C0.830617 4.78088 0.590227 4.82908 0.393795 4.96034C0.197756 5.09218 0.0621022 5.29647 0.016651 5.52831C-0.0288001 5.76015 0.0196655 6.00055 0.15141 6.19666L3.42251 11.0524C3.49565 11.1622 3.59259 11.2541 3.70614 11.3213C3.81969 11.3884 3.94692 11.4292 4.07837 11.4404H4.16188C4.2847 11.44 4.40613 11.4145 4.51873 11.3655C4.63134 11.3164 4.73273 11.2449 4.81669 11.1552L13.7664 1.49064C13.9251 1.31714 14.0089 1.08801 13.9996 0.853052C13.9902 0.618096 13.8885 0.396324 13.7165 0.235977Z" fill="white"/>
</svg>
