<svg width="168" height="112" viewBox="0 0 168 112" fill="none" xmlns="http://www.w3.org/2000/svg">
<g clip-path="url(#clip0_57_2697)">
<path d="M110.751 69.6089V67.923C110.761 65.6512 109.875 63.4671 108.285 61.8442C106.666 60.3275 104.531 59.4835 102.312 59.4835C100.093 59.4835 97.9571 60.3275 96.3378 61.8442C94.7511 63.4688 93.8669 65.6521 93.876 67.923V69.6089H87.1263V67.923C87.1148 65.9506 87.5058 63.9966 88.2747 62.1802C88.9827 60.2677 90.1123 58.5393 91.5802 57.1234C93.0657 55.7836 94.7225 54.6473 96.5077 53.7446C100.261 52.3971 104.366 52.3971 108.119 53.7446C109.905 54.6473 111.562 55.7836 113.047 57.1234C114.515 58.5392 115.646 60.2676 116.354 62.1802C117.121 63.9972 117.511 65.9508 117.501 67.923V69.6089H110.751ZM77.0017 69.6089V56.1085C76.9752 53.4406 75.8968 50.891 74.0009 49.0138C72.105 47.1366 69.5452 46.0835 66.8772 46.0835C64.2091 46.0835 61.6484 47.1366 59.7525 49.0138C57.8566 50.891 56.7782 53.4406 56.7517 56.1085V69.6079H50V56.1085C49.9994 53.9118 50.4343 51.7368 51.2802 49.7095C52.1261 47.6821 53.3658 45.8428 54.9275 44.298C56.4772 42.6944 58.3343 41.4191 60.3872 40.5481C62.4402 39.6771 64.6471 39.2282 66.8772 39.2282C69.1072 39.2282 71.3142 39.6771 73.3671 40.5481C75.4201 41.4191 77.2772 42.6944 78.8268 44.298C80.3879 45.8433 81.6273 47.6828 82.4732 49.71C83.319 51.7372 83.7541 53.9119 83.7544 56.1085V69.6079L77.0017 69.6089ZM92.7608 45.31C91.4867 44.0922 90.4786 42.6241 89.799 40.9979C89.1195 39.3717 88.784 37.6226 88.8127 35.8604C88.7837 34.0981 89.1194 32.3489 89.799 30.7227C90.4786 29.0965 91.4865 27.6284 92.7608 26.4108C93.9998 25.1302 95.4843 24.1118 97.1249 23.4164C98.7654 22.7209 100.529 22.3625 102.311 22.3625C104.093 22.3625 105.856 22.7209 107.496 23.4164C109.137 24.1118 110.622 25.1302 111.861 26.4108C113.135 27.628 114.144 29.0961 114.823 30.7224C115.503 32.3487 115.838 34.0981 115.808 35.8604C115.837 37.6226 115.503 39.3719 114.823 40.9982C114.144 42.6245 113.135 44.0925 111.861 45.31C110.622 46.5906 109.137 47.6089 107.496 48.3044C105.856 48.9999 104.093 49.3583 102.311 49.3583C100.529 49.3583 98.7654 48.9999 97.1249 48.3044C95.4843 47.6089 93.9998 46.5906 92.7608 45.31ZM97.5545 31.1316C96.9235 31.7465 96.4224 32.4815 96.08 33.2933C95.7375 34.1051 95.5615 34.9773 95.5615 35.8584C95.5615 36.7395 95.7375 37.6116 96.08 38.4234C96.4224 39.2353 96.9235 39.9703 97.5545 40.5852C98.1708 41.2256 98.9105 41.7351 99.7283 42.0831C100.546 42.4311 101.425 42.6104 102.314 42.6104C103.203 42.6104 104.082 42.4311 104.9 42.0831C105.718 41.7351 106.457 41.2256 107.074 40.5852C107.703 39.9695 108.204 39.2342 108.545 38.4225C108.887 37.6108 109.063 36.739 109.063 35.8584C109.063 34.9777 108.887 34.1059 108.545 33.2942C108.204 32.4825 107.703 31.7473 107.074 31.1316C106.457 30.4912 105.718 29.9817 104.9 29.6337C104.082 29.2857 103.203 29.1063 102.314 29.1063C101.425 29.1063 100.546 29.2857 99.7283 29.6337C98.9105 29.9817 98.1708 30.4912 97.5545 31.1316ZM61.0728 34.8454C59.288 33.9432 57.6295 32.8095 56.1413 31.4736C54.675 30.0532 53.5454 28.3226 52.8348 26.4088C52.0773 24.5907 51.6874 22.6406 51.6874 20.6711C51.6874 18.7015 52.0773 16.7514 52.8348 14.9333C53.5445 13.019 54.6742 11.2883 56.1413 9.86854C57.6285 8.53143 59.2872 7.39758 61.0728 6.49669C62.9305 5.8167 64.894 5.47203 66.8723 5.47873C70.8771 5.52523 74.7145 7.09441 77.6042 9.86754C80.4557 12.7385 82.0552 16.6207 82.0552 20.6671C82.0552 24.7134 80.4557 28.5956 77.6042 31.4666C74.7133 34.2374 70.8764 35.8053 66.8723 35.8524C64.8943 35.8625 62.9304 35.5212 61.0718 34.8444L61.0728 34.8454ZM60.8999 14.6003C59.3189 16.2266 58.4342 18.4054 58.4342 20.6736C58.4342 22.9417 59.3189 25.1205 60.8999 26.7468C62.5193 28.2635 64.6545 29.1075 66.8733 29.1075C69.092 29.1075 71.2273 28.2635 72.8466 26.7468C74.4256 25.1194 75.3094 22.941 75.3094 20.6736C75.3094 18.4061 74.4256 16.2277 72.8466 14.6003C71.2294 13.0794 69.0933 12.2326 66.8733 12.2326C64.6532 12.2326 62.5171 13.0794 60.8999 14.6003ZM93.7529 14.1703L88.1985 17.0002L89.2561 10.9575L84.7621 6.61468L90.9738 5.66872L93.7568 0.000976562L96.5331 5.66772L102.726 6.61368L98.2498 10.9565L99.3074 16.9992L93.7529 14.1703Z" fill="white"/>
</g>
<defs>
<clipPath id="clip0_57_2697">
<rect width="67.5" height="69.6094" fill="white" transform="translate(50)"/>
</clipPath>
</defs>
</svg>
