<svg width="38" height="28" viewBox="0 0 38 28" fill="none" xmlns="http://www.w3.org/2000/svg">
<g clip-path="url(#clip0_30_9873)">
<path fill-rule="evenodd" clip-rule="evenodd" d="M28 22.9659C27.7076 23.608 27.1693 23.7385 26.5222 23.7385C18.1749 23.7301 9.82592 23.7301 1.47775 23.7385C0.829002 23.7385 0.290732 23.6089 0 22.9659V21.2174C0.234247 20.6592 0.639611 20.4415 1.25513 20.4432C9.75199 20.4565 18.2488 20.4565 26.7449 20.4432C27.3596 20.4415 27.7666 20.6592 28.0008 21.2174L28 22.9659ZM2.12733 19.3916C2.15059 16.3165 3.16898 13.6334 5.22736 11.3832C7.28243 9.13539 9.85748 7.86115 12.896 7.55131V6.50468C12.5779 6.50468 12.2697 6.52129 11.9665 6.50053C11.4789 6.47145 11.0437 6.33273 10.8418 5.8252C10.6142 5.24955 10.8734 4.41307 11.6559 4.32003C11.9067 4.29013 12.1584 4.2677 12.4101 4.26687C13.5955 4.26189 14.7808 4.26023 15.9637 4.26936C16.1473 4.27019 16.3416 4.29345 16.5169 4.35575C17.0585 4.5493 17.3002 4.95964 17.2197 5.56852C17.1665 5.98302 16.9065 6.38506 16.3225 6.45069C15.9263 6.49471 15.5309 6.50634 15.1139 6.53541V7.5455C19.0023 7.99323 22.03 9.88049 24.1274 13.1824C25.3203 15.0588 25.8735 17.1455 25.8702 19.3941C17.9564 19.3916 10.061 19.3916 2.12733 19.3916Z" fill="#E785FB"/>
</g>
<defs>
<clipPath id="clip0_30_9873">
<rect width="28" height="28" fill="white"/>
</clipPath>
</defs>
</svg>
