<svg width="28" height="19" viewBox="0 0 28 19" fill="none" xmlns="http://www.w3.org/2000/svg">
<g clip-path="url(#clip0_1_4798)">
<path d="M15.8658 3.01141e-05C13.3151 -0.00551087 10.8212 0.753721 8.7061 2.17973C6.59101 3.60574 4.95178 5.63306 4 8.00003C4.95545 10.3647 6.59539 12.3899 8.70946 13.816C10.8235 15.242 13.3153 16.0039 15.8653 16.0039C18.4153 16.0039 20.9071 15.242 23.0211 13.816C25.1352 12.3899 26.7751 10.3647 27.7306 8.00003C26.7789 5.63322 25.1398 3.606 23.0249 2.18001C20.91 0.754014 18.4164 -0.00531077 15.8658 3.01141e-05ZM15.8658 13.335C14.8134 13.3236 13.7879 13.001 12.9183 12.4079C12.0488 11.8147 11.3742 10.9776 10.9794 10.0018C10.5845 9.02598 10.4871 7.95516 10.6994 6.92412C10.9118 5.89309 11.4243 4.94791 12.1725 4.20759C12.9208 3.46727 13.8712 2.96489 14.9043 2.76369C15.9374 2.5625 17.0069 2.67148 17.9782 3.07692C18.9495 3.48237 19.7791 4.16614 20.3627 5.04218C20.9463 5.91821 21.2577 6.94735 21.2578 8.00003C21.2462 9.42142 20.6725 10.7804 19.6622 11.7801C18.6518 12.7797 17.287 13.3388 15.8658 13.335ZM15.8658 4.80003C15.2346 4.80733 14.6197 5.00119 14.0985 5.35722C13.5772 5.71325 13.1729 6.21554 12.9364 6.80086C12.6999 7.38619 12.6418 8.02841 12.7694 8.64669C12.897 9.26497 13.2046 9.83169 13.6535 10.2755C14.1024 10.7194 14.6725 11.0205 15.2921 11.141C15.9117 11.2615 16.5531 11.196 17.1355 10.9527C17.718 10.7095 18.2155 10.2994 18.5655 9.77395C18.9154 9.24854 19.1022 8.63135 19.1022 8.00003C19.0945 7.14729 18.7499 6.33221 18.1436 5.73269C17.5373 5.13316 16.7184 4.79788 15.8658 4.80003Z" fill="#585858"/>
</g>
<defs>
<clipPath id="clip0_1_4798">
<rect width="23.73" height="16" fill="white" transform="translate(4)"/>
</clipPath>
</defs>
</svg>
