<svg width="23" height="29" viewBox="0 0 23 29" fill="none" xmlns="http://www.w3.org/2000/svg">
<path d="M20.9428 10.3762C21.974 10.5348 22.3707 11.8041 21.617 12.5577L17.4523 16.6431L18.4439 22.3945C18.6026 23.4257 17.492 24.219 16.5797 23.7431L11.4233 21.0062L6.2273 23.7431C5.31502 24.219 4.20442 23.4257 4.36307 22.3945L5.35468 16.6431L1.18993 12.5577C0.436307 11.8041 0.83295 10.5348 1.86422 10.3762L7.69488 9.54323L10.2731 4.26788C10.749 3.31594 12.0976 3.3556 12.5339 4.26788L15.1518 9.54323L20.9428 10.3762ZM15.3898 15.9688L19.3958 12.0817L13.8825 11.2885L11.4233 6.29076L8.92447 11.2885L3.41113 12.0817L7.41723 15.9688L6.46528 21.4425L11.4233 18.8643L16.3417 21.4425L15.3898 15.9688Z" fill="#A0A0A0"/>
</svg>
