<svg width="391" height="45" viewBox="0 0 391 45" fill="none" xmlns="http://www.w3.org/2000/svg">
<g clip-path="url(#clip0_1_6183)">
<path fill-rule="evenodd" clip-rule="evenodd" d="M250.922 9.8172H290.922V17.363H250.922V9.8172Z" fill="#EE2C55"/>
<path fill-rule="evenodd" clip-rule="evenodd" d="M282.572 24.347C282.757 24.5078 282.904 24.7066 283.006 24.9298C283.107 25.1532 283.159 25.3957 283.159 25.6412C283.159 25.8865 283.107 26.1292 283.006 26.3524C282.904 26.5757 282.757 26.7745 282.572 26.9353C282.177 27.2804 281.671 27.4704 281.147 27.4704C280.624 27.4704 280.118 27.2804 279.722 26.9353L272.135 20.0384H269.645L262.057 26.9353C261.662 27.2804 261.156 27.4704 260.632 27.4704C260.109 27.4704 259.603 27.2804 259.207 26.9353C259.023 26.774 258.876 26.575 258.776 26.3518C258.675 26.1286 258.623 25.8864 258.623 25.6412C258.623 25.396 258.675 25.1536 258.776 24.9304C258.876 24.7072 259.023 24.5082 259.207 24.347L263.952 20.0384L253.422 19.8774V39.9996H288.422V19.8774L277.827 20.0384L282.572 24.347Z" fill="#EE2C55"/>
<path fill-rule="evenodd" clip-rule="evenodd" d="M280.743 -0.000305176C277.845 -0.000305176 274.185 2.10749 270.843 5.66658C267.508 2.10749 263.848 -0.000305176 260.958 -0.000305176C259.478 -0.000305176 258.213 0.555568 257.308 1.60191C255.81 3.32235 255.613 6.68526 256.575 9.91234H261.475C261.475 9.91234 260 7.37947 260.405 5.17359C260.443 5.12831 260.6 5.04531 260.955 5.04531C262.388 5.04531 265.718 6.75066 268.598 9.91234H273.21C276.103 6.73305 279.26 5.04531 280.743 5.04531C281.183 5.04531 281.293 5.16855 281.293 5.16855C281.603 8.03093 280.213 9.91234 280.213 9.91234H285.308C286.276 6.68526 285.883 3.32235 284.395 1.60191C283.485 0.555568 282.225 -0.000305176 280.745 -0.000305176H280.743Z" fill="#EE2C55"/>
</g>
<rect x="251.422" y="0.5" width="39" height="39" rx="9.5" stroke="#EFEFEF"/>
<g clip-path="url(#clip1_1_6183)">
<path d="M338.903 10.3C338.296 10.0264 337.621 9.9374 336.964 10.0441C336.306 10.1507 335.695 10.4484 335.205 10.9L330.907 14.9V12C330.907 10.4087 330.275 8.88257 329.151 7.75736C328.026 6.63214 326.501 6 324.91 6H306.919C305.328 6 303.803 6.63214 302.678 7.75736C301.554 8.88257 300.922 10.4087 300.922 12V28C300.922 29.5913 301.554 31.1175 302.678 32.2427C303.803 33.3679 305.328 34 306.919 34H324.91C326.501 34 328.026 33.3679 329.151 32.2427C330.275 31.1175 330.907 29.5913 330.907 28V25.1L335.225 29.1C335.861 29.6757 336.686 29.9963 337.544 30C338.019 29.9989 338.49 29.8967 338.923 29.7C339.513 29.4613 340.018 29.0523 340.374 28.5251C340.73 27.9979 340.921 27.3763 340.922 26.74V13.26C340.919 12.6214 340.725 11.9982 340.365 11.4707C340.006 10.9432 339.496 10.5355 338.903 10.3Z" fill="#151515"/>
</g>
<rect x="301.422" y="0.5" width="39" height="39" rx="9.5" stroke="#EFEFEF"/>
<rect x="351.422" y="0.5" width="39" height="39" rx="9.5" stroke="#DDDDDD"/>
<path d="M371.099 17.7188C372.47 17.7188 373.63 18.8789 373.63 20.25C373.63 21.6562 372.47 22.7812 371.099 22.7812C369.693 22.7812 368.568 21.6562 368.568 20.25C368.568 18.8789 369.693 17.7188 371.099 17.7188ZM368.568 14.0625C368.568 12.6914 369.693 11.5312 371.099 11.5312C372.47 11.5312 373.63 12.6914 373.63 14.0625C373.63 15.4688 372.47 16.5938 371.099 16.5938C369.693 16.5938 368.568 15.4688 368.568 14.0625ZM368.568 26.4375C368.568 25.0664 369.693 23.9062 371.099 23.9062C372.47 23.9062 373.63 25.0664 373.63 26.4375C373.63 27.8438 372.47 28.9688 371.099 28.9688C369.693 28.9688 368.568 27.8438 368.568 26.4375Z" fill="#111111"/>
<defs>
<clipPath id="clip0_1_6183">
<rect x="250.922" width="40" height="40" rx="10" fill="white"/>
</clipPath>
<clipPath id="clip1_1_6183">
<rect x="300.922" width="40" height="40" rx="10" fill="white"/>
</clipPath>
</defs>
</svg>
