<svg width="80" height="80" viewBox="0 0 80 80" fill="none" xmlns="http://www.w3.org/2000/svg">
<g clip-path="url(#clip0_30_11685)">
<path fill-rule="evenodd" clip-rule="evenodd" d="M42.7044 59.2036C41.2628 59.1804 39.538 59.1492 37.8248 58.9203C35.7924 58.6488 33.8508 58.046 31.9692 57.2472C29.0008 55.9872 26.2532 54.3359 23.6388 52.4584C21.2241 50.7209 18.9357 48.8142 16.7908 46.7528C16.3048 46.286 15.708 45.9268 15.1348 45.5612C11.6716 43.3564 8.15604 41.24 4.52564 39.3204C3.88884 38.9836 3.20164 38.74 2.57204 38.392C2.07404 38.1168 1.59004 37.7896 1.16844 37.4092C0.627639 36.9208 0.467639 36.2808 0.695639 35.5656C0.971639 34.6996 1.59124 34.3356 2.48564 34.5392C3.58564 34.7908 4.48324 35.4 5.27204 36.178C6.43644 37.3256 7.60324 38.472 8.73604 39.6512C9.57924 40.5272 10.518 41.2803 11.5148 41.9632C13.1812 43.1047 14.8448 44.2512 16.5412 45.3471C17.5188 45.9791 18.5512 46.5292 19.5732 47.0892C19.8392 47.2352 20.1532 47.3316 20.4544 47.3644C20.82 47.4044 20.9544 47.166 20.7724 46.8444C20.4184 46.2196 19.9176 45.706 19.35 45.29C18.4508 44.6315 17.4984 44.0452 16.5728 43.4216C16.1712 43.1508 15.7696 42.8787 15.3896 42.58C15.0016 42.2752 14.9028 41.9292 15.0476 41.5652C15.2048 41.1712 15.6292 40.8888 16.0644 40.9364C16.232 40.9548 16.4252 41.034 16.5452 41.1488C17.0763 41.6612 17.5944 42.1869 18.0988 42.7256C18.3858 43.0312 18.6531 43.3546 18.8992 43.694C19.45 44.4548 20.2488 44.9028 20.9956 45.4228C22.836 46.7048 24.668 47.998 26.5016 49.288C26.6292 49.3784 26.7604 49.4696 26.864 49.5836C27.506 50.292 28.3528 50.5568 29.2568 50.6696C31.5756 50.9592 33.7656 50.5356 35.8304 49.4452C37.744 48.4344 38.9412 46.8496 39.6052 44.8144C40.1508 43.144 40.4944 41.4335 40.6784 39.6915C40.8124 38.4288 40.9252 37.1612 40.9816 35.8928C41.05 34.3608 41.0848 32.8244 41.0668 31.2908C41.0524 30.0748 40.7492 28.8916 40.474 27.7108C40.1908 26.4988 39.908 25.2868 39.6308 24.0744C39.3416 22.816 40.0156 21.9828 40.7624 21.5904C41.7228 21.0856 42.978 21.2528 43.6804 21.9904C44.0464 22.3752 44.2088 22.85 44.2516 23.372C44.3088 24.0736 44.0908 24.7332 43.9492 25.4056C43.6512 26.8232 43.3364 28.2392 43.0888 29.666C42.8708 30.9228 42.9344 32.1972 43.0132 33.466C43.048 34.0224 43.066 34.5804 43.12 35.1344C43.22 36.152 43.3224 37.1704 43.4564 38.1844C43.6947 40.0064 43.9489 41.8263 44.2188 43.644C44.3272 44.3724 44.494 45.0932 44.6504 45.8135C44.6932 46.0116 44.7852 46.2012 44.872 46.3864C45.2696 47.2364 45.8804 47.528 46.8616 47.2532C47.6796 47.0236 48.2464 46.5032 48.5764 45.6896C49.1608 44.2504 49.9488 42.9244 50.9796 41.7548C51.1516 41.56 51.3612 41.3924 51.5732 41.2411C51.852 41.0431 52.1528 40.9716 52.4632 41.1988C52.8012 41.4452 53.0292 41.7716 52.9052 42.1868C52.791 42.5616 52.619 42.9164 52.3956 43.2384C52.0636 43.7152 51.6532 44.1372 51.304 44.6032C50.7744 45.31 50.3244 46.0604 50.11 46.9328C49.9284 47.6728 50.0968 48.3012 50.6804 48.7992C52.5816 50.422 54.7436 51.3535 57.284 51.2203C58.342 51.1647 59.3148 50.8055 60.1636 50.1732C62.8772 48.1524 65.5872 46.1264 68.2796 44.0784C68.9108 43.598 69.4756 43.0284 70.0584 42.4868C70.6712 41.9168 71.34 41.4524 72.1916 41.3448C73.0516 41.2352 73.6556 41.7852 73.3648 42.6864C73.1768 43.27 72.76 43.6332 72.1808 43.806C71.8988 43.89 71.606 43.9356 71.3208 44.0075C70.796 44.1391 70.268 44.2584 69.7524 44.4192C68.8788 44.692 68.166 45.2012 67.5452 45.882C65.984 47.5932 64.3984 49.2812 62.8104 50.9676C61.404 52.462 59.8096 53.7351 58.1704 54.968C55.4188 57.0364 52.326 58.2263 48.9528 58.7607C46.9748 59.0743 44.986 59.2016 42.7044 59.2036ZM42.0004 23.312C42.4028 23.312 42.8052 23.3256 43.206 23.3036C43.3256 23.2968 43.4752 23.218 43.5488 23.1236C43.8544 22.7328 43.7228 22.2324 43.2216 21.95C42.4268 21.5028 41.6028 21.492 40.802 21.9236C40.6012 22.0316 40.4244 22.248 40.3212 22.456C40.13 22.8412 40.4264 23.3728 40.894 23.3204C41.2584 23.2804 41.6312 23.3128 42.0004 23.312ZM16.0084 42.0056V42.0164C16.1964 42.0164 16.3844 42.0092 16.572 42.0184C16.8056 42.0303 16.9188 41.8955 16.8112 41.6859C16.7232 41.5144 16.6136 41.3408 16.472 41.2124C16.0768 40.8548 15.3472 41.0584 15.1628 41.562C15.0588 41.8452 15.1916 42.0204 15.4928 42.0064C15.6644 41.9988 15.8364 42.0056 16.0084 42.0056ZM52.0328 42.2V42.1968C52.1724 42.1968 52.3112 42.1988 52.4508 42.1964C52.7272 42.1912 52.8348 42.0644 52.7944 41.7944C52.7404 41.438 52.4396 41.1636 52.09 41.152C51.7532 41.1412 51.3568 41.4456 51.2908 41.7672C51.2392 42.016 51.3928 42.2048 51.64 42.2008C51.7712 42.1984 51.9024 42.2 52.0328 42.2ZM42.0752 17.8756C40.6176 17.9516 39.1272 16.712 39.1172 14.9568C39.108 13.3336 40.4396 11.9872 42.0524 11.9952C43.8128 12.004 45.0164 13.4672 45.0088 14.9576C45.0004 16.6188 43.5672 17.9444 42.0752 17.8756ZM42.0748 14.0432V14.0476C42.4772 14.0476 42.8796 14.0544 43.2816 14.0424C43.3768 14.0396 43.4908 13.9956 43.5596 13.9312C43.9004 13.61 43.8532 13.1484 43.456 12.7968C42.786 12.2028 41.2852 12.2112 40.6344 12.83C40.5048 12.9532 40.4056 13.1352 40.3552 13.3084C40.2468 13.6812 40.536 14.0408 40.9168 14.0428C41.3024 14.0448 41.6888 14.0432 42.0748 14.0432ZM77.7048 41.6808C76.9076 41.68 76.2424 41.0175 76.244 40.2248C76.2448 39.4359 76.9236 38.76 77.708 38.7664C78.4904 38.7732 79.152 39.4348 79.1576 40.2152C79.1628 41.0044 78.4916 41.6816 77.7048 41.6808ZM77.72 39.8804V39.884C77.9004 39.884 78.0816 39.8712 78.26 39.8872C78.4432 39.9044 78.6236 39.8692 78.6552 39.6884C78.6832 39.5308 78.658 39.308 78.5608 39.1988C78.436 39.0584 78.2244 38.9608 78.0344 38.9204C77.5952 38.8272 77.1564 38.8556 76.8444 39.2344C76.7632 39.3332 76.7424 39.5228 76.7676 39.6568C76.798 39.8244 76.9568 39.8864 77.1312 39.8816C77.3272 39.8764 77.524 39.8804 77.72 39.8804Z" fill="#B21A9D"/>
<path fill-rule="evenodd" clip-rule="evenodd" d="M55.4741 37.0621C55.9801 37.3601 56.2701 37.7773 56.2377 38.3901C56.2049 39.0177 55.6833 39.5709 55.0649 39.6125C54.3357 39.6621 53.7413 39.2221 53.6049 38.5713C53.4453 37.8129 53.9541 37.0173 54.8641 36.9521C55.0681 36.9373 55.2793 37.0277 55.4869 37.0701C55.3817 37.0549 55.2769 37.0389 55.1709 37.0253C54.8277 36.9805 54.4849 36.9941 54.2273 37.2497C54.1357 37.3401 54.0785 37.5401 54.1133 37.6577C54.1417 37.7537 54.3273 37.8529 54.4505 37.8625C54.7857 37.8839 55.122 37.8798 55.4565 37.8505C55.5669 37.8417 55.7285 37.7585 55.7605 37.6705C55.7997 37.5645 55.7469 37.4081 55.6933 37.2913C55.6517 37.2001 55.5489 37.1373 55.4741 37.0621ZM12.9689 39.8169C12.2077 39.8173 11.6449 39.2597 11.6433 38.5029C11.6417 37.7445 12.2021 37.1973 12.9581 37.1737C13.5801 37.1537 14.3105 37.6037 14.3057 38.5049C14.3001 39.3853 13.5901 39.8585 12.9689 39.8169ZM12.9845 38.1045V38.1173C13.1397 38.1173 13.2993 38.1385 13.4493 38.1109C13.5717 38.0877 13.7429 38.0349 13.7841 37.9453C13.8337 37.8381 13.8141 37.6457 13.7441 37.5465C13.4609 37.1445 12.4825 37.1557 12.2017 37.5617C12.1381 37.6529 12.1177 37.8221 12.1585 37.9225C12.1929 38.0073 12.3393 38.0789 12.4457 38.0965C12.6213 38.1249 12.8041 38.1045 12.9845 38.1045Z" fill="#B21A9D"/>
<path fill-rule="evenodd" clip-rule="evenodd" d="M55.4741 37.062C55.5493 37.1372 55.6517 37.2 55.6929 37.2904C55.7465 37.4072 55.7993 37.564 55.7601 37.6696C55.7281 37.7576 55.5669 37.8408 55.4561 37.8496C55.1215 37.879 54.7852 37.883 54.4501 37.8616C54.3269 37.8524 54.1417 37.7532 54.1129 37.6568C54.0781 37.5392 54.1357 37.3392 54.2269 37.2488C54.4849 36.9932 54.8273 36.9796 55.1705 37.0244C55.2765 37.038 55.3813 37.054 55.4865 37.0692L55.4741 37.062ZM42.0005 23.3128C41.6313 23.3128 41.2585 23.2804 40.8937 23.3212C40.4261 23.3736 40.1301 22.842 40.3209 22.4568C40.4241 22.2484 40.6009 22.0324 40.8017 21.9244C41.6025 21.4928 42.4265 21.5036 43.2213 21.9508C43.7225 22.2332 43.8541 22.7336 43.5485 23.1244C43.4613 23.2259 43.3387 23.2902 43.2057 23.3044C42.8053 23.3256 42.4029 23.312 42.0005 23.3128ZM16.0085 42.0056C15.8369 42.0056 15.6649 41.9988 15.4933 42.0068C15.1921 42.0208 15.0593 41.8456 15.1633 41.5624C15.3477 41.0588 16.0773 40.8552 16.4725 41.2128C16.6141 41.3408 16.7233 41.5148 16.8117 41.6864C16.9193 41.896 16.8061 42.0308 16.5725 42.0188C16.3849 42.01 16.1969 42.0168 16.0089 42.0168L16.0085 42.0056ZM52.0329 42.2C51.9025 42.2 51.7713 42.1984 51.6405 42.2008C51.3933 42.2048 51.2397 42.016 51.2913 41.7672C51.3573 41.4456 51.7537 41.1412 52.0905 41.152C52.4401 41.1636 52.7409 41.4384 52.7949 41.7944C52.8353 42.0644 52.7277 42.1912 52.4513 42.1964C52.3117 42.1988 52.1729 42.1968 52.0333 42.1968L52.0329 42.2ZM42.0749 14.0432C41.6889 14.0432 41.3025 14.0448 40.9169 14.0428C40.5361 14.0408 40.2465 13.6812 40.3553 13.3084C40.4057 13.1352 40.5049 12.9528 40.6345 12.83C41.2853 12.2112 42.7861 12.2032 43.4561 12.7968C43.8533 13.1488 43.9001 13.6104 43.5597 13.9312C43.4822 13.9985 43.3842 14.0377 43.2817 14.0424C42.8797 14.0544 42.4773 14.0476 42.0749 14.0476V14.0432ZM77.7201 39.8804C77.5241 39.8804 77.3277 39.8764 77.1309 39.8816C76.9561 39.8864 76.7977 39.824 76.7673 39.6568C76.7425 39.5228 76.7629 39.3332 76.8441 39.2344C77.1557 38.8556 77.5949 38.8268 78.0341 38.9204C78.2245 38.9612 78.4361 39.0588 78.5605 39.1988C78.6577 39.3076 78.6833 39.5308 78.6549 39.6884C78.6233 39.8692 78.4429 39.9044 78.2597 39.8872C78.0817 39.8712 77.9005 39.884 77.7197 39.884L77.7201 39.8804ZM12.9845 38.1044C12.8041 38.1044 12.6213 38.1248 12.4457 38.0964C12.3389 38.0788 12.1929 38.0072 12.1585 37.9224C12.1177 37.822 12.1385 37.6524 12.2017 37.5616C12.4829 37.1556 13.4609 37.1444 13.7441 37.5464C13.8141 37.6456 13.8337 37.838 13.7841 37.9452C13.7425 38.0348 13.5713 38.0876 13.4493 38.1108C13.2993 38.138 13.1397 38.1172 12.9845 38.1172V38.1044Z" fill="#B21A9D"/>
<path fill-rule="evenodd" clip-rule="evenodd" d="M35.0757 68.2868C28.7909 68.2024 23.9137 62.6736 24.6513 56.4616C24.9865 53.6396 26.3501 51.3336 28.0885 49.2072C30.7797 45.9164 34.1089 43.3516 37.6445 41.0472C39.0213 40.1492 40.4561 39.3388 41.8825 38.5208C42.0825 38.406 42.4661 38.3684 42.6189 38.4856C42.7665 38.5992 42.8253 38.9916 42.7533 39.204C41.1677 43.9124 41.9285 48.3276 44.2901 52.5956C47.6277 58.6272 44.4261 66.0868 37.7649 67.852C36.8917 68.0828 35.9733 68.146 35.0757 68.2868ZM28.8153 51.492C26.1653 54.7856 25.6853 58.812 27.7689 62.2104C29.7573 65.4528 33.6329 66.9924 37.2969 66.026C40.1357 65.2776 43.1293 62.3768 43.2061 60.3004C40.5381 64.6696 35.4849 64.598 32.5725 63.0208C30.7629 62.0416 29.4217 60.6232 28.6417 58.7192C27.6505 56.3004 27.7905 53.8896 28.8153 51.492Z" fill="#EAE4E9"/>
<path d="M35.0757 68.7084H35.0701C33.4869 68.6906 31.9264 68.3298 30.4961 67.6508C29.1201 66.9997 27.8931 66.0718 26.8917 64.9252C25.8951 63.7929 25.1421 62.4677 24.6793 61.032C24.1972 59.5425 24.0449 57.9659 24.2329 56.4116C24.5361 53.8592 25.6245 51.5552 27.7621 48.9408C30.1289 46.0468 33.1057 43.5028 37.4145 40.6936C38.6669 39.8776 39.9829 39.1232 41.2553 38.3944L41.6729 38.1548C41.8505 38.0532 42.0969 37.9928 42.3321 37.9928C42.5557 37.9928 42.7385 38.046 42.8749 38.1512C43.2081 38.408 43.2613 39.0156 43.1521 39.3388C41.6969 43.6608 42.1897 47.9304 44.6581 52.3916C46.3089 55.3748 46.4953 58.8676 45.1697 61.9756C43.8405 65.092 41.1801 67.3824 37.8725 68.2592C37.2489 68.4244 36.6069 68.5068 35.9861 68.5868C35.7073 68.6228 35.4193 68.66 35.1409 68.704C35.1193 68.7069 35.0975 68.7084 35.0757 68.7084ZM42.3325 38.8348C42.2289 38.8348 42.1281 38.8652 42.0925 38.8856L41.6741 39.1256C40.4121 39.8488 39.1073 40.5964 37.8749 41.4C33.6417 44.1596 30.7245 46.65 28.4149 49.4748C26.3845 51.9576 25.3529 54.128 25.0697 56.512C24.8966 57.9455 25.0369 59.3996 25.4809 60.7736C25.9085 62.0998 26.6043 63.324 27.5249 64.37C28.4502 65.4303 29.5846 66.2881 30.8569 66.8896C32.1671 67.5119 33.5958 67.8447 35.0461 67.8656C35.3245 67.8224 35.6061 67.7864 35.8785 67.7512C36.4997 67.6712 37.0865 67.5952 37.6565 67.444C40.7121 66.6348 43.1681 64.5204 44.3949 61.6448C45.6181 58.7776 45.4449 55.5532 43.9213 52.7996C42.6789 50.554 41.9053 48.3068 41.6233 46.1192C41.3213 43.7776 41.5673 41.4064 42.3537 39.0696C42.3701 39.0216 42.3625 38.91 42.3441 38.8356C42.3409 38.8348 42.3369 38.8348 42.3325 38.8348ZM35.0985 66.7332C33.5737 66.7332 32.0617 66.3424 30.7261 65.604C29.3656 64.8498 28.2231 63.7567 27.4097 62.4308C26.3473 60.698 25.8933 58.74 26.0977 56.7688C26.2977 54.8384 27.1237 52.9224 28.4869 51.228C28.5106 51.1727 28.5458 51.1232 28.5903 51.0827C28.6347 51.0422 28.6873 51.0116 28.7445 50.9931C28.8017 50.9746 28.8622 50.9686 28.922 50.9755C28.9817 50.9823 29.0393 51.0019 29.0908 51.0328C29.1424 51.0637 29.1867 51.1054 29.2208 51.1549C29.255 51.2044 29.2781 51.2606 29.2887 51.3198C29.2993 51.379 29.297 51.4398 29.2822 51.498C29.2673 51.5563 29.2401 51.6107 29.2025 51.6576C28.1721 54.068 28.1161 56.326 29.0309 58.5592C29.7525 60.32 31.0113 61.6968 32.7725 62.6508C33.8849 63.2528 35.2409 63.5844 36.5913 63.5844C38.1285 63.5844 40.9845 63.1292 42.8465 60.0808C42.8946 60.0006 42.9681 59.9388 43.0553 59.9051C43.1425 59.8714 43.2385 59.8677 43.328 59.8947C43.4176 59.9216 43.4956 59.9776 43.5497 60.0539C43.6038 60.1301 43.631 60.2222 43.6269 60.3156C43.5857 61.4132 42.8401 62.7424 41.5797 63.964C40.3469 65.1584 38.8245 66.0584 37.4041 66.434C36.6516 66.6325 35.8767 66.7331 35.0985 66.7332ZM27.6181 54.2616C26.5085 56.8472 26.6609 59.5984 28.1277 61.9904C28.8588 63.1826 29.8837 64.1673 31.1042 64.8502C32.3246 65.5331 33.7 65.8914 35.0985 65.8908C35.8025 65.8908 36.5057 65.7992 37.1889 65.6184C38.4741 65.2796 39.8613 64.4556 40.9941 63.3588C41.1637 63.194 41.3233 63.0276 41.4717 62.8592C39.7137 64.178 37.7917 64.4268 36.5909 64.4268C35.1033 64.4268 33.6045 64.0588 32.3709 63.3912C30.4345 62.3428 29.0485 60.8244 28.2513 58.8788C27.6381 57.3812 27.4269 55.8372 27.6181 54.2616Z" fill="#B21A9D"/>
<path fill-rule="evenodd" clip-rule="evenodd" d="M22.8529 45.0492C19.6045 45.04 16.7185 42.77 15.9997 39.6592C15.2517 36.4204 16.7613 33.2548 19.6845 31.7068C21.9193 30.5232 24.2613 30.3944 26.6801 30.7516C31.0829 31.4016 35.2113 32.98 39.3449 34.5364C39.6781 34.662 40.0285 34.7644 40.3309 34.9448C40.5417 35.0704 40.8197 35.3104 40.8197 35.4996C40.8201 35.6824 40.5365 35.956 40.3205 36.0356C35.9525 37.6512 31.9817 39.9752 28.2529 42.738C27.6165 43.2096 26.9837 43.6912 26.3117 44.1068C25.2589 44.7576 24.0821 45.0148 22.8529 45.0492ZM25.9585 41.988C23.6457 42.4172 21.6901 41.8488 20.2849 39.9584C18.8721 38.0576 18.8765 36.006 19.8917 33.8944C18.4365 34.9004 17.7237 36.2852 17.7113 38.032C17.6969 40.086 18.9829 41.9664 20.9233 42.7608C22.6253 43.458 24.8689 43.1284 25.9585 41.988Z" fill="#EAE4E9"/>
<path d="M22.8528 45.4708H22.8516C19.4064 45.4612 16.352 43.0564 15.5892 39.754C14.8068 36.3672 16.3732 32.984 19.4872 31.3348C20.9856 30.5412 22.608 30.1552 24.4472 30.1552C25.1724 30.1552 25.9228 30.214 26.7416 30.3348C31.0916 30.9768 35.2232 32.5336 39.2184 34.0388L39.4932 34.1428C39.5688 34.1712 39.6464 34.1988 39.7232 34.226C39.9968 34.3232 40.2792 34.424 40.5464 34.5832C40.7092 34.68 41.2408 35.0328 41.2408 35.4992C41.2416 35.92 40.7912 36.3103 40.466 36.4303C36.444 37.9179 32.5308 40.092 28.5032 43.0768L28.284 43.2392C27.7228 43.6556 27.1424 44.0872 26.5328 44.4644C25.504 45.1004 24.3044 45.4292 22.8648 45.4704L22.8528 45.4708ZM24.4472 30.998C22.7488 30.998 21.2552 31.3516 19.8812 32.0792C18.522 32.7992 17.4728 33.888 16.8472 35.2276C16.2172 36.576 16.066 38.0752 16.41 39.5648C17.0852 42.4876 19.792 44.6164 22.8472 44.6284C24.1316 44.5912 25.1924 44.3036 26.0896 43.7488C26.6688 43.3904 27.2344 42.97 27.7816 42.5632L28.0012 42.4C32.0936 39.3676 36.0756 37.1564 40.1732 35.6411C40.2284 35.6199 40.308 35.5568 40.3596 35.5012C40.287 35.426 40.2047 35.3609 40.1148 35.3075C39.9192 35.1912 39.6864 35.1084 39.44 35.0208C39.358 34.9912 39.2764 34.9624 39.1956 34.9316L38.9212 34.828C34.9672 33.3384 30.8788 31.798 26.6184 31.1688C25.8408 31.054 25.1308 30.998 24.4472 30.998ZM22.8516 43.546C22.8512 43.546 22.8512 43.546 22.8516 43.546C22.1172 43.546 21.3952 43.4092 20.7636 43.1508C19.7381 42.7326 18.8587 42.0212 18.2356 41.1056C17.6092 40.1848 17.282 39.1204 17.2896 38.0288C17.3032 36.13 18.0976 34.6224 19.6516 33.5476C19.7281 33.4953 19.8198 33.4696 19.9123 33.4746C20.0048 33.4795 20.0932 33.5148 20.1637 33.575C20.2342 33.6351 20.2829 33.7168 20.3023 33.8075C20.3218 33.8981 20.3108 33.9926 20.2712 34.0764C19.258 36.1844 19.3732 38.0252 20.6228 39.7064C21.6208 41.0488 22.9096 41.702 24.5624 41.702C24.9788 41.702 25.4224 41.6588 25.8812 41.5732C25.9689 41.557 26.0593 41.569 26.1397 41.6074C26.2201 41.6459 26.2862 41.7088 26.3286 41.7872C26.371 41.8656 26.3875 41.9553 26.3756 42.0437C26.3638 42.132 26.3243 42.2143 26.2628 42.2788C25.5052 43.0724 24.2296 43.546 22.8516 43.546ZM18.9 35.4388C18.3924 36.166 18.1396 37.026 18.1328 38.034C18.1196 39.9 19.3056 41.6424 21.0832 42.3708C21.6144 42.5888 22.2256 42.7036 22.8512 42.7036C23.31 42.7036 23.7524 42.6444 24.1564 42.532C22.4308 42.4276 21.016 41.6476 19.9468 40.2092C18.8668 38.7564 18.5172 37.1576 18.9 35.4388Z" fill="#B21A9D"/>
<path fill-rule="evenodd" clip-rule="evenodd" d="M45.5237 42.5312C45.6385 41.55 45.7217 40.5628 45.8785 39.588C45.9733 39 46.4141 38.8472 46.8113 39.2624C48.0005 40.504 49.5389 40.7852 51.1397 40.9376C52.6381 41.0808 54.1481 41.1596 55.6313 41.4012C58.9869 41.9484 61.2813 44.9752 60.9705 48.3284C60.8212 49.9563 60.0568 51.466 58.833 52.5498C57.6091 53.6336 56.0181 54.2099 54.3841 54.1612C51.5961 54.084 49.5037 52.7032 47.8957 50.5116C46.3477 48.4024 45.6121 45.8072 45.5237 42.5312ZM58.2669 45.2532C58.2669 45.4888 58.2649 45.6264 58.2669 45.7636C58.3105 48.1076 56.7985 50.0104 54.4917 50.3816C52.6381 50.6796 51.0609 49.9856 49.7241 48.74C49.1993 48.2504 48.7669 47.6612 48.2925 47.1172C49.2233 49.5816 50.7049 51.506 53.4093 52.1404C55.1949 52.5584 56.7509 52.0744 57.9781 50.6936C59.3297 49.1724 59.4761 46.7344 58.2669 45.2532Z" fill="#EAE4E9"/>
<path d="M54.5663 54.5851C54.5019 54.5851 54.4371 54.5843 54.3719 54.5823C52.9587 54.5431 51.6499 54.1767 50.4835 53.4923C49.4079 52.8623 48.4227 51.9427 47.5551 50.7611C45.9971 48.6367 45.1951 45.9487 45.1023 42.5427C45.1015 42.5223 45.1023 42.5027 45.1051 42.4827C45.1387 42.1931 45.1703 41.8983 45.2007 41.6123C45.2739 40.9263 45.3499 40.2175 45.4623 39.5207C45.5519 38.9651 45.9039 38.6063 46.3575 38.6063C46.5443 38.6063 46.8271 38.6695 47.1151 38.9703C48.2419 40.1479 49.7411 40.3807 51.1791 40.5179C51.6027 40.5591 52.0351 40.5943 52.4531 40.6291C53.5191 40.7179 54.6211 40.8087 55.6987 40.9851C57.4231 41.2663 58.9539 42.1795 60.0091 43.5559C61.0607 44.9276 61.5538 46.6466 61.3892 48.3671C61.2336 50.0673 60.4479 51.6479 59.1863 52.7983C57.9237 53.9503 56.2755 54.5878 54.5663 54.5851ZM45.9451 42.5503C46.0371 45.8087 46.7655 48.2599 48.2347 50.2623C49.9015 52.5339 51.9163 53.6715 54.3947 53.7403C55.922 53.7863 57.4092 53.2479 58.5531 52.2349C59.697 51.2219 60.4113 49.8107 60.5503 48.2891C60.6948 46.78 60.2628 45.272 59.3411 44.0683C58.4161 42.8624 57.0643 42.0565 55.5635 41.8163C54.5183 41.6459 53.4331 41.5559 52.3839 41.4687C51.9631 41.4335 51.5279 41.3975 51.0995 41.3567C49.5731 41.2107 47.8339 40.9391 46.5071 39.5527C46.4423 39.4851 46.3919 39.4587 46.3691 39.4511C46.3495 39.4731 46.3143 39.5339 46.2943 39.6547C46.1859 40.3299 46.1107 41.0275 46.0387 41.7019C46.0087 41.9799 45.9783 42.2667 45.9451 42.5503ZM54.6135 52.7067C54.1947 52.7067 53.7571 52.6539 53.3139 52.5499C51.9599 52.2331 50.8051 51.5783 49.8803 50.6055C49.0747 49.7579 48.4263 48.6651 47.8983 47.2663C47.8638 47.174 47.8627 47.0724 47.8953 46.9793C47.9279 46.8862 47.992 46.8075 48.0767 46.7568C48.1613 46.7062 48.261 46.6868 48.3584 46.702C48.4558 46.7173 48.5449 46.7662 48.6099 46.8403C48.7623 47.0151 48.9107 47.1947 49.0539 47.3679C49.3711 47.7515 49.6703 48.1135 50.0111 48.4311C51.1491 49.4915 52.3719 50.0287 53.6467 50.0287C53.9019 50.0287 54.1631 50.0075 54.4247 49.9655C55.4467 49.8011 56.3139 49.3103 56.9331 48.5467C57.5495 47.7871 57.8651 46.8267 57.8451 45.7711C57.8439 45.6771 57.8443 45.5835 57.8447 45.4659L57.8451 45.2531C57.8025 45.2009 57.7731 45.1391 57.7593 45.0731C57.7455 45.0071 57.7477 44.9387 57.7658 44.8738C57.7839 44.8088 57.8174 44.7492 57.8633 44.6998C57.9093 44.6505 57.9665 44.6129 58.03 44.5902C58.0935 44.5675 58.1615 44.5605 58.2283 44.5696C58.2952 44.5786 58.3588 44.6037 58.414 44.6425C58.4691 44.6813 58.5142 44.7328 58.5453 44.7926C58.5764 44.8525 58.5927 44.9189 58.5927 44.9863C59.2423 45.7819 59.5663 46.8459 59.5031 47.9811C59.4411 49.1015 59.0115 50.1643 58.2927 50.9727C57.2707 52.1235 56.0327 52.7067 54.6135 52.7067ZM50.1675 49.6567C51.0487 50.7359 52.1451 51.4107 53.5063 51.7303C53.8863 51.8191 54.2591 51.8643 54.6139 51.8643C55.7815 51.8643 56.8079 51.3763 57.6631 50.4135C58.5211 49.4487 58.8399 48.0867 58.5883 46.9051C58.4303 47.7123 58.0891 48.4599 57.5879 49.0783C56.8363 50.0055 55.7883 50.6007 54.5587 50.7983C54.2573 50.847 53.9525 50.8719 53.6471 50.8727C52.4279 50.8719 51.2603 50.4631 50.1675 49.6567Z" fill="#B21A9D"/>
<path fill-rule="evenodd" clip-rule="evenodd" d="M28.8152 51.4919C27.7904 53.8891 27.6504 56.3003 28.6412 58.7187C29.4212 60.6227 30.7624 62.0411 32.572 63.0203C35.4844 64.5975 40.538 64.6691 43.2056 60.2999C43.1288 62.3763 40.1348 65.2771 37.2964 66.0255C33.6324 66.9919 29.7568 65.4523 27.7684 62.2099C25.6848 58.8119 26.1652 54.7859 28.8152 51.4919Z" fill="#B21A9D"/>
<path fill-rule="evenodd" clip-rule="evenodd" d="M25.9585 41.988C24.8689 43.1288 22.6253 43.458 20.9233 42.7608C18.9825 41.9664 17.6969 40.0856 17.7113 38.032C17.7237 36.2852 18.4365 34.9004 19.8917 33.8944C18.8765 36.006 18.8725 38.0576 20.2849 39.9584C21.6905 41.8488 23.6461 42.4172 25.9585 41.988Z" fill="#B21A9D"/>
<path fill-rule="evenodd" clip-rule="evenodd" d="M58.2669 45.2532C59.4761 46.7344 59.3297 49.1724 57.9781 50.6936C56.7509 52.0744 55.1949 52.5584 53.4093 52.1404C50.7049 51.506 49.2233 49.582 48.2925 47.1172C48.7673 47.6608 49.1993 48.2504 49.7241 48.74C51.0609 49.9856 52.6381 50.68 54.4917 50.3816C56.7985 50.0104 58.3105 48.1076 58.2669 45.7636C58.2649 45.626 58.2669 45.4888 58.2669 45.2532Z" fill="#B21A9D"/>
</g>
<defs>
<clipPath id="clip0_30_11685">
<rect width="80" height="80" fill="white"/>
</clipPath>
</defs>
</svg>
