<svg width="37" height="20" viewBox="0 0 37 20" fill="none" xmlns="http://www.w3.org/2000/svg">
<g clip-path="url(#clip0_88_6948)">
<path d="M11.6663 11.8768V13.6185C10.9121 13.3518 10.1049 13.27 9.31251 13.38C8.52012 13.4899 7.76567 13.7884 7.11253 14.2503C6.45939 14.7123 5.92663 15.3242 5.55898 16.0347C5.19132 16.7452 4.99952 17.5335 4.99967 18.3335L3.33301 18.3327C3.33275 17.3151 3.56544 16.3109 4.01326 15.3972C4.46107 14.4834 5.11212 13.6843 5.91652 13.061C6.72092 12.4378 7.65732 12.0069 8.65397 11.8015C9.65062 11.5961 10.6811 11.6224 11.6663 11.8768ZM9.99967 10.8335C7.23717 10.8335 4.99967 8.596 4.99967 5.8335C4.99967 3.071 7.23717 0.833496 9.99967 0.833496C12.7622 0.833496 14.9997 3.071 14.9997 5.8335C14.9997 8.596 12.7622 10.8335 9.99967 10.8335ZM9.99967 9.16683C11.8413 9.16683 13.333 7.67516 13.333 5.8335C13.333 3.99183 11.8413 2.50016 9.99967 2.50016C8.15801 2.50016 6.66634 3.99183 6.66634 5.8335C6.66634 7.67516 8.15801 9.16683 9.99967 9.16683ZM14.8272 16.5952L17.773 13.6493L18.9522 14.8277L14.8272 18.9527L11.8805 16.006L13.0597 14.8277L14.8272 16.5952Z" fill="#CC42BD"/>
</g>
<defs>
<clipPath id="clip0_88_6948">
<rect width="20" height="20" fill="white"/>
</clipPath>
</defs>
</svg>
