<svg width="217" height="48" viewBox="0 0 217 48" fill="none" xmlns="http://www.w3.org/2000/svg">
<g clip-path="url(#clip0_57_2379)">
<g clip-path="url(#clip1_57_2379)">
<path d="M181.014 17.4345C182.588 17.398 184.114 17.982 185.262 19.0605C185.305 19.1003 185.331 19.1556 185.334 19.2145C185.337 19.2733 185.317 19.3308 185.277 19.3745L184.997 19.6746C184.897 19.7796 184.804 19.7626 184.697 19.6566C184.035 19.0649 183.238 18.6429 182.377 18.4267C181.516 18.2105 180.615 18.2066 179.751 18.4153C178.888 18.6241 178.088 19.0392 177.421 19.6252C176.753 20.2111 176.238 20.9502 175.919 21.7792C175.6 22.6081 175.487 23.5021 175.59 24.3843C175.692 25.2665 176.008 26.1106 176.508 26.8441C177.009 27.5777 177.681 28.1787 178.465 28.5957C179.249 29.0126 180.123 29.233 181.011 29.2378C182.379 29.22 183.692 28.6967 184.697 27.7688C184.732 27.731 184.78 27.7068 184.831 27.7004C184.883 27.694 184.934 27.7058 184.978 27.7338L185.278 28.0338C185.299 28.0526 185.316 28.0757 185.328 28.1015C185.34 28.1274 185.346 28.1554 185.346 28.1838C185.346 28.2122 185.34 28.2402 185.328 28.2661C185.316 28.292 185.299 28.315 185.278 28.3338C184.136 29.44 182.604 30.0509 181.014 30.0339C180.181 30.0444 179.354 29.8893 178.581 29.5778C177.808 29.2662 177.105 28.8043 176.512 28.2188C175.919 27.6333 175.448 26.936 175.127 26.1672C174.806 25.3984 174.64 24.5734 174.64 23.7402C174.64 22.9069 174.806 22.082 175.127 21.3132C175.448 20.5444 175.919 19.847 176.512 19.2616C177.105 18.6761 177.808 18.2142 178.581 17.9026C179.354 17.591 180.181 17.436 181.014 17.4465V17.4345Z" fill="#F9E15B"/>
<path d="M193.477 17.4348C194.721 17.4348 195.937 17.8036 196.972 18.4944C198.007 19.1853 198.813 20.1673 199.29 21.3164C199.767 22.4656 199.893 23.7302 199.651 24.9507C199.41 26.1712 198.812 27.2927 197.933 28.1737C197.055 29.0546 195.935 29.6554 194.715 29.9002C193.495 30.145 192.23 30.0228 191.08 29.549C189.929 29.0752 188.945 28.2711 188.252 27.2382C187.558 26.2054 187.186 24.9902 187.183 23.746C187.179 22.9178 187.34 22.0971 187.655 21.331C187.97 20.565 188.433 19.8688 189.018 19.2823C189.603 18.6958 190.298 18.2307 191.063 17.9137C191.828 17.5966 192.649 17.4339 193.477 17.4348ZM193.477 29.2542C194.57 29.254 195.639 28.9294 196.547 28.3216C197.456 27.7138 198.164 26.85 198.581 25.8396C198.999 24.8293 199.107 23.7178 198.893 22.6458C198.678 21.5738 198.15 20.5897 197.376 19.8178C196.602 19.046 195.616 18.5212 194.543 18.31C193.471 18.0987 192.36 18.2105 191.35 18.6311C190.341 19.0517 189.48 19.7622 188.875 20.6727C188.27 21.5832 187.948 22.6528 187.952 23.746C187.952 24.4706 188.096 25.1879 188.374 25.8569C188.652 26.5259 189.06 27.1336 189.573 27.6451C190.086 28.1567 190.695 28.5621 191.365 28.8382C192.035 29.1143 192.752 29.2556 193.477 29.2542Z" fill="#F9E15B"/>
<path d="M202.615 17.8377C202.616 17.7776 202.64 17.7204 202.683 17.6779C202.725 17.6354 202.783 17.611 202.843 17.6097H203.229C203.289 17.6107 203.346 17.6351 203.389 17.6776C203.431 17.7202 203.456 17.7776 203.457 17.8377V29.6201C203.456 29.6512 203.448 29.6819 203.435 29.7103C203.423 29.7387 203.404 29.7642 203.381 29.7854C203.358 29.8066 203.332 29.823 203.302 29.8338C203.273 29.8446 203.242 29.8494 203.211 29.8481H202.844C202.784 29.8468 202.726 29.8224 202.684 29.7799C202.641 29.7374 202.617 29.6801 202.616 29.6201L202.615 17.8377Z" fill="#F9E15B"/>
<path d="M207.16 17.6628C207.162 17.6304 207.171 17.5986 207.185 17.5694C207.199 17.5403 207.219 17.5143 207.244 17.493C207.268 17.4717 207.297 17.4556 207.328 17.4456C207.359 17.4356 207.391 17.4319 207.423 17.4348H207.724L216.112 28.3691H216.13V17.8378C216.131 17.7779 216.155 17.7207 216.197 17.6781C216.239 17.6356 216.296 17.6111 216.356 17.6098H216.707C216.767 17.6113 216.824 17.6359 216.866 17.6783C216.908 17.7208 216.933 17.7779 216.934 17.8378V29.7962C216.934 29.9532 216.794 30.0222 216.653 30.0222H216.427C216.408 30.0222 216.271 29.9702 207.965 18.9898H207.949V29.6202C207.949 29.6803 207.925 29.7378 207.883 29.7805C207.84 29.8231 207.783 29.8474 207.722 29.8482H207.391C207.331 29.8469 207.273 29.8224 207.231 29.7799C207.189 29.7374 207.165 29.6801 207.164 29.6202L207.16 17.6628Z" fill="#F9E15B"/>
<path d="M167.746 17.2814C169.343 17.3167 170.878 17.908 172.087 18.9535C172.125 18.98 172.156 19.0144 172.179 19.0544C172.201 19.0944 172.215 19.1389 172.219 19.1848C172.222 19.2307 172.215 19.2767 172.199 19.3197C172.183 19.3627 172.157 19.4016 172.124 19.4335L170.724 20.9276C170.658 20.9855 170.574 21.0189 170.487 21.0221C170.399 21.0254 170.313 20.9984 170.243 20.9456C169.608 20.3661 168.77 20.0594 167.911 20.0915C166.979 20.1158 166.094 20.5035 165.445 21.1717C164.796 21.8399 164.433 22.7357 164.436 23.6674C164.438 24.5992 164.805 25.4931 165.458 26.158C166.11 26.823 166.997 27.2062 167.929 27.2257C168.47 27.2343 169.008 27.1379 169.513 26.9417V25.9107H168.391C168.347 25.9127 168.304 25.9059 168.263 25.8908C168.222 25.8756 168.185 25.8523 168.153 25.8223C168.121 25.7923 168.096 25.7563 168.079 25.7163C168.061 25.6764 168.052 25.6333 168.052 25.5897V23.8286C168.05 23.7838 168.058 23.7391 168.075 23.6974C168.091 23.6557 168.116 23.6179 168.148 23.5862C168.18 23.5545 168.218 23.5297 168.26 23.5132C168.301 23.4968 168.346 23.4891 168.391 23.4906H171.968C172.055 23.4948 172.136 23.5322 172.196 23.5952C172.256 23.6582 172.289 23.7418 172.289 23.8286L172.305 28.6168C172.295 28.7259 172.244 28.8273 172.163 28.9008C170.816 29.6593 169.296 30.0578 167.75 30.0578C166.055 30.0578 164.431 29.3848 163.233 28.1868C162.035 26.9888 161.362 25.3639 161.362 23.6696C161.362 21.9754 162.035 20.3505 163.233 19.1525C164.431 17.9545 166.055 17.2814 167.75 17.2814H167.746Z" fill="#F9E15B"/>
<path d="M154.616 17.2814C156.213 17.3169 157.748 17.9082 158.956 18.9535C158.993 18.9798 159.025 19.0143 159.048 19.0542C159.071 19.0942 159.084 19.1388 159.088 19.1847C159.091 19.2307 159.085 19.2768 159.068 19.3198C159.052 19.3629 159.026 19.4017 158.993 19.4335L157.587 20.9276C157.521 20.9855 157.437 21.019 157.35 21.0223C157.262 21.0256 157.176 20.9985 157.107 20.9456C156.472 20.3663 155.635 20.0596 154.776 20.0915C153.845 20.1158 152.96 20.5035 152.311 21.1717C151.661 21.8399 151.299 22.7357 151.301 23.6674C151.304 24.5992 151.67 25.4931 152.323 26.158C152.976 26.823 153.863 27.2062 154.794 27.2257C155.335 27.2345 155.873 27.1381 156.377 26.9417V25.9107H155.256C155.213 25.9129 155.169 25.9062 155.128 25.891C155.087 25.8759 155.05 25.8526 155.018 25.8226C154.987 25.7926 154.961 25.7565 154.944 25.7165C154.927 25.6765 154.918 25.6333 154.917 25.5897V23.8286C154.916 23.7838 154.924 23.739 154.94 23.6973C154.957 23.6555 154.982 23.6176 155.013 23.5858C155.045 23.5541 155.083 23.5293 155.125 23.5129C155.167 23.4965 155.212 23.489 155.256 23.4906H158.833C158.92 23.494 159.002 23.5312 159.062 23.5944C159.122 23.6575 159.155 23.7416 159.154 23.8286L159.172 28.6168C159.161 28.726 159.11 28.8274 159.029 28.9008C157.682 29.6594 156.163 30.058 154.617 30.0578C153.779 30.0578 152.948 29.8926 152.173 29.5716C151.398 29.2505 150.694 28.78 150.1 28.1868C149.507 27.5936 149.037 26.8893 148.716 26.1143C148.394 25.3392 148.229 24.5085 148.229 23.6696C148.229 22.8307 148.394 22 148.716 21.225C149.037 20.4499 149.507 19.7457 150.1 19.1525C150.694 18.5593 151.398 18.0888 152.173 17.7677C152.948 17.4467 153.779 17.2814 154.617 17.2814H154.616Z" fill="#F9E15B"/>
<path d="M130.354 9.39347C127.466 9.39347 124.643 10.2498 122.242 11.8541C119.841 13.4584 117.97 15.7387 116.865 18.4066C115.759 21.0744 115.47 24.0101 116.034 26.8423C116.597 29.6745 117.988 32.2761 120.03 34.318C122.071 36.3599 124.673 37.7504 127.505 38.3138C130.337 38.8772 133.273 38.588 135.941 37.483C138.609 36.3779 140.889 34.5065 142.493 32.1055C144.098 29.7044 144.954 26.8816 144.954 23.9939C144.95 20.123 143.41 16.4119 140.673 13.6748C137.936 10.9377 134.224 9.39797 130.354 9.39347ZM130.354 36.9403C127.793 36.9403 125.29 36.181 123.16 34.7583C121.031 33.3356 119.372 31.3135 118.392 28.9477C117.412 26.5818 117.155 23.9785 117.655 21.467C118.155 18.9555 119.388 16.6484 121.198 14.8377C123.009 13.027 125.316 11.7939 127.828 11.2943C130.339 10.7947 132.943 11.0511 135.308 12.0311C137.674 13.011 139.696 14.6705 141.119 16.7997C142.542 18.9289 143.301 21.4322 143.301 23.9929C143.297 27.4256 141.932 30.7165 139.504 33.1437C137.077 35.571 133.786 36.9363 130.354 36.9403Z" fill="#F9E15B"/>
<path d="M130.353 13.0151C128.182 13.0153 126.059 13.6593 124.254 14.8657C122.449 16.0722 121.042 17.7868 120.211 19.7929C119.38 21.7989 119.163 24.0062 119.587 26.1358C120.011 28.2653 121.056 30.2214 122.592 31.7566C124.127 33.2918 126.083 34.3373 128.213 34.7609C130.342 35.1844 132.55 34.9669 134.556 34.136C136.561 33.305 138.276 31.8979 139.482 30.0925C140.689 28.2872 141.332 26.1647 141.332 23.9934C141.332 22.5516 141.048 21.124 140.497 19.7919C139.945 18.4599 139.136 17.2496 138.117 16.2302C137.097 15.2107 135.887 14.4021 134.555 13.8505C133.223 13.2988 131.795 13.0149 130.353 13.0151ZM129.887 24.9414C129.872 25.6734 129.887 26.4065 129.87 27.1415C129.853 27.8415 129.87 28.5415 129.846 29.2416C129.831 29.8196 129.839 30.3976 129.828 30.9766C129.828 31.1836 129.814 31.3926 129.811 31.6016C129.811 31.6876 129.773 31.7016 129.7 31.6706C129.657 31.6505 129.618 31.6223 129.586 31.5876C129.027 31.0376 128.469 30.4886 127.91 29.9406L126.126 28.1975C125.48 27.5665 124.838 26.9305 124.188 26.3035C123.802 25.9305 123.418 25.5554 123.041 25.1724C122.443 24.5699 122.066 23.7842 121.968 22.9414C121.86 22.1444 121.998 21.3337 122.363 20.617C122.727 19.9003 123.302 19.3116 124.009 18.9291C124.716 18.5467 125.523 18.3886 126.323 18.476C127.122 18.5634 127.876 18.892 128.484 19.4183C129.222 20.0298 129.709 20.8928 129.849 21.8413C129.904 22.1993 129.927 22.5613 129.919 22.9234C129.889 23.5954 129.902 24.2704 129.887 24.9414ZM137.787 25.0084C137.377 25.4664 136.912 25.8705 136.468 26.2945C136.157 26.5945 135.843 26.8945 135.53 27.1845L133.275 29.2936C132.902 29.6396 132.528 29.9859 132.155 30.3326C131.662 30.7919 131.17 31.2503 130.677 31.7076C130.665 31.7186 130.65 31.7266 130.615 31.7526V31.6316C130.615 30.5506 130.604 29.4696 130.615 28.3875C130.625 27.7475 130.615 27.1075 130.634 26.4705C130.653 25.9295 130.634 25.3884 130.655 24.8474C130.678 24.2384 130.661 23.6304 130.675 23.0214C130.664 22.5222 130.718 22.0238 130.834 21.5383C130.997 20.9163 131.306 20.3423 131.736 19.864C132.165 19.3858 132.703 19.0173 133.304 18.7892C133.818 18.584 134.372 18.4999 134.924 18.5432C135.845 18.5935 136.719 18.9622 137.397 19.5863C137.941 20.1077 138.333 20.7676 138.53 21.4949C138.727 22.2223 138.722 22.9897 138.515 23.7144C138.371 24.1942 138.124 24.6367 137.79 25.0104L137.787 25.0084Z" fill="#F9E15B"/>
<path d="M136.88 24.9589C136.229 25.3248 135.495 25.517 134.749 25.5169C133.931 25.5169 133.147 25.1919 132.568 24.6136C131.99 24.0352 131.665 23.2507 131.665 22.4328C131.665 21.6148 131.99 20.8304 132.568 20.252C133.147 19.6736 133.931 19.3487 134.749 19.3487C135.52 19.3653 136.261 19.6511 136.844 20.1567C136.862 20.1697 136.877 20.1863 136.888 20.2056C136.899 20.2249 136.905 20.2463 136.907 20.2683C136.909 20.2904 136.906 20.3126 136.898 20.3334C136.891 20.3541 136.879 20.373 136.863 20.3887L136.184 21.1097C136.152 21.1381 136.112 21.1545 136.069 21.1562C136.027 21.1578 135.985 21.1446 135.951 21.1188C135.644 20.8389 135.24 20.6909 134.825 20.7067C134.375 20.7188 133.948 20.9062 133.635 21.229C133.322 21.5518 133.147 21.9843 133.148 22.4342C133.149 22.884 133.327 23.3155 133.642 23.6365C133.957 23.9574 134.385 24.1424 134.835 24.1518C135.096 24.1552 135.356 24.1084 135.6 24.0138V23.5138H135.058C135.037 23.5149 135.016 23.5117 134.996 23.5045C134.977 23.4972 134.959 23.4861 134.944 23.4717C134.928 23.4573 134.916 23.44 134.908 23.4207C134.899 23.4015 134.895 23.3808 134.895 23.3598V22.5108C134.894 22.4892 134.898 22.4677 134.906 22.4476C134.914 22.4275 134.926 22.4093 134.941 22.394C134.956 22.3787 134.975 22.3667 134.995 22.3588C135.015 22.3508 135.036 22.3471 135.058 22.3478H136.785C136.827 22.3498 136.866 22.368 136.895 22.3983C136.924 22.4287 136.939 22.469 136.939 22.5108L136.95 24.8219C136.945 24.8747 136.92 24.9236 136.88 24.9589Z" fill="#F9E15B"/>
<path d="M136.784 22.3477H135.057C135.035 22.347 135.014 22.3508 134.994 22.3587C134.974 22.3667 134.956 22.3787 134.94 22.3939C134.925 22.4092 134.913 22.4275 134.905 22.4476C134.897 22.4676 134.893 22.4892 134.894 22.5107V23.3618C134.894 23.3827 134.898 23.4035 134.907 23.4227C134.915 23.4419 134.927 23.4593 134.943 23.4737C134.958 23.488 134.976 23.4992 134.995 23.5064C135.015 23.5137 135.036 23.5169 135.057 23.5158H135.599V24.0158C135.355 24.1103 135.096 24.1572 134.834 24.1538C134.384 24.1443 133.956 23.9594 133.641 23.6384C133.326 23.3175 133.148 22.886 133.147 22.4361C133.146 21.9863 133.321 21.5538 133.634 21.231C133.947 20.9082 134.374 20.7208 134.824 20.7087C135.239 20.6929 135.643 20.8408 135.95 21.1207C135.984 21.1465 136.026 21.1598 136.068 21.1581C136.111 21.1565 136.151 21.1401 136.183 21.1117L136.862 20.3907C136.878 20.375 136.89 20.3561 136.897 20.3353C136.905 20.3145 136.908 20.2924 136.906 20.2703C136.904 20.2482 136.898 20.2268 136.887 20.2076C136.876 20.1883 136.861 20.1716 136.843 20.1587C136.26 19.6531 135.519 19.3672 134.748 19.3506C133.93 19.3506 133.146 19.6756 132.567 20.254C131.989 20.8323 131.664 21.6168 131.664 22.4347C131.664 23.2527 131.989 24.0371 132.567 24.6155C133.146 25.1939 133.93 25.5188 134.748 25.5188C135.495 25.5189 136.228 25.3268 136.879 24.9608C136.918 24.9252 136.942 24.8764 136.947 24.8238L136.936 22.5127C136.937 22.4709 136.922 22.4304 136.893 22.3997C136.865 22.3689 136.826 22.3503 136.784 22.3477Z" fill="#F9E15B"/>
<path d="M125.899 19.2334C125.126 19.2497 124.383 19.5355 123.799 20.0414C123.781 20.0543 123.766 20.071 123.755 20.0904C123.744 20.1098 123.737 20.1313 123.736 20.1534C123.734 20.1756 123.737 20.1978 123.745 20.2186C123.753 20.2393 123.766 20.2581 123.782 20.2734L124.462 20.9955C124.493 21.0237 124.533 21.04 124.576 21.0416C124.618 21.0433 124.659 21.0301 124.693 21.0045C124.999 20.7246 125.404 20.5766 125.819 20.5925C126.268 20.6045 126.696 20.792 127.009 21.1147C127.322 21.4375 127.497 21.87 127.496 22.3199C127.494 22.7697 127.317 23.2012 127.002 23.5222C126.687 23.8431 126.258 24.0281 125.809 24.0376C125.548 24.041 125.288 23.9942 125.045 23.8996V23.3995H125.587C125.608 23.4005 125.628 23.3972 125.648 23.3899C125.668 23.3826 125.685 23.3714 125.701 23.357C125.716 23.3427 125.728 23.3254 125.736 23.3062C125.744 23.287 125.749 23.2664 125.749 23.2455V22.3945C125.75 22.373 125.746 22.3515 125.738 22.3314C125.73 22.3113 125.718 22.293 125.703 22.2777C125.688 22.2625 125.67 22.2505 125.65 22.2425C125.63 22.2345 125.608 22.2308 125.587 22.2315H123.865C123.823 22.2336 123.784 22.2518 123.756 22.2822C123.727 22.3126 123.712 22.3529 123.713 22.3945L123.703 24.7056C123.707 24.7583 123.732 24.8073 123.772 24.8426C124.422 25.2086 125.156 25.4007 125.902 25.4006C126.71 25.386 127.48 25.0548 128.047 24.4781C128.613 23.9014 128.93 23.1253 128.93 22.317C128.93 21.5087 128.613 20.7326 128.047 20.1559C127.48 19.5792 126.71 19.248 125.902 19.2334H125.899Z" fill="#F9E15B"/>
</g>
</g>
<defs>
<clipPath id="clip0_57_2379">
<rect width="101.17" height="29.19" fill="white" transform="translate(115.738 9.39347) scale(1.00041)"/>
</clipPath>
<clipPath id="clip1_57_2379">
<rect width="101.139" height="29.19" fill="white" transform="translate(115.753 9.39347) scale(1.00041)"/>
</clipPath>
</defs>
</svg>
