<svg width="37" height="20" viewBox="0 0 37 20" fill="none" xmlns="http://www.w3.org/2000/svg">
<g clip-path="url(#clip0_1_2389)">
<path d="M14.1663 7.66683L18.5105 4.62516C18.573 4.58138 18.6463 4.55558 18.7224 4.55058C18.7985 4.54558 18.8745 4.56158 18.9422 4.59682C19.0098 4.63207 19.0665 4.68521 19.106 4.75046C19.1456 4.8157 19.1664 4.89055 19.1663 4.96683V15.0335C19.1664 15.1098 19.1456 15.1846 19.106 15.2499C19.0665 15.3151 19.0098 15.3683 18.9422 15.4035C18.8745 15.4387 18.7985 15.4547 18.7224 15.4497C18.6463 15.4447 18.573 15.419 18.5105 15.3752L14.1663 12.3335V15.8335C14.1663 16.0545 14.0785 16.2665 13.9223 16.4228C13.766 16.579 13.554 16.6668 13.333 16.6668H1.66634C1.44533 16.6668 1.23337 16.579 1.07709 16.4228C0.920805 16.2665 0.833008 16.0545 0.833008 15.8335V4.16683C0.833008 3.94582 0.920805 3.73385 1.07709 3.57757C1.23337 3.42129 1.44533 3.3335 1.66634 3.3335H13.333C13.554 3.3335 13.766 3.42129 13.9223 3.57757C14.0785 3.73385 14.1663 3.94582 14.1663 4.16683V7.66683ZM14.1663 10.2993L17.4997 12.6327V7.36683L14.1663 9.70016V10.2985V10.2993ZM2.49967 5.00016V15.0002H12.4997V5.00016H2.49967ZM4.16634 6.66683H5.83301V8.3335H4.16634V6.66683Z" fill="#433E42"/>
</g>
<defs>
<clipPath id="clip0_1_2389">
<rect width="20" height="20" fill="white"/>
</clipPath>
</defs>
</svg>
