<svg width="21" height="14" viewBox="0 0 21 14" fill="none" xmlns="http://www.w3.org/2000/svg">
<g clip-path="url(#clip0_60_548)">
<path d="M20.8716 8.01162C20.8716 8.92308 20.6392 9.61807 20.1743 10.0966C19.7095 10.5751 19.4771 10.8371 19.4771 10.8827C19.1763 11.1015 19.0122 11.3635 18.9849 11.6688C18.9575 11.9742 19.0122 12.259 19.1489 12.5233C19.1489 12.5233 19.215 12.6509 19.3472 12.9062C19.4793 13.1614 19.5864 13.3801 19.6685 13.5624C19.8416 13.8632 19.8325 14.0045 19.6411 13.9862C19.4497 13.968 19.2218 13.9179 18.9575 13.8358L16.8794 12.9608C16.6242 12.8788 16.3097 12.8036 15.936 12.7353C15.5623 12.6669 15.2661 12.6509 15.0474 12.6874H14.6099C13.9992 12.6874 13.4022 12.6259 12.8188 12.5028C12.2355 12.3798 11.7023 12.1861 11.2192 11.9218C11.9757 11.6666 12.6685 11.3293 13.2974 10.9101C13.9354 10.4999 14.48 10.0305 14.9312 9.50186C15.3823 8.97321 15.731 8.39899 15.9771 7.7792C16.2323 7.15029 16.3599 6.4986 16.3599 5.82412C16.3599 5.38662 16.3052 4.97191 16.1958 4.57998C16.0864 4.18805 15.9406 3.79157 15.7583 3.39053C16.4966 3.48167 17.1802 3.66397 17.8091 3.9374C18.4289 4.20173 18.9666 4.53897 19.4224 4.94912C19.8781 5.35928 20.2336 5.82412 20.4888 6.34365C20.744 6.86318 20.8716 7.41917 20.8716 8.01162ZM15.4028 5.74209C15.4028 6.54417 15.2023 7.30068 14.8013 8.01162C14.4093 8.72256 13.8647 9.34463 13.1675 9.87783C12.4702 10.411 11.6522 10.8326 10.7134 11.1425C9.76546 11.4615 8.74919 11.6301 7.66455 11.6483H7.14502C6.84424 11.6119 6.47738 11.6278 6.04443 11.6962C5.61149 11.7646 5.22184 11.8671 4.87549 12.0038L2.35986 13.0429C2.05908 13.1796 1.79476 13.2525 1.56689 13.2616C1.33903 13.2707 1.31169 13.0793 1.48486 12.6874C1.56689 12.4687 1.68766 12.1998 1.84717 11.8808C2.00667 11.5618 2.08643 11.4022 2.08643 11.4022C2.22314 11.065 2.271 10.705 2.22998 10.3222C2.18896 9.93936 1.99528 9.59756 1.64893 9.29678C1.64893 9.29678 1.56234 9.22842 1.38916 9.0917C1.2251 8.94587 1.04053 8.72939 0.835449 8.44229C0.630371 8.15518 0.441243 7.79287 0.268066 7.35537C0.0948893 6.92699 0.00830078 6.41657 0.00830078 5.82412C0.00830078 5.02204 0.208822 4.26553 0.609863 3.55459C1.00179 2.84365 1.54411 2.22614 2.23682 1.70205C2.92952 1.17796 3.74072 0.76097 4.67041 0.451075C5.6001 0.150293 6.59814 -9.72748e-05 7.66455 -9.72748e-05C8.73096 -9.72748e-05 9.73356 0.145736 10.6724 0.437403C11.6112 0.738184 12.4315 1.14606 13.1333 1.66104C13.8351 2.17601 14.3866 2.78441 14.7876 3.48623C15.1978 4.17894 15.4028 4.93089 15.4028 5.74209ZM3.91846 6.78115C4.17367 6.78115 4.39697 6.69001 4.58838 6.50772C4.77979 6.32542 4.87549 6.1249 4.87549 5.90615C4.87549 5.6874 4.78206 5.48688 4.59521 5.30459C4.40837 5.1223 4.18278 5.03115 3.91846 5.03115C3.66325 5.03115 3.43994 5.11091 3.24854 5.27041C3.05713 5.42992 2.96143 5.64183 2.96143 5.90615C2.96143 6.1249 3.05485 6.32542 3.2417 6.50772C3.42855 6.69001 3.65413 6.78115 3.91846 6.78115ZM7.82861 6.78115C8.08382 6.78115 8.30713 6.69001 8.49854 6.50772C8.68994 6.32542 8.78564 6.1249 8.78564 5.90615C8.78564 5.6874 8.69222 5.48688 8.50537 5.30459C8.31852 5.1223 8.09294 5.03115 7.82861 5.03115C7.5734 5.03115 7.3501 5.11091 7.15869 5.27041C6.96729 5.42992 6.87158 5.64183 6.87158 5.90615C6.87158 6.1249 6.96501 6.32542 7.15186 6.50772C7.3387 6.69001 7.56429 6.78115 7.82861 6.78115ZM11.8208 6.78115C12.076 6.78115 12.2993 6.69001 12.4907 6.50772C12.6821 6.32542 12.7778 6.1249 12.7778 5.90615C12.7778 5.6874 12.6844 5.48688 12.4976 5.30459C12.3107 5.1223 12.0851 5.03115 11.8208 5.03115C11.5656 5.03115 11.3468 5.11091 11.1646 5.27041C10.9823 5.42992 10.8911 5.64183 10.8911 5.90615C10.8911 6.1249 10.98 6.32542 11.1577 6.50772C11.3354 6.69001 11.5565 6.78115 11.8208 6.78115Z" fill="white"/>
</g>
<defs>
<clipPath id="clip0_60_548">
<rect width="20.88" height="14" fill="white" transform="matrix(1 0 0 -1 0 14)"/>
</clipPath>
</defs>
</svg>
