<svg width="24" height="24" viewBox="0 0 24 24" fill="none" xmlns="http://www.w3.org/2000/svg">
<path opacity="0.7" d="M12 0C18.629 0 24 5.37097 24 12C24 18.629 18.629 24 12 24C5.37097 24 0 18.629 0 12C0 5.37097 5.37097 0 12 0ZM18.8226 18.871C20.6613 17.0323 21.6774 14.6129 21.6774 12C21.6774 9.43548 20.6613 7.01613 18.8226 5.17742C16.9839 3.33871 14.5645 2.32258 12 2.32258C9.3871 2.32258 6.96774 3.33871 5.12903 5.17742C3.29032 7.01613 2.32258 9.43548 2.32258 12C2.32258 14.6129 3.29032 17.0323 5.12903 18.871C6.96774 20.7097 9.3871 21.6774 12 21.6774C14.5645 21.6774 16.9839 20.7097 18.8226 18.871ZM15.871 7.54839C17.0806 7.54839 18.5323 8.37097 18.7258 9.62903C18.8226 10.1613 18.1935 10.5 17.7581 10.1129L17.3226 9.72581C16.5968 9.09677 15.0968 9.09677 14.371 9.72581L13.8871 10.1129C13.5 10.5 12.871 10.1613 12.9677 9.62903C13.1613 8.37097 14.6129 7.54839 15.871 7.54839ZM8.12903 10.4516C7.25806 10.4516 6.58065 9.77419 6.58065 8.90323C6.58065 8.08065 7.25806 7.35484 8.12903 7.35484C8.95161 7.35484 9.67742 8.08065 9.67742 8.90323C9.67742 9.77419 8.95161 10.4516 8.12903 10.4516ZM17.5161 13.5484C17.9032 13.5484 18.1935 13.8871 18.1452 14.2742C17.8065 17.1774 15.3387 19.3548 12.2903 19.3548H11.6613C8.66129 19.3548 6.14516 17.1774 5.80645 14.2742C5.75806 13.8871 6.04839 13.5484 6.43548 13.5484H17.5161Z" fill="#A9B0B7"/>
</svg>
