<svg width="24" height="24" viewBox="0 0 24 24" fill="none" xmlns="http://www.w3.org/2000/svg">
<g clip-path="url(#clip0_57_1107)">
<path d="M0.839311 23.9841C0.711786 23.984 0.585945 23.9549 0.47134 23.899C0.356734 23.8431 0.256376 23.7618 0.177882 23.6613C0.0993878 23.5608 0.0448211 23.4437 0.0183234 23.319C-0.00817425 23.1942 -0.00590657 23.0651 0.0249544 22.9413L1.03408 18.8796C1.20535 18.1845 1.37746 17.4894 1.56048 16.7976C1.63772 16.4962 1.79807 16.2107 2.01047 15.9992C7.21564 10.7839 12.4284 5.57205 17.6402 0.362693C17.6864 0.316518 17.7301 0.27706 17.7678 0.243478C18.1003 -0.047843 18.6452 -0.0705106 18.9583 0.242639L23.7546 5.0423C23.9116 5.19916 24 5.4119 24.0003 5.63383C24.0006 5.85576 23.9129 6.06875 23.7563 6.22606L23.5305 6.46113L19.8121 10.1795C15.8965 14.0942 11.9817 18.0099 8.06189 21.9188C7.79622 22.1774 7.46738 22.3618 7.10817 22.4536C5.46099 22.8784 3.80457 23.2931 2.149 23.7062L1.37494 23.8993C1.3019 23.9186 1.21543 23.9337 1.10377 23.9513L0.982872 23.9706C0.935504 23.9793 0.887465 23.9838 0.839311 23.9841ZM18.3614 2.01995C13.2755 7.09918 8.23316 12.1398 3.19675 17.1863C3.00365 17.9091 2.83322 18.5967 2.66364 19.2818L1.98445 22.017C3.55523 21.6233 5.12685 21.2295 6.69512 20.8265C6.76265 20.8078 6.82517 20.7742 6.87814 20.7283C10.7954 16.8211 14.7102 12.9071 18.625 8.99151L21.9773 5.63922L18.3614 2.01995Z" fill="black"/>
</g>
<defs>
<clipPath id="clip0_57_1107">
<rect width="24" height="24" fill="white"/>
</clipPath>
</defs>
</svg>
