<svg width="80" height="80" viewBox="0 0 80 80" fill="none" xmlns="http://www.w3.org/2000/svg">
<g clip-path="url(#clip0_30_11744)">
<path d="M45.358 25.6117C45.3216 25.6453 45.2708 25.7301 45.2056 25.8665C45.1392 26.0029 45.0972 26.0881 45.0788 26.1221C45.078 26.1393 45.0708 26.2125 45.0576 26.3425C45.044 26.4721 45.0364 26.5717 45.0336 26.6413C45.0308 26.7105 45.0316 26.8101 45.0356 26.9405C45.0396 27.0709 45.0412 27.1453 45.0404 27.1617C45.0548 27.2321 45.0892 27.3681 45.1432 27.5693C45.1964 27.7709 45.2392 27.8981 45.2724 27.9513C45.3236 27.9705 45.4224 28.0049 45.5684 28.0533C45.7136 28.1021 45.8728 28.1553 46.0444 28.2137C46.216 28.2721 46.374 28.3345 46.5196 28.4005C46.664 28.4669 46.7624 28.5089 46.8144 28.5285C46.8652 28.5649 46.9456 28.6113 47.0564 28.6673L47.3888 28.8353C47.5 28.8917 47.5976 28.9433 47.6828 28.9893C47.7684 29.0357 47.8192 29.0681 47.8356 29.0861C47.886 29.1397 47.9904 29.2477 48.15 29.4097C48.3084 29.5717 48.48 29.7565 48.6636 29.9621C48.8472 30.1685 49.0268 30.3657 49.2024 30.5541L49.5912 30.9717C49.6076 30.9893 49.6412 31.0345 49.6908 31.1053C49.7404 31.1765 49.7892 31.2565 49.838 31.3453C49.8868 31.4341 49.936 31.5181 49.9852 31.5977C50.034 31.6777 50.0672 31.7353 50.0828 31.7705C50.132 31.8597 50.2004 32.0009 50.2892 32.1945C50.3772 32.3885 50.4736 32.6005 50.5788 32.8293C50.6828 33.0589 50.7788 33.2753 50.868 33.4777C50.956 33.6805 51.016 33.8173 51.0484 33.8877L51.28 34.6769L51.9556 37.5641C51.9712 37.6165 52.0056 37.7441 52.0592 37.9453C52.1124 38.1469 52.1544 38.2829 52.1876 38.3533C52.202 38.4233 52.2376 38.5289 52.2936 38.6697C52.3488 38.8105 52.4004 38.9513 52.4472 39.0917C52.4944 39.2325 52.5368 39.3597 52.576 39.4741C52.616 39.5885 52.6436 39.6541 52.6608 39.6721L53.8668 42.3185C53.8988 42.3897 53.9808 42.5269 54.112 42.7309C54.2436 42.9353 54.3252 43.0637 54.3588 43.1173C54.4084 43.1713 54.4792 43.2517 54.5712 43.3589C54.6628 43.4665 54.7628 43.5785 54.8716 43.6953L55.172 44.0189C55.2636 44.1173 55.3272 44.1765 55.3612 44.1945L56.3836 44.7525C56.4856 44.8085 56.6264 44.8785 56.806 44.9625L57.3696 45.2305C57.5648 45.3245 57.7412 45.4053 57.8944 45.4713C58.0492 45.5381 58.1428 45.5805 58.1768 45.5985L62.804 47.3285C62.838 47.3477 62.902 47.3805 62.9956 47.4265L63.3032 47.5813C63.4136 47.6373 63.5156 47.6977 63.6088 47.7613C63.702 47.8257 63.7744 47.8677 63.8264 47.8861C63.8424 47.9045 63.88 47.9497 63.938 48.0201C63.9964 48.0925 64.042 48.1377 64.0768 48.1561C64.5008 48.4313 64.8472 48.7089 65.1152 48.9873C65.3824 49.2661 65.6152 49.5569 65.8128 49.8589C66.01 50.1609 66.1808 50.4797 66.3252 50.8145C66.4684 51.1493 66.6292 51.5109 66.806 51.8985C66.804 51.9509 66.8044 52.0593 66.8072 52.2237C66.8096 52.3889 66.8104 52.4977 66.8084 52.5489C66.8052 52.6361 66.796 52.7613 66.782 52.9253C66.7668 53.0897 66.76 53.1805 66.7592 53.1977C66.7384 53.2669 66.7032 53.4005 66.6528 53.5973C66.6016 53.7953 66.5464 54.0013 66.4868 54.2161C66.429 54.4236 66.3651 54.6294 66.2952 54.8333C66.2268 55.0301 66.1824 55.1725 66.1624 55.2581C66.1608 55.2929 66.1224 55.3829 66.048 55.5273C65.9728 55.6721 65.8932 55.8385 65.808 56.0261C65.7228 56.2137 65.6336 56.4057 65.5396 56.6013C65.4685 56.7524 65.3936 56.9016 65.3148 57.0489L64.756 58.0689L63.6576 59.5905C63.5975 59.6529 63.5431 59.7205 63.4948 59.7925C63.4204 59.8945 63.3436 59.9953 63.262 60.0965C63.1792 60.1981 63.0984 60.2993 63.016 60.4001C62.9611 60.4707 62.902 60.538 62.8392 60.6017L61.4812 62.1133C61.4179 62.1765 61.3588 62.2438 61.3044 62.3149L61.0588 62.6185L60.8136 62.9221C60.7587 62.9862 60.7082 63.0539 60.6624 63.1249L59.5648 64.6457C59.5276 64.6969 59.468 64.7857 59.3852 64.9125C59.3024 65.0397 59.2148 65.1709 59.1236 65.3065C58.9882 65.5058 58.859 65.7094 58.7364 65.9169C58.68 66.0185 58.606 66.1501 58.5132 66.3121C58.42 66.4733 58.3324 66.6353 58.248 66.7969C58.1636 66.9581 58.0844 67.1029 58.0108 67.2305C57.9356 67.3573 57.8988 67.4305 57.898 67.4473C57.8976 67.4645 57.8904 67.5509 57.8752 67.7061C57.8608 67.8621 57.8524 67.9833 57.8492 68.0697C57.846 68.1565 57.846 68.2825 57.8484 68.4469C57.8508 68.6125 57.8516 68.7117 57.8508 68.7461C57.864 68.8337 57.9092 69.0309 57.9856 69.3369C58.0608 69.6437 58.1488 69.9761 58.2488 70.3353C58.348 70.6945 58.4484 71.0493 58.548 71.4005C58.648 71.7509 58.7216 72.0049 58.768 72.1625C58.7828 72.2153 58.8152 72.2945 58.8632 72.4005C58.9116 72.5065 58.9592 72.6165 59.0076 72.7305C59.0552 72.8457 59.1036 72.9517 59.1524 73.0485C59.2004 73.1461 59.2336 73.2037 59.25 73.2213C59.2996 73.2929 59.432 73.4581 59.6488 73.7173C59.8842 74.0005 60.1214 74.2822 60.3604 74.5625C60.6184 74.8677 60.8604 75.1497 61.0852 75.4093C61.31 75.6689 61.4472 75.8345 61.4968 75.9053C61.53 75.9413 61.574 76.0301 61.6304 76.1701C61.686 76.3117 61.7216 76.3989 61.738 76.4345C61.7372 76.4521 61.7396 76.4953 61.7464 76.5649C61.7528 76.6349 61.7548 76.6869 61.7544 76.7217C61.7528 76.7565 61.7408 76.8337 61.7196 76.9545C61.7016 76.9713 61.6268 77.0077 61.4944 77.0629C61.3616 77.1193 61.26 77.1625 61.1892 77.1949C61.1012 77.2269 60.952 77.2733 60.7412 77.3349C60.5308 77.3969 60.4164 77.4269 60.3992 77.4265C60.2344 77.4169 60.0693 77.4152 59.9044 77.4213C59.7828 77.4257 59.6612 77.4253 59.5396 77.4209C59.418 77.4165 59.3224 77.4125 59.2536 77.4105L58.9412 77.3993C58.8153 77.3944 58.6897 77.3855 58.5644 77.3725C58.4478 77.3602 58.3308 77.3518 58.2136 77.3473C58.1614 77.3454 58.1093 77.3434 58.0572 77.3413C58.022 77.3401 57.9536 77.3289 57.85 77.3077C57.7464 77.2865 57.626 77.2601 57.4876 77.2293C57.3489 77.198 57.2113 77.1625 57.0748 77.1229C56.9372 77.0837 56.834 77.0537 56.7656 77.0337C56.6792 77.0133 56.5384 76.9645 56.3408 76.8885C56.2235 76.8452 56.108 76.7974 55.9944 76.7453C55.9596 76.7273 55.914 76.6865 55.8552 76.6233C55.7968 76.5609 55.7592 76.5117 55.7436 76.4757C55.728 76.4237 55.6976 76.3097 55.652 76.1341C55.6026 75.9427 55.5574 75.7502 55.5164 75.5569C55.4724 75.3473 55.4272 75.1545 55.3816 74.9797C55.336 74.8049 55.3052 74.6905 55.29 74.6381C55.2396 74.5247 55.1917 74.4103 55.1464 74.2949C55.0805 74.131 55.0127 73.9679 54.9428 73.8057C54.8754 73.6489 54.803 73.4945 54.7256 73.3425C54.6755 73.2436 54.6226 73.1462 54.5668 73.0505C54.5168 72.9797 54.396 72.8409 54.2044 72.6337C54.0124 72.4273 53.882 72.2969 53.8148 72.2425C53.7784 72.2761 53.7272 72.3605 53.6616 72.4969C53.5956 72.6337 53.5532 72.7189 53.5352 72.7533C53.5136 72.8561 53.4864 73.0285 53.4508 73.2705C53.4136 73.529 53.3782 73.7878 53.3444 74.0469C53.308 74.3233 53.2724 74.5821 53.2376 74.8233C53.2099 74.9952 53.1904 75.1683 53.1792 75.3421L52.5544 75.3189C52.54 75.2317 52.5148 75.0749 52.48 74.8477C52.4436 74.609 52.4133 74.3695 52.3892 74.1293C52.3658 73.8929 52.3353 73.6573 52.2976 73.4229C52.262 73.2045 52.2376 73.0517 52.2228 72.9645L52.0008 71.9157C51.9648 71.7892 51.9304 71.6622 51.8976 71.5349C51.8432 71.3337 51.8008 71.1973 51.7692 71.1265C51.7343 71.0442 51.7025 70.9607 51.674 70.8761C51.6268 70.7445 51.5752 70.6081 51.5192 70.4673C51.4632 70.3265 51.4124 70.1901 51.3648 70.0589C51.318 69.9269 51.2944 69.8433 51.2964 69.8085C51.2656 69.6689 51.2404 69.5509 51.2176 69.4545C51.1948 69.3589 51.1764 69.2669 51.1624 69.1793C51.1484 69.0917 51.142 69.0217 51.1444 68.9709C51.1484 68.8665 51.1836 68.7245 51.2512 68.5449C51.3188 68.3653 51.352 68.2673 51.3528 68.2501C51.3548 68.2153 51.4248 68.0701 51.5644 67.8153C51.704 67.5601 51.8196 67.3653 51.9112 67.2289L52.4604 66.4689L53.2792 65.4577C53.316 65.4069 53.3756 65.3097 53.4596 65.1649C53.5428 65.0213 53.6264 64.8685 53.7108 64.7057L53.9492 64.2465C54.024 64.1025 54.0796 63.9957 54.1172 63.9273C54.1364 63.8761 54.1752 63.7781 54.2324 63.6325C54.29 63.4877 54.3476 63.3333 54.406 63.1705C54.4644 63.0085 54.5216 62.8541 54.5792 62.7085C54.6368 62.5633 54.6752 62.4565 54.6952 62.3873L55.0032 61.0973L55.008 60.9677L55.0132 60.8373C54.9224 60.9213 54.766 61.0545 54.542 61.2369C54.318 61.4197 54.0764 61.6189 53.8172 61.8349C53.5572 62.0509 53.3104 62.2545 53.078 62.4449C52.8444 62.6361 52.684 62.7653 52.5944 62.8309C52.5412 62.8641 52.412 62.9457 52.2076 63.0769C52.0028 63.2085 51.8652 63.2901 51.7952 63.3221C51.7236 63.3549 51.6096 63.4061 51.4508 63.4789C51.2862 63.5535 51.1225 63.6299 50.9596 63.7081C50.7916 63.7885 50.6368 63.8609 50.496 63.9253C50.4012 63.9707 50.3038 64.0106 50.2044 64.0449L45.9836 65.4521C45.878 65.4833 45.7244 65.5297 45.5224 65.5917C45.32 65.6537 45.2104 65.6845 45.1932 65.6837C45.1756 65.6833 45.1188 65.6901 45.0228 65.7037C44.9268 65.7173 44.8136 65.7305 44.6824 65.7433C44.552 65.7561 44.4168 65.7681 44.2772 65.7809C44.1731 65.7913 44.0686 65.796 43.964 65.7949C43.868 65.7893 43.7726 65.777 43.6784 65.7581C43.558 65.7369 43.4368 65.7153 43.3164 65.6933C43.1606 65.6646 43.0054 65.6328 42.8508 65.5981C42.8332 65.5977 42.7736 65.5737 42.6712 65.5269C42.5684 65.4801 42.4488 65.4273 42.312 65.3701C42.1752 65.3129 42.038 65.2521 41.902 65.1865C41.7652 65.1205 41.654 65.0685 41.5692 65.0305L41.058 64.7521L40.0456 63.9341C40.0034 63.9204 39.9602 63.9101 39.9164 63.9033C39.8721 63.9069 39.8283 63.9141 39.7852 63.9249L38.716 64.6665L37.9164 65.1581L36.8564 65.6397C36.556 65.7677 36.2832 65.8577 36.0384 65.9093C35.7936 65.9609 35.4888 65.9805 35.1244 65.9669C35.0028 65.9625 34.83 65.9349 34.6064 65.8833C34.3824 65.8317 34.2616 65.8057 34.2448 65.8049C34.2276 65.8041 34.1452 65.7801 34 65.7309C33.829 65.6742 33.6571 65.6203 33.4844 65.5693C33.2895 65.5108 33.0963 65.4472 32.9048 65.3785C32.7512 65.3229 32.5968 65.2697 32.4416 65.2189C32.2507 65.1416 32.0578 65.0693 31.8632 65.0021C31.613 64.915 31.3643 64.8236 31.1172 64.7281C30.8996 64.6439 30.681 64.5621 30.4616 64.4829C30.2728 64.4149 30.1616 64.3725 30.1276 64.3533L29.6164 64.0749C29.3776 63.9453 29.1224 63.8053 28.85 63.6561C28.5776 63.5081 28.322 63.3681 28.0836 63.2381L27.5724 62.9593L27.5584 63.3489L27.544 63.7393C27.5428 63.7741 27.5532 63.8397 27.576 63.9353C27.5984 64.0317 27.6204 64.1369 27.6428 64.2497C27.6648 64.3637 27.6868 64.4689 27.7096 64.5649C27.732 64.6613 27.7512 64.7357 27.7668 64.7885C27.782 64.8405 27.8176 64.9333 27.874 65.0653C27.9304 65.1973 27.974 65.2813 28.008 65.3173L29.7536 67.4629C29.8192 67.5525 29.9192 67.6817 30.052 67.8513L30.4504 68.3597C30.5832 68.5297 30.7032 68.6857 30.8112 68.8285C30.9188 68.9717 30.9808 69.0521 30.9976 69.0701C31.0304 69.1229 31.0788 69.2153 31.1436 69.3481C31.208 69.4805 31.24 69.5648 31.2388 69.5989C31.2384 69.6161 31.2648 69.7125 31.3192 69.8881C31.3736 70.0637 31.3992 70.1949 31.396 70.2813C31.3928 70.3681 31.358 70.4885 31.292 70.6417C31.2252 70.7953 31.1916 70.8813 31.1912 70.8981C31.1904 70.9333 31.1604 71.0273 31.1028 71.1809C31.0448 71.3353 30.9824 71.4985 30.9156 71.6693C30.8484 71.8401 30.786 72.0025 30.7284 72.1569C30.6945 72.2524 30.6562 72.3464 30.6136 72.4385C30.5842 72.5005 30.5599 72.5648 30.5412 72.6309C30.4782 72.8347 30.4228 73.0409 30.3752 73.2489C30.3597 73.3231 30.3396 73.3963 30.3152 73.4681C30.294 73.5717 30.2616 73.7437 30.218 73.9853C30.1719 74.2428 30.132 74.5014 30.0984 74.7609C30.062 75.0373 30.0224 75.2961 29.9784 75.5373C29.9478 75.7099 29.9154 75.8821 29.8812 76.0541L29.1784 76.0289C29.182 75.9417 29.1744 75.7857 29.1568 75.5593C29.1388 75.3337 29.1216 75.0945 29.1048 74.8421C29.088 74.5905 29.0708 74.3553 29.0524 74.1373C29.0413 73.9844 29.0252 73.8319 29.004 73.6801C29.006 73.6281 28.996 73.5413 28.9744 73.4185C28.9518 73.288 28.9305 73.1573 28.9104 73.0265C28.8896 72.8865 28.8684 72.7561 28.8468 72.6337C28.8325 72.5455 28.814 72.458 28.7912 72.3717C28.7204 72.4041 28.5828 72.4809 28.3788 72.6041C28.174 72.7265 28.0456 72.8129 27.9912 72.8629L26.6424 74.1149C26.6064 74.1481 26.5516 74.2113 26.4792 74.3041C26.406 74.3969 26.3288 74.4945 26.2468 74.5953L26.0012 74.8985C25.9192 74.9993 25.86 75.0753 25.8236 75.1261C25.8048 75.1601 25.7544 75.2409 25.6716 75.3677C25.5888 75.4945 25.5016 75.6261 25.4096 75.7617C25.3176 75.8973 25.2304 76.0285 25.1476 76.1549C25.0644 76.2817 25.014 76.3633 24.9956 76.3969C24.9416 76.4469 24.8644 76.5265 24.7652 76.6357C24.6652 76.7445 24.5572 76.8537 24.4404 76.9617C24.3232 77.0701 24.2156 77.1661 24.1172 77.2497C24.018 77.3325 23.9512 77.3825 23.9164 77.3977C23.7408 77.4437 23.5964 77.4777 23.4828 77.4993L23.1416 77.5649C23.0272 77.5869 22.9356 77.6057 22.866 77.6197C22.7519 77.6394 22.6381 77.6612 22.5248 77.6849C22.3844 77.7157 22.2448 77.7405 22.1052 77.7609C21.9652 77.7821 21.8432 77.7997 21.7384 77.8133C21.6776 77.8224 21.6165 77.8286 21.5552 77.8321L21.3468 77.8245C21.2035 77.8197 21.0601 77.8189 20.9168 77.8221C20.7516 77.8249 20.582 77.8225 20.4088 77.8157C20.2352 77.8097 20.0964 77.8053 19.992 77.8009L19.68 77.7897C19.5239 77.7836 19.368 77.7736 19.2124 77.7597C19.048 77.7456 18.8833 77.7352 18.7184 77.7285L18.432 77.7181C18.3976 77.7001 18.3512 77.6593 18.2932 77.5961C18.2344 77.5337 18.1972 77.4849 18.1812 77.4489C18.1718 77.3622 18.1662 77.2752 18.1644 77.1881C18.1725 77.1013 18.1844 77.015 18.2 76.9293C18.2004 76.9125 18.224 76.8697 18.27 76.8017C18.3156 76.7345 18.3704 76.6589 18.4348 76.5737C18.4988 76.4897 18.5584 76.4093 18.6132 76.3333C18.668 76.2573 18.7132 76.2029 18.7496 76.1693L18.9248 76.0065C19.006 75.9313 19.0868 75.8521 19.168 75.7681C19.2492 75.6845 19.3256 75.6093 19.3976 75.5425C19.4692 75.4761 19.5228 75.4341 19.5588 75.4177L21.1584 74.4349L21.698 73.9349C21.7152 73.9181 21.7572 73.8457 21.8232 73.7181C21.8884 73.5905 21.94 73.4929 21.9772 73.4241L23.1132 70.8641L23.2668 70.5837C23.3504 70.4301 23.4428 70.2689 23.5452 70.0993C23.6468 69.9297 23.7352 69.7677 23.8104 69.6141C23.8856 69.4609 23.932 69.3677 23.9508 69.3333C23.9516 69.3161 23.9584 69.2465 23.9716 69.1257C23.9844 69.0049 23.9924 68.9097 23.9952 68.8405C23.9976 68.7709 23.9968 68.6669 23.9936 68.5277C23.9896 68.3889 23.9884 68.3113 23.9892 68.2933C23.9904 68.2585 23.9584 68.1753 23.894 68.0429C23.8492 67.9479 23.8005 67.8549 23.748 67.7641C23.6855 67.6627 23.6242 67.5607 23.564 67.4581C23.4671 67.2974 23.3687 67.1376 23.2688 66.9789C23.1616 66.8101 23.0632 66.6509 22.9736 66.5001C22.9069 66.387 22.837 66.2759 22.764 66.1669C22.7112 66.0823 22.6579 65.998 22.604 65.9141C22.53 65.7989 22.452 65.6833 22.3692 65.5669C22.2864 65.4517 22.2116 65.3493 22.146 65.2597C22.1064 65.2048 22.0649 65.1513 22.0216 65.0993L18.7716 61.3373C18.6897 61.2458 18.6106 61.1519 18.5344 61.0557C18.426 60.9212 18.3224 60.7828 18.224 60.6409C18.1302 60.5064 18.0353 60.3728 17.9392 60.2401C17.848 60.1153 17.7944 60.0357 17.7784 59.9997C17.7616 59.9821 17.7212 59.9029 17.6568 59.7613C17.5857 59.606 17.5132 59.4515 17.4392 59.2977C17.359 59.1318 17.2826 58.9642 17.21 58.7949C17.138 58.6277 17.086 58.5001 17.0548 58.4117L16.5816 57.0933C16.5504 56.9881 16.504 56.8349 16.442 56.6329C16.3796 56.4313 16.3492 56.3225 16.35 56.3045L16.356 56.1489C16.3596 56.0445 16.3592 55.9321 16.3556 55.8101C16.351 55.6886 16.351 55.5671 16.3556 55.4457L16.366 55.1601L16.3764 54.8741C16.3812 54.7353 16.3904 54.6013 16.4044 54.4717C16.4176 54.3421 16.426 54.2337 16.4292 54.1473L16.436 53.9649C16.4376 53.9133 16.454 53.8273 16.4844 53.7065C16.5148 53.5865 16.5456 53.4577 16.5768 53.3197C16.608 53.1817 16.6384 53.0533 16.6692 52.9321C16.6996 52.8125 16.7244 52.7265 16.744 52.6749C16.8368 52.5049 17.0044 52.1901 17.2476 51.7301C17.5056 51.2415 17.7624 50.7523 18.018 50.2625C18.441 49.4525 18.8574 48.6392 19.2672 47.8225C19.2676 47.8057 19.292 47.7417 19.3396 47.6301C19.3868 47.5193 19.4436 47.3957 19.5096 47.2593C19.5752 47.1225 19.6364 46.9901 19.6932 46.8629L19.8352 46.5421L20.692 44.4921L21.26 43.2117L21.8376 41.6709C21.8468 41.4117 21.8656 41.0085 21.8948 40.4625C21.9272 39.852 21.9627 39.2417 22.0012 38.6317C22.0428 37.9569 22.0868 37.2389 22.1324 36.4769C22.1776 35.7153 22.2212 34.9969 22.2636 34.3217C22.3052 33.6469 22.3452 33.0369 22.3824 32.4917C22.4079 32.089 22.4401 31.6868 22.4788 31.2853C22.48 31.2509 22.4924 31.1557 22.5152 31.0001C22.538 30.8449 22.5664 30.6681 22.6 30.4697C22.6332 30.2713 22.67 30.0821 22.712 29.9017C22.7532 29.7209 22.7844 29.5789 22.8056 29.4757C22.8068 29.4413 22.8224 29.3765 22.8516 29.2821C22.8812 29.1881 22.9112 29.0853 22.9412 28.9733C22.9712 28.8617 23.0012 28.7585 23.0304 28.6645C23.0604 28.5705 23.0844 28.4973 23.104 28.4461L23.6816 26.9057C23.714 26.8266 23.7517 26.7497 23.7944 26.6757C23.85 26.5737 23.9064 26.4673 23.9624 26.3569C24.0184 26.2461 24.074 26.1485 24.1292 26.0637C24.1844 25.9793 24.2216 25.9201 24.24 25.8853C24.2576 25.8693 24.3028 25.8229 24.3752 25.7477C24.4472 25.6721 24.528 25.5973 24.618 25.5225C24.7076 25.4477 24.7928 25.3729 24.874 25.2977L25.0492 25.1349C25.0852 25.1017 25.1432 25.0605 25.2232 25.0113C25.3036 24.9621 25.3876 24.9089 25.4768 24.8513C25.5656 24.7937 25.6456 24.7449 25.7168 24.7037C25.7876 24.6633 25.832 24.6429 25.8496 24.6433C25.8848 24.6277 25.9944 24.6017 26.178 24.5645C26.5981 24.4798 27.0182 24.3954 27.4384 24.3113C27.6572 24.2669 27.8276 24.2301 27.9508 24.1997L29.5216 23.9969C29.5916 23.9825 29.6828 23.9637 29.7968 23.9421L30.1384 23.8765C30.252 23.8549 30.3968 23.8205 30.572 23.7753C30.5968 23.5681 30.6108 23.4297 30.6132 23.3605C30.6159 23.2477 30.6158 23.1348 30.6128 23.0221C30.6099 22.9266 30.6091 22.8311 30.6104 22.7357L30.4452 20.1273C30.4464 20.0929 30.4476 19.9369 30.4492 19.6593C30.4504 19.3821 30.454 19.1737 30.4588 19.0345C30.464 18.8965 30.4752 18.7017 30.4932 18.4505C30.5112 18.1997 30.5204 18.0657 30.5212 18.0481C30.562 17.8761 30.598 17.7345 30.628 17.6225C30.658 17.5113 30.6924 17.3997 30.7316 17.2881C30.77 17.1769 30.7996 17.0869 30.8196 17.0181C30.8784 16.8297 30.9568 16.5809 31.0556 16.2721C31.1536 15.9637 31.2472 15.6593 31.3368 15.3585C31.4256 15.0585 31.5092 14.7969 31.5868 14.5741C31.664 14.3517 31.704 14.2229 31.7052 14.1881C31.7056 14.1713 31.7296 14.1069 31.7776 13.9957C31.8248 13.8849 31.8812 13.7617 31.9476 13.6245C32.0132 13.4885 32.0748 13.3517 32.1316 13.2149C32.1888 13.0785 32.2356 12.9757 32.2732 12.9077L32.5524 12.3977C32.6076 12.3133 32.6944 12.1905 32.8136 12.0301L33.1696 11.5485C33.2884 11.3881 33.3932 11.2445 33.4852 11.1177C33.5768 10.9909 33.6316 10.9105 33.6504 10.8765C33.6868 10.8257 33.7592 10.7505 33.8672 10.6501L34.1908 10.3501C34.2988 10.2497 34.4064 10.1541 34.514 10.0625C34.6216 9.97086 34.6932 9.90885 34.7296 9.87526C34.7472 9.85845 34.8004 9.83006 34.8888 9.79006C34.9768 9.75006 35.0784 9.70606 35.1936 9.65806L35.5376 9.51445C35.652 9.46645 35.7364 9.42645 35.7896 9.39365L36.58 9.16246C36.72 9.13285 36.9216 9.08845 37.1844 9.02845C37.4472 8.96885 37.5956 8.93925 37.6304 8.94045L37.7864 8.94645C37.8908 8.95005 38.0036 8.95006 38.1252 8.94566C38.2468 8.94166 38.3684 8.94126 38.49 8.94605L38.8024 8.95725L39.0888 8.96725C39.2276 8.97245 39.3572 8.98165 39.4788 8.99485C39.6 9.00805 39.7036 9.01606 39.7908 9.01926L39.9732 9.02606C39.9904 9.02686 40.102 9.06566 40.3076 9.14286C40.5132 9.21966 40.6584 9.27685 40.7444 9.31445C40.812 9.35205 40.9104 9.40325 41.0384 9.46845C41.166 9.53405 41.238 9.57565 41.2552 9.59326C41.3384 9.68365 41.46 9.80926 41.6192 9.97086C41.7776 10.1329 41.9368 10.2993 42.096 10.4701C42.2544 10.6413 42.3968 10.7977 42.5212 10.9409C42.646 11.0845 42.7252 11.1741 42.7592 11.2101C42.7916 11.2633 42.8608 11.4001 42.966 11.6209C43.2137 12.1471 43.4549 12.6763 43.6896 13.2085C43.8104 13.4821 43.902 13.6977 43.9656 13.8561C43.9816 13.8917 44.0084 13.9749 44.0476 14.1065C44.086 14.2381 44.128 14.3873 44.1744 14.5533C44.22 14.7201 44.2664 14.8865 44.3124 15.0533C44.3584 15.2201 44.3968 15.3469 44.4288 15.4349C44.4448 15.4701 44.46 15.5357 44.4732 15.6317C44.5056 15.8428 44.5459 16.0527 44.594 16.2609C44.6164 16.3573 44.6356 16.4317 44.6512 16.4841C44.6648 16.5717 44.6936 16.7373 44.7368 16.9817C44.78 17.2265 44.8232 17.4881 44.8644 17.7669C44.9064 18.0461 44.9488 18.3125 44.992 18.5653C45.0344 18.8185 45.0628 18.9973 45.0764 19.1021C45.0908 19.1717 45.1088 19.2813 45.1296 19.4293C45.1504 19.5773 45.1708 19.7345 45.1904 19.8997C45.2104 20.0657 45.2308 20.2225 45.2512 20.3701C45.2716 20.5185 45.2812 20.6185 45.2792 20.6705C45.292 20.7753 45.3136 21.0193 45.3432 21.4017C45.3728 21.7849 45.4096 22.1933 45.4548 22.6289C45.4988 23.0581 45.3196 25.2289 45.358 25.6117ZM23.8792 51.0189C24.3876 51.1153 24.9316 51.2137 25.5104 51.3129C26.0884 51.4117 26.6364 51.5101 27.1544 51.6069C27.672 51.7033 28.0348 51.7649 28.242 51.7901L28.3984 51.7953L28.5024 51.7993C28.8012 51.7061 29.0408 51.5629 29.2216 51.3701C29.3973 51.1853 29.5377 50.9701 29.636 50.7349C29.7312 50.5045 29.796 50.2769 29.8304 50.0521C29.8648 49.8281 29.8844 49.6469 29.8896 49.5081C29.89 49.4909 29.9028 49.3833 29.9276 49.1837C29.952 48.9857 29.966 48.8429 29.9692 48.7565C29.9732 48.6525 29.9692 48.5009 29.9596 48.3005C29.9523 48.1832 29.9479 48.0659 29.9464 47.9485C29.9101 47.8177 29.8758 47.6863 29.8436 47.5545C29.7836 47.321 29.7183 47.0889 29.6476 46.8585C29.5696 46.6033 29.4968 46.3581 29.4268 46.1213C29.3754 45.9392 29.317 45.7592 29.2516 45.5817C29.2171 45.4825 29.1771 45.3853 29.132 45.2905C29.0609 45.1353 28.9883 44.9807 28.9144 44.8269C28.8332 44.6597 28.7572 44.4965 28.6848 44.3373L28.528 43.9933L27.0616 41.3377C27.0596 41.3897 27.0428 41.4889 27.0116 41.6349C26.98 41.7813 26.9484 41.9405 26.916 42.1125C26.8836 42.2845 26.8516 42.4445 26.8204 42.5905C26.8007 42.6906 26.7754 42.7896 26.7444 42.8869C26.7044 43.0241 26.6536 43.2265 26.592 43.4929L26.4064 44.2929C26.3448 44.5601 26.2876 44.8089 26.2356 45.0413C26.1836 45.2733 26.148 45.4153 26.1288 45.4665C26.1096 45.5177 26.066 45.6421 25.998 45.8389C25.9296 46.0365 25.8772 46.1689 25.84 46.2365C25.7828 46.3733 25.6848 46.5693 25.5448 46.8249C25.4052 47.0797 25.3172 47.2245 25.2816 47.2577C25.2452 47.2905 25.1732 47.3617 25.0652 47.4705C24.8036 47.7295 24.5338 47.9801 24.256 48.2217C24.112 48.3465 24.0044 48.4425 23.9324 48.5089L22.8628 49.2509C22.7543 49.3314 22.651 49.4188 22.5536 49.5125C22.4192 49.6373 22.342 49.7173 22.3236 49.7517L22.3192 49.8813L22.314 50.0113C22.33 50.0469 22.3656 50.1345 22.4216 50.2757C22.4772 50.4161 22.5216 50.5049 22.5552 50.5401C22.5712 50.5757 22.6084 50.6249 22.6672 50.6873C22.7256 50.7501 22.7716 50.7917 22.8064 50.8097C23.012 50.8533 23.37 50.9221 23.8792 51.0189ZM45.1956 43.9125C45.1948 44.1645 45.194 44.3069 45.1928 44.3417C45.1916 44.3765 45.2208 44.5253 45.2812 44.7873C45.3404 45.0497 45.3852 45.2513 45.4152 45.3905C45.5036 45.8277 45.6984 46.3157 45.9996 46.8565C46.3255 47.4335 46.693 47.986 47.0992 48.5097C47.5429 49.0867 48.0233 49.6345 48.5376 50.1497C49.0363 50.6555 49.5723 51.1231 50.1412 51.5485C50.1744 51.5849 50.258 51.6741 50.392 51.8181L50.5224 51.8233L50.6528 51.8277L51.9728 51.3557C52.0432 51.3233 52.1792 51.2805 52.3812 51.2273C52.5828 51.1741 52.71 51.1397 52.7632 51.1241C52.938 51.0785 53.2496 51.0037 53.6964 50.8981C54.1436 50.7933 54.6208 50.6805 55.1292 50.5597L56.562 50.2221C57.0084 50.1165 57.32 50.0413 57.4952 49.9961L54.912 49.3813C54.7904 49.3601 54.6228 49.3145 54.4084 49.2457C54.195 49.1774 53.9803 49.1132 53.7644 49.0533L53.1708 48.8885C52.9904 48.8385 52.8828 48.8041 52.8488 48.7857C52.7744 48.7563 52.7017 48.7231 52.6308 48.6861C52.5368 48.6401 52.4348 48.5881 52.324 48.5321C52.2124 48.4753 52.1104 48.4201 52.0168 48.3649C51.9236 48.3093 51.8596 48.2637 51.8264 48.2277C51.7492 48.1664 51.6776 48.0984 51.6124 48.0245C51.52 47.9261 51.4196 47.8177 51.3112 47.7009L51.0104 47.3777C50.9415 47.3074 50.879 47.231 50.8236 47.1497C50.7904 47.0961 50.692 46.9369 50.5284 46.6705C50.3644 46.4041 50.1752 46.1025 49.962 45.7653C49.5836 45.1679 49.2149 44.5645 48.856 43.9553C48.801 43.8634 48.7478 43.7704 48.6964 43.6765C48.6205 43.5381 48.5429 43.4008 48.4636 43.2645C48.3436 43.0555 48.2298 42.843 48.1224 42.6273C48.0744 42.5217 48.002 42.3673 47.9048 42.1645C47.8023 41.949 47.7017 41.7326 47.6032 41.5153C47.498 41.2865 47.402 41.0749 47.3132 40.8809C47.2244 40.6869 47.1728 40.5629 47.1572 40.5109C47.1252 40.4401 47.074 40.3033 47.0032 40.1017C46.9281 39.888 46.8577 39.6728 46.792 39.4561C46.727 39.2437 46.6567 39.0329 46.5812 38.8241C46.5096 38.6305 46.4668 38.4905 46.4532 38.4033C46.4168 38.4365 46.3656 38.5213 46.3004 38.6577C46.2344 38.7945 46.192 38.8797 46.1736 38.9133C46.136 38.9817 46.0888 39.1017 46.0304 39.2725C45.972 39.4441 45.9132 39.6285 45.8544 39.8257L45.6908 40.3661C45.6416 40.5293 45.6068 40.6453 45.5872 40.7137C45.5672 40.7829 45.5416 40.8941 45.51 41.0497C45.478 41.2045 45.446 41.3637 45.4144 41.5273C45.3824 41.6909 45.3504 41.8413 45.3196 41.9789C45.2884 42.1173 45.272 42.2117 45.27 42.2637L45.2644 42.4193C45.2602 42.5191 45.2522 42.6188 45.2404 42.7181C45.2272 42.8301 45.2184 42.9473 45.2144 43.0681L45.2048 43.3281C45.1988 43.4661 45.1956 43.6609 45.1956 43.9125ZM34.8408 2.36646V77.8281V2.36646Z" fill="#B21A9D"/>
<path d="M34.8408 79.2396C34.4665 79.2396 34.1075 79.0909 33.8429 78.8263C33.5782 78.5616 33.4296 78.2027 33.4296 77.8284V2.3664C33.4383 1.99794 33.5909 1.64753 33.8546 1.39004C34.1183 1.13255 34.4722 0.988403 34.8408 0.988403C35.2093 0.988403 35.5633 1.13255 35.827 1.39004C36.0907 1.64753 36.2432 1.99794 36.252 2.3664V77.828C36.252 78.0134 36.2156 78.1969 36.1447 78.3682C36.0738 78.5394 35.9698 78.695 35.8388 78.8261C35.7077 78.9572 35.5521 79.0612 35.3809 79.1321C35.2097 79.2031 35.0261 79.2396 34.8408 79.2396Z" fill="#EAE4E9"/>
</g>
<defs>
<clipPath id="clip0_30_11744">
<rect width="80" height="80" fill="white"/>
</clipPath>
</defs>
</svg>
