<svg width="24" height="24" viewBox="0 0 24 24" fill="none" xmlns="http://www.w3.org/2000/svg">
<g clip-path="url(#clip0_57_1146)">
<path d="M23.0877 23.9446C23.0825 23.9432 23.0769 23.9432 23.0716 23.9446H0.912556C0.780292 23.9441 0.649697 23.915 0.529757 23.8592C0.409816 23.8035 0.303375 23.7224 0.217757 23.6216C0.132138 23.5208 0.0693736 23.4026 0.0337809 23.2752C-0.00181181 23.1479 -0.00938806 23.0143 0.0115733 22.8837C0.723088 18.5024 2.99402 15.3432 6.76861 13.4734C5.01838 11.9771 4.14696 10.0502 4.17786 7.72822C4.20608 5.52649 5.11781 3.60963 6.88686 2.03207C8.31795 0.757528 10.1266 0.0554199 11.979 0.0554199C14.3554 0.0554199 16.6055 1.18484 18.1535 3.1541C19.5349 4.91038 20.0912 7.14167 19.6793 9.27151C19.3649 10.9008 18.5116 12.3494 17.2256 13.4721C20.9418 15.3157 23.1993 18.4164 23.943 22.7117C23.9945 22.8498 24.0118 22.9983 23.9935 23.1446C23.9751 23.2909 23.9216 23.4305 23.8376 23.5517C23.7536 23.6728 23.6415 23.7718 23.5109 23.8402C23.3804 23.9086 23.2352 23.9444 23.0877 23.9446ZM2.02652 22.1191H21.957C21.0634 18.3989 18.7985 15.9096 15.0629 14.5276C14.9002 14.4673 14.758 14.362 14.653 14.224C14.5479 14.0859 14.4844 13.9208 14.4697 13.7479C14.4551 13.575 14.4899 13.4016 14.5702 13.2478C14.6505 13.094 14.7729 12.9663 14.9231 12.8795C16.5188 11.961 17.571 10.5561 17.8861 8.92617C18.1972 7.31569 17.7712 5.62257 16.717 4.28285C15.5191 2.75702 13.791 1.88157 11.979 1.88157C10.5539 1.88157 9.21423 2.40496 8.1016 3.39598C6.73098 4.61744 6.02551 6.08347 6.00401 7.75241C5.97445 9.95279 6.98226 11.6325 9.08388 12.8902C9.22851 12.8371 9.38423 12.8214 9.53655 12.8447C9.68886 12.868 9.83279 12.9294 9.95493 13.0234C10.0771 13.1173 10.1734 13.2407 10.235 13.3819C10.2966 13.5231 10.3214 13.6777 10.3071 13.8311C10.2929 13.9845 10.24 14.1318 10.1534 14.2593C10.0668 14.3867 9.94939 14.4902 9.81203 14.56C9.67467 14.6298 9.52187 14.6637 9.36787 14.6585C9.21388 14.6533 9.06371 14.6092 8.93137 14.5303C5.18836 15.9137 2.92011 18.4016 2.02652 22.1191Z" fill="black"/>
</g>
<defs>
<clipPath id="clip0_57_1146">
<rect width="24" height="24" fill="white"/>
</clipPath>
</defs>
</svg>
