<svg width="48" height="20" viewBox="0 0 48 20" fill="none" xmlns="http://www.w3.org/2000/svg">
<rect x="4" width="20" height="20" rx="10" fill="#121212" fill-opacity="0.5"/>
<g clip-path="url(#clip0_64_256)">
<g clip-path="url(#clip1_64_256)">
<g clip-path="url(#clip2_64_256)">
<mask id="mask0_64_256" style="mask-type:luminance" maskUnits="userSpaceOnUse" x="7" y="3" width="14" height="14">
<path d="M21 3H7V17H21V3Z" fill="white"/>
</mask>
<g mask="url(#mask0_64_256)">
<path d="M17.5779 10.5108C17.6249 10.3934 17.66 10.2644 17.5545 10.1823C17.4959 10.1471 17.4255 10.147 17.3669 10.0885C17.3081 10.0298 17.2613 9.9359 17.1909 9.86552C16.6394 9.24369 15.5717 9.81855 14.95 9.9946C14.8327 10.0181 14.4925 10.1706 14.3986 10.0298L14.3868 10.0181C14.3165 9.87733 14.5276 9.75997 14.6216 9.68959C14.7976 9.56054 15.0205 9.45496 15.1847 9.3142C15.8652 8.75105 16.0294 7.81241 16.71 7.24926C17.1441 6.90898 17.8128 6.92074 18.3292 6.77997C18.728 6.66262 19.1857 6.41628 19.2443 5.95862C19.3029 5.59492 19.0682 5.24293 18.7515 5.06697C17.5431 4.42173 16.006 4.64457 14.8328 5.25471C14.0349 5.67709 13.4249 6.28713 12.8148 6.92084C12.1342 7.64833 11.4419 8.38743 10.7498 9.10314C10.7146 9.13833 10.6794 9.17353 10.6676 9.20872L8.73178 11.1445C7.81663 12.0597 7.80491 13.5498 8.73178 14.4767C8.9899 14.7348 9.3536 14.8638 9.71739 14.8286C10.0928 14.8052 10.3744 14.5706 10.609 14.2889C10.7264 14.3359 10.9024 14.2304 11.008 14.0543C11.1019 13.9135 11.1136 13.761 11.0784 13.6554L11.0901 13.6437C11.5359 13.0336 12.0286 12.4704 12.4629 11.8486C12.7914 11.3793 13.0964 11.0977 13.6831 11.1681C14.0351 11.215 14.387 11.3089 14.7508 11.391C15.6538 11.6842 17.2142 11.5785 17.5779 10.5108ZM8.71971 13.2445C8.42639 13.0686 8.48505 12.4467 8.83707 11.8602C9.20077 11.2853 9.71704 10.9568 10.022 11.1445C10.3154 11.3204 10.2567 11.9423 9.90467 12.5289C9.54106 13.1038 9.01308 13.4206 8.71971 13.2445Z" fill="white"/>
</g>
</g>
</g>
</g>
<rect x="28" width="20" height="20" rx="10" fill="#121212" fill-opacity="0.5"/>
<path d="M39.725 5C40.3344 5 40.85 5.51562 40.85 6.125V12.8984C40.85 13.5078 40.3344 14 39.725 14H32.9516C32.3422 14 31.85 13.5078 31.85 12.8984V6.125C31.85 5.51562 32.3422 5 32.9516 5H39.725ZM44.1547 5.89062C44.6469 5.5625 45.35 5.91406 45.35 6.5V12.5234C45.35 13.1094 44.6469 13.4609 44.1547 13.1328L41.6 11.3516V7.67188L44.1547 5.89062Z" fill="white"/>
<defs>
<clipPath id="clip0_64_256">
<rect width="14" height="14" fill="white" transform="translate(7 3)"/>
</clipPath>
<clipPath id="clip1_64_256">
<rect width="14" height="14" fill="white" transform="translate(7 3)"/>
</clipPath>
<clipPath id="clip2_64_256">
<rect width="14" height="14" fill="white" transform="translate(7 3)"/>
</clipPath>
</defs>
</svg>
