<svg width="163" height="112" viewBox="0 0 163 112" fill="none" xmlns="http://www.w3.org/2000/svg">
<g clip-path="url(#clip0_57_2688)">
<path d="M97.9966 50.9646L98.6205 51.3132L99.2093 50.9646C99.9326 50.2274 100.793 49.6391 101.742 49.2317C102.677 48.7766 103.703 48.5395 104.742 48.5395C105.781 48.5395 106.807 48.7766 107.742 49.2317C108.691 49.6391 109.551 50.2274 110.274 50.9646C111.02 51.6265 111.592 52.4621 111.939 53.3966C112.308 54.2769 112.52 55.2148 112.563 56.1683C112.557 57.2374 112.345 58.2955 111.939 59.2846C111.592 60.2186 111.02 61.0535 110.274 61.7146L98.6225 73.5025L86.9706 61.7146C86.24 60.9885 85.6615 60.1235 85.2686 59.1714C84.8756 58.2193 84.6762 57.1983 84.682 56.1683C84.7416 54.2028 85.562 52.3371 86.9706 50.9646C87.6713 50.2004 88.5235 49.5906 89.4728 49.1731C90.422 48.7557 91.4477 48.5405 92.4847 48.5405C93.5217 48.5405 94.5473 48.7557 95.4966 49.1731C96.4458 49.5906 97.2978 50.2004 97.9985 50.9646H97.9966ZM77.7457 45.0717V52.0034C74.9963 51.9704 72.2698 52.5086 69.7389 53.5831C67.208 54.6575 64.9277 56.2451 63.042 58.2459C61.1003 60.1395 59.5596 62.4048 58.5117 64.9062C57.4639 67.4076 56.9302 70.0944 56.9426 72.8064H50.0014C49.9635 65.5879 52.7557 58.6416 57.7794 53.4571C62.8031 48.2727 69.6584 45.2625 76.8756 45.0717H77.7457ZM77.7457 0.00195312C83.2629 0.00539612 88.5531 2.19829 92.4544 6.09893C96.3557 9.99956 98.549 15.2886 98.5524 20.8049C98.5341 26.2227 96.4506 31.4301 92.7261 35.3654C88.937 39.1328 83.8814 41.356 78.5434 41.602H77.7437C72.228 41.5988 66.9388 39.4067 63.0379 35.5079C59.1369 31.6091 56.943 26.3226 56.9377 20.8078C56.8822 15.4109 58.9474 10.207 62.6891 6.31664C66.4307 2.4263 71.5498 0.159727 76.9457 0.00390572L77.7457 0.00195312ZM77.7457 6.93366C75.0024 6.93346 72.3207 7.74731 70.0396 9.27092C67.7586 10.7945 65.9804 12.9599 64.9303 15.4938C63.8802 18.0277 63.6052 20.8161 64.1401 23.5063C64.6749 26.1965 65.9956 28.6672 67.9351 30.6069C69.8746 32.5466 72.346 33.8682 75.0365 34.4037C77.7269 34.9393 80.5157 34.665 83.0503 33.6159C85.5849 32.5667 87.7515 30.7901 89.276 28.5098C90.8005 26.2296 91.6145 23.5477 91.6151 20.8049C91.6106 17.1276 90.1478 13.6022 87.5472 11.0019C84.9466 8.40153 81.4204 6.93842 77.7425 6.93366H77.7457Z" fill="white"/>
</g>
<defs>
<clipPath id="clip0_57_2688">
<rect width="62.56" height="73.5" fill="white" transform="translate(50)"/>
</clipPath>
</defs>
</svg>
