<svg width="55" height="25" viewBox="0 0 55 25" fill="none" xmlns="http://www.w3.org/2000/svg">
<g clip-path="url(#clip0_64_4233)">
<path d="M33.75 6.25C33.75 7.38932 33.4692 8.43506 32.9077 9.38721C32.3462 10.3394 31.6016 11.084 30.6738 11.6211L33.75 25H21.25L24.3262 11.6211C23.3984 11.084 22.6538 10.3434 22.0923 9.39941C21.5308 8.4554 21.25 7.4056 21.25 6.25C21.25 5.38737 21.4128 4.57357 21.7383 3.80859C22.0638 3.04362 22.5073 2.38037 23.0688 1.81885C23.6304 1.25732 24.2936 0.813803 25.0586 0.488281C25.8236 0.16276 26.6374 0 27.5 0C28.3626 0 29.1764 0.16276 29.9414 0.488281C30.7064 0.813803 31.3696 1.25732 31.9312 1.81885C32.4927 2.38037 32.9362 3.04362 33.2617 3.80859C33.5872 4.57357 33.75 5.38737 33.75 6.25ZM31.5039 23.1934L28.623 10.7422L29.7461 10.0586C30.4297 9.65169 30.9668 9.11865 31.3574 8.45947C31.748 7.80029 31.9434 7.0638 31.9434 6.25C31.9434 5.0293 31.508 3.98356 30.6372 3.11279C29.7664 2.24203 28.7207 1.80664 27.5 1.80664C26.2793 1.80664 25.2336 2.24203 24.3628 3.11279C23.492 3.98356 23.0566 5.0293 23.0566 6.25C23.0566 7.03125 23.252 7.75553 23.6426 8.42285C24.0332 9.09017 24.5703 9.63542 25.2539 10.0586L26.377 10.7422L23.4961 23.1934H31.5039Z" fill="#AAAAAA"/>
</g>
<defs>
<clipPath id="clip0_64_4233">
<rect width="55" height="25" fill="white" transform="matrix(1 0 0 -1 0 25)"/>
</clipPath>
</defs>
</svg>
