<svg width="18" height="19" viewBox="0 0 18 19" fill="none" xmlns="http://www.w3.org/2000/svg">
<path d="M9 0.00268555C4.032 0.00268555 0 4.03469 0 9.00269C0 13.9707 4.032 18.0027 9 18.0027C13.968 18.0027 18 13.9707 18 9.00269C18 4.03469 13.968 0.00268555 9 0.00268555ZM1.8 9.00269C1.8 5.02469 5.022 1.80269 9 1.80269C10.665 1.80269 12.195 2.36969 13.41 3.32369L3.321 13.4127C2.33259 12.1555 1.79675 10.6019 1.8 9.00269ZM9 16.2027C7.335 16.2027 5.805 15.6357 4.59 14.6817L14.679 4.59269C15.6674 5.84986 16.2033 7.40349 16.2 9.00269C16.2 12.9807 12.978 16.2027 9 16.2027Z" fill="#151515"/>
</svg>
