<svg width="18" height="16" viewBox="0 0 18 16" fill="none" xmlns="http://www.w3.org/2000/svg">
<path fill-rule="evenodd" clip-rule="evenodd" d="M0.900001 0.802734H17.1C17.3387 0.802734 17.5676 0.897556 17.7364 1.06634C17.9052 1.23512 18 1.46404 18 1.70274V14.3028C18 14.5414 17.9052 14.7704 17.7364 14.9392C17.5676 15.1079 17.3387 15.2028 17.1 15.2028H0.900001C0.661306 15.2028 0.432387 15.1079 0.263604 14.9392C0.0948212 14.7704 0 14.5414 0 14.3028V1.70274C0 1.46404 0.0948212 1.23512 0.263604 1.06634C0.432387 0.897556 0.661306 0.802734 0.900001 0.802734ZM14.2908 11.4936C14.7972 10.9872 15.4839 10.7027 16.2 10.7027V5.30274C15.4839 5.30274 14.7972 5.01828 14.2908 4.51193C13.7845 4.00558 13.5 3.31882 13.5 2.60274H4.50001C4.50001 3.31882 4.21554 4.00558 3.70919 4.51193C3.20284 5.01828 2.51609 5.30274 1.8 5.30274V10.7027C2.51609 10.7027 3.20284 10.9872 3.70919 11.4936C4.21554 11.9999 4.50001 12.6867 4.50001 13.4028H13.5C13.5 12.6867 13.7845 11.9999 14.2908 11.4936ZM5.39993 8.00262C5.39993 6.01721 7.01453 4.40261 8.99993 4.40261C10.9853 4.40261 12.5999 6.01721 12.5999 8.00262C12.5999 9.98802 10.9853 11.6026 8.99993 11.6026C7.01453 11.6026 5.39993 9.98802 5.39993 8.00262ZM7.19993 8.00262C7.19993 8.99532 8.00723 9.80262 8.99993 9.80262C9.99263 9.80262 10.7999 8.99532 10.7999 8.00262C10.7999 7.00991 9.99263 6.20261 8.99993 6.20261C8.00723 6.20261 7.19993 7.00991 7.19993 8.00262Z" fill="black"/>
</svg>
