<svg width="265" height="310" viewBox="0 0 265 310" fill="none" xmlns="http://www.w3.org/2000/svg">
<path d="M75.7915 78.6767H23.6705V89.3591H75.7915V78.6767Z" fill="white"/>
<path opacity="0.1" d="M75.7915 78.6767H23.6705V89.3591H75.7915V78.6767Z" fill="black"/>
<path opacity="0.1" d="M45.6256 78.6767H23.6705V89.3591H45.6256V78.6767Z" fill="black"/>
<path opacity="0.1" d="M23.6705 80.2146H70.0659L23.6705 81.5327V80.2146Z" fill="black"/>
<path opacity="0.1" d="M75.7928 82.0682L35.5761 83.0705H75.7928V82.0682Z" fill="black"/>
<path opacity="0.1" d="M25.7991 85.0614L45.626 84.2513L74.7759 85.0614L45.626 85.5146L25.7991 85.0614Z" fill="black"/>
<path opacity="0.1" d="M23.6705 87.327H58.0242L23.6705 88.1371V87.327Z" fill="black"/>
<path opacity="0.1" d="M75.7107 88.1371L52.767 88.5627H75.7931L75.7107 88.1371Z" fill="black"/>
<path d="M68.5418 67.9944H16.4208V78.6767H68.5418V67.9944Z" fill="white"/>
<path opacity="0.1" d="M68.5418 67.9944H16.4208V78.6767H68.5418V67.9944Z" fill="black"/>
<path opacity="0.1" d="M38.3759 67.9944H16.4208V78.6767H38.3759V67.9944Z" fill="black"/>
<path opacity="0.1" d="M16.4208 69.5322H62.8162L16.4208 70.8366V69.5322Z" fill="black"/>
<path opacity="0.1" d="M68.5431 71.3858L28.3264 72.3882H68.5431V71.3858Z" fill="black"/>
<path opacity="0.1" d="M18.5357 74.3791L38.3626 73.5553L67.5125 74.3791L38.3626 74.8322L18.5357 74.3791Z" fill="black"/>
<path opacity="0.1" d="M16.4208 76.6309H50.7745L16.4208 77.4547V76.6309Z" fill="black"/>
<path opacity="0.1" d="M68.461 77.4547L45.5173 77.8804H68.5434L68.461 77.4547Z" fill="black"/>
<path d="M74.4878 57.2983H22.3668V67.9807H74.4878V57.2983Z" fill="white"/>
<path opacity="0.1" d="M74.4878 57.2983H22.3668V67.9807H74.4878V57.2983Z" fill="black"/>
<path opacity="0.1" d="M44.3219 57.2983H22.3668V67.9807H44.3219V57.2983Z" fill="black"/>
<path opacity="0.1" d="M22.3668 58.8361H68.7622L22.3668 60.1543V58.8361Z" fill="black"/>
<path opacity="0.1" d="M74.4891 60.6898L34.2724 61.6921H74.4891V60.6898Z" fill="black"/>
<path opacity="0.1" d="M24.4953 63.683L44.3222 62.8729L73.4721 63.683L44.3222 64.1361L24.4953 63.683Z" fill="black"/>
<path opacity="0.1" d="M22.3668 65.9486H56.7205L22.3668 66.7587V65.9486Z" fill="black"/>
<path opacity="0.1" d="M74.4187 66.7587L51.475 67.1843H74.4874L74.4187 66.7587Z" fill="black"/>
<path d="M109.213 89.1394L110.558 84.0179H166.249L191.884 86.5855L192.859 89.1394H109.213Z" fill="#263238"/>
<path opacity="0.4" d="M166.249 84.0179V89.1394H109.213L110.558 84.0179H166.249Z" fill="black"/>
<path d="M155.059 59.5089C155.133 60.1299 155.074 60.7596 154.885 61.3557C154.696 61.9518 154.381 62.5005 153.962 62.9649C153.544 63.4293 153.03 63.7986 152.457 64.048C151.883 64.2974 151.263 64.4211 150.638 64.4107H65.3435C64.0098 64.3817 62.7322 63.8683 61.7493 62.9663C60.7664 62.0642 60.1455 60.8353 60.0024 59.5089L54.9358 4.90263C54.881 4.36934 54.9181 3.83059 55.0456 3.30988C55.2822 2.35099 55.8379 1.50108 56.6214 0.899749C57.4049 0.298415 58.3696 -0.0185693 59.357 0.000841271H144.706C146.04 0.0298312 147.317 0.543266 148.3 1.4453C149.283 2.34732 149.904 3.57626 150.047 4.90263L155.059 59.5089Z" fill="#263238"/>
<path opacity="0.4" d="M150.336 64.4107H65.3435C64.0098 64.3817 62.7322 63.8683 61.7493 62.9663C60.7664 62.0642 60.1455 60.8353 60.0024 59.5089L54.9358 4.90263C54.881 4.36934 54.9181 3.83059 55.0456 3.30988H140.038C141.371 3.33887 142.649 3.85233 143.632 4.75435C144.615 5.65638 145.236 6.88532 145.379 8.21169L150.445 62.818C150.5 63.3513 150.463 63.89 150.336 64.4107Z" fill="black"/>
<path d="M91.7327 30.922H109.376L104.681 81.4366L132.581 85.6244V89.1394H73.8144V85.6244L85.8561 81.4366L91.7327 30.922Z" fill="#263238"/>
<path opacity="0.1" d="M109.377 30.922L96.3058 88.343L85.8568 88.0273L91.7335 30.922H109.377Z" fill="white"/>
<path d="M109.295 309.391H100.892L85.7747 98.9705H96.9377L109.295 309.391Z" fill="#263238"/>
<path opacity="0.4" d="M109.309 309.391H100.892L86.5162 109.433L85.7747 99.3137H96.9377L97.5418 109.433L109.309 309.391Z" fill="white"/>
<path opacity="0.2" d="M97.5418 108.925H86.5162L85.7747 99.3137H96.9377L97.5418 108.925Z" fill="black"/>
<path d="M171.027 309.391H162.624L161.251 98.9705H172.4L171.027 309.391Z" fill="#263238"/>
<path opacity="0.5" d="M172.413 99.3137L172.194 133.269L171.04 309.391H162.624L161.47 133.269L161.251 99.3137H172.413Z" fill="white"/>
<path opacity="0.2" d="M172.413 99.3137L172.194 133.64H161.47L161.251 99.3137H172.413Z" fill="black"/>
<path d="M260.331 309.391H251.928L236.81 98.9705H247.973L260.331 309.391Z" fill="#263238"/>
<path opacity="0.5" d="M260.345 309.391H251.928L237.552 109.433L236.81 99.3137H247.973L248.577 109.433L260.345 309.391Z" fill="white"/>
<path opacity="0.2" d="M248.577 108.925H237.552L236.81 99.3137H247.973L248.577 108.925Z" fill="black"/>
<path d="M13.0707 309.391H4.66764L17.0251 98.9705H28.188L13.0707 309.391Z" fill="#263238"/>
<path opacity="0.5" d="M28.188 99.3137L27.4466 109.433L13.0707 309.391H4.66764L16.421 109.433L17.0251 99.3137H28.188Z" fill="white"/>
<path opacity="0.2" d="M17.0249 99.3137H28.1878L27.4464 108.925H16.4208L17.0249 99.3137Z" fill="black"/>
<path d="M8.18401 93.7254H256.816V101.291C256.816 101.68 256.74 102.066 256.591 102.426C256.442 102.786 256.223 103.113 255.948 103.388C255.672 103.663 255.345 103.882 254.985 104.031C254.626 104.18 254.24 104.257 253.851 104.257H11.1498C10.3632 104.257 9.60886 103.944 9.05266 103.388C8.49647 102.832 8.18401 102.078 8.18401 101.291V93.7254Z" fill="#E98A0A"/>
<path opacity="0.6" d="M8.18401 93.7254H256.816V101.291C256.816 101.68 256.74 102.066 256.591 102.426C256.442 102.786 256.223 103.113 255.948 103.388C255.672 103.663 255.345 103.882 254.985 104.031C254.626 104.18 254.24 104.257 253.851 104.257H11.1498C10.3632 104.257 9.60886 103.944 9.05266 103.388C8.49647 102.832 8.18401 102.078 8.18401 101.291V93.7254Z" fill="white"/>
<path opacity="0.2" d="M256.816 93.7117H8.18401V98.9842H256.816V93.7117Z" fill="black"/>
<path d="M262.033 95.0985H2.96579C2.17921 95.0985 1.42486 94.786 0.868665 94.2298C0.312471 93.6736 1.68215e-10 92.9192 1.68215e-10 92.1327C-8.36537e-06 91.3448 0.312013 90.5891 0.867816 90.0307C1.42362 89.4723 2.17795 89.1568 2.96579 89.1532H262.033C262.821 89.1568 263.576 89.4723 264.131 90.0307C264.687 90.5891 264.999 91.3448 264.999 92.1327C264.999 92.9192 264.687 93.6736 264.13 94.2298C263.574 94.786 262.82 95.0985 262.033 95.0985Z" fill="#E98A0A"/>
<path opacity="0.6" d="M262.033 95.0985H2.96579C2.17921 95.0985 1.42486 94.786 0.868665 94.2298C0.312471 93.6736 1.68215e-10 92.9192 1.68215e-10 92.1327C-8.36537e-06 91.3448 0.312013 90.5891 0.867816 90.0307C1.42362 89.4723 2.17795 89.1568 2.96579 89.1532H262.033C262.821 89.1568 263.576 89.4723 264.131 90.0307C264.687 90.5891 264.999 91.3448 264.999 92.1327C264.999 92.9192 264.687 93.6736 264.13 94.2298C263.574 94.786 262.82 95.0985 262.033 95.0985Z" fill="white"/>
<path d="M200.74 79.9949L203.925 75.2167C204.239 74.7473 204.664 74.3626 205.162 74.0968C205.661 73.8309 206.217 73.6921 206.781 73.6926H210.818C211.153 73.6936 211.486 73.7445 211.807 73.8436L226.21 78.2099C227.029 78.4542 227.725 78.9985 228.16 79.734L230.233 83.2078L200.74 79.9949Z" fill="#E98A0A"/>
<path opacity="0.2" d="M230.233 83.2078L209.239 80.9285L200.712 79.9949L203.898 75.2167C204.212 74.7473 204.637 74.3626 205.135 74.0968C205.633 73.8309 206.189 73.6921 206.754 73.6926H210.791C211.13 73.6946 211.468 73.7455 211.793 73.8436L212.109 73.9397L226.183 78.2099C227.006 78.4524 227.707 78.9967 228.146 79.734L230.233 83.2078Z" fill="black"/>
<path opacity="0.2" d="M230.232 83.2078L209.239 80.9285L212.108 73.9397L226.182 78.2099C227.005 78.4524 227.706 78.9967 228.145 79.734L230.232 83.2078Z" fill="black"/>
<path d="M240.201 88.6863V89.1394H195.687L197.335 82.6998C197.64 81.517 198.331 80.4697 199.299 79.7237C200.266 78.9777 201.454 78.5754 202.676 78.5806H222.42C223.077 78.5775 223.728 78.6938 224.343 78.9239L226.814 79.8438L236.618 83.4962C237.676 83.8883 238.588 84.5969 239.229 85.5255C239.87 86.4542 240.21 87.5578 240.201 88.6863Z" fill="#E98A0A"/>
<path opacity="0.2" d="M240.201 88.6863V89.1394H221.926L222.901 82.178C222.964 81.7464 223.122 81.3343 223.365 80.9718C223.607 80.6094 223.928 80.3058 224.303 80.0833C224.679 79.8608 225.099 79.7251 225.533 79.686C225.968 79.647 226.405 79.7056 226.814 79.8576L236.618 83.5099C237.674 83.9012 238.584 84.6077 239.225 85.5336C239.866 86.4595 240.207 87.5601 240.201 88.6863Z" fill="black"/>
<path d="M224.768 84.4161L230.59 66.9646C230.646 66.7867 230.741 66.6235 230.868 66.4863C230.995 66.3491 231.15 66.2414 231.323 66.1707C231.496 66.1 231.682 66.0681 231.868 66.0771C232.055 66.0862 232.237 66.136 232.402 66.2232C232.655 66.3682 232.856 66.5902 232.974 66.8568C233.093 67.1235 233.123 67.4209 233.061 67.7061L228.159 86.3246C228.159 86.3246 224.905 87.6428 224.768 84.4161Z" fill="#263238"/>
<path opacity="0.2" d="M200.741 87.6977H198.16L198.654 85.1576H201.235L200.741 87.6977Z" fill="black"/>
<path opacity="0.2" d="M204.586 87.6016H202.004L202.499 85.0614H205.08L204.586 87.6016Z" fill="black"/>
</svg>
