<svg width="55" height="25" viewBox="0 0 55 25" fill="none" xmlns="http://www.w3.org/2000/svg">
<path d="M36.9727 3.61328L39.9023 8.30078V9.86328L28.5254 22.2168L27.5488 23.3398L27.4512 23.2422L26.5234 22.2168L15.0977 9.86328V8.30078L18.2227 3.61328H36.9727ZM35.0195 5.17578H30.0879L33.2129 8.30078L35.0195 5.17578ZM27.5 5.17578H26.9629L23.8379 8.30078H31.2109L28.1348 5.17578H27.5ZM25.0098 5.17578H20.0781L21.8848 8.30078L25.0098 5.17578ZM18.7598 5.46875L16.9531 8.30078H20.2246L18.7598 5.46875ZM17.1973 9.86328L25.9375 19.3359L21.0059 9.86328H17.1973ZM27.5488 19.2871L32.4316 9.86328H22.6172L27.5488 19.2871ZM29.1602 19.3359L37.9004 9.86328H34.0918L29.1602 19.3359ZM34.873 8.30078H38.1445L36.3379 5.46875L34.873 8.30078Z" fill="#AAAAAA"/>
</svg>
