<svg width="80" height="80" viewBox="0 0 80 80" fill="none" xmlns="http://www.w3.org/2000/svg">
<path fill-rule="evenodd" clip-rule="evenodd" d="M1.13794 27.1476C4.85114 26.0856 7.67434 23.7356 10.1795 20.97C12.3967 18.5224 14.4763 15.9512 16.6723 13.484C18.9907 10.88 21.6403 8.68922 24.8095 7.15442C27.2227 5.98562 29.7227 5.53722 32.3695 5.97802C35.7003 6.53322 37.9779 8.46682 39.4447 11.4424C39.6263 11.8104 39.7951 12.1852 40.0115 12.6456C40.2751 12.1108 40.4939 11.6228 40.7499 11.1556C42.9743 7.10802 46.3579 5.43722 50.9999 5.89682C54.1479 6.20842 56.7551 7.78522 59.2191 9.61682C61.8435 11.5676 63.9167 14.0712 66.0427 16.5276C67.9699 18.7552 69.9331 20.9592 71.9923 23.0636C73.5979 24.704 75.5599 25.8916 77.6907 26.7684C78.0667 26.9236 78.4803 26.9916 78.9895 27.1304C78.2939 28.0632 77.6519 28.9896 76.9431 29.8616C72.7623 35.0056 67.6083 38.9452 61.7799 42.0412C58.8458 43.5999 55.7748 44.8858 52.6055 45.8828C48.6743 47.1192 44.6599 48.0744 40.5399 48.1276C38.0483 48.16 35.5231 47.7596 33.0587 47.3048C27.5495 46.2888 22.3595 44.3128 17.4599 41.604C14.6388 40.0452 11.9627 38.2372 9.46354 36.2016C6.34394 33.662 3.62114 30.7744 1.32354 27.4792C1.24674 27.3688 1.19154 27.2432 1.13794 27.1476ZM40.0255 34.1232C41.8043 32.3784 43.9255 31.3448 46.2067 30.5936C49.7399 29.43 53.3991 28.9588 57.0811 28.6092C58.3991 28.484 59.7175 28.3684 61.0355 28.2488C55.6723 27.7592 50.8203 26.3344 47.5903 21.4712C42.5627 25.0332 37.4703 25.0296 32.4527 21.4716C29.1951 26.3748 24.3083 27.7588 19.0199 28.2224C19.2827 28.2604 19.6263 28.332 19.9727 28.3568C23.4819 28.6108 26.9847 28.9332 30.4295 29.6792C33.9363 30.438 37.3095 31.5144 40.0255 34.1232Z" fill="#B21A9D"/>
<path fill-rule="evenodd" clip-rule="evenodd" d="M35.5564 65.6208C35.356 66.574 35.252 67.4844 34.9692 68.3352C33.8228 71.7796 31.496 74.052 27.9948 75.05C23.5636 76.312 18.8404 74.3796 16.5196 70.4004C13.6536 65.4888 15.4204 59.1096 20.416 56.3672C20.8508 56.128 21.3168 55.9396 21.7832 55.7644C22.108 55.6428 22.1836 55.4844 22.0744 55.1528C21.6328 53.8172 21.2156 52.4736 20.7876 51.1336L12.5944 25.4628C12.4016 24.8584 12.4016 24.8552 13.0136 24.6596C15.9372 23.7252 19.4068 23.7472 22.3304 22.8128C25.0976 21.9292 27.3184 20.0884 30.086 19.2044C30.7072 19.006 30.708 19.0092 30.912 19.6472L35.5992 34.2976C37.1836 39.2512 38.7736 44.2032 40.3432 49.1608C40.4812 49.5964 40.642 49.7188 41.1052 49.6016C45.312 48.5432 49.4732 50.0992 51.988 53.644C55.1968 58.1672 53.9868 64.7208 49.3756 67.7956C44.962 70.7384 39.31 69.9688 35.8552 65.954C35.7608 65.8444 35.6628 65.7392 35.5564 65.6208Z" fill="#EAE4E9"/>
<path d="M25.2545 76.6004C21.2637 76.6004 17.5301 74.4504 15.5109 70.9888C13.9653 68.34 13.5685 65.2408 14.3933 62.2628C15.2193 59.2812 17.1585 56.8244 19.8533 55.3448C20.1494 55.1838 20.454 55.0388 20.7657 54.9104C20.5265 54.1736 20.2933 53.4372 20.0657 52.7192C19.9357 52.3088 19.8061 51.8988 19.6753 51.4892L17.9189 45.986C15.7733 39.2628 13.6281 32.5404 11.4821 25.818C11.3453 25.388 11.1901 24.9012 11.4657 24.37C11.7405 23.8408 12.2277 23.6852 12.6573 23.5476C14.2129 23.0504 15.8877 22.8116 17.5073 22.5808C19.1009 22.3532 20.6065 22.1384 21.9745 21.7012C23.2517 21.2932 24.4157 20.658 25.6477 19.9848C26.9221 19.2884 28.2401 18.5684 29.7305 18.0928C30.0177 18.0012 30.2661 17.922 30.5501 17.922C31.0589 17.922 31.5001 18.18 31.7601 18.6296C31.8741 18.8268 31.9401 19.032 32.0233 19.2916L36.7101 33.942L37.7189 37.0948C38.9001 40.7848 40.1197 44.5948 41.3121 48.3572C42.0988 48.1924 42.9003 48.1089 43.7041 48.108C47.3821 48.108 50.7481 49.88 52.9397 52.9688C54.6513 55.3812 55.3149 58.4832 54.7613 61.4788C54.2073 64.4712 52.4809 67.1276 50.0229 68.7668C48.0837 70.0588 45.8645 70.7424 43.6061 70.7424C40.9233 70.7424 38.3325 69.7644 36.2737 68.012C36.2171 68.245 36.1513 68.4757 36.0765 68.7036C35.4433 70.6036 34.4681 72.2004 33.1761 73.4488C31.8733 74.7076 30.2373 75.624 28.3145 76.172C27.3193 76.4561 26.2894 76.6003 25.2545 76.6004ZM13.8701 25.622L20.1429 45.2764L21.8993 50.7796C22.0309 51.1904 22.1609 51.6028 22.2913 52.0148C22.5801 52.9256 22.8781 53.8676 23.1821 54.7868C23.4861 55.7064 23.0977 56.5192 22.1925 56.8584C21.8117 57.0004 21.3701 57.1748 20.9777 57.3908C18.8389 58.5656 17.2997 60.5168 16.6433 62.8864C15.9877 65.252 16.3017 67.712 17.5273 69.8128C19.1297 72.5596 22.0905 74.2668 25.2545 74.2668C26.0713 74.2668 26.8861 74.1524 27.6749 73.9276C30.7997 73.0372 32.8237 71.0872 33.8613 67.9672C34.0281 67.4672 34.1293 66.9068 34.2365 66.3128C34.2905 66.012 34.3465 65.7016 34.4141 65.3808C34.4585 65.1699 34.5603 64.9754 34.7084 64.8188C34.8566 64.6623 35.0451 64.5498 35.2533 64.4938C35.4614 64.4379 35.681 64.4406 35.8876 64.5018C36.0943 64.563 36.28 64.6802 36.4241 64.8404L36.5157 64.9416C36.5893 65.0224 36.6649 65.1056 36.7405 65.1936C38.4981 67.236 41.0005 68.4084 43.6065 68.4084C45.4029 68.4084 47.1745 67.8608 48.7281 66.8244C50.6645 65.534 52.0269 63.4308 52.4661 61.054C52.9065 58.6752 52.3853 56.2204 51.0361 54.3192C49.2885 51.8552 46.6161 50.4424 43.7049 50.4424C42.9377 50.4424 42.1585 50.5404 41.3897 50.734C41.1841 50.786 40.9989 50.8108 40.8249 50.8108C40.3833 50.8108 39.5881 50.6424 39.2305 49.5144C37.9941 45.6096 36.7241 41.6428 35.4965 37.8064L34.4873 34.6536L29.9545 20.4848C28.8637 20.8888 27.8413 21.4472 26.7673 22.0336C25.4929 22.7292 24.1757 23.4492 22.6857 23.9252C21.1309 24.422 19.4569 24.6608 17.8381 24.892C16.4353 25.0916 15.1021 25.282 13.8701 25.622Z" fill="#B21A9D"/>
<path fill-rule="evenodd" clip-rule="evenodd" d="M30.1361 17.2525C26.8413 18.3057 24.3141 20.7249 21.7665 21.5393C17.9957 22.7441 14.5873 22.2217 11.8841 23.0857C11.7989 22.8185 11.6801 22.5585 11.6337 22.2861C10.8441 17.6353 11.6577 13.3005 14.2597 9.34406C15.0189 8.19126 16.0217 7.29686 17.4633 7.09726C18.7185 6.92406 19.9001 7.26766 21.0205 7.78246C25.0077 9.61366 28.0341 12.4397 29.8793 16.4621C29.9901 16.7037 30.0461 16.9705 30.1361 17.2525Z" fill="#EAE4E9"/>
<path d="M11.8836 24.2524C11.6359 24.2528 11.3946 24.1743 11.1947 24.0282C10.9947 23.8821 10.8465 23.6761 10.7716 23.44C10.7512 23.3756 10.7252 23.304 10.6972 23.228C10.6232 23.0236 10.5312 22.7696 10.4824 22.4808C9.62998 17.4604 10.5728 12.8244 13.284 8.70243C14.344 7.09243 15.696 6.16323 17.3028 5.94123C17.576 5.90376 17.8514 5.88491 18.1272 5.88483C19.19 5.88483 20.264 6.15083 21.5072 6.72163C25.868 8.72443 29.0416 11.8376 30.9396 15.9752C31.0516 16.22 31.1192 16.456 31.1784 16.6636C31.2004 16.7396 31.222 16.818 31.2476 16.8968C31.3416 17.1917 31.3147 17.5118 31.1728 17.7869C31.0309 18.0619 30.7856 18.2694 30.4908 18.3636C28.8732 18.8804 27.4236 19.7744 26.0216 20.6392C24.6984 21.4552 23.4488 22.226 22.1212 22.65C19.9484 23.3444 17.9044 23.4988 16.1008 23.6344C14.6232 23.7456 13.3472 23.8424 12.2384 24.1964C12.1238 24.2337 12.0041 24.2526 11.8836 24.2524ZM18.1276 8.21923C17.9576 8.21923 17.788 8.23083 17.6228 8.25363C16.686 8.38283 15.9272 8.93363 15.2344 9.98563C14.0344 11.81 13.222 13.7604 12.8192 15.7824C12.448 17.6452 12.4144 19.6252 12.7176 21.6724C13.7392 21.4724 14.81 21.3916 15.9256 21.3072C17.6828 21.1748 19.4996 21.038 21.4112 20.4272C22.4672 20.0896 23.5988 19.3916 24.7968 18.6528C25.9464 17.944 27.2176 17.1596 28.6364 16.564C27.8144 14.884 26.7412 13.3968 25.4416 12.1388C24.0828 10.8232 22.4312 9.71403 20.5336 8.84283C19.6068 8.41723 18.8424 8.21923 18.1276 8.21923Z" fill="#B21A9D"/>
</svg>
