<svg width="21" height="21" viewBox="0 0 21 21" fill="none" xmlns="http://www.w3.org/2000/svg">
<path d="M20.5922 18.0641C20.9592 18.4718 20.9592 19.0835 20.5515 19.4505L19.4097 20.5922C19.0427 21 18.4311 21 18.0233 20.5922L13.9864 16.5553C13.7825 16.3515 13.701 16.1068 13.701 15.8621V15.1689C12.233 16.3107 10.4388 16.9631 8.48155 16.9631C3.79223 16.9631 0 13.1709 0 8.48155C0 3.83301 3.79223 0 8.48155 0C13.1301 0 16.9631 3.83301 16.9631 8.48155C16.9631 10.4796 16.2699 12.2738 15.1689 13.701H15.8214C16.066 13.701 16.3107 13.8233 16.5146 13.9864L20.5922 18.0641ZM8.48155 13.701C11.3359 13.701 13.701 11.3767 13.701 8.48155C13.701 5.62718 11.3359 3.26214 8.48155 3.26214C5.58641 3.26214 3.26214 5.62718 3.26214 8.48155C3.26214 11.3767 5.58641 13.701 8.48155 13.701Z" fill="#C61D61"/>
</svg>
