<svg width="22" height="22" viewBox="0 0 22 22" fill="none" xmlns="http://www.w3.org/2000/svg">
<path d="M8.24992 10.7705C7.94602 10.7705 7.65458 10.8912 7.43969 11.1061C7.22481 11.321 7.10409 11.6124 7.10409 11.9163C7.10409 12.2202 7.22481 12.5117 7.43969 12.7266C7.65458 12.9415 7.94602 13.0622 8.24992 13.0622C8.40039 13.0622 8.54939 13.0325 8.68841 12.975C8.82743 12.9174 8.95374 12.833 9.06015 12.7266C9.16655 12.6202 9.25095 12.4939 9.30853 12.3548C9.36611 12.2158 9.39575 12.0668 9.39575 11.9163C9.39575 11.7659 9.36611 11.6169 9.30853 11.4778C9.25095 11.3388 9.16655 11.2125 9.06015 11.1061C8.95374 10.9997 8.82743 10.9153 8.68841 10.8577C8.54939 10.8001 8.40039 10.7705 8.24992 10.7705ZM13.7499 10.7705C13.446 10.7705 13.1546 10.8912 12.9397 11.1061C12.7248 11.321 12.6041 11.6124 12.6041 11.9163C12.6041 12.2202 12.7248 12.5117 12.9397 12.7266C13.1546 12.9415 13.446 13.0622 13.7499 13.0622C14.0538 13.0622 14.3453 12.9415 14.5601 12.7266C14.775 12.5117 14.8958 12.2202 14.8958 11.9163C14.8958 11.6124 14.775 11.321 14.5601 11.1061C14.3453 10.8912 14.0538 10.7705 13.7499 10.7705ZM10.9999 1.83301C9.79613 1.83301 8.60414 2.07011 7.49199 2.53078C6.37984 2.99145 5.36931 3.66666 4.51811 4.51786C2.79902 6.23695 1.83325 8.56852 1.83325 10.9997C1.83325 13.4308 2.79902 15.7624 4.51811 17.4815C5.36931 18.3327 6.37984 19.0079 7.49199 19.4686C8.60414 19.9292 9.79613 20.1663 10.9999 20.1663C13.4311 20.1663 15.7626 19.2006 17.4817 17.4815C19.2008 15.7624 20.1666 13.4308 20.1666 10.9997C20.1666 9.79589 19.9295 8.60389 19.4688 7.49174C19.0081 6.37959 18.3329 5.36907 17.4817 4.51786C16.6305 3.66666 15.62 2.99145 14.5079 2.53078C13.3957 2.07011 12.2037 1.83301 10.9999 1.83301ZM10.9999 18.333C6.95742 18.333 3.66659 15.0422 3.66659 10.9997C3.66659 10.7338 3.66659 10.468 3.71242 10.2113C5.87575 9.24884 7.58992 7.47967 8.48825 5.28884C10.1474 7.63551 12.8791 9.16634 15.9683 9.16634C16.6833 9.16634 17.3708 9.08384 18.0308 8.92801C18.2233 9.57884 18.3333 10.2755 18.3333 10.9997C18.3333 15.0422 15.0424 18.333 10.9999 18.333Z" fill="black"/>
</svg>
