<svg width="43" height="18" viewBox="0 0 43 18" fill="none" xmlns="http://www.w3.org/2000/svg">
<g clip-path="url(#clip0_60_322)">
<g clip-path="url(#clip1_60_322)">
<path d="M8.99992 16.7143C8.82592 16.7143 8.67855 16.6541 8.5578 16.5337L2.28986 10.4869C2.22311 10.4332 2.13105 10.3462 2.01368 10.2259C1.8963 10.1055 1.71049 9.88631 1.45624 9.56831C1.20199 9.25031 0.974363 8.92387 0.773363 8.589C0.572363 8.25412 0.393301 7.84893 0.236176 7.37343C0.0790508 6.89793 0.000488281 6.43593 0.000488281 5.98743C0.000488281 4.51443 0.425551 3.36262 1.27568 2.532C2.1258 1.70137 3.30086 1.28625 4.80086 1.28662C5.21599 1.28662 5.63955 1.35862 6.07155 1.50262C6.50355 1.64662 6.90536 1.84068 7.27699 2.08481C7.64861 2.32893 7.9683 2.55825 8.23605 2.77275C8.5038 2.98725 8.75842 3.21487 8.99992 3.45562C9.24067 3.21487 9.4953 2.98725 9.7638 2.77275C10.0323 2.55825 10.352 2.32893 10.7229 2.08481C11.0937 1.84068 11.4955 1.64662 11.9283 1.50262C12.361 1.35862 12.7846 1.28662 13.199 1.28662C14.699 1.28662 15.874 1.70175 16.7242 2.532C17.5743 3.36225 17.9994 4.51406 17.9994 5.98743C17.9994 7.46718 17.2327 8.97375 15.6993 10.5071L9.44149 16.5337C9.32111 16.6541 9.17374 16.7143 8.99936 16.7143H8.99992Z" fill="black"/>
</g>
</g>
<defs>
<clipPath id="clip0_60_322">
<rect width="18" height="18" fill="white"/>
</clipPath>
<clipPath id="clip1_60_322">
<rect width="18" height="18" fill="white"/>
</clipPath>
</defs>
</svg>
