<svg width="38" height="28" viewBox="0 0 38 28" fill="none" xmlns="http://www.w3.org/2000/svg">
<g clip-path="url(#clip0_30_9866)">
<path fill-rule="evenodd" clip-rule="evenodd" d="M14.001 4.99127C16.8703 4.99127 19.5137 5.78525 21.9614 7.26306C23.8291 8.38668 25.4368 9.8011 26.7451 11.5467C27.0731 11.9857 27.3829 12.4445 27.6714 12.9104C28.1151 13.6339 28.1072 14.3788 27.665 15.1046C26.361 17.2528 24.5837 19.0748 22.4685 20.4318C21.2245 21.2322 19.9059 21.8772 18.4931 22.3225C16.7617 22.8669 14.9899 23.0832 13.1793 22.9881C11.4239 22.8968 9.69901 22.4927 8.0858 21.7948C6.39983 21.0709 4.84135 20.0804 3.47011 18.8613C2.25581 17.7853 1.20723 16.5356 0.35838 15.1529C-0.117848 14.3851 -0.122603 13.6173 0.35521 12.8526C2.44951 9.50316 5.36868 7.17986 9.06757 5.82487C10.5842 5.26861 12.2918 4.99286 14.001 4.99127ZM20.0953 8.4984C20.9463 10.0602 21.1912 11.7076 20.8576 13.4342C20.5177 15.183 19.5565 16.5436 18.1714 17.6244C15.9043 19.393 12.4899 19.4865 10.1112 17.8312C8.84966 16.9517 7.88453 15.8154 7.38928 14.3431C6.71416 12.3391 6.89166 10.393 7.92811 8.50078C7.84729 8.5404 7.79578 8.55863 7.74824 8.58557C7.27756 8.87162 6.79578 9.13628 6.34174 9.44611C4.61274 10.622 3.22684 12.1307 2.08183 13.87C2.01924 13.9691 2.01924 14.0349 2.08183 14.1299C2.8107 15.2366 3.66795 16.2532 4.63572 17.1585C5.88611 18.3201 7.27597 19.2749 8.84253 19.9532C10.9725 20.8724 13.1936 21.1751 15.4955 20.9239C16.9265 20.77 18.32 20.3695 19.6143 19.7401C22.2498 18.4509 24.3243 16.5309 25.9368 14.0943C25.9852 14.0198 25.9812 13.9707 25.9321 13.9025C25.7609 13.6593 25.6009 13.4104 25.4273 13.1704C24.1872 11.4564 22.6864 10.0174 20.86 8.93263C20.6072 8.78287 20.3505 8.6442 20.0953 8.4984ZM9.22367 11.8685C9.25695 12.023 9.26805 12.1894 9.33144 12.3304C9.46773 12.6426 9.81797 12.8043 10.1452 12.7345C10.4947 12.6616 10.7165 12.3764 10.7514 12.0206C10.7871 11.6561 10.8148 11.2805 10.9265 10.9382C11.356 9.63073 12.5501 8.79 13.997 8.74246C14.4416 8.72661 14.7546 8.40728 14.7459 7.97701C14.7371 7.55546 14.4123 7.24405 13.9796 7.24405C13.8449 7.24405 13.7094 7.25514 13.5747 7.26465C11.2078 7.45007 9.2839 9.4984 9.22367 11.8685Z" fill="#FFD640"/>
</g>
<defs>
<clipPath id="clip0_30_9866">
<rect width="28" height="28" fill="white"/>
</clipPath>
</defs>
</svg>
