<svg width="80" height="80" viewBox="0 0 80 80" fill="none" xmlns="http://www.w3.org/2000/svg">
<g clip-path="url(#clip0_30_11709)">
<path fill-rule="evenodd" clip-rule="evenodd" d="M8.42913 56.4999C8.02793 55.4507 7.54633 54.4243 7.24033 53.3475C6.20433 49.7035 6.39553 46.1091 7.89793 42.6159C9.45753 38.9895 12.0495 36.3207 15.5495 34.5235C15.8859 34.3507 16.0375 34.1551 16.0471 33.7539C16.0863 32.1227 16.1823 30.4935 16.2339 28.8623C16.2919 27.0203 17.3131 26.1067 19.1747 26.2239C20.3511 26.2979 21.5303 26.3243 22.7399 26.3735C22.9319 25.4827 23.1367 24.6303 23.2855 23.7675C23.3159 23.5923 23.1819 23.3383 23.0459 23.1931C21.8575 21.9243 21.7315 20.6531 22.6711 19.2191C23.0415 18.6543 23.4135 18.0895 23.7627 17.5111C24.5983 16.1275 26.1299 15.6167 27.6059 16.2751C27.9123 16.4119 28.1135 16.4035 28.3547 16.1731C28.8971 15.6551 29.4607 15.1591 30.0215 14.6483C29.5267 13.3615 29.5931 12.1559 30.5851 11.1503C30.9151 10.8163 31.3707 10.5643 31.8147 10.3923C32.6355 10.0747 33.4859 9.82874 34.3319 9.58034C35.6659 9.18874 37.0659 9.83074 37.6895 11.1711C37.8835 11.5879 38.1091 11.7119 38.5351 11.6947C39.3591 11.6615 40.1855 11.6879 41.0095 11.6499C41.1663 11.6427 41.3807 11.4843 41.4555 11.3379C42.5103 9.27994 44.8447 8.88234 46.4519 10.5251C47.0811 11.1683 47.6715 11.8539 48.2343 12.5563C49.0567 13.5811 49.0903 14.7639 48.3279 15.8919C48.0999 16.2295 48.1003 16.4587 48.3227 16.7863C48.9011 17.6383 49.4427 18.5151 50.0435 19.4511L51.3475 18.6139C52.1063 18.1275 52.8607 17.6327 53.6263 17.1567C54.8739 16.3815 56.1867 16.6619 57.0015 17.8987C57.9332 19.3099 58.845 20.734 59.7367 22.1707C59.9903 22.5803 60.2687 22.6863 60.7419 22.6647C65.6531 22.4451 69.8815 24.0159 73.3391 27.5543C73.7443 27.9683 74.1411 28.3915 74.5415 28.8103C75.0491 29.6011 75.5563 30.3919 76.0647 31.1831C76.3299 31.8603 76.6091 32.5327 76.8591 33.2159C78.2551 37.0307 78.1651 40.8407 76.7107 44.6075C75.6327 47.3999 73.8807 49.7155 71.4831 51.5271C71.4231 51.572 71.3597 51.6123 71.2935 51.6475C71.2627 51.6635 71.2231 51.6619 71.1103 51.6823C70.6127 50.9071 70.0815 50.1155 69.6063 49.2919C69.5479 49.1907 69.7391 48.8567 69.8963 48.7335C71.2947 47.6319 72.3451 46.2515 73.1779 44.6975C75.9171 39.5879 74.7707 33.0423 70.4507 29.1819C66.9359 26.0407 62.8379 25.0047 58.3067 26.1939C53.9667 27.3331 50.9783 30.1251 49.4283 34.3531C47.6163 39.2967 48.9811 44.7539 52.8499 48.3295C56.6611 51.8515 62.3743 52.7211 67.0695 50.4795C67.4135 50.3151 67.5959 50.3507 67.7943 50.6795C68.2471 51.4307 68.7355 52.1599 69.2239 52.9215C67.8287 53.7719 66.3655 54.2427 64.8595 54.5555C62.4179 55.0619 59.9691 55.0307 57.5515 54.3871C53.8675 53.4059 50.8691 51.4115 48.5983 48.3235C46.6951 45.7359 45.6527 42.8471 45.4863 39.6515C45.3535 37.1015 45.8123 34.6463 46.8491 32.3063C46.9407 32.1003 46.9851 31.8559 47.1251 31.6935C47.8015 30.9123 47.5291 30.2575 46.9979 29.5135C46.1579 28.3371 45.4131 27.0923 44.6395 25.8699C43.8319 24.5947 44.1019 23.2883 45.3563 22.4519C46.3104 21.8165 47.275 21.1972 48.2499 20.5943C48.5643 20.3995 48.6027 20.2271 48.3987 19.9223C47.8875 19.1565 47.3897 18.3817 46.9055 17.5983C46.7435 17.3379 46.5679 17.2587 46.2583 17.3267C45.2991 17.5367 44.4067 17.3619 43.7271 16.6255C42.8403 15.6667 41.7867 14.8383 41.2515 13.5863C41.2051 13.4787 40.9911 13.3851 40.8543 13.3839C39.9915 13.3771 39.1275 13.3819 38.2663 13.4255C38.1191 13.4331 37.9135 13.6151 37.8523 13.7647C37.5091 14.5999 36.9315 15.1695 36.0739 15.4499C35.2532 15.719 34.4309 15.9833 33.6071 16.2427C32.8999 16.4651 32.2111 16.4347 31.5223 16.1267C31.3647 16.0563 31.0763 16.0891 30.9399 16.1939C30.4177 16.5931 29.9217 17.0253 29.4547 17.4879C29.3267 17.6155 29.2679 17.9251 29.3239 18.1055C29.6083 19.0231 29.5475 19.8807 29.0207 20.6947C28.5415 21.4351 28.0775 22.1859 27.5819 22.9147C27.0455 23.7043 26.2575 24.0723 25.3247 24.0931C24.9879 24.1011 24.8783 24.2103 24.8067 24.5199C24.6679 25.1215 24.4763 25.7111 24.2771 26.4099C25.0291 26.4515 25.5811 26.4879 26.1339 26.5111C26.9587 26.5459 27.7839 26.5647 28.6087 26.6023C29.9867 26.6647 30.9719 27.6631 30.9455 29.0471C30.9115 30.8479 30.8087 32.6471 30.7675 34.4475C30.7627 34.6547 30.9067 34.9567 31.0763 35.0623C35.4339 37.7687 38.1215 41.6215 38.8355 46.7067C39.5175 51.5623 38.1935 55.8991 34.9343 59.5891C32.2519 62.6259 28.8483 64.3539 24.8543 64.9351C24.3203 65.0127 23.7743 65.0127 23.1415 65.0547C23.1603 64.3839 23.1595 63.7563 23.1995 63.1307C23.2783 61.8895 23.2919 61.9199 24.5443 61.7443C27.9687 61.2659 30.8155 59.7043 32.9607 56.9915C35.9459 53.2163 36.6059 48.9727 35.0227 44.4715C33.7951 40.9815 31.3991 38.4175 27.9623 36.9875C23.4331 35.1031 19.0871 35.6039 15.0915 38.4415C12.7103 40.1327 11.1167 42.4583 10.3155 45.2851C8.67753 51.0623 10.9835 56.9275 16.1267 60.0207C16.8611 60.4623 17.6679 60.8031 18.4743 61.0999C19.2627 61.3907 20.0931 61.5647 20.9983 61.8159L20.8903 64.9243C20.3463 64.8327 19.8535 64.7707 19.3707 64.6643C15.6431 63.8383 12.5819 61.9255 10.1539 58.9867C10.0599 58.8727 9.93913 58.7815 9.83033 58.6799C9.3624 57.9538 8.89533 57.2272 8.42913 56.4999ZM42.8547 13.4399C43.5875 14.2315 44.2407 14.9699 44.9375 15.6639C45.0859 15.8119 45.3955 15.7979 45.7343 15.8851C45.4331 15.2275 44.9207 14.6603 45.6175 14.1599C46.3359 13.6443 46.7047 14.3007 47.0967 14.7863C47.4063 14.3959 47.3903 14.0019 47.1411 13.7063C46.4427 12.8759 45.7327 12.0471 44.9499 11.2983C44.4675 10.8367 43.6247 11.0299 43.3411 11.4299C43.5727 11.8375 43.8935 12.1643 43.9323 12.5223C43.9971 13.1147 43.4875 13.3155 42.8547 13.4399ZM25.2875 22.5099C26.2571 22.4519 28.1307 19.8007 27.7967 19.0051C27.3707 19.3431 26.9051 19.5763 26.4327 19.1435C25.8719 18.6295 26.2647 18.1247 26.5559 17.6387C25.8467 17.5199 25.5331 17.6267 25.2083 18.1203C24.7443 18.8251 24.2715 19.5263 23.8519 20.2575C23.6979 20.5259 23.6859 20.8751 23.6355 21.0831C24.1439 21.0155 24.5891 20.8179 24.9127 20.9411C25.6595 21.2251 25.2203 21.9407 25.2875 22.5099ZM32.6839 14.7215C33.4111 14.8611 35.8295 13.9967 36.1151 13.5019C35.6471 13.3851 35.1003 13.3603 35.0275 12.7199C34.9455 11.9955 35.4587 11.7719 36.0339 11.6287C35.7051 11.0935 35.2715 10.9011 34.6755 11.0731C33.8107 11.3227 32.9515 11.5951 32.1043 11.8979C31.4963 12.1147 31.2443 12.6963 31.4211 13.3651C31.9247 13.0763 32.3827 12.4315 33.0275 13.0935C33.4103 13.4867 33.3455 13.7843 32.6839 14.7215ZM23.0251 28.1103C22.9971 28.6711 22.9423 29.1939 22.9547 29.7151C22.9639 30.1031 22.8791 30.3675 22.5451 30.6211C21.9187 31.0971 21.9271 31.9547 22.5003 32.5571C23.0087 33.0907 23.9707 33.1039 24.4819 32.5839C25.0459 32.0099 25.0127 31.1783 24.4455 30.6303C24.2967 30.4867 24.2155 30.2351 24.1815 30.0207C24.1415 29.7655 24.1835 29.4971 24.1951 29.2347C24.2455 28.1071 24.2463 28.1071 23.0251 28.1103ZM49.9147 21.5951C50.2011 22.0415 50.4575 22.4535 50.7263 22.8567C50.9571 23.2027 51.1255 23.5039 50.9599 23.9847C50.7251 24.6643 51.2667 25.3855 51.9899 25.5255C52.7907 25.6803 53.5451 25.1503 53.6815 24.3367C53.8003 23.6307 53.2839 22.9659 52.5723 22.8199C52.3347 22.7715 52.0731 22.5991 51.9251 22.4051C51.5767 21.9471 51.2895 21.4423 50.9579 20.9255L49.9147 21.5951Z" fill="#B21A9D"/>
<path d="M20.2917 13.1776L45.2073 36.158V45.642L36.6717 47.3812L26.2037 39.9572L8.81567 19.7848" fill="#EAE4E9"/>
<path d="M6.83507 25.0416L27.9191 46.126C30.0599 48.2668 43.1643 51.4456 43.1643 51.4456L62.3027 70.5836C63.6651 71.946 65.8707 71.946 67.2979 70.5836C68.6599 69.2212 68.6599 67.0156 67.2979 65.5884L48.1599 46.4504C48.1599 46.4504 45.0459 33.4104 42.8399 31.2048L21.7559 10.1208C17.8635 6.2284 14.2307 9.2128 10.0787 13.3648C5.92667 17.5164 2.94227 21.214 6.83507 25.0416Z" fill="#EAE4E9"/>
<path d="M64.7764 72.7648C64.1647 72.7668 63.5587 72.6476 62.9935 72.414C62.4282 72.1803 61.9149 71.8369 61.4832 71.4036L42.574 52.4944C41.6604 52.2668 38.91 51.5684 36.0124 50.6996C29.4084 48.72 27.7632 47.6092 27.1 46.9464L6.01957 25.8664C4.59557 24.4652 3.87037 22.9376 3.86357 21.3252C3.85037 18.2148 6.52197 15.282 9.25917 12.5448C12.1024 9.70157 14.9096 7.14917 17.9876 7.14917C19.6044 7.14917 21.1484 7.87357 22.5764 9.30117L43.6604 30.3852C44.0528 30.7776 45.2464 31.9716 47.4388 39.324C48.2996 42.2116 48.9852 44.9476 49.21 45.8612L68.1184 64.7692L68.1372 64.7888C69.0028 65.696 69.4792 66.8756 69.4792 68.1112C69.4814 68.7273 69.3604 69.3378 69.1233 69.9065C68.8863 70.4753 68.5379 70.9909 68.0988 71.4232C67.1916 72.2884 66.012 72.7648 64.7764 72.7648ZM17.9876 9.46797C15.7984 9.46797 13.2856 11.7976 10.8988 14.184C9.70797 15.3756 8.36677 16.7708 7.44997 18.0912C6.59317 19.3252 6.17837 20.38 6.18277 21.3156C6.18677 22.3012 6.66597 23.2496 7.64837 24.2156L7.65517 24.2224L28.7396 45.3068C29.0796 45.6472 30.534 46.6368 36.6784 48.4788C40.1524 49.5204 43.406 50.312 43.4384 50.32C43.6456 50.37 43.8344 50.4764 43.9852 50.6268L63.1232 69.7648C63.3399 69.9823 63.5977 70.1546 63.8816 70.2718C64.1654 70.3889 64.4697 70.4485 64.7768 70.4472C65.4088 70.4472 66.016 70.202 66.488 69.7556C67.3948 68.8388 67.386 67.3692 66.4684 66.3984L47.3408 47.2712C47.1891 47.1197 47.0825 46.9292 47.0328 46.7208C47.0248 46.6884 46.2476 43.4432 45.214 39.978C43.3884 33.8568 42.3724 32.3776 42.0208 32.0256L20.9368 10.9416C19.9456 9.94957 18.9812 9.46797 17.9876 9.46797Z" fill="#B21A9D"/>
<path d="M21.3183 20.4583C21.3267 16.7203 20.3899 14.9415 17.4791 16.0919C17.4791 16.0919 15.1883 17.1071 16.4155 19.7647C13.8907 18.2847 12.6571 20.4655 12.6571 20.4655C11.2291 23.2507 12.9083 24.3563 16.6295 24.7115C20.3507 25.0667 22.1483 26.0851 22.1483 26.0851C22.1483 26.0851 21.3103 24.1963 21.3183 20.4583Z" fill="#B1199C"/>
<path d="M22.1483 26.1135C22.1432 26.1136 22.1382 26.1123 22.1339 26.1095C22.1163 26.0995 20.2975 25.0907 16.6267 24.7399C14.1979 24.5079 12.8339 23.9747 12.3347 23.0623C11.9727 22.4011 12.0695 21.5471 12.6315 20.4523C12.6391 20.4387 13.3443 19.2203 14.7447 19.2203C15.2523 19.2203 15.7931 19.3799 16.3531 19.6947C15.9871 18.8647 15.9275 18.1107 16.1751 17.4531C16.5395 16.4859 17.4587 16.0691 17.4679 16.0651C18.0543 15.8335 18.5755 15.7159 19.0179 15.7159C19.5587 15.7159 20.0075 15.8911 20.3519 16.2367C21.0363 16.9223 21.3523 18.2635 21.3479 20.4587C21.3399 24.1479 22.1671 26.0543 22.1755 26.0731C22.1778 26.0787 22.1784 26.0849 22.1771 26.0909C22.1758 26.0968 22.1727 26.1022 22.1683 26.1063C22.1626 26.111 22.1556 26.1135 22.1483 26.1135ZM14.7443 19.2783C13.3775 19.2783 12.6891 20.4675 12.6823 20.4795C12.1307 21.5551 12.0335 22.3911 12.3855 23.0347C12.8747 23.9287 14.2243 24.4523 16.6323 24.6823C18.5571 24.8663 19.9575 25.2303 20.7935 25.5039C21.4975 25.7339 21.9311 25.9403 22.0919 26.0219C21.9415 25.6359 21.2827 23.7543 21.2899 20.4583C21.2947 18.2803 20.9835 16.9515 20.3111 16.2779C19.9731 15.9387 19.5503 15.7743 19.0183 15.7743C18.5831 15.7743 18.0691 15.8899 17.4907 16.1187C17.4827 16.1223 16.5851 16.5295 16.2295 17.4743C15.9795 18.1379 16.0511 18.9047 16.4427 19.7523C16.4453 19.7579 16.446 19.7642 16.4448 19.7703C16.4436 19.7763 16.4405 19.7818 16.4359 19.7859C16.4313 19.79 16.4255 19.7925 16.4194 19.7931C16.4134 19.7938 16.4072 19.7925 16.4019 19.7895C15.8223 19.4503 15.2651 19.2783 14.7443 19.2783Z" fill="black"/>
<path d="M29.1077 28.556C29.1157 24.818 28.1793 23.0392 25.2685 24.1892C25.2685 24.1892 22.9777 25.2048 24.2049 27.8624C21.6797 26.3824 20.4461 28.5632 20.4461 28.5632C19.0181 31.3484 20.6973 32.4536 24.4185 32.8092C28.1397 33.1648 29.9373 34.1824 29.9373 34.1824C29.9373 34.1824 29.0997 32.294 29.1077 28.556Z" fill="#B1199C"/>
<path d="M29.9376 34.2112C29.9325 34.2113 29.9275 34.2099 29.9232 34.2072C29.9052 34.1972 28.0864 33.1884 24.4156 32.8376C21.9868 32.6052 20.6228 32.0724 20.1236 31.16C19.7616 30.4988 19.8588 29.6448 20.4204 28.55C20.428 28.5364 21.1332 27.318 22.5336 27.318C23.0416 27.318 23.582 27.4776 24.142 27.7924C23.7764 26.9624 23.7164 26.2084 23.9644 25.5508C24.3288 24.5836 25.2476 24.1668 25.2572 24.1628C25.8436 23.9308 26.3648 23.8136 26.8072 23.8136C27.348 23.8136 27.7964 23.9888 28.1412 24.3344C28.8252 25.02 29.1416 26.3612 29.1368 28.5564C29.1284 32.244 29.9556 34.1516 29.964 34.1704C29.9665 34.1761 29.9671 34.1823 29.9658 34.1883C29.9645 34.1944 29.9614 34.1998 29.9568 34.204C29.9514 34.2085 29.9447 34.2111 29.9376 34.2112ZM22.5336 27.376C21.1668 27.376 20.4784 28.5652 20.4716 28.5772C19.92 29.6528 19.8228 30.4888 20.1748 31.1324C20.6644 32.026 22.014 32.55 24.4216 32.78C26.3464 32.964 27.7468 33.328 28.5828 33.6016C29.2868 33.8316 29.7204 34.0376 29.8812 34.1196C29.7308 33.7336 29.072 31.852 29.0792 28.556C29.084 26.378 28.7728 25.0492 28.1004 24.3756C27.7624 24.0364 27.3396 23.872 26.8076 23.872C26.3724 23.872 25.8584 23.9876 25.28 24.2164C25.272 24.22 24.3744 24.6272 24.0188 25.572C23.7688 26.2356 23.8408 27.002 24.232 27.8496C24.2346 27.8552 24.2353 27.8615 24.2341 27.8675C24.2329 27.8735 24.2298 27.879 24.2252 27.8832C24.2206 27.8873 24.2148 27.8899 24.2087 27.8906C24.2025 27.8913 24.1963 27.8901 24.1908 27.8872C23.612 27.548 23.0544 27.376 22.5336 27.376Z" fill="black"/>
<path d="M37.237 36.8368C37.2454 33.0988 36.3086 31.32 33.3978 32.4704C33.3978 32.4704 31.107 33.4856 32.3342 36.1432C29.809 34.6632 28.5758 36.8444 28.5758 36.8444C27.1478 39.6292 28.827 40.7348 32.5482 41.09C36.2694 41.446 38.067 42.4636 38.067 42.4636C38.067 42.4636 37.229 40.5752 37.237 36.8368Z" fill="#B1199C"/>
<path d="M38.0667 42.4919C38.0616 42.492 38.0566 42.4906 38.0523 42.4879C38.0343 42.4779 36.2159 41.4691 32.5447 41.1183C30.1159 40.8863 28.7523 40.3531 28.2527 39.4411C27.8907 38.7795 27.9875 37.9255 28.5491 36.8307C28.5567 36.8175 29.2619 35.5991 30.6623 35.5991C31.1699 35.5991 31.7107 35.7583 32.2703 36.0731C31.9047 35.2431 31.8451 34.4891 32.0927 33.8315C32.4571 32.8643 33.3763 32.4479 33.3855 32.4435C33.9719 32.2119 34.4931 32.0947 34.9355 32.0947C35.4763 32.0947 35.9251 32.2699 36.2695 32.6151C36.9535 33.3007 37.2699 34.6423 37.2655 36.8371C37.2575 40.5247 38.0843 42.4327 38.0927 42.4515C38.0953 42.4571 38.096 42.4633 38.0947 42.4693C38.0934 42.4753 38.0901 42.4807 38.0855 42.4847C38.0804 42.4895 38.0736 42.4921 38.0667 42.4919ZM30.6631 35.6571C29.2971 35.6571 28.6075 36.8463 28.6011 36.8583C28.0495 37.9339 27.9519 38.7699 28.3043 39.4135C28.7935 40.3075 30.1431 40.8311 32.5507 41.0615C34.4755 41.2451 35.8759 41.6095 36.7119 41.8827C37.4159 42.1127 37.8495 42.3191 38.0103 42.4007C37.8599 42.0147 37.2015 40.1331 37.2083 36.8371C37.2131 34.6591 36.9019 33.3303 36.2295 32.6567C35.8911 32.3179 35.4683 32.1531 34.9363 32.1531C34.5011 32.1531 33.9871 32.2691 33.4087 32.4975C33.4007 32.5011 32.5031 32.9087 32.1475 33.8531C31.8975 34.5167 31.9695 35.2835 32.3611 36.1311C32.3663 36.1423 32.3635 36.1559 32.3543 36.1647C32.3451 36.1735 32.3307 36.1743 32.3199 36.1683C31.7415 35.8287 31.1835 35.6571 30.6631 35.6571Z" fill="black"/>
</g>
<defs>
<clipPath id="clip0_30_11709">
<rect width="80" height="80" fill="white"/>
</clipPath>
</defs>
</svg>
