<svg width="43" height="21" viewBox="0 0 43 21" fill="none" xmlns="http://www.w3.org/2000/svg">
<g clip-path="url(#clip0_60_326)">
<path d="M16.0312 16.9922H9.63281L3.12891 20.6836C3.09375 20.6953 3.05273 20.7158 3.00586 20.7451C2.95898 20.7744 2.91797 20.7891 2.88281 20.7891C2.83594 20.7891 2.78613 20.7744 2.7334 20.7451C2.68066 20.7158 2.63672 20.6836 2.60156 20.6484C2.53125 20.5781 2.49023 20.4961 2.47852 20.4023C2.4668 20.3086 2.48438 20.2148 2.53125 20.1211L4.07812 16.9922H1.96875C1.42969 16.9922 0.966797 16.8076 0.580078 16.4385C0.193359 16.0693 0 15.6094 0 15.0586V6.19922C0 5.66016 0.19043 5.19727 0.571289 4.81055C0.952148 4.42383 1.41797 4.23047 1.96875 4.23047H16.0312C16.5703 4.23047 17.0332 4.4209 17.4199 4.80176C17.8066 5.18262 18 5.64844 18 6.19922V15.0586C18 15.5977 17.8096 16.0547 17.4287 16.4297C17.0479 16.8047 16.582 16.9922 16.0312 16.9922ZM12.9375 9.15234C12.5391 9.15234 12.1934 9.2959 11.9004 9.58301C11.6074 9.87012 11.4609 10.2188 11.4609 10.6289C11.4609 11.0273 11.6045 11.3672 11.8916 11.6484C12.1787 11.9297 12.5273 12.0703 12.9375 12.0703C13.3359 12.0703 13.6816 11.9326 13.9746 11.6572C14.2676 11.3818 14.4141 11.0391 14.4141 10.6289C14.4141 10.2305 14.2705 9.88477 13.9834 9.5918C13.6963 9.29883 13.3477 9.15234 12.9375 9.15234ZM5.0625 12.0703C5.46094 12.0703 5.80664 11.9326 6.09961 11.6572C6.39258 11.3818 6.53906 11.0391 6.53906 10.6289C6.53906 10.2305 6.39551 9.89062 6.1084 9.60938C5.82129 9.32812 5.47266 9.1875 5.0625 9.1875C4.66406 9.1875 4.31836 9.3252 4.02539 9.60059C3.73242 9.87598 3.58594 10.2188 3.58594 10.6289C3.58594 11.0273 3.72949 11.3672 4.0166 11.6484C4.30371 11.9297 4.65234 12.0703 5.0625 12.0703ZM7.52344 10.6289C7.52344 11.0273 7.66699 11.3672 7.9541 11.6484C8.24121 11.9297 8.58984 12.0703 9 12.0703C9.39844 12.0703 9.74414 11.9326 10.0371 11.6572C10.3301 11.3818 10.4766 11.0391 10.4766 10.6289C10.4766 10.2305 10.333 9.88477 10.0459 9.5918C9.75879 9.29883 9.41016 9.15234 9 9.15234C8.60156 9.15234 8.25586 9.2959 7.96289 9.58301C7.66992 9.87012 7.52344 10.2188 7.52344 10.6289Z" fill="black"/>
</g>
<rect x="15" width="8" height="8" rx="4" fill="#2877AE"/>
<defs>
<clipPath id="clip0_60_326">
<rect width="18" height="18" fill="white" transform="matrix(1 0 0 -1 0 21)"/>
</clipPath>
</defs>
</svg>
