<svg width="269" height="119" viewBox="0 0 269 119" fill="none" xmlns="http://www.w3.org/2000/svg">
<path d="M268.003 51.8L233.776 33.3632C232.854 32.8665 231.704 33.2114 231.207 34.1335L220.285 54.4104C219.788 55.3325 220.133 56.4827 221.055 56.9794L255.282 75.4161C256.204 75.9128 257.354 75.568 257.85 74.6459L268.773 54.3689C269.27 53.4468 268.925 52.2967 268.003 51.8Z" fill="#E98A0A"/>
<path opacity="0.7" d="M268.003 51.8L233.776 33.3632C232.854 32.8665 231.704 33.2114 231.207 34.1335L220.285 54.4104C219.788 55.3325 220.133 56.4827 221.055 56.9794L255.282 75.4161C256.204 75.9128 257.354 75.568 257.85 74.6459L268.773 54.3689C269.27 53.4468 268.925 52.2967 268.003 51.8Z" fill="white"/>
<path opacity="0.2" d="M230.317 35.8071L240.967 55.8018C241.376 56.5635 242.001 57.1868 242.765 57.5929C243.528 57.9989 244.394 58.1695 245.254 58.083L267.53 55.8843L244.856 59.2236C243.865 59.3701 242.853 59.1924 241.972 58.7169C241.09 58.2414 240.386 57.4936 239.964 56.5851L230.317 35.8071Z" fill="black"/>
<path d="M204.331 32.1105C204.702 24.4699 210.364 9.06509 217.248 4.35156C224.133 -0.361959 219.598 6.16551 219.598 6.16551C219.598 6.16551 226.126 -0.183318 229.561 0.00907116C232.997 0.20146 229.561 4.13169 229.561 4.13169C229.561 4.13169 236.638 -0.224544 239.895 0.00907116C243.152 0.242686 239.895 4.00801 239.895 4.00801C239.895 4.00801 245.694 -0.114608 248.044 1.82302C250.394 3.76065 217.963 25.1845 214.349 33.897C210.735 42.6094 203.96 39.8198 204.331 32.1105Z" fill="#E98A0A"/>
<path opacity="0.4" d="M204.331 32.1105C204.702 24.4699 210.364 9.06509 217.248 4.35156C224.133 -0.361959 219.598 6.16551 219.598 6.16551C219.598 6.16551 226.126 -0.183318 229.561 0.00907116C232.997 0.20146 229.561 4.13169 229.561 4.13169C229.561 4.13169 236.638 -0.224544 239.895 0.00907116C243.152 0.242686 239.895 4.00801 239.895 4.00801C239.895 4.00801 245.694 -0.114608 248.044 1.82302C250.394 3.76065 217.963 25.1845 214.349 33.897C210.735 42.6094 203.96 39.8198 204.331 32.1105Z" fill="white"/>
<path d="M232.201 30.9562L236.53 33.7046C236.598 33.7469 236.65 33.8111 236.677 33.8867C236.705 33.9624 236.706 34.045 236.68 34.1213C236.655 34.1976 236.604 34.2631 236.537 34.3072C236.47 34.3512 236.39 34.3713 236.31 34.3642L231.761 34.0069L232.146 37.4974C232.157 37.5797 232.141 37.6634 232.101 37.736C232.061 37.8086 231.998 37.8662 231.922 37.9002C231.846 37.9343 231.762 37.9429 231.681 37.9247C231.599 37.9066 231.526 37.8628 231.472 37.7997L228.848 34.8589L232.201 30.9562Z" fill="#E98A0A"/>
<path opacity="0.3" d="M232.201 30.9562L236.53 33.7046C236.598 33.7469 236.65 33.8111 236.677 33.8867C236.705 33.9624 236.706 34.045 236.68 34.1213C236.655 34.1976 236.604 34.2631 236.537 34.3072C236.47 34.3512 236.39 34.3713 236.31 34.3642L231.761 34.0069L232.146 37.4974C232.157 37.5797 232.141 37.6634 232.101 37.736C232.061 37.8086 231.998 37.8662 231.922 37.9002C231.846 37.9343 231.762 37.9429 231.681 37.9247C231.599 37.9066 231.526 37.8628 231.472 37.7997L228.848 34.8589L232.201 30.9562Z" fill="white"/>
<path d="M171.392 13.7511C171.392 13.7511 177.384 9.62852 186.44 12.2945C186.44 12.2945 189.037 24.2638 196.169 28.249C200.086 30.434 209.664 30.2416 217.249 27.7955C226.25 24.8822 230.648 24.8822 232.283 28.249C233.919 31.6158 232.105 35.12 225.22 36.7553C218.335 38.3906 212.852 50.3462 200.388 50.4974C187.924 50.6485 181.3 38.1295 184.447 27.1359C181.468 21.5158 176.936 16.87 171.392 13.7511Z" fill="#E98A0A"/>
<path opacity="0.5" d="M171.392 13.7511C171.392 13.7511 177.384 9.62852 186.44 12.2945C186.44 12.2945 189.037 24.2638 196.169 28.249C200.086 30.434 209.664 30.2416 217.249 27.7955C226.25 24.8822 230.648 24.8822 232.283 28.249C233.919 31.6158 232.105 35.12 225.22 36.7553C218.335 38.3906 212.852 50.3462 200.388 50.4974C187.924 50.6485 181.3 38.1295 184.447 27.1359C181.468 21.5158 176.936 16.87 171.392 13.7511Z" fill="white"/>
<path d="M228.848 30.5164C228.848 30.6387 228.812 30.7583 228.744 30.86C228.676 30.9617 228.579 31.041 228.466 31.0878C228.353 31.1346 228.229 31.1468 228.109 31.1229C227.989 31.0991 227.879 31.0402 227.792 30.9537C227.706 30.8672 227.647 30.757 227.623 30.6371C227.599 30.5171 227.612 30.3928 227.658 30.2798C227.705 30.1668 227.784 30.0702 227.886 30.0023C227.988 29.9343 228.107 29.898 228.23 29.898C228.394 29.898 228.551 29.9632 228.667 30.0792C228.783 30.1951 228.848 30.3524 228.848 30.5164Z" fill="#263238"/>
<path d="M197.488 40.5756C190.109 42.582 173.701 41.9498 167.105 36.8653C160.509 31.7807 168.094 34.1169 168.094 34.1169C168.094 34.1169 160.055 29.8705 159.162 26.545C158.269 23.2194 163.12 25.2532 163.12 25.2532C163.12 25.2532 156.798 19.8801 155.974 16.7194C155.149 13.5587 159.766 15.4826 159.766 15.4826C159.766 15.4826 154.009 11.2501 155.177 8.40547C156.345 5.56086 186.701 29.8018 196.087 30.5576C205.473 31.3135 204.964 38.5418 197.488 40.5756Z" fill="#E98A0A"/>
<path opacity="0.4" d="M197.488 40.5756C190.109 42.582 173.701 41.9498 167.105 36.8653C160.509 31.7807 168.094 34.1169 168.094 34.1169C168.094 34.1169 160.055 29.8705 159.162 26.545C158.269 23.2194 163.12 25.2532 163.12 25.2532C163.12 25.2532 156.798 19.8801 155.974 16.7194C155.149 13.5587 159.766 15.4826 159.766 15.4826C159.766 15.4826 154.009 11.2501 155.177 8.40547C156.345 5.56086 186.701 29.8018 196.087 30.5576C205.473 31.3135 204.964 38.5418 197.488 40.5756Z" fill="white"/>
<path d="M149.116 7.14119C149.062 7.15458 149.005 7.15458 148.951 7.14119C147.673 6.6877 146.368 6.2617 145.048 5.86318C144.918 5.82198 144.809 5.73123 144.744 5.61045C144.68 5.48967 144.666 5.3485 144.705 5.2173C144.746 5.08685 144.837 4.97777 144.957 4.91353C145.078 4.84928 145.219 4.835 145.351 4.87375C146.725 5.27227 148.003 5.71201 149.295 6.24795C149.41 6.28727 149.507 6.36655 149.569 6.47141C149.63 6.57627 149.652 6.69976 149.631 6.81947C149.609 6.93918 149.545 7.04717 149.451 7.12385C149.356 7.20053 149.238 7.24081 149.116 7.23738V7.14119Z" fill="#E98A0A"/>
<path d="M66.0587 118.685C65.9226 118.685 65.7918 118.632 65.6942 118.537C65.5967 118.442 65.5401 118.313 65.5365 118.177C65.5365 118.041 65.5896 117.91 65.6846 117.812C65.7796 117.715 65.9089 117.658 66.045 117.655C68.7788 117.616 71.5045 117.349 74.194 116.858C74.3287 116.833 74.4676 116.863 74.5806 116.94C74.6937 117.017 74.772 117.136 74.7987 117.27C74.8126 117.337 74.8128 117.406 74.7995 117.473C74.7861 117.54 74.7594 117.603 74.7209 117.66C74.6825 117.716 74.633 117.764 74.5755 117.801C74.518 117.838 74.4537 117.863 74.3864 117.875C71.6381 118.378 68.8524 118.649 66.0587 118.685ZM57.8135 118.246C55.0405 117.95 52.2873 117.491 49.5683 116.871C49.4337 116.842 49.3163 116.76 49.2416 116.644C49.167 116.529 49.1411 116.388 49.1697 116.253C49.2024 116.121 49.2853 116.007 49.4008 115.935C49.5163 115.863 49.6552 115.839 49.7881 115.868C52.4642 116.471 55.1707 116.93 57.8959 117.243C58.0182 117.263 58.1293 117.325 58.2095 117.42C58.2897 117.514 58.3337 117.634 58.3337 117.758C58.3337 117.882 58.2897 118.002 58.2095 118.096C58.1293 118.19 58.0182 118.253 57.8959 118.273L57.8135 118.246ZM82.2331 115.497C82.1343 115.498 82.0374 115.469 81.9545 115.416C81.8715 115.362 81.806 115.285 81.7659 115.195C81.7363 115.133 81.7197 115.066 81.7168 114.997C81.7141 114.928 81.7252 114.86 81.7496 114.796C81.774 114.731 81.8112 114.673 81.8588 114.623C81.9065 114.574 81.9637 114.535 82.027 114.508C84.5228 113.432 86.8398 111.981 88.898 110.207C89.0032 110.126 89.135 110.089 89.2666 110.102C89.3983 110.115 89.52 110.178 89.6073 110.277C89.6945 110.377 89.7408 110.506 89.7367 110.638C89.7325 110.77 89.6784 110.896 89.5851 110.99C87.4442 112.827 85.0402 114.332 82.453 115.456C82.3771 115.498 82.2923 115.522 82.2056 115.525L82.2331 115.497ZM41.7078 114.563C41.6537 114.576 41.5971 114.576 41.5429 114.563C38.9319 113.697 36.3072 112.68 33.7649 111.567C33.6522 111.503 33.5676 111.399 33.5274 111.275C33.4872 111.152 33.4944 111.018 33.5476 110.9C33.6008 110.781 33.6961 110.687 33.8151 110.635C33.934 110.583 34.068 110.577 34.1909 110.619C36.692 111.718 39.2755 112.721 41.8727 113.587C42.0013 113.634 42.1064 113.729 42.1655 113.852C42.2246 113.976 42.233 114.117 42.1888 114.247C42.1499 114.342 42.0832 114.423 41.9973 114.479C41.9115 114.536 41.8105 114.565 41.7078 114.563ZM26.5916 107.884C26.5109 107.909 26.4248 107.909 26.3442 107.884C23.8844 106.51 21.4932 105.026 19.267 103.473C19.212 103.434 19.1651 103.385 19.1291 103.328C19.0931 103.271 19.0687 103.208 19.0572 103.141C19.0457 103.075 19.0474 103.007 19.0622 102.941C19.077 102.876 19.1046 102.813 19.1434 102.758C19.1822 102.703 19.2314 102.656 19.2883 102.62C19.3452 102.584 19.4087 102.56 19.475 102.549C19.5414 102.537 19.6094 102.539 19.6751 102.554C19.7408 102.568 19.8029 102.596 19.8579 102.635C22.0567 104.16 24.4066 105.63 26.8527 106.991C26.9118 107.024 26.9639 107.068 27.0057 107.121C27.0475 107.175 27.0783 107.236 27.0962 107.301C27.1141 107.366 27.1188 107.434 27.11 107.502C27.1013 107.569 27.0792 107.633 27.045 107.692C26.9869 107.781 26.9036 107.851 26.8058 107.892C26.7079 107.934 26.5998 107.945 26.4954 107.925L26.5916 107.884ZM94.5322 104.737C94.4516 104.762 94.3655 104.762 94.2849 104.737C94.2257 104.704 94.1737 104.66 94.1318 104.607C94.09 104.554 94.0593 104.493 94.0413 104.427C94.0234 104.362 94.0187 104.294 94.0275 104.227C94.0363 104.16 94.0584 104.095 94.0925 104.036C94.5185 103.294 94.917 102.525 95.2743 101.728C96.0392 100.045 96.6375 98.2913 97.0608 96.492C97.0965 96.3589 97.1821 96.2447 97.2998 96.173C97.4175 96.1013 97.5583 96.0778 97.6929 96.1072C97.8254 96.1428 97.9386 96.229 98.008 96.3473C98.0774 96.4656 98.0975 96.6064 98.0639 96.7394C97.6156 98.598 96.9945 100.411 96.2088 102.154C95.8377 102.978 95.4255 103.789 94.9857 104.559C94.9271 104.647 94.8432 104.715 94.7451 104.754C94.6469 104.793 94.5392 104.802 94.4361 104.778L94.5322 104.737ZM13.0419 98.3884C12.9209 98.3866 12.8044 98.3429 12.7121 98.2647C10.6193 96.4162 8.65852 94.4233 6.84423 92.3007C6.74937 92.2032 6.69629 92.0725 6.69629 91.9365C6.69629 91.8005 6.74937 91.6699 6.84423 91.5724C6.93939 91.4784 7.06776 91.4257 7.20152 91.4257C7.33527 91.4257 7.46365 91.4784 7.55881 91.5724C9.34031 93.6504 11.2643 95.6019 13.3167 97.4127C13.4116 97.5102 13.4647 97.6409 13.4647 97.7769C13.4647 97.9129 13.4116 98.0436 13.3167 98.1411C13.2827 98.2155 13.2312 98.2806 13.1666 98.3308C13.102 98.381 13.0262 98.4149 12.9457 98.4296L13.0419 98.3884ZM98.49 88.8514C98.422 88.8514 98.3547 88.8379 98.2921 88.8115C98.2295 88.785 98.1729 88.7464 98.1255 88.6977C98.0781 88.649 98.0409 88.5913 98.0162 88.528C97.9915 88.4648 97.9797 88.3972 97.9815 88.3292C97.9615 85.5963 97.7087 82.8701 97.2257 80.1802C97.2015 80.0455 97.2311 79.9066 97.3082 79.7936C97.3853 79.6805 97.5037 79.6022 97.6379 79.5755C97.7742 79.5553 97.913 79.5882 98.0255 79.6675C98.1381 79.7468 98.2158 79.8665 98.2426 80.0015C98.7371 82.7503 98.9945 85.5364 99.0121 88.3292C99.0121 88.4677 98.9571 88.6005 98.8592 88.6985C98.7613 88.7964 98.6285 88.8514 98.49 88.8514ZM95.7416 72.5533C95.6303 72.5522 95.5223 72.5157 95.4334 72.4489C95.3444 72.3822 95.279 72.2888 95.2468 72.1823C94.546 69.7775 93.6802 67.2214 92.6221 64.3631C92.5958 64.2992 92.5828 64.2306 92.5839 64.1616C92.585 64.0925 92.6002 64.0244 92.6285 63.9614C92.6568 63.8984 92.6976 63.8418 92.7485 63.7951C92.7994 63.7484 92.8592 63.7125 92.9244 63.6897C93.0521 63.6448 93.1923 63.6512 93.3153 63.7076C93.4384 63.764 93.5347 63.866 93.584 63.992C94.6559 66.8779 95.5217 69.4889 96.2363 71.88C96.275 72.0112 96.2607 72.1524 96.1965 72.2731C96.1322 72.3939 96.0232 72.4847 95.8927 72.5259L95.7416 72.5533ZM90.0523 56.9561C89.957 56.9569 89.8634 56.93 89.783 56.8788C89.7025 56.8276 89.6386 56.7542 89.5988 56.6675C88.7194 54.4688 87.5238 51.9403 86.2733 49.2606V49.1232C86.2375 49.0034 86.2458 48.8747 86.2968 48.7606C86.3479 48.6464 86.4381 48.5544 86.5513 48.5011C86.6644 48.4479 86.7928 48.437 86.9133 48.4705C87.0338 48.5039 87.1383 48.5795 87.2077 48.6834V48.8208C88.472 51.5692 89.6538 54.0565 90.5333 56.214C90.5888 56.3435 90.5911 56.4897 90.5397 56.6209C90.4882 56.752 90.3872 56.8577 90.2585 56.9149L90.0523 56.9561ZM83.1813 41.8399C83.0802 41.8431 82.9804 41.816 82.8947 41.7621C82.809 41.7083 82.7413 41.6301 82.7003 41.5375C81.4636 38.6655 80.4741 36.1232 79.6908 33.7733C79.6466 33.6439 79.655 33.5022 79.7141 33.3789C79.7732 33.2556 79.8783 33.1603 80.0069 33.1137C80.1381 33.0701 80.2812 33.0804 80.4049 33.1422C80.5285 33.204 80.6226 33.3124 80.6665 33.4435C81.4361 35.7659 82.4118 38.2807 83.6485 41.1253C83.6755 41.1874 83.6898 41.2544 83.6905 41.3221C83.6913 41.3899 83.6785 41.4571 83.6529 41.5198C83.6273 41.5825 83.5894 41.6395 83.5414 41.6874C83.4935 41.7353 83.4365 41.7731 83.3737 41.7986C83.3278 41.8474 83.2714 41.885 83.2088 41.9086L83.1813 41.8399ZM78.1517 26.0915C78.0288 26.0898 77.9103 26.0447 77.8173 25.9643C77.7243 25.8839 77.6627 25.7732 77.6433 25.6517C77.4074 24.1793 77.288 22.6905 77.286 21.1993C77.2746 19.867 77.3943 18.5368 77.6433 17.2279C77.6829 17.1059 77.766 17.0029 77.8767 16.9382C77.9874 16.8736 78.118 16.852 78.2436 16.8774C78.3693 16.9029 78.4812 16.9737 78.558 17.0763C78.6348 17.179 78.6712 17.3063 78.6602 17.434C78.4223 18.6748 78.3072 19.936 78.3166 21.1993C78.3213 22.6397 78.4362 24.0777 78.6602 25.5006C78.6767 25.6346 78.642 25.77 78.563 25.8795C78.484 25.9891 78.3666 26.0648 78.2342 26.0915H78.1517ZM81.7384 10.4805C81.619 10.4838 81.5022 10.4448 81.4086 10.3706C81.3137 10.2731 81.2607 10.1424 81.2607 10.0064C81.2607 9.87039 81.3137 9.73974 81.4086 9.64225C83.2535 7.4869 85.498 5.70897 88.0185 4.40652C88.1391 4.34242 88.28 4.32811 88.411 4.36664C88.542 4.40517 88.6527 4.49348 88.7194 4.61265C88.7789 4.73551 88.7892 4.87643 88.7484 5.00667C88.7075 5.13691 88.6185 5.24665 88.4995 5.3135C86.0994 6.5547 83.9621 8.24863 82.2056 10.3019C82.1602 10.3778 82.0957 10.4406 82.0186 10.4839C81.9415 10.5273 81.8544 10.5498 81.7659 10.5492L81.7384 10.4805ZM137.146 3.74691H137.036C134.398 3.19723 131.663 2.73 128.901 2.3727C128.834 2.36427 128.769 2.34256 128.711 2.30885C128.652 2.27514 128.601 2.23011 128.56 2.17637C128.519 2.12264 128.489 2.06128 128.472 1.9959C128.455 1.93051 128.452 1.8624 128.461 1.79554C128.47 1.72852 128.492 1.66384 128.525 1.6053C128.559 1.54676 128.604 1.49552 128.658 1.45458C128.711 1.41364 128.773 1.38382 128.838 1.36686C128.904 1.34989 128.972 1.34614 129.039 1.35579C131.787 1.71309 134.535 2.18032 137.284 2.73C137.407 2.75838 137.516 2.83052 137.59 2.93304C137.664 3.03556 137.698 3.16147 137.687 3.2874C137.675 3.41333 137.618 3.53071 137.526 3.61775C137.434 3.70479 137.314 3.75557 137.188 3.76065L137.146 3.74691ZM95.9202 2.57884C95.8534 2.58605 95.7859 2.58004 95.7214 2.56116C95.657 2.54228 95.5969 2.51089 95.5446 2.46878C95.4922 2.42667 95.4487 2.37467 95.4165 2.31574C95.3843 2.25682 95.364 2.19212 95.3568 2.12535C95.3496 2.05857 95.3556 1.99103 95.3744 1.92658C95.3933 1.86213 95.4247 1.80203 95.4668 1.74971C95.5089 1.69739 95.5609 1.65388 95.6199 1.62166C95.6788 1.58944 95.7435 1.56914 95.8103 1.56192C98.5241 0.953071 101.281 0.553385 104.055 0.366365C104.192 0.35877 104.326 0.404856 104.428 0.494757C104.531 0.584658 104.595 0.711222 104.605 0.847335C104.611 0.915235 104.603 0.983567 104.581 1.04828C104.56 1.11299 104.526 1.17276 104.481 1.22404C104.436 1.27531 104.382 1.31704 104.32 1.34676C104.259 1.37647 104.192 1.39357 104.124 1.39702C101.395 1.57348 98.6842 1.96403 96.0164 2.56509L95.9202 2.57884ZM120.656 1.61689C118.265 1.45198 115.42 1.27333 112.411 1.21837C112.275 1.21478 112.145 1.1582 112.05 1.06065C111.955 0.963104 111.902 0.832319 111.902 0.696172C111.902 0.628228 111.916 0.560965 111.942 0.498363C111.969 0.435761 112.007 0.379092 112.056 0.331694C112.105 0.284295 112.162 0.247134 112.226 0.222405C112.289 0.197676 112.356 0.185876 112.424 0.187712C115.461 0.256422 118.333 0.421328 120.67 0.586233C120.738 0.589684 120.804 0.606779 120.866 0.636495C120.927 0.666211 120.982 0.70794 121.027 0.759214C121.071 0.810488 121.105 0.870262 121.127 0.934974C121.148 0.999685 121.156 1.06802 121.151 1.13592C121.161 1.26 121.126 1.38358 121.053 1.48436C120.98 1.58515 120.873 1.65652 120.752 1.6856L120.656 1.61689Z" fill="#E98A0A"/>
<path d="M2.35068 85.7045C2.25852 85.7062 2.16765 85.6828 2.08777 85.6368C2.00789 85.5908 1.94201 85.5239 1.89719 85.4434C1.20223 84.2369 0.582653 82.9886 0.042015 81.7056C0.0150453 81.6434 0.000770802 81.5765 3.03689e-05 81.5087C-0.000710065 81.441 0.0120959 81.3738 0.0377006 81.311C0.0633054 81.2483 0.10119 81.1913 0.149128 81.1434C0.197067 81.0955 0.254096 81.0577 0.316857 81.0322C0.442801 80.9815 0.583546 80.9818 0.70925 81.0331C0.834953 81.0844 0.935729 81.1827 0.990215 81.307C1.52088 82.5496 2.12193 83.7608 2.79043 84.9349C2.84177 85.0114 2.87073 85.1008 2.87404 85.1928C2.87736 85.2849 2.85489 85.3761 2.80918 85.4561C2.76347 85.5361 2.69633 85.6017 2.61532 85.6456C2.53431 85.6895 2.44266 85.7099 2.35068 85.7045Z" fill="#E98A0A"/>
</svg>
