<svg width="22" height="22" viewBox="0 0 22 22" fill="none" xmlns="http://www.w3.org/2000/svg">
<path d="M1.375 3.66699V5.04199C1.375 8.84616 3.40083 12.1737 6.41667 14.0253V18.3337H20.1667V16.5003C20.1667 14.062 15.2808 12.8337 12.8333 12.8337C12.8333 12.8337 12.6775 12.8337 12.6042 12.8337C8.25 12.8337 4.58333 9.16699 4.58333 5.04199V3.66699M12.8333 3.66699C11.8609 3.66699 10.9282 4.0533 10.2406 4.74093C9.55298 5.42857 9.16667 6.3612 9.16667 7.33366C9.16667 8.30612 9.55298 9.23875 10.2406 9.92638C10.9282 10.614 11.8609 11.0003 12.8333 11.0003C13.8058 11.0003 14.7384 10.614 15.4261 9.92638C16.1137 9.23875 16.5 8.30612 16.5 7.33366C16.5 6.3612 16.1137 5.42857 15.4261 4.74093C14.7384 4.0533 13.8058 3.66699 12.8333 3.66699Z" fill="black"/>
</svg>
