<svg width="24" height="24" viewBox="0 0 24 24" fill="none" xmlns="http://www.w3.org/2000/svg">
<g clip-path="url(#clip0_57_1114)">
<path fill-rule="evenodd" clip-rule="evenodd" d="M1.99956 11.9978V3.03022C2.00044 1.66332 2.88163 0.484858 4.18837 0.116812C4.43521 0.047803 4.69886 0.00622084 4.95543 0.00445139C8.4156 -0.000856977 11.8731 2.77507e-05 15.3333 0.00179721C15.3811 0.00179721 15.4386 0.0256848 15.4704 0.0601892C17.6274 2.21185 19.7799 4.36527 21.9369 6.51781C21.9583 6.53785 21.9751 6.56232 21.9861 6.58952C21.9971 6.61672 22.0021 6.64599 22.0006 6.6753C21.9988 11.4422 22.0006 16.2109 21.9988 20.9743C22.003 21.6617 21.771 22.3298 21.3417 22.8667C20.9123 23.4036 20.3117 23.7768 19.6401 23.9239C19.4321 23.972 19.2193 23.9964 19.0058 23.9965C14.3371 24.0009 9.6666 24.0009 4.9979 23.9991C4.2522 23.9956 3.53438 23.7153 2.98353 23.2127C2.43269 22.7101 2.08803 22.0209 2.01637 21.2786C2.00457 21.1631 1.99895 21.047 1.99956 20.9309V11.9978ZM13.9973 8.0015V2.0004H13.9266C10.9583 2.0004 7.98739 1.99774 5.01736 2.0004C4.41575 2.0004 4.00081 2.42684 4.00081 3.03641V20.9654C4.00081 21.5776 4.42548 21.9997 5.04036 21.9997H18.9607C19.0199 21.9997 19.081 21.9979 19.1385 21.989C19.6746 21.8997 20.0011 21.5086 20.0011 20.9468V8.11829V8.0015H13.9973ZM16.003 5.99229H18.5351C17.6946 5.15356 16.8444 4.30334 16.003 3.45931V5.99229Z" fill="black"/>
</g>
<defs>
<clipPath id="clip0_57_1114">
<rect width="24" height="24" fill="white"/>
</clipPath>
</defs>
</svg>
