<svg width="191" height="80" viewBox="0 0 191 80" fill="none" xmlns="http://www.w3.org/2000/svg">
<g clip-path="url(#clip0_1_2447)">
<g clip-path="url(#clip1_1_2447)">
<g clip-path="url(#clip2_1_2447)">
<mask id="mask0_1_2447" style="mask-type:luminance" maskUnits="userSpaceOnUse" x="74" y="30" width="26" height="15">
<path d="M99.8643 30.668H74.7969V44.8593H99.8643V30.668Z" fill="white"/>
</mask>
<g mask="url(#mask0_1_2447)">
<path d="M99.4089 36.9349L89.8123 30.8205C89.5919 30.6817 89.3255 30.6355 89.0713 30.692C88.817 30.7485 88.5953 30.9032 88.4545 31.1223C88.3146 31.3426 88.268 31.6093 88.3248 31.864C88.3816 32.1186 88.5372 32.3402 88.7574 32.4802L95.5047 36.7771H75.7808C75.5198 36.7771 75.2696 36.8808 75.0851 37.0653C74.9005 37.2498 74.7969 37.5001 74.7969 37.761C74.7969 38.022 74.9005 38.2722 75.0851 38.4568C75.2696 38.6413 75.5198 38.7449 75.7808 38.7449H95.5026L88.7553 43.0419C88.5353 43.182 88.3799 43.4037 88.3231 43.6582C88.2663 43.9127 88.3128 44.1794 88.4524 44.3997C88.5418 44.54 88.6654 44.6553 88.8115 44.7347C88.9577 44.8142 89.1216 44.8553 89.288 44.8541C89.4751 44.8537 89.6583 44.8005 89.8165 44.7005L99.4121 38.5893C99.5516 38.5003 99.6665 38.3776 99.746 38.2324C99.8256 38.0873 99.8673 37.9245 99.8673 37.7589C99.8673 37.5934 99.8256 37.4306 99.746 37.2855C99.6665 37.1403 99.5516 37.0176 99.4121 36.9286" fill="#707070"/>
</g>
<path d="M44.5344 51.0845C44.2991 51.0845 44.0661 51.0381 43.8487 50.948C43.6313 50.8579 43.4338 50.7259 43.2674 50.5594C43.1011 50.393 42.9692 50.1954 42.8792 49.978C42.7893 49.7605 42.743 49.5275 42.7432 49.2921C42.7446 46.8083 43.6063 44.4016 45.1818 42.4814C46.7574 40.5612 48.9494 39.2461 51.3852 38.7596C49.9929 38.1377 48.8563 37.0568 48.1653 35.6976C47.4742 34.3383 47.2707 32.783 47.5886 31.2917C47.9065 29.8004 48.7267 28.4634 49.912 27.5041C51.0973 26.5448 52.576 26.0215 54.1008 26.0215C55.6257 26.0215 57.1043 26.5448 58.2896 27.5041C59.4749 28.4634 60.2951 29.8004 60.613 31.2917C60.9309 32.783 60.7274 34.3383 60.0364 35.6976C59.3453 37.0568 58.2087 38.1377 56.8165 38.7596C59.2526 39.2456 61.4451 40.5606 63.0211 42.4808C64.597 44.4011 65.4591 46.808 65.4606 49.2921C65.4607 49.5274 65.4145 49.7603 65.3246 49.9777C65.2347 50.1951 65.1029 50.3926 64.9366 50.5591C64.7704 50.7255 64.573 50.8576 64.3557 50.9477C64.1385 51.0379 63.9056 51.0843 63.6703 51.0845H44.5344Z" fill="#E3464B"/>
<path d="M113.769 1.56769C113.076 1.56769 112.412 1.8428 111.922 2.33249C111.433 2.82219 111.158 3.48636 111.158 4.17889V65.8031C111.158 66.4956 111.433 67.1598 111.922 67.6495C112.412 68.1392 113.076 68.4143 113.769 68.4143H144.059C144.751 68.4143 145.415 68.1392 145.905 67.6495C146.395 67.1598 146.67 66.4956 146.67 65.8031V4.17889C146.67 3.48636 146.395 2.82219 145.905 2.33249C145.415 1.8428 144.751 1.56769 144.059 1.56769H113.769ZM113.769 0.000976562H144.059C145.167 0.000976563 146.229 0.441148 147.013 1.22466C147.796 2.00817 148.236 3.07084 148.236 4.17889V65.8031C148.236 66.9111 147.796 67.9738 147.013 68.7573C146.229 69.5408 145.167 69.981 144.059 69.981H113.769C112.661 69.981 111.598 69.5408 110.815 68.7573C110.031 67.9738 109.591 66.9111 109.591 65.8031V4.17889C109.591 3.07084 110.031 2.00817 110.815 1.22466C111.598 0.441148 112.661 0.000976563 113.769 0.000976562Z" fill="#707070"/>
<path d="M115.335 28.7239V42.3022H129.958V28.7239H115.335ZM114.813 27.1572H130.48C130.757 27.1572 131.023 27.2673 131.219 27.4631C131.415 27.659 131.525 27.9247 131.525 28.2017V42.8244C131.525 43.1014 131.415 43.3671 131.219 43.5629C131.023 43.7588 130.757 43.8689 130.48 43.8689H114.813C114.536 43.8689 114.27 43.7588 114.074 43.5629C113.879 43.3671 113.769 43.1014 113.769 42.8244V28.2017C113.769 27.9247 113.879 27.659 114.074 27.4631C114.27 27.2673 114.536 27.1572 114.813 27.1572Z" fill="#707070"/>
<path d="M115.335 48.5692V63.1918H129.958V48.5692H115.335ZM114.813 47.0024H130.48C130.757 47.0024 131.023 47.1125 131.219 47.3084C131.415 47.5042 131.525 47.7699 131.525 48.0469V63.7141C131.525 63.9911 131.415 64.2568 131.219 64.4526C131.023 64.6485 130.757 64.7586 130.48 64.7586H114.813C114.536 64.7586 114.27 64.6485 114.074 64.4526C113.879 64.2568 113.769 63.9911 113.769 63.7141V48.0469C113.769 47.7699 113.879 47.5042 114.074 47.3084C114.27 47.1125 114.536 47.0024 114.813 47.0024Z" fill="#707070"/>
<path d="M143.014 6.26807H114.813C114.236 6.26807 113.769 6.73569 113.769 7.31254V10.446C113.769 11.0228 114.236 11.4905 114.813 11.4905H143.014C143.591 11.4905 144.058 11.0228 144.058 10.446V7.31254C144.058 6.73569 143.591 6.26807 143.014 6.26807Z" fill="#707070"/>
<path d="M115.335 15.1458V21.4127H142.492V15.1458H115.335ZM114.813 13.5791H143.014C143.291 13.5791 143.557 13.6891 143.752 13.885C143.948 14.0809 144.058 14.3466 144.058 14.6236V21.9349C144.058 22.2119 143.948 22.4776 143.752 22.6735C143.557 22.8694 143.291 22.9794 143.014 22.9794H114.813C114.536 22.9794 114.27 22.8694 114.074 22.6735C113.879 22.4776 113.769 22.2119 113.769 21.9349V14.6236C113.769 14.3466 113.879 14.0809 114.074 13.885C114.27 13.6891 114.536 13.5791 114.813 13.5791Z" fill="#707070"/>
<path d="M142.986 31.9349H133.887C133.679 31.9349 133.48 31.8513 133.333 31.7044C133.186 31.5575 133.104 31.3593 133.104 31.1515C133.104 30.9438 133.186 30.7436 133.333 30.5966C133.48 30.4497 133.679 30.3682 133.887 30.3682H142.986C143.194 30.3682 143.393 30.4497 143.54 30.5966C143.687 30.7436 143.77 30.9438 143.77 31.1515C143.77 31.3593 143.687 31.5575 143.54 31.7044C143.393 31.8513 143.194 31.9349 142.986 31.9349Z" fill="#707070"/>
<path d="M142.986 35.9114H133.887C133.679 35.9114 133.48 35.8278 133.333 35.6809C133.186 35.534 133.104 35.3358 133.104 35.1281C133.104 34.9203 133.186 34.7201 133.333 34.5732C133.48 34.4263 133.679 34.3447 133.887 34.3447H142.986C143.194 34.3447 143.393 34.4263 143.54 34.5732C143.687 34.7201 143.77 34.9203 143.77 35.1281C143.77 35.3358 143.687 35.534 143.54 35.6809C143.393 35.8278 143.194 35.9114 142.986 35.9114Z" fill="#707070"/>
<path d="M142.986 39.8895H133.887C133.679 39.8895 133.48 39.8059 133.333 39.659C133.186 39.512 133.104 39.3139 133.104 39.1061C133.104 38.8984 133.186 38.6981 133.333 38.5512C133.48 38.4043 133.679 38.3228 133.887 38.3228H142.986C143.194 38.3228 143.393 38.4043 143.54 38.5512C143.687 38.6981 143.77 38.8984 143.77 39.1061C143.77 39.3139 143.687 39.512 143.54 39.659C143.393 39.8059 143.194 39.8895 142.986 39.8895Z" fill="#707070"/>
<path d="M142.986 52.9695H133.887C133.679 52.9695 133.48 52.8859 133.333 52.739C133.186 52.5921 133.104 52.3939 133.104 52.1862C133.104 51.9784 133.186 51.7782 133.333 51.6313C133.48 51.4844 133.679 51.4028 133.887 51.4028H142.986C143.194 51.4028 143.393 51.4844 143.54 51.6313C143.687 51.7782 143.77 51.9784 143.77 52.1862C143.77 52.3939 143.687 52.5921 143.54 52.739C143.393 52.8859 143.194 52.9695 142.986 52.9695Z" fill="#707070"/>
<path d="M142.986 56.9461H133.887C133.679 56.9461 133.48 56.8625 133.333 56.7156C133.186 56.5687 133.104 56.3705 133.104 56.1628C133.104 55.955 133.186 55.7548 133.333 55.6079C133.48 55.461 133.679 55.3794 133.887 55.3794H142.986C143.194 55.3794 143.393 55.461 143.54 55.6079C143.687 55.7548 143.77 55.955 143.77 56.1628C143.77 56.3705 143.687 56.5687 143.54 56.7156C143.393 56.8625 143.194 56.9461 142.986 56.9461Z" fill="#707070"/>
<path d="M142.986 60.9212H133.887C133.679 60.9212 133.48 60.8376 133.333 60.6907C133.186 60.5438 133.104 60.3456 133.104 60.1379C133.104 59.9301 133.186 59.7299 133.333 59.583C133.48 59.4361 133.679 59.3545 133.887 59.3545H142.986C143.194 59.3545 143.393 59.4361 143.54 59.583C143.687 59.7299 143.77 59.9301 143.77 60.1379C143.77 60.3456 143.687 60.5438 143.54 60.6907C143.393 60.8376 143.194 60.9212 142.986 60.9212Z" fill="#707070"/>
</g>
</g>
</g>
<defs>
<clipPath id="clip0_1_2447">
<rect width="105.52" height="69.98" fill="white" transform="translate(42.7305)"/>
</clipPath>
<clipPath id="clip1_1_2447">
<rect width="105.52" height="69.98" fill="white" transform="translate(42.7305)"/>
</clipPath>
<clipPath id="clip2_1_2447">
<rect width="105.492" height="69.98" fill="white" transform="translate(42.7441)"/>
</clipPath>
</defs>
</svg>
