<svg width="38" height="28" viewBox="0 0 38 28" fill="none" xmlns="http://www.w3.org/2000/svg">
<g clip-path="url(#clip0_30_11579)">
<path fill-rule="evenodd" clip-rule="evenodd" d="M13.9737 4.78438C14.4723 4.3059 14.9106 3.82837 15.4101 3.41783C19.5337 0.0713004 26.3301 1.68762 27.7521 7.24667C28.4048 9.81135 27.7541 12.1387 25.9205 14.0785C23.2735 16.8776 20.5433 19.6088 17.8532 22.3668L14.3239 25.9813C14.2225 26.0865 14.1201 26.1899 13.9976 26.3153C13.9201 26.2435 13.8493 26.1813 13.7804 26.1153L2.23357 14.2909C0.65074 12.6669 -0.122493 10.7406 0.0153111 8.51178C0.203834 5.44373 2.47473 2.50009 5.94566 1.87902C8.26535 1.46274 10.4272 1.8082 12.3306 3.21878C12.7516 3.53458 13.1095 3.93363 13.4933 4.29537C13.6579 4.4504 13.81 4.615 13.9737 4.78438Z" fill="#E785FB"/>
</g>
<defs>
<clipPath id="clip0_30_11579">
<rect width="28" height="28" fill="white"/>
</clipPath>
</defs>
</svg>
