<svg width="21" height="26" viewBox="0 0 21 26" fill="none" xmlns="http://www.w3.org/2000/svg">
<path d="M14.9554 7.46713H5.88274H5.47034V13.7218L9.1819 17.7427H11.6563L14.9554 14.1686V7.46713Z" fill="white" fill-opacity="0.8"/>
<path d="M10.2129 17.1494C12.8331 17.1494 14.9554 15.0271 14.9554 12.4069V5.88584C14.9554 3.26558 12.8331 1.14329 10.2129 1.14329C7.59263 1.14329 5.47034 3.26558 5.47034 5.88584V12.4069C5.47034 15.0271 7.59263 17.1494 10.2129 17.1494Z" stroke="white" stroke-width="2.25" stroke-linecap="round" stroke-linejoin="round"/>
<path d="M1.14329 10.2142V12.2298C1.14329 17.2332 5.21003 21.2999 10.2134 21.2999C15.2168 21.2999 19.2835 17.2332 19.2835 12.2298V10.2142" stroke="white" stroke-width="2.25" stroke-linecap="round" stroke-linejoin="round"/>
<path d="M10.213 21.2998V24.8567" stroke="white" stroke-width="2.25" stroke-linecap="round" stroke-linejoin="round"/>
</svg>
