<svg width="1349" height="820" viewBox="0 0 1349 820" fill="none" xmlns="http://www.w3.org/2000/svg">
<g clip-path="url(#clip0_1_953)" filter="url(#filter0_f_1_953)">
<g clip-path="url(#clip1_1_953)">
<mask id="mask0_1_953" style="mask-type:luminance" maskUnits="userSpaceOnUse" x="0" y="0" width="1349" height="820">
<path d="M1348.99 0H0.00537109V819.23H1348.99V0Z" fill="white"/>
</mask>
<g mask="url(#mask0_1_953)">
<path opacity="0.14" d="M328.47 486.901C436.15 486.901 523.441 399.767 523.441 292.281C523.441 184.795 436.15 97.6611 328.47 97.6611C220.791 97.6611 133.499 184.795 133.499 292.281C133.499 399.767 220.791 486.901 328.47 486.901Z" fill="url(#paint0_linear_1_953)"/>
<path opacity="0.55" d="M1317.38 222.021C1386.06 222.021 1441.74 166.343 1441.74 97.6607C1441.74 28.9786 1386.06 -26.6992 1317.38 -26.6992C1248.7 -26.6992 1193.02 28.9786 1193.02 97.6607C1193.02 166.343 1248.7 222.021 1317.38 222.021Z" fill="#FCCBF7"/>
<path opacity="0.07" d="M956.242 136.304C1024.92 136.304 1080.6 80.6261 1080.6 11.9439C1080.6 -56.7382 1024.92 -112.416 956.242 -112.416C887.56 -112.416 831.882 -56.7382 831.882 11.9439C831.882 80.6261 887.56 136.304 956.242 136.304Z" fill="#9F4BFF"/>
<path opacity="0.22" d="M336.55 751.78C407.948 751.78 465.828 693.9 465.828 622.502C465.828 551.103 407.948 493.224 336.55 493.224C265.152 493.224 207.272 551.103 207.272 622.502C207.272 693.9 265.152 751.78 336.55 751.78Z" fill="#F5F18B"/>
<path opacity="0.12" d="M1294.89 759.509C1385.31 759.509 1458.6 686.215 1458.6 595.803C1458.6 505.391 1385.31 432.098 1294.89 432.098C1204.48 432.098 1131.19 505.391 1131.19 595.803C1131.19 686.215 1204.48 759.509 1294.89 759.509Z" fill="#FCE2CB"/>
<path opacity="0.22" d="M523.441 656.93C613.853 656.93 687.147 583.636 687.147 493.224C687.147 402.812 613.853 329.519 523.441 329.519C433.029 329.519 359.736 402.812 359.736 493.224C359.736 583.636 433.029 656.93 523.441 656.93Z" fill="#FCCBF7"/>
<path opacity="0.03" d="M627.075 359.028C740.187 359.028 831.882 267.489 831.882 154.571C831.882 41.6534 740.187 -49.8848 627.075 -49.8848C513.963 -49.8848 422.267 41.6534 422.267 154.571C422.267 267.489 513.963 359.028 627.075 359.028Z" fill="#B984FF"/>
<path opacity="0.05" d="M590.539 312.656C659.416 312.656 715.251 257.135 715.251 188.647C715.251 120.159 659.416 64.6387 590.539 64.6387C521.663 64.6387 465.828 120.159 465.828 188.647C465.828 257.135 521.663 312.656 590.539 312.656Z" fill="#CC424B"/>
<path opacity="0.05" d="M91.6947 198.133C160.571 198.133 216.406 142.612 216.406 74.1239C216.406 5.6358 160.571 -49.8848 91.6947 -49.8848C22.8185 -49.8848 -33.0166 5.6358 -33.0166 74.1239C-33.0166 142.612 22.8185 198.133 91.6947 198.133Z" fill="#CC424B"/>
<path opacity="0.05" d="M72.7244 446.15C141.601 446.15 197.436 390.63 197.436 322.141C197.436 253.653 141.601 198.133 72.7244 198.133C3.84832 198.133 -51.9868 253.653 -51.9868 322.141C-51.9868 390.63 3.84832 446.15 72.7244 446.15Z" fill="#65AFF1"/>
<path opacity="0.05" d="M811.858 869.817C897.808 869.817 967.484 800.298 967.484 714.543C967.484 628.787 897.808 559.269 811.858 559.269C725.908 559.269 656.232 628.787 656.232 714.543C656.232 800.298 725.908 869.817 811.858 869.817Z" fill="#9F42CC"/>
<path opacity="0.09" d="M124.717 714.542C198.249 714.542 257.859 654.775 257.859 581.048C257.859 507.322 198.249 447.555 124.717 447.555C51.1841 447.555 -8.42578 507.322 -8.42578 581.048C-8.42578 654.775 51.1841 714.542 124.717 714.542Z" fill="#440BB8"/>
<path opacity="0.09" d="M981.536 559.268C1110.75 559.268 1215.5 454.204 1215.5 324.601C1215.5 194.997 1110.75 89.9326 981.536 89.9326C852.32 89.9326 747.57 194.997 747.57 324.601C747.57 454.204 852.32 559.268 981.536 559.268Z" fill="#935EFF"/>
</g>
</g>
</g>
<defs>
<filter id="filter0_f_1_953" x="-50" y="-50" width="1449" height="919.23" filterUnits="userSpaceOnUse" color-interpolation-filters="sRGB">
<feFlood flood-opacity="0" result="BackgroundImageFix"/>
<feBlend mode="normal" in="SourceGraphic" in2="BackgroundImageFix" result="shape"/>
<feGaussianBlur stdDeviation="25" result="effect1_foregroundBlur_1_953"/>
</filter>
<linearGradient id="paint0_linear_1_953" x1="658.361" y1="162.275" x2="-247.346" y2="345.462" gradientUnits="userSpaceOnUse">
<stop stop-color="#CC42BD"/>
<stop offset="1" stop-color="#66215F"/>
</linearGradient>
<clipPath id="clip0_1_953">
<rect width="1349" height="819.23" fill="white"/>
</clipPath>
<clipPath id="clip1_1_953">
<rect width="1348.99" height="819.23" fill="white" transform="translate(0.00537109)"/>
</clipPath>
</defs>
</svg>
