<svg width="55" height="30" viewBox="0 0 55 30" fill="none" xmlns="http://www.w3.org/2000/svg">
<path d="M36.9922 8.67188C38.8867 9.08203 40.2783 9.64355 41.167 10.3564C42.0557 11.0693 42.5 11.4258 42.5 11.4258C42.5 11.4258 42.4609 11.8262 42.3828 12.627C42.2852 13.4473 42.0801 14.3896 41.7676 15.4541C41.4551 16.5186 40.9863 17.5781 40.3613 18.6328C39.7559 19.668 38.9258 20.4297 37.8711 20.918C36.6211 21.5039 35.5078 21.6699 34.5312 21.416C33.5547 21.1816 32.6611 20.8008 31.8506 20.2734C31.04 19.7461 30.2832 19.209 29.5801 18.6621C28.877 18.1152 28.1836 17.832 27.5 17.8125C26.8164 17.832 26.123 18.1152 25.4199 18.6621C24.7168 19.209 23.96 19.7461 23.1494 20.2734C22.3389 20.8008 21.4453 21.1816 20.4688 21.416C19.4922 21.6699 18.3789 21.5039 17.1289 20.918C16.0742 20.4297 15.2441 19.668 14.6387 18.6328C14.0137 17.5781 13.5449 16.5186 13.2324 15.4541C12.9199 14.3896 12.7148 13.4473 12.6172 12.627C12.5391 11.8262 12.5 11.4258 12.5 11.4258C12.5 11.4258 12.9395 11.0693 13.8184 10.3564C14.6973 9.64355 16.0938 9.08203 18.0078 8.67188C19.043 8.45703 20.0098 8.44727 20.9082 8.64258C21.8066 8.81836 22.6416 9.06738 23.4131 9.38965C24.1846 9.71191 24.9121 10.0293 25.5957 10.3418C26.2598 10.6348 26.8945 10.7812 27.5 10.7812C28.1055 10.7812 28.7402 10.6348 29.4043 10.3418C30.0879 10.0293 30.8154 9.71191 31.5869 9.38965C32.3584 9.06738 33.1934 8.81836 34.0918 8.64258C34.9902 8.44727 35.957 8.45703 36.9922 8.67188ZM17.5977 14.1211C18.1836 15.4883 19.1455 16.25 20.4834 16.4062C21.8213 16.5625 23.1836 16.1719 24.5703 15.2344C23.9062 14.2187 22.9102 13.4961 21.582 13.0664C20.2539 12.6367 18.9258 12.9883 17.5977 14.1211ZM30.4297 15.2344C31.7969 16.1719 33.1543 16.5674 34.502 16.4209C35.8496 16.2744 36.8164 15.5078 37.4023 14.1211C36.0938 12.9883 34.7754 12.6318 33.4473 13.0518C32.1191 13.4717 31.1133 14.1992 30.4297 15.2344Z" fill="#AAAAAA"/>
</svg>
