<svg width="56" height="56" viewBox="0 0 56 56" fill="none" xmlns="http://www.w3.org/2000/svg">
<g clip-path="url(#clip0_1_2291)">
<path d="M18.2734 28.5508C18.0703 28.5508 17.875 28.5312 17.6875 28.4922C17.5 28.4531 17.3203 28.4023 17.1484 28.3398H17.1719C16.8281 28.1992 16.5469 27.9727 16.3281 27.6602C16.1094 27.3477 16 26.9961 16 26.6055C16 26.5273 16.0078 26.4453 16.0234 26.3594C16.0391 26.2734 16.0547 26.1914 16.0703 26.1133C16.1484 25.9414 16.2383 25.7773 16.3398 25.6211C16.4414 25.4648 16.5625 25.3242 16.7031 25.1992C16.9062 24.9961 17.1211 24.793 17.3477 24.5898C17.5742 24.3867 17.8047 24.1992 18.0391 24.0273L18.0859 23.9805C18.1953 23.8867 18.3086 23.793 18.4258 23.6992C18.543 23.6055 18.6562 23.5117 18.7656 23.418L22.6562 20.0664C23 19.7852 23.3438 19.5039 23.6875 19.2227C24.0312 18.9414 24.375 18.6602 24.7188 18.3789C25.0625 18.0977 25.4102 17.8164 25.7617 17.5352C26.1133 17.2539 26.4609 16.9648 26.8047 16.668C26.9609 16.5273 27.1445 16.4141 27.3555 16.3281C27.5664 16.2422 27.7891 16.1992 28.0234 16.1992C28.2578 16.1992 28.4805 16.2422 28.6914 16.3281C28.9023 16.4141 29.0938 16.5273 29.2656 16.668C30.1562 17.4336 31.0469 18.1953 31.9375 18.9531C32.8281 19.7109 33.7266 20.4648 34.6328 21.2148L35.1016 21.6133C36.0547 22.4102 37.0078 23.2148 37.9609 24.0273C38.0391 24.0898 38.1172 24.1523 38.1953 24.2148C38.2734 24.2773 38.3438 24.3398 38.4062 24.4023C38.5625 24.5273 38.7148 24.6523 38.8633 24.7773C39.0117 24.9023 39.1562 25.0352 39.2969 25.1758C39.5156 25.3633 39.6875 25.5938 39.8125 25.8672C39.9375 26.1406 40 26.4258 40 26.7227C40 26.7695 39.9961 26.8086 39.9883 26.8398C39.9805 26.8711 39.9766 26.9023 39.9766 26.9336V26.9102C39.9297 27.3477 39.7539 27.7148 39.4492 28.0117C39.1445 28.3086 38.7812 28.4805 38.3594 28.5273C38.2969 28.543 38.2305 28.5508 38.1602 28.5508C38.0898 28.5508 38.0156 28.5508 37.9375 28.5508C37.6094 28.5508 37.293 28.5 36.9883 28.3984C36.6836 28.2969 36.4062 28.1523 36.1562 27.9648L36.1797 27.9883C36.1172 27.9414 36.0625 27.8789 36.0156 27.8008C35.9688 27.7227 35.9453 27.6445 35.9453 27.5664C35.9453 27.4258 35.9961 27.3086 36.0977 27.2148C36.1992 27.1211 36.3203 27.0742 36.4609 27.0742C36.5234 27.0742 36.5859 27.0859 36.6484 27.1094C36.7109 27.1328 36.7656 27.168 36.8125 27.2148C36.9844 27.3242 37.1641 27.4102 37.3516 27.4727C37.5391 27.5352 37.7422 27.5664 37.9609 27.5664C38.0078 27.5664 38.0547 27.5625 38.1016 27.5547C38.1484 27.5469 38.1953 27.543 38.2422 27.543C38.4297 27.5273 38.5938 27.4492 38.7344 27.3086C38.875 27.168 38.9609 27.0039 38.9922 26.8164C38.9922 26.8008 38.9922 26.7852 38.9922 26.7695C38.9922 26.7539 38.9922 26.7461 38.9922 26.7461C38.9922 26.5742 38.9609 26.4141 38.8984 26.2656C38.8359 26.1172 38.7422 25.9883 38.6172 25.8789C38.4922 25.7539 38.3594 25.6328 38.2188 25.5156C38.0781 25.3984 37.9375 25.2852 37.7969 25.1758C37.7188 25.1133 37.6406 25.0508 37.5625 24.9883C37.4844 24.9258 37.4062 24.8633 37.3281 24.8008C36.375 23.9883 35.4141 23.1758 34.4453 22.3633L33.9766 21.9648C33.0859 21.2148 32.1914 20.4609 31.293 19.7031C30.3945 18.9453 29.5 18.1836 28.6094 17.418C28.5312 17.3398 28.4414 17.2812 28.3398 17.2422C28.2383 17.2031 28.1328 17.1836 28.0234 17.1836C27.9141 17.1836 27.8086 17.2031 27.707 17.2422C27.6055 17.2812 27.5156 17.3398 27.4375 17.418C27.0938 17.7148 26.7461 18.0078 26.3945 18.2969C26.043 18.5859 25.6953 18.8711 25.3516 19.1523C25.0078 19.418 24.6641 19.6914 24.3203 19.9727C23.9766 20.2539 23.6406 20.5352 23.3125 20.8164L19.3984 24.168C19.2891 24.2773 19.1758 24.3789 19.0586 24.4727C18.9414 24.5664 18.8203 24.6602 18.6953 24.7539C18.4609 24.9414 18.2383 25.1289 18.0273 25.3164C17.8164 25.5039 17.6094 25.6992 17.4062 25.9023C17.3281 25.9648 17.2539 26.043 17.1836 26.1367C17.1133 26.2305 17.0625 26.3242 17.0312 26.418V26.4414C17.0156 26.457 17.0078 26.4805 17.0078 26.5117C17.0078 26.543 17.0078 26.5664 17.0078 26.582C17.0078 26.7695 17.0586 26.9375 17.1602 27.0859C17.2617 27.2344 17.3906 27.3477 17.5469 27.4258C17.6562 27.4727 17.7656 27.5078 17.875 27.5312C17.9844 27.5547 18.1016 27.5664 18.2266 27.5664C18.3359 27.5664 18.4375 27.5547 18.5312 27.5312C18.625 27.5078 18.7188 27.4805 18.8125 27.4492C18.8438 27.4336 18.8828 27.418 18.9297 27.4023C18.9766 27.3867 19.0234 27.3789 19.0703 27.3789C19.2109 27.3789 19.332 27.4258 19.4336 27.5195C19.5352 27.6133 19.5859 27.7305 19.5859 27.8711C19.5859 27.9805 19.5547 28.0781 19.4922 28.1641C19.4297 28.25 19.3516 28.3086 19.2578 28.3398C19.1172 28.4023 18.9688 28.4531 18.8125 28.4922C18.6562 28.5312 18.4922 28.5508 18.3203 28.5508C18.3047 28.5508 18.293 28.5508 18.2852 28.5508C18.2773 28.5508 18.2734 28.5508 18.2734 28.5508ZM27.9766 21.4492C28.0703 21.4492 28.1602 21.4648 28.2461 21.4961C28.332 21.5273 28.4062 21.5742 28.4688 21.6367L36.3672 28.1289C36.4609 28.207 36.5352 28.3008 36.5898 28.4102C36.6445 28.5195 36.6719 28.6367 36.6719 28.7617C36.6719 28.7617 36.6719 28.7656 36.6719 28.7734C36.6719 28.7812 36.6719 28.7852 36.6719 28.7852V38.3008C36.6719 38.5195 36.5977 38.707 36.4492 38.8633C36.3008 39.0195 36.1172 39.1055 35.8984 39.1211H31.9375C31.9219 39.1055 31.9023 39.0898 31.8789 39.0742C31.8555 39.0586 31.8438 39.0352 31.8438 39.0039V32.8867C31.8438 32.8867 31.8438 32.8789 31.8438 32.8633C31.8438 32.6445 31.7695 32.4609 31.6211 32.3125C31.4727 32.1641 31.2891 32.082 31.0703 32.0664H24.9297C24.7109 32.082 24.5273 32.1641 24.3789 32.3125C24.2305 32.4609 24.1562 32.6445 24.1562 32.8633C24.1562 32.8789 24.1562 32.8867 24.1562 32.8867V39.0273C24.1562 39.043 24.1484 39.0625 24.1328 39.0859C24.1172 39.1094 24.0938 39.1211 24.0625 39.1211H20.0781C19.8594 39.1055 19.6719 39.0195 19.5156 38.8633C19.3594 38.707 19.2812 38.5195 19.2812 38.3008C19.2812 38.3008 19.2852 38.3008 19.293 38.3008C19.3008 38.3008 19.3047 38.3008 19.3047 38.3008V28.7148C19.3047 28.5898 19.3281 28.4727 19.375 28.3633C19.4219 28.2539 19.4922 28.1602 19.5859 28.082L27.4844 21.6367C27.5469 21.5742 27.6211 21.5273 27.707 21.4961C27.793 21.4648 27.8828 21.4492 27.9766 21.4492ZM27.9766 20.4648C27.7578 20.4648 27.5547 20.5 27.3672 20.5703C27.1797 20.6406 27.0078 20.7383 26.8516 20.8633L18.9531 27.3086C18.75 27.4805 18.5898 27.6875 18.4727 27.9297C18.3555 28.1719 18.2969 28.4336 18.2969 28.7148V38.2773C18.2969 38.293 18.2969 38.3008 18.2969 38.3008C18.2969 38.8008 18.4727 39.2266 18.8242 39.5781C19.1758 39.9297 19.5938 40.1055 20.0781 40.1055H24.0625C24.3594 40.1055 24.6133 40 24.8242 39.7891C25.0352 39.5781 25.1406 39.3164 25.1406 39.0039V33.0742H30.8594V39.0039C30.8594 39.3164 30.9648 39.5781 31.1758 39.7891C31.3867 40 31.6406 40.1055 31.9375 40.1055H35.8984C36.3828 40.1055 36.7969 39.9297 37.1406 39.5781C37.4844 39.2266 37.6562 38.8086 37.6562 38.3242C37.6562 38.3086 37.6562 38.3008 37.6562 38.3008V28.7852C37.6562 28.7852 37.6562 28.7773 37.6562 28.7617C37.6562 28.4805 37.5977 28.2188 37.4805 27.9766C37.3633 27.7344 37.2031 27.5352 37 27.3789V27.3555L29.1016 20.8633C28.9453 20.7383 28.7734 20.6406 28.5859 20.5703C28.3984 20.5 28.1953 20.4648 27.9766 20.4648Z" fill="#707070"/>
</g>
<defs>
<clipPath id="clip0_1_2291">
<rect width="24" height="24" fill="white" transform="matrix(1 0 0 -1 16 40)"/>
</clipPath>
</defs>
</svg>
