<svg width="174" height="352" viewBox="0 0 174 352" fill="none" xmlns="http://www.w3.org/2000/svg">
<path d="M54.8527 36.1713L47.3071 16.2832C47.3071 16.2832 50.5508 13.287 48.3242 10.2495C46.0976 7.21197 32.1883 -1.32326 29.6594 0.174868C27.1304 1.673 21.4815 7.33567 24.5328 10.4831C27.584 13.6306 41.026 18.8672 41.026 18.8672L47.7057 44.9814L54.8527 36.1713Z" fill="#E4897B"/>
<path d="M107.535 73.9819C107.535 73.9819 73.1743 66.9311 69.5045 65.2405C65.8348 63.55 52.0355 23.1004 52.0355 23.1004L41.4386 28.0484C41.4386 28.0484 49.9601 68.6491 58.674 78.2977C67.3879 87.9462 104.58 96.1653 104.58 96.1653L107.535 73.9819Z" fill="#E98A0A"/>
<path opacity="0.2" d="M104.498 96.1241L103.866 95.9729C101.996 95.5468 96.1275 94.1724 89.1592 92.1245C77.8476 88.8396 63.5809 83.8779 58.6055 78.3114C49.9053 68.6904 41.3701 28.0484 41.3701 28.0484L51.9532 23.1004C51.9532 23.1004 65.7663 63.5637 69.5047 65.2405C73.2432 66.9174 107.535 73.9819 107.535 73.9819L104.498 96.1241Z" fill="black"/>
<path d="M52.1303 22.3032L54.3157 26.5227L40.7088 31.2096L41.2311 26.0554L52.1303 22.3032Z" fill="#E98A0A"/>
<path opacity="0.2" d="M104.757 95.5606C102.861 95.2857 96.9094 94.3648 89.7898 92.8117C93.8444 85.8021 105.719 82.2011 105.719 82.2011L104.757 95.5606Z" fill="black"/>
<path d="M155.916 45.971C155.916 45.971 157.936 64.9794 150.899 69.6525C143.862 74.3256 109.212 68.8553 105.281 61.1997C101.351 53.5441 116.14 32.7902 116.14 32.7902L155.916 45.971Z" fill="#263238"/>
<path d="M15.7368 296.09L24.7806 298.276L29.3575 285.796L33.5083 274.443L23.2138 270.059L19.2554 283.83L15.7368 296.09Z" fill="#E4897B"/>
<path opacity="0.2" d="M19.2548 283.83L29.3569 285.796L33.5077 274.443L23.2132 270.059L19.2548 283.83Z" fill="black"/>
<path d="M20.1626 277.247L32.6975 281.906C32.6975 281.906 66.1375 198.299 73.0096 198.066C79.8818 197.832 149.854 229.939 167.392 212.099C184.93 194.259 159.571 151.239 159.571 151.239C159.571 151.239 117.39 145.219 114.215 154.744C113.434 157.551 112.837 160.407 112.428 163.293C111.947 166.206 111.617 168.653 111.617 168.653C110.312 168.323 67.9655 157.396 51.2798 168.653C34.3056 180.102 20.1626 277.247 20.1626 277.247Z" fill="#E98A0A"/>
<path opacity="0.6" d="M20.1626 277.247L32.6975 281.906C32.6975 281.906 66.1375 198.299 73.0096 198.066C79.8818 197.832 149.854 229.939 167.392 212.099C184.93 194.259 159.571 151.239 159.571 151.239C159.571 151.239 117.39 145.219 114.215 154.744C113.434 157.551 112.837 160.407 112.428 163.293C111.947 166.206 111.617 168.653 111.617 168.653C110.312 168.323 67.9655 157.396 51.2798 168.653C34.3056 180.102 20.1626 277.247 20.1626 277.247Z" fill="white"/>
<path d="M92.2645 331.757L101.267 329.462L99.5353 316.528L97.9272 304.681L86.7943 305.684L89.6806 319.497L92.2645 331.757Z" fill="#E4897B"/>
<path opacity="0.2" d="M89.7493 319.772L99.5902 316.776L97.9547 304.804L86.808 305.753L89.7493 319.772Z" fill="black"/>
<path d="M37.8779 277.261L19.6117 271.062L18.8283 278.539L32.6825 283.432L37.8779 277.261Z" fill="#E98A0A"/>
<path d="M137.099 216.332C137.099 216.332 134.24 216.401 89.997 214.339C89.997 214.339 96.608 269.646 100.223 311.058L86.987 313.312C86.987 313.312 55.375 224.647 55.7186 210.559C56.0622 196.471 72.2118 192.348 72.2118 192.348C72.2118 192.348 103.728 210.559 137.099 216.332Z" fill="#E98A0A"/>
<path opacity="0.6" d="M137.099 216.332C137.099 216.332 134.24 216.401 89.997 214.339C89.997 214.339 96.608 269.646 100.223 311.058L86.987 313.312C86.987 313.312 55.375 224.647 55.7186 210.559C56.0622 196.471 72.2118 192.348 72.2118 192.348C72.2118 192.348 103.728 210.559 137.099 216.332Z" fill="white"/>
<path opacity="0.1" d="M137.099 216.332C137.099 216.332 134.24 216.401 89.997 214.339C89.997 214.339 96.608 269.646 100.223 311.058L86.987 313.312C86.987 313.312 55.375 224.647 55.7186 210.559C56.0622 196.471 72.2118 192.348 72.2118 192.348C72.2118 192.348 103.728 210.559 137.099 216.332Z" fill="black"/>
<path d="M102.147 307.045L83.9631 309.12L87.4816 316.24L102.202 314.357L102.147 307.045Z" fill="#E98A0A"/>
<path opacity="0.1" d="M111.618 168.653L136.289 173.793C136.289 173.793 122.654 166.261 112.428 163.293C111.947 166.206 111.618 168.653 111.618 168.653Z" fill="black"/>
<path d="M158.553 144.683L159.57 151.239L114.214 154.744L113.018 146.978L158.553 144.683Z" fill="#263238"/>
<path opacity="0.2" d="M158.553 144.683L159.57 151.239L114.214 154.744L113.018 146.978L158.553 144.683Z" fill="black"/>
<path d="M144.248 155.667L146.49 155.437L145.316 144.02L143.074 144.251L144.248 155.667Z" fill="#E98A0A"/>
<path d="M124.098 154.527L134.028 153.888L133.544 146.358L123.614 146.997L124.098 154.527Z" fill="white"/>
<path d="M116.419 156.866L118.661 156.636L117.488 145.22L115.245 145.45L116.419 156.866Z" fill="#E98A0A"/>
<path opacity="0.6" d="M144.248 155.667L146.49 155.437L145.316 144.02L143.074 144.251L144.248 155.667Z" fill="white"/>
<path opacity="0.6" d="M116.419 156.866L118.661 156.636L117.488 145.22L115.245 145.45L116.419 156.866Z" fill="white"/>
<path d="M106.71 73.3634C115.206 75.7103 124.022 76.6801 132.824 76.236C147.393 75.4938 164.739 82.5172 164.739 82.5172L158.499 144.642L112.95 146.937C112.95 146.937 97.7077 95.107 106.71 73.3634Z" fill="#E98A0A"/>
<path d="M114.036 38.2742C114.036 38.2742 116.592 8.11911 141.799 19.0321C173.411 32.7764 148.287 69.5288 132.824 61.9969C117.362 54.465 114.036 38.2742 114.036 38.2742Z" fill="#263238"/>
<path opacity="0.2" d="M121.101 77.9266L121.83 94.9695L127.479 86.9566C127.479 86.9566 125.458 105.8 126.64 116.067C126.64 116.067 127.726 97.6634 130.282 86.9566L136.289 94.9695L144.906 78.0365C144.906 78.0365 130.956 73.0198 121.101 77.9266Z" fill="black"/>
<path d="M128.907 81.1427L141.95 77.4593C133.91 71.9615 137.965 59.5916 137.965 59.5916L125.045 64.1273C125.639 65.9231 126.099 67.7608 126.419 69.625C127.794 77.6792 124.138 78.3252 124.138 78.3252L128.907 81.1427Z" fill="#E4897B"/>
<path opacity="0.2" d="M125.046 64.0585C125.64 65.8544 126.099 67.6921 126.42 69.5563C132.605 67.0685 137.952 59.4954 137.952 59.4954L125.046 64.0585Z" fill="black"/>
<path d="M133.484 25.4095C122.035 22.8805 116.991 28.1584 113.555 39.7861C109.253 54.2863 110.201 65.4742 125.196 65.5017C145.565 65.5292 152.479 29.6153 133.484 25.4095Z" fill="#E4897B"/>
<path d="M121.087 40.7894C119.798 42.2955 118.331 43.6386 116.716 44.789C116.947 45.3394 117.326 45.8147 117.812 46.1618C118.297 46.5089 118.87 46.7141 119.465 46.7544L121.087 40.7894Z" fill="#DE5753"/>
<path d="M128.302 41.3941C128.068 42.3287 128.384 43.2221 129.017 43.3733C129.649 43.5245 130.322 42.8923 130.556 41.9989C130.79 41.1055 130.474 40.1846 129.841 40.0197C129.209 39.8548 128.536 40.4595 128.302 41.3941Z" fill="#263238"/>
<path d="M130.088 40.0884L128.26 38.7965C128.26 38.7965 128.851 40.7619 130.088 40.0884Z" fill="#263238"/>
<path d="M116.729 38.3429C116.495 39.2775 116.811 40.1709 117.443 40.3221C118.076 40.4733 118.818 39.841 118.983 38.9476C119.148 38.0543 118.9 37.1334 118.268 36.9685C117.636 36.8035 116.962 37.4083 116.729 38.3429Z" fill="#263238"/>
<path d="M118.517 37.0372L116.634 35.7864C116.634 35.7864 117.28 37.6969 118.517 37.0372Z" fill="#263238"/>
<path d="M134.749 36.8448C134.657 36.8464 134.566 36.823 134.486 36.777C134.406 36.731 134.341 36.6642 134.296 36.5836C133.843 35.8766 133.238 35.2801 132.524 34.8377C131.811 34.3953 131.007 34.1184 130.172 34.0272C130.041 34.01 129.922 33.9437 129.837 33.8417C129.753 33.7396 129.711 33.6094 129.719 33.4774C129.733 33.3448 129.798 33.223 129.901 33.1382C130.004 33.0534 130.136 33.0123 130.269 33.0238C131.282 33.1218 132.258 33.4533 133.121 33.9922C133.985 34.5312 134.711 35.263 135.244 36.1301C135.275 36.1885 135.293 36.2526 135.299 36.3184C135.304 36.3842 135.297 36.4504 135.276 36.5132C135.256 36.5759 135.223 36.6339 135.18 36.6838C135.136 36.7337 135.083 36.7744 135.024 36.8035C134.937 36.838 134.843 36.8521 134.749 36.8448Z" fill="#263238"/>
<path d="M121.952 31.6631C121.859 31.6615 121.768 31.6329 121.691 31.5807C121.015 31.2564 120.276 31.0881 119.526 31.0881C118.777 31.0881 118.037 31.2564 117.362 31.5807C117.302 31.605 117.238 31.6172 117.174 31.6165C117.11 31.6158 117.046 31.6023 116.987 31.5767C116.929 31.551 116.875 31.5139 116.831 31.4673C116.787 31.4208 116.752 31.3659 116.729 31.3058C116.705 31.2453 116.692 31.1806 116.693 31.1154C116.693 31.0501 116.707 30.9856 116.732 30.9256C116.758 30.8655 116.795 30.8112 116.842 30.7655C116.888 30.7199 116.944 30.684 117.004 30.6598C117.825 30.2777 118.723 30.0889 119.628 30.108C120.534 30.127 121.423 30.3534 122.227 30.7698C122.282 30.8047 122.33 30.8503 122.368 30.9038C122.405 30.9574 122.432 31.0179 122.446 31.0818C122.46 31.1457 122.461 31.2118 122.45 31.2762C122.438 31.3406 122.414 31.402 122.378 31.457C122.329 31.5233 122.265 31.5767 122.191 31.6126C122.116 31.6486 122.035 31.6659 121.952 31.6631Z" fill="#263238"/>
<path d="M141.717 47.4554C141.717 47.4554 138.446 36.8722 140.865 29.7939C140.865 29.7939 120.248 15.5135 114.036 38.2742C114.036 38.2742 116.331 17.3553 136.109 21.2587C155.887 25.1621 149.414 53.9015 137.36 60.2239C137.36 60.2239 143.724 54.0664 141.717 47.4554Z" fill="#263238"/>
<path d="M139.311 49.5308C139.713 48.2304 140.615 47.1426 141.818 46.5062C143.021 45.8698 144.428 45.7366 145.729 46.1359C149.193 47.3042 149.262 54.9598 140.067 54.7536C138.734 54.6574 138.294 53.2692 139.311 49.5308Z" fill="#E4897B"/>
<path d="M117.389 51.0976C117.695 52.5011 117.897 53.9252 117.994 55.3584H118.736C122.159 55.647 123.836 54.6437 124.66 53.4616C125.054 52.8742 125.3 52.1997 125.375 51.4962C125.433 51.0997 125.433 50.6969 125.375 50.3004C123.169 51.0603 120.825 51.3368 118.503 51.1114C117.843 51.1526 117.389 51.0976 117.389 51.0976Z" fill="#263238"/>
<path d="M118.558 51.1801L118.764 52.4308C121.98 52.692 124.261 52.4308 125.375 51.5649C125.433 51.1685 125.433 50.7656 125.375 50.3692C123.186 51.1212 120.862 51.3976 118.558 51.1801Z" fill="white"/>
<path d="M118.736 55.4271C122.158 55.7157 123.835 54.7124 124.659 53.5304C123.362 53.4457 122.059 53.5899 120.811 53.9565C119.982 54.2157 119.255 54.7304 118.736 55.4271Z" fill="#DE5753"/>
<path d="M133.525 26.3304C133.525 26.3304 133.965 46.1634 145.895 48.5549C157.825 50.9464 144.795 23.0455 144.795 23.0455C144.795 23.0455 127.065 11.4727 115.245 19.6369C103.425 27.801 114.063 38.2742 114.063 38.2742C114.063 38.2742 116.523 23.5403 133.525 26.3304Z" fill="#263238"/>
<path d="M138.075 44.4866C137.994 44.4858 137.917 44.4566 137.855 44.4041C129.389 37.7519 133.567 25.0246 133.608 24.9009C133.639 24.8149 133.703 24.7442 133.784 24.7033C133.866 24.6624 133.961 24.6544 134.048 24.681C134.134 24.712 134.204 24.7758 134.242 24.8582C134.281 24.9407 134.285 25.0352 134.254 25.1208C134.254 25.2445 130.2 37.4907 138.281 43.8681C138.314 43.899 138.34 43.9362 138.358 43.9776C138.376 44.0189 138.385 44.0635 138.385 44.1086C138.385 44.1537 138.376 44.1983 138.358 44.2397C138.34 44.281 138.314 44.3183 138.281 44.3491C138.259 44.3853 138.228 44.4163 138.193 44.44C138.157 44.4636 138.117 44.4795 138.075 44.4866Z" fill="#263238"/>
<path d="M149.345 52.6232C147.833 56.6641 143.944 58.9319 140.659 57.7086C137.374 56.4854 135.944 52.2109 137.456 48.1701C138.968 44.1292 142.858 41.8614 146.143 43.0984C149.428 44.3354 150.857 48.5962 149.345 52.6232Z" fill="#E98A0A"/>
<path opacity="0.4" d="M149.345 52.6232C147.833 56.6641 143.944 58.9319 140.659 57.7086C137.374 56.4854 135.944 52.2109 137.456 48.1701C138.968 44.1292 142.858 41.8614 146.143 43.0984C149.428 44.3354 150.857 48.5962 149.345 52.6232Z" fill="black"/>
<path d="M145.496 46.0122C145.496 46.0122 150.43 23.9251 139.366 18.1387C140.626 18.3036 141.875 18.5469 143.104 18.8672C144.479 19.2795 153.371 28.2408 148.904 48.0876L145.496 46.0122Z" fill="#E98A0A"/>
<path opacity="0.2" d="M145.496 46.0122C145.496 46.0122 150.43 23.9251 139.366 18.1387C140.626 18.3036 141.875 18.5469 143.104 18.8672C144.479 19.2795 153.371 28.2408 148.904 48.0876L145.496 46.0122Z" fill="black"/>
<path d="M124.88 58.657L124.056 58.5333L124.275 57.1589C130.346 58.0924 136.548 56.7776 141.717 53.4617L142.528 54.5612C137.33 58.0058 131.064 59.46 124.88 58.657Z" fill="#E98A0A"/>
<g opacity="0.2">
<path d="M124.88 58.657L124.056 58.5333L124.275 57.1589C130.346 58.0924 136.548 56.7776 141.717 53.4617L142.528 54.5612C137.33 58.0058 131.064 59.46 124.88 58.657Z" fill="black"/>
</g>
<path d="M148.878 52.0735C147.888 54.7399 145.304 56.1968 143.146 55.4271C140.989 54.6574 140.026 51.7986 141.03 49.1322C142.033 46.4658 144.603 45.0089 146.761 45.7786C148.919 46.5483 149.881 49.4071 148.878 52.0735Z" fill="#E98A0A"/>
<path d="M123.587 59.1518L122.474 59.0006C122.279 58.9753 122.092 58.9117 121.922 58.8135C121.753 58.7153 121.604 58.5845 121.485 58.4286C121.366 58.2727 121.28 58.0948 121.23 57.9052C121.18 57.7156 121.168 57.518 121.196 57.3238C121.219 57.1282 121.282 56.9393 121.379 56.7681C121.477 56.5968 121.607 56.4467 121.763 56.3264C121.919 56.2062 122.098 56.1182 122.288 56.0676C122.479 56.017 122.677 56.0049 122.872 56.0318L123.972 56.183C124.364 56.2378 124.719 56.4441 124.96 56.7576C125.202 57.0711 125.311 57.4669 125.264 57.8598C125.209 58.2518 125.003 58.6067 124.689 58.8482C124.376 59.0898 123.98 59.1988 123.587 59.1518Z" fill="#E98A0A"/>
<path opacity="0.4" d="M123.587 59.1518L122.474 59.0006C122.279 58.9753 122.092 58.9117 121.922 58.8135C121.753 58.7153 121.604 58.5845 121.485 58.4286C121.366 58.2727 121.28 58.0948 121.23 57.9052C121.18 57.7156 121.168 57.518 121.196 57.3238C121.219 57.1282 121.282 56.9393 121.379 56.7681C121.477 56.5968 121.607 56.4467 121.763 56.3264C121.919 56.2062 122.098 56.1182 122.288 56.0676C122.479 56.017 122.677 56.0049 122.872 56.0318L123.972 56.183C124.364 56.2378 124.719 56.4441 124.96 56.7576C125.202 57.0711 125.311 57.4669 125.264 57.8598C125.209 58.2518 125.003 58.6067 124.689 58.8482C124.376 59.0898 123.98 59.1988 123.587 59.1518Z" fill="black"/>
<path d="M138.446 72.69L130.281 80.7029L133.553 90.5439L144.905 78.0365L138.446 72.69Z" fill="#E98A0A"/>
<path d="M126.64 74.3668L127.96 80.538L123.74 89.2656L121.101 77.9266L126.64 74.3668Z" fill="#E98A0A"/>
<path d="M136.701 79.6446L141.443 62.2855C141.443 62.2855 139.147 57.9698 139.642 57.0627C140.137 56.1555 142.611 44.5004 144.37 43.2359C146.13 41.9714 153.373 44.1292 154.101 45.3113C154.83 46.4933 147.16 62.2855 147.16 62.2855L144.412 81.1015L136.701 79.6446Z" fill="#E4897B"/>
<path d="M164.739 82.5172C177.797 95.8766 151.641 126.142 136.646 124.85C121.651 123.558 137.031 68.6904 137.031 68.6904L146.652 70.271C146.652 70.271 143.285 94.0212 144.343 95.8767C145.401 97.7321 160.41 78.0777 164.739 82.5172Z" fill="#E98A0A"/>
<path opacity="0.2" d="M164.739 82.5172C177.797 95.8766 151.641 126.142 136.646 124.85C121.651 123.558 137.031 68.6904 137.031 68.6904L146.652 70.271C146.652 70.271 143.285 94.0212 144.343 95.8767C145.401 97.7321 160.41 78.0777 164.739 82.5172Z" fill="black"/>
<path d="M136.287 66.9724L134.872 71.508L148.245 72.69V68.7316L136.287 66.9724Z" fill="#E98A0A"/>
<path opacity="0.6" d="M116.015 102.859H110.6C110 102.859 109.514 103.345 109.514 103.945V114.17C109.514 114.77 110 115.256 110.6 115.256H116.015C116.615 115.256 117.101 114.77 117.101 114.17V103.945C117.101 103.345 116.615 102.859 116.015 102.859Z" fill="white"/>
<path opacity="0.2" d="M116.126 103.683H109.968V112.109H116.126V103.683Z" fill="black"/>
<path d="M113.87 99.8763H112.51V104.838H113.87V99.8763Z" fill="#263238"/>
<path d="M0.78241 313.656C2.15324 313.018 3.63062 312.64 5.13936 312.542C5.13936 312.542 10.3622 309.477 15.5301 297.534H21.3439C22.3298 297.54 23.2894 297.852 24.0914 298.425C24.8935 298.998 25.4988 299.805 25.8246 300.736C25.9215 300.991 25.9772 301.26 25.9895 301.533C25.9207 302.938 25.7693 304.338 25.5359 305.725C24.6854 310.371 23.5516 314.961 22.1411 319.469L21.1515 319.222L22.9383 310.536C23.543 307.594 20.4368 310.439 19.0074 313.408C17.578 316.377 15.3651 319.387 8.93279 317.916C1.44213 316.075 -1.56787 315.003 0.78241 313.656Z" fill="#E98A0A"/>
<path d="M16.589 294.414C16.589 294.414 9.31824 309.615 5.13996 312.542C5.13996 312.542 10.7476 315.882 16.589 308.419C24.1346 298.798 25.9901 301.478 25.9901 301.478C25.8319 299.818 25.5237 298.176 25.0692 296.571C23.9422 293.493 16.589 294.414 16.589 294.414Z" fill="#E4897B"/>
<path d="M80.8026 349.872C81.9902 348.936 83.3353 348.219 84.7747 347.755C84.7747 347.755 89.1179 343.536 91.3033 330.712L96.9522 329.338C97.9109 329.117 98.9144 329.197 99.8266 329.565C100.739 329.934 101.515 330.574 102.051 331.4C102.206 331.628 102.326 331.878 102.409 332.142C102.684 333.503 102.872 334.88 102.972 336.265C103.236 340.963 103.213 345.672 102.903 350.367H101.886L101.57 341.515C101.447 338.505 99.1238 342.01 98.4228 345.24C97.7219 348.47 96.3062 351.892 89.7089 351.989C82.0258 352.071 78.8371 351.741 80.8026 349.872Z" fill="#E98A0A"/>
<path d="M91.5905 327.427C91.5905 327.427 88.1407 343.921 84.7183 347.755C84.7183 347.755 90.9583 349.679 94.8617 341.062C99.9196 329.929 102.352 332.101 102.352 332.101C101.809 330.525 101.124 329.002 100.304 327.551C98.5176 324.802 91.5905 327.427 91.5905 327.427Z" fill="#E4897B"/>
</svg>
