<svg width="220" height="220" viewBox="0 0 220 220" fill="none" xmlns="http://www.w3.org/2000/svg">
<path d="M88.1247 84.9432C88.1247 90.7619 92.5143 95.1515 98.333 95.1515C104.152 95.1515 108.541 90.7619 108.541 84.9432C108.541 79.1244 104.152 74.7349 98.333 74.7349C92.5143 74.7349 88.1247 79.1244 88.1247 84.9432ZM130.416 83.3332H124.583V92.0832H115.833V97.9165H124.583V106.667H130.416V97.9165H139.166V92.0832H130.416V83.3332ZM86.6663 115.417H110H112.916H115.833V112.5C115.833 104.459 109.291 97.9165 101.25 97.9165H95.4163C87.3751 97.9165 80.833 104.459 80.833 112.5V115.417H83.7497H86.6663Z" fill="#66BB6A"/>
<g opacity="0.1">
<path d="M165.55 46.6767C181.977 57.5667 195.287 75.0934 189.31 88.9534C183.333 102.813 158.107 113.007 144.467 123.603C130.827 134.2 128.81 145.163 121 154C113.19 162.837 99.55 169.51 85.5434 168.263C71.5 167.053 57.0901 157.96 50.0867 144.98C43.0834 132.037 43.5234 115.17 45.2467 97.4234C47.0067 79.6767 50.1234 60.9767 61.1234 49.1334C72.1234 37.2534 91.08 32.1934 110.33 31.8267C129.58 31.46 149.123 35.75 165.55 46.6767Z" fill="#66BB6A"/>
</g>
</svg>
