<svg width="80" height="80" viewBox="0 0 80 80" fill="none" xmlns="http://www.w3.org/2000/svg">
<path d="M28.7024 42.7664C35.2439 42.7664 40.5468 37.4635 40.5468 30.922C40.5468 24.3806 35.2439 19.0776 28.7024 19.0776C22.1609 19.0776 16.858 24.3806 16.858 30.922C16.858 37.4635 22.1609 42.7664 28.7024 42.7664Z" fill="#B21A9D"/>
<path d="M50.5784 42.7664C57.1199 42.7664 62.4228 37.4635 62.4228 30.922C62.4228 24.3806 57.1199 19.0776 50.5784 19.0776C44.0369 19.0776 38.734 24.3806 38.734 30.922C38.734 37.4635 44.0369 42.7664 50.5784 42.7664Z" fill="#B21A9D"/>
<path d="M38.9364 54.8276C45.4779 54.8276 50.7808 49.5247 50.7808 42.9832C50.7808 36.4417 45.4779 31.1388 38.9364 31.1388C32.395 31.1388 27.092 36.4417 27.092 42.9832C27.092 49.5247 32.395 54.8276 38.9364 54.8276Z" fill="#B21A9D"/>
<path d="M48.2697 65.3556L39.6573 74.0092C36.7729 71.1392 33.8885 68.268 31.0037 65.398C31.0041 65.3664 31.0049 65.3352 31.0049 65.3036C30.9789 63.348 30.9525 61.3928 30.9269 59.4372C30.9265 59.4048 30.9281 59.3716 30.9301 59.316C33.1281 61.5032 35.3105 63.6744 37.5049 65.8588C37.5077 65.8116 37.5105 65.7844 37.5105 65.7572C37.5013 61.8708 37.4489 60.5288 37.4409 56.6424C37.4409 56.5752 37.4237 56.5516 37.3553 56.5404C35.0981 56.1816 33.0485 55.326 31.2121 53.9628C30.3558 53.3267 29.5752 52.5946 28.8857 51.7808C28.2396 51.022 27.6779 50.1953 27.2105 49.3152C26.1341 47.2824 25.5909 45.1132 25.5801 42.8136C25.5654 40.7498 26.0132 38.709 26.8905 36.8408C27.4398 35.6591 28.156 34.5624 29.0173 33.5844C29.1209 33.4664 29.2221 33.3456 29.3241 33.2264L29.9517 32.596C29.9841 32.5712 30.0185 32.5496 30.0481 32.522C30.6706 31.9366 31.3489 31.4134 32.0733 30.96C34.6805 29.3312 37.5209 28.628 40.5857 28.8448C42.3797 28.9716 44.0845 29.4408 45.6989 30.2344C46.7837 30.7658 47.793 31.439 48.7005 32.2364C48.8205 32.342 48.9429 32.4448 49.0641 32.5488L49.6949 33.1764C49.7193 33.2084 49.7405 33.2424 49.7681 33.2716C50.3834 33.9269 50.9302 34.6433 51.4001 35.4096C53.0921 38.1796 53.7613 41.1836 53.3857 44.4048C53.0381 47.388 51.8281 49.9908 49.7993 52.2088C48.9702 53.1147 48.0237 53.9056 46.9849 54.5604C45.4012 55.5637 43.6299 56.2341 41.7789 56.5308C41.7517 56.5356 41.7201 56.5536 41.7309 56.5556C41.7401 60.4952 41.7929 61.8912 41.8025 65.8272C43.9625 63.656 46.1345 61.474 48.3061 59.292L48.3289 59.2996C48.3253 59.3312 48.3189 59.3624 48.3185 59.3936C48.3089 60.5076 48.2989 61.6208 48.2905 62.7344C48.2821 63.6084 48.2757 64.482 48.2697 65.3556ZM46.3789 35.8832C42.5873 32.104 36.4441 32.1156 32.6593 35.9088C28.8793 39.6972 28.8897 45.8432 32.6821 49.6284C36.4725 53.4124 42.6269 53.4 46.4085 49.6024C50.1869 45.8084 50.1741 39.6644 46.3789 35.8832Z" fill="#EAE4E9"/>
<path d="M39.6572 75.0944C39.3703 75.0946 39.0951 74.981 38.892 74.7784L30.238 66.1668C30.1347 66.0639 30.0532 65.9413 29.9983 65.8063C29.9434 65.6712 29.9162 65.5265 29.9184 65.3808L29.9188 65.3452L29.9192 65.3176L29.8412 59.4512C29.8408 59.4132 29.8412 59.376 29.8432 59.3276L29.8444 59.2852C29.8502 59.0734 29.9179 58.868 30.0391 58.6942C30.1603 58.5205 30.3297 58.386 30.5264 58.3075C30.7232 58.2289 30.9386 58.2097 31.1462 58.2521C31.3537 58.2946 31.5443 58.3969 31.6944 58.5464L36.4104 63.2396C36.4044 62.52 36.3968 61.8788 36.3896 61.248C36.3764 60.1384 36.3632 58.9964 36.3572 57.458C34.2596 57.0106 32.2835 56.1154 30.564 54.8336C29.6414 54.1476 28.8002 53.3585 28.0568 52.4816C25.7633 49.7835 24.5007 46.3596 24.4936 42.8184C24.4799 40.5946 24.9623 38.3958 25.9056 36.382C26.4994 35.1072 27.2723 33.9238 28.2008 32.8676C28.268 32.7912 28.3336 32.714 28.3992 32.6372L28.4992 32.52C28.5166 32.4995 28.5349 32.4797 28.554 32.4608L29.1816 31.8304C29.2168 31.7948 29.2552 31.7616 29.2952 31.7308L29.3376 31.6992C30.0029 31.0782 30.7262 30.5223 31.4976 30.0392C33.9604 28.5008 36.6564 27.7212 39.512 27.7212C39.8904 27.7212 40.2772 27.7352 40.662 27.7624C42.5744 27.8976 44.4296 28.4016 46.1764 29.2608C47.3468 29.835 48.4361 30.5616 49.416 31.4216C49.4948 31.4912 49.5752 31.5592 49.6552 31.6276L49.77 31.7256C49.7905 31.743 49.8102 31.7613 49.8292 31.7804L50.46 32.4076C50.4956 32.4432 50.5284 32.4812 50.5596 32.5216L50.59 32.5632C51.243 33.2638 51.8243 34.028 52.3252 34.8444C54.146 37.8248 54.8652 41.0836 54.4628 44.5308C54.0916 47.7152 52.7916 50.5448 50.5996 52.9416C49.7049 53.9182 48.6841 54.7712 47.564 55.478C46.107 56.3994 44.5016 57.0618 42.8188 57.436C42.8252 58.9432 42.8384 60.0788 42.8516 61.1832C42.8588 61.8264 42.8664 62.4812 42.8728 63.2136L47.536 58.5268C47.6782 58.3839 47.8575 58.2835 48.0536 58.2369C48.2498 58.1903 48.455 58.1992 48.6464 58.2628L48.678 58.2732C48.9124 58.353 49.1125 58.5106 49.2448 58.7199C49.3772 58.9293 49.4339 59.1776 49.4056 59.4236L49.402 59.4548C49.3924 60.55 49.3828 61.6468 49.374 62.7432L49.3596 64.6116L49.354 65.364C49.352 65.6481 49.2385 65.92 49.038 66.1212L40.426 74.7752C40.3253 74.8766 40.2055 74.957 40.0735 75.0118C39.9416 75.0666 39.8001 75.0947 39.6572 75.0944ZM32.0848 64.9428L39.6536 72.4748L47.1872 64.904L47.1896 64.5944L47.204 62.7252L47.2104 61.93L42.5708 66.5924C42.4193 66.7442 42.2262 66.8477 42.016 66.8899C41.8057 66.9321 41.5876 66.9111 41.3893 66.8295C41.191 66.7479 41.0213 66.6094 40.9016 66.4314C40.7819 66.2535 40.7176 66.0441 40.7168 65.8296C40.7116 63.868 40.696 62.516 40.6812 61.2076C40.6616 59.6806 40.6496 58.1535 40.6452 56.6264C40.643 56.595 40.6422 56.5635 40.6428 56.532C40.6536 55.9916 41.0488 55.5508 41.6024 55.4604C43.3091 55.1852 44.9424 54.5669 46.4036 53.6428C47.3607 53.0394 48.233 52.3108 48.9972 51.4764C50.8756 49.4232 51.9888 47.0012 52.3064 44.2788C52.6512 41.3252 52.034 38.532 50.4724 35.9756C50.0411 35.2722 49.5392 34.6147 48.9744 34.0132C48.9363 33.9725 48.9005 33.9298 48.8672 33.8852L48.3264 33.3476L48.2464 33.2792C48.1577 33.2041 48.0697 33.1282 47.9824 33.0516C47.1464 32.3178 46.217 31.6979 45.2184 31.208C43.724 30.4736 42.1392 30.0424 40.508 29.9268C40.1762 29.9034 39.8437 29.8916 39.5112 29.8916C37.0688 29.8916 34.7592 30.5604 32.6464 31.88C31.9821 32.2964 31.3598 32.7764 30.7884 33.3132C30.7472 33.3518 30.7038 33.388 30.6584 33.4216L30.1204 33.962L30.0512 34.0436C29.9776 34.1296 29.9044 34.216 29.83 34.3012C29.0377 35.2023 28.3783 36.2122 27.872 37.3C27.0646 39.0236 26.6516 40.9055 26.6632 42.8088C26.6697 45.839 27.7495 48.7689 29.7108 51.0788C30.3472 51.8293 31.0674 52.5046 31.8572 53.0916C33.536 54.338 35.4424 55.138 37.524 55.4696C38.1204 55.564 38.5228 56.0344 38.5244 56.64C38.528 58.5964 38.5432 59.9316 38.5588 61.2228C38.5736 62.502 38.5888 63.8244 38.5936 65.7556C38.5936 65.8116 38.5904 65.856 38.5884 65.8888L38.5864 65.9192C38.7147 66.0469 38.809 66.2047 38.8607 66.3782C38.9124 66.5517 38.9199 66.7354 38.8824 66.9125C38.845 67.0897 38.7638 67.2546 38.6462 67.3923C38.5287 67.53 38.3786 67.6361 38.2095 67.7009C38.0405 67.7658 37.8579 67.7873 37.6784 67.7634C37.4989 67.7396 37.3283 67.6713 37.182 67.5646C37.0357 67.4579 36.9184 67.3164 36.8409 67.1528C36.7633 66.9892 36.7279 66.8088 36.738 66.628L32.044 61.9568L32.0848 64.9428ZM39.5304 53.5436C39.53 53.5436 39.53 53.5436 39.5304 53.5436C36.6528 53.5436 33.9484 52.426 31.9156 50.3972C27.704 46.1936 27.6932 39.3504 31.8912 35.1428C33.9316 33.0976 36.646 31.9712 39.5352 31.9712C42.4084 31.9712 45.1112 33.0876 47.1448 35.1148C51.3576 39.3128 51.372 46.1556 47.1776 50.3684C45.1388 52.416 42.4228 53.5436 39.5304 53.5436ZM39.5352 34.1416C38.4 34.1384 37.2755 34.3608 36.227 34.7958C35.1784 35.2308 34.2267 35.8698 33.4272 36.6756C30.0744 40.0368 30.084 45.5028 33.4484 48.8608C35.072 50.4816 37.2316 51.3732 39.53 51.3736C41.8408 51.3736 44.0104 50.4728 45.6396 48.8368C48.9904 45.4716 48.9784 40.0052 45.6132 36.6516C44.8157 35.853 43.8681 35.2201 42.8249 34.7894C41.7818 34.3586 40.6637 34.1384 39.5352 34.1416Z" fill="#B21A9D"/>
<path fill-rule="evenodd" clip-rule="evenodd" d="M3.96761 14.1668C4.03041 14.2 4.08961 14.2284 4.14561 14.2616L9.10761 17.1828C9.33921 17.3188 9.31241 17.3276 9.44721 17.0992L12.528 11.8664L12.6364 11.6824C12.6932 11.7084 12.7412 11.7252 12.784 11.7508C13.872 12.3904 14.9596 13.0304 16.0468 13.6712C16.0868 13.6952 16.1244 13.7232 16.18 13.76C15.9592 14.1408 15.7384 14.512 15.52 14.884L14.8604 16.0044L14.2008 17.1248L13.5412 18.2452L12.8832 19.3624C12.9176 19.4452 12.9896 19.4676 13.0488 19.5024C14.4848 20.3492 15.9212 21.1944 17.3576 22.0404C17.3904 22.0596 17.4244 22.0776 17.4564 22.098C17.5216 22.1392 17.5648 22.1196 17.6132 22.0616C20.158 19.0168 23.4112 17.304 27.3552 16.9196C29.3244 16.728 31.25 16.9784 33.1236 17.6112C34.2177 17.9766 35.2607 18.4803 36.2272 19.11C39.346 21.1524 41.384 23.9796 42.3104 27.5916C42.8772 29.7976 42.8836 32.0164 42.3728 34.2364C42.2066 34.9685 41.9778 35.685 41.6888 36.378C41.516 36.79 41.3156 37.1904 41.1184 37.5912C41.0038 37.8212 40.8802 38.0467 40.748 38.2672C40.4657 38.7414 40.1557 39.1986 39.8196 39.6364C39.2368 40.4028 38.5864 41.1072 37.8528 41.7296C34.9944 44.1572 31.6868 45.3048 27.9404 45.1764C26.5812 45.13 25.2584 44.8664 23.9728 44.4252C23.153 44.1437 22.3614 43.786 21.6084 43.3568C19.286 42.034 17.4612 40.2136 16.1768 37.8692C14.696 35.1676 14.1516 32.2792 14.526 29.2204C14.6511 28.2057 14.8916 27.2085 15.2428 26.2484C15.3 26.0924 15.3576 25.9364 15.42 25.7828C15.4468 25.7172 15.438 25.674 15.3744 25.642C15.3448 25.6268 15.3168 25.6084 15.288 25.5912L10.9544 23.0396L10.7868 22.9408C10.6048 23.2104 10.4604 23.4824 10.302 23.7464C10.1428 24.0116 9.98721 24.2796 9.83041 24.5464L9.35921 25.3464L8.88081 26.1592L8.40961 26.9596L7.93841 27.76L7.46321 28.5672L3.93361 26.4888C3.95761 26.44 3.98001 26.3848 4.01001 26.3336C4.37401 25.7136 4.73921 25.094 5.10401 24.4744C5.77801 23.3296 6.45241 22.1844 7.12601 21.0392C7.15921 20.9828 7.18721 20.9232 7.22681 20.8476C6.92601 20.666 6.63081 20.4952 6.33721 20.3216L5.45081 19.7996L4.55201 19.2704C3.96127 18.9226 3.37073 18.5745 2.78041 18.226L1.88721 17.7L3.96761 14.1668ZM33.4764 22.7184C28.846 19.9928 22.9664 21.594 20.2896 26.094C17.578 30.652 19.0572 36.5988 23.6576 39.324C28.2924 42.0692 34.1936 40.4532 36.8664 35.954C39.55 31.4372 38.13 25.4676 33.4764 22.7184Z" fill="#EAE4E9"/>
<path d="M28.502 46.2708C28.3048 46.2708 28.104 46.2676 27.9044 46.2608C26.486 46.2124 25.0452 45.9396 23.6212 45.4512C22.7373 45.1475 21.8837 44.7618 21.0716 44.2992C18.556 42.8672 16.5888 40.8792 15.2256 38.3912C13.6444 35.5064 13.0468 32.3768 13.4492 29.0888C13.5723 28.0933 13.7981 27.1131 14.1228 26.164L11.1632 24.4216C11.0776 24.5652 10.9932 24.71 10.9084 24.8544L8.3988 29.118C8.25275 29.366 8.01419 29.5458 7.7356 29.6178C7.457 29.6899 7.16118 29.6484 6.9132 29.5024L3.3844 27.424C3.14908 27.2857 2.97459 27.0638 2.89577 26.8025C2.81695 26.5412 2.8396 26.2597 2.9592 26.0144L2.9708 25.9888C2.9932 25.94 3.0268 25.8672 3.0744 25.7856C3.3576 25.3032 3.6408 24.822 3.9244 24.3412L4.4808 23.3964C4.9052 22.6764 5.3288 21.9564 5.7528 21.236L5.1532 20.8828L1.3368 18.636C1.08885 18.49 0.909058 18.2514 0.836971 17.9728C0.764885 17.6942 0.806404 17.3984 0.952399 17.1504L3.0328 13.6168C3.17445 13.3762 3.40344 13.1994 3.67211 13.1234C3.94077 13.0473 4.22842 13.0778 4.4752 13.2084L4.524 13.2336C4.572 13.258 4.6312 13.2888 4.6956 13.3264L7.4124 14.9256L8.9392 15.8244L10.8484 12.5816L11.7016 11.132C11.8378 10.9006 12.055 10.7279 12.3112 10.6474C12.5673 10.5668 12.8443 10.5842 13.0884 10.696C13.0984 10.7008 13.1084 10.7044 13.1176 10.7084C13.1684 10.7304 13.246 10.7636 13.3344 10.8152C14.4232 11.4552 15.5108 12.0956 16.5988 12.7364C16.658 12.7716 16.706 12.8048 16.7444 12.8312C16.7575 12.8404 16.7707 12.8495 16.784 12.8584C17.0133 13.0115 17.1756 13.2462 17.238 13.5148C17.3003 13.7833 17.258 14.0656 17.1196 14.304C16.9672 14.5676 16.8144 14.8264 16.6624 15.084L16.456 15.4336C16.3092 15.684 16.162 15.9336 16.0148 16.1836L14.3504 19.01L17.208 20.6928L17.3152 20.7556C19.9564 17.878 23.2948 16.2248 27.2508 15.8392C27.7148 15.794 28.1852 15.7712 28.6492 15.7712C30.2544 15.7712 31.8768 16.0444 33.4716 16.5828C34.6527 16.9784 35.7788 17.5225 36.8228 18.202C40.172 20.3956 42.3728 23.4636 43.3628 27.3212C43.9624 29.6596 43.986 32.068 43.4312 34.4792C43.2505 35.2717 43.0025 36.0473 42.69 36.7976C42.5188 37.2048 42.3276 37.594 42.1424 37.9696L42.0928 38.0696C41.9663 38.3245 41.8298 38.5743 41.6836 38.8184C41.3799 39.329 41.0464 39.8211 40.6848 40.2924C40.0356 41.1472 39.3196 41.9088 38.5568 42.5564C35.6544 45.0208 32.2716 46.2708 28.502 46.2708ZM15.8888 24.6856C16.4384 24.9772 16.6644 25.6064 16.426 26.192C16.3684 26.3332 16.314 26.4808 16.2632 26.62C15.9406 27.5029 15.7194 28.4196 15.604 29.3524C15.258 32.1796 15.7708 34.87 17.1288 37.348C18.2964 39.4784 19.9848 41.1824 22.146 42.414C22.8404 42.8093 23.5703 43.1389 24.326 43.3984C25.546 43.8176 26.7752 44.0508 27.9784 44.0916C28.1536 44.0984 28.3296 44.1004 28.502 44.1004C30.124 44.1004 31.672 43.8324 33.1024 43.3044C34.5356 42.7748 35.898 41.9668 37.1516 40.9024C37.7948 40.3564 38.402 39.7092 38.9568 38.9796C39.2672 38.5751 39.5537 38.1528 39.8148 37.7148C39.954 37.48 40.0588 37.2884 40.146 37.1116L40.1956 37.0104C40.3744 36.6476 40.5436 36.3048 40.6892 35.958C40.9536 35.3219 41.1633 34.6645 41.316 33.9928C41.7916 31.9228 41.7736 29.86 41.2604 27.8608C40.8336 26.1972 40.1436 24.6944 39.2104 23.3948C38.2792 22.0984 37.0756 20.962 35.6332 20.0176C34.7433 19.4389 33.7835 18.9756 32.7768 18.6388C31.4064 18.176 30.0176 17.9412 28.6488 17.9412C28.2548 17.9412 27.8548 17.9608 27.4608 17.9988C25.6372 18.1764 23.9568 18.6656 22.4656 19.452C20.9728 20.2392 19.6204 21.3512 18.446 22.7568C18.1204 23.146 17.7264 23.2044 17.5208 23.2044C17.2947 23.2033 17.0735 23.1386 16.8824 23.0176L16.8624 23.0064C16.844 22.996 16.8248 22.9852 16.8064 22.974L16.1068 22.562C14.9072 21.856 13.708 21.15 12.5088 20.4432L12.5076 20.4424C12.3964 20.384 12.0576 20.2052 11.8804 19.7752C11.8165 19.6202 11.7893 19.4525 11.8011 19.2852C11.8129 19.118 11.8633 18.9557 11.9484 18.8112L14.1444 15.0812C14.3303 14.7667 14.5158 14.4519 14.7008 14.1368L13.0296 13.1532L12.7184 13.6816L10.3824 17.6488L10.3604 17.686C10.0988 18.1356 9.7424 18.3636 9.3012 18.3636C8.9704 18.3636 8.738 18.2248 8.5992 18.1416L8.5576 18.1168L6.3112 16.7944L4.3568 15.644L3.3728 17.3152L6.2536 19.0112C6.4656 19.136 6.678 19.2608 6.89 19.3864L7.1676 19.5496C7.3688 19.6676 7.5772 19.79 7.788 19.9168C8.02487 20.0596 8.19827 20.2875 8.27276 20.5539C8.34726 20.8203 8.31722 21.105 8.1888 21.35L8.1584 21.4096C8.12817 21.4702 8.09602 21.5299 8.062 21.5884L6.3504 24.4964L5.794 25.4412C5.6652 25.6596 5.5364 25.878 5.4084 26.0964L7.0796 27.0804L9.0368 23.7556C9.148 23.566 9.2592 23.3764 9.3724 23.1876C9.4196 23.1084 9.4656 23.0288 9.512 22.948C9.6256 22.7516 9.7432 22.548 9.8884 22.3328C10.0429 22.1037 10.279 21.9422 10.5486 21.8813C10.8182 21.8204 11.1008 21.8647 11.3388 22.0052L15.84 24.656L15.8876 24.6848L15.8888 24.6856ZM28.552 41.7556C26.6348 41.7534 24.7533 41.2362 23.1044 40.258C20.6408 38.7988 18.894 36.4636 18.1852 33.684C17.4744 30.8968 17.8904 28.0044 19.3568 25.5392C20.3211 23.9202 21.6951 22.584 23.3404 21.6652C24.947 20.7696 26.7555 20.2987 28.5948 20.2972C30.4968 20.2972 32.3752 20.8112 34.0268 21.7836C36.4988 23.244 38.2508 25.578 38.9616 28.356C39.6764 31.148 39.2636 34.0432 37.7992 36.508C35.8764 39.7444 32.3332 41.7556 28.552 41.7556ZM28.5948 22.4672C25.5812 22.4672 22.7564 24.0692 21.222 26.6488C20.0524 28.6148 19.7208 30.9232 20.288 33.148C20.8536 35.3652 22.2464 37.2272 24.2108 38.3908C25.5246 39.171 27.024 39.5838 28.552 39.586C31.5712 39.586 34.4 37.982 35.934 35.4C37.1016 33.4348 37.4304 31.1244 36.8596 28.8944C36.5834 27.8038 36.0934 26.7789 35.4179 25.8791C34.7425 24.9794 33.895 24.2228 32.9248 23.6532C31.613 22.879 30.118 22.4696 28.5948 22.4672Z" fill="#B21A9D"/>
<path fill-rule="evenodd" clip-rule="evenodd" d="M78.192 20.0824C78.1292 20.1164 78.0724 20.15 78.0144 20.1784L72.832 22.6888C72.5904 22.806 72.598 22.7788 72.714 23.0176C73.5956 24.8392 74.478 26.6608 75.3604 28.4828L75.4536 28.6752C75.4 28.708 75.3596 28.7384 75.3148 28.76C74.1788 29.3108 73.0428 29.8608 71.9072 30.4108C71.8648 30.4312 71.8204 30.4468 71.7592 30.4724C71.5648 30.0776 71.3784 29.6884 71.1896 29.3004L70.6232 28.1304L70.0564 26.9604C69.8672 26.5704 69.6788 26.18 69.4896 25.7904L68.9244 24.6236C68.8368 24.6064 68.778 24.6536 68.716 24.6836C67.2156 25.4092 65.7152 26.136 64.2156 26.8624C64.1812 26.8792 64.1476 26.8972 64.1128 26.9128C64.0424 26.9444 64.0348 26.9908 64.0564 27.0636C65.18 30.8692 64.8012 34.5264 62.9344 38.022C62.0024 39.7672 60.726 41.2312 59.1608 42.4392C58.2497 43.1471 57.252 43.736 56.192 44.1916C52.7636 45.6544 49.2808 45.7832 45.7608 44.5524C43.6112 43.8008 41.7608 42.576 40.1964 40.92C39.6791 40.3758 39.2095 39.7882 38.7928 39.1636C38.5464 38.7916 38.324 38.4028 38.1 38.0164C37.972 37.7935 37.8527 37.5657 37.7424 37.3336C37.5046 36.8355 37.296 36.324 37.1176 35.8016C36.8024 34.892 36.5772 33.96 36.466 33.0044C36.0304 29.2796 36.9092 25.8908 39.0924 22.844C39.8848 21.7384 40.8376 20.7836 41.9176 19.9584C42.6063 19.4322 43.3429 18.9716 44.1176 18.5828C46.5056 17.3832 49.032 16.874 51.6956 17.1044C54.7644 17.37 57.4708 18.5184 59.8084 20.5256C60.5835 21.1924 61.2802 21.9454 61.8848 22.77C61.9824 22.9036 62.0804 23.038 62.174 23.1756C62.2136 23.234 62.254 23.2508 62.316 23.2156C62.3452 23.1992 62.376 23.1864 62.4064 23.1724L66.932 20.9804L67.1072 20.8956C66.9836 20.5948 66.8372 20.3236 66.7056 20.0456C66.5728 19.7656 66.436 19.488 66.3012 19.2092L65.896 18.3736C65.7588 18.0908 65.622 17.808 65.4856 17.5248L65.0804 16.6888L64.6752 15.8532C64.5412 15.5752 64.4064 15.2972 64.2672 15.0104L67.9532 13.2252C67.9808 13.272 68.014 13.3216 68.0404 13.3748L68.9816 15.316C69.5604 16.512 70.1396 17.708 70.7192 18.9036C70.748 18.9624 70.782 19.0188 70.8228 19.094C71.1416 18.944 71.4472 18.7936 71.754 18.6452L72.6796 18.1968L73.6188 17.742L74.544 17.2932L75.4696 16.8448L76.4028 16.3928C77.0008 17.6232 77.5912 18.8424 78.192 20.0824ZM54.7152 39.9004C59.5508 37.558 61.4776 31.7764 59.2168 27.054C56.9268 22.2708 51.1576 20.2048 46.3388 22.5224C41.484 24.8576 39.5576 30.6648 41.8204 35.384C44.092 40.1212 49.8472 42.2492 54.7152 39.9004Z" fill="#EAE4E9"/>
<path d="M50.5376 46.4748C48.8368 46.4756 47.11 46.1728 45.4036 45.576C43.1248 44.7796 41.108 43.4636 39.4088 41.6648C38.8491 41.0754 38.3408 40.439 37.8896 39.7628C37.646 39.3952 37.4288 39.0208 37.2188 38.6584L37.1624 38.5612C37.0207 38.3143 36.8886 38.062 36.7664 37.8048C36.5102 37.2688 36.2854 36.7182 36.0932 36.156C35.742 35.142 35.5052 34.1236 35.3892 33.13C34.9232 29.148 35.8728 25.4744 38.2112 22.2112C39.0384 21.0576 40.064 20.0096 41.26 19.0956C42.0027 18.5285 42.7966 18.0319 43.6316 17.6124C45.8088 16.5192 48.1048 15.9644 50.456 15.9644C50.8964 15.9644 51.3448 15.984 51.7904 16.0228C55.0672 16.306 58.0036 17.544 60.5168 19.7016C61.277 20.356 61.9675 21.0872 62.5772 21.8836L65.668 20.3868C65.596 20.236 65.5232 20.0856 65.4496 19.9352L63.2928 15.4824C63.1676 15.2234 63.1504 14.9254 63.2448 14.6536C63.3392 14.3819 63.5376 14.1588 63.7964 14.0332L67.4824 12.248C67.7278 12.1293 68.0088 12.1072 68.2698 12.1862C68.5307 12.2651 68.7524 12.4392 68.8908 12.674C68.8956 12.682 68.9 12.69 68.9056 12.6984C68.9336 12.7444 68.9772 12.8144 69.0188 12.9004C69.2684 13.414 69.5176 13.9288 69.7668 14.4432L70.314 15.5736L71.32 17.6496L71.9116 17.3632L75.9324 15.4156C76.1914 15.2903 76.4896 15.273 76.7615 15.3674C77.0333 15.4618 77.2565 15.6603 77.382 15.9192L79.1692 19.6096C79.2909 19.8609 79.311 20.1493 79.2255 20.415C79.14 20.6808 78.9554 20.9033 78.71 21.0364C78.694 21.0448 78.6784 21.054 78.6632 21.0624C78.6156 21.0888 78.556 21.1224 78.4876 21.1552L75.7468 22.4828L74.0576 23.3008L75.5852 26.4548L76.4308 28.2008C76.548 28.4427 76.5713 28.7194 76.4961 28.9775C76.421 29.2355 76.2528 29.4565 76.024 29.5976L75.998 29.6144C75.9512 29.6448 75.8808 29.6908 75.7888 29.7356C74.6531 30.2865 73.5171 30.8367 72.3808 31.3864C72.318 31.4168 72.2628 31.4384 72.2192 31.4564L72.176 31.474C71.9215 31.5794 71.6364 31.584 71.3785 31.4869C71.1207 31.3898 70.9094 31.1983 70.7876 30.9512C70.6548 30.6824 70.5264 30.416 70.398 30.1512L70.2152 29.7732C70.0804 29.496 69.9468 29.2192 69.8124 28.942L68.4056 26.0376C67.4316 26.5088 66.458 26.9804 65.484 27.4524L65.3092 27.5368C66.24 31.3304 65.7648 35.0256 63.8924 38.5312C62.9124 40.3656 61.544 41.9688 59.8248 43.296C58.8184 44.0728 57.7404 44.7096 56.6188 45.1876C54.6196 46.042 52.5732 46.4748 50.5376 46.4748ZM50.4556 18.1344C48.4456 18.1344 46.4776 18.6112 44.6052 19.5516C43.8914 19.9105 43.2124 20.335 42.5772 20.8196C41.5524 21.6028 40.6768 22.4964 39.9756 23.4748C38.9668 24.8832 38.2508 26.3856 37.848 27.9408C37.4456 29.4976 37.3432 31.158 37.5444 32.8772C37.6424 33.7156 37.844 34.5792 38.1436 35.4456C38.3256 35.9704 38.5144 36.4336 38.7204 36.8608C38.8392 37.1072 38.9404 37.3012 39.0388 37.4708L39.096 37.5692C39.2988 37.9192 39.49 38.2496 39.698 38.5624C40.0644 39.1144 40.498 39.6564 40.986 40.1736C42.4444 41.7172 44.172 42.846 46.12 43.5268C47.5952 44.0428 49.0816 44.3044 50.5376 44.3044C52.2788 44.3044 54.038 43.93 55.7672 43.1924C56.7423 42.7726 57.6599 42.2304 58.498 41.5788C59.9732 40.4404 61.1436 39.0712 61.978 37.51C62.8408 35.894 63.366 34.2244 63.5376 32.5472C63.7104 30.8684 63.5344 29.1264 63.0156 27.3696C62.8384 26.7696 63.1072 26.174 63.6684 25.922L63.6868 25.9128L63.7416 25.8856L64.5372 25.5L68.2324 23.7112L68.234 23.7108C68.3232 23.6624 68.5588 23.534 68.8876 23.534C68.9708 23.534 69.0548 23.5424 69.1368 23.5588C69.3013 23.5915 69.4559 23.662 69.5885 23.7645C69.7212 23.8671 69.8282 23.9991 69.9012 24.15L71.7648 27.9976L72.1664 28.8268L72.2656 29.032L74.0108 28.1868L73.6308 27.402L71.7368 23.4908L71.7176 23.452C71.632 23.2768 71.4536 22.9124 71.6136 22.452C71.774 21.9916 72.1392 21.8176 72.3152 21.7336L72.3588 21.7124L74.7988 20.5304L76.7456 19.5876L75.9004 17.8424L72.8576 19.3164L72.2272 19.6216L71.9316 19.7648C71.7232 19.866 71.5084 19.9704 71.2876 20.0748C71.0373 20.1929 70.7513 20.2108 70.4883 20.1249C70.2252 20.039 70.0049 19.8558 69.8724 19.6128L69.8388 19.5532C69.806 19.4954 69.7748 19.4367 69.7452 19.3772C69.2836 18.4244 68.8216 17.472 68.3608 16.52L67.8136 15.3896L67.4644 14.6684L65.7192 15.5136L67.4012 18.986C67.4972 19.1836 67.5936 19.3812 67.6876 19.5796C67.7276 19.6632 67.7684 19.7464 67.81 19.8296C67.9104 20.0328 68.0148 20.2432 68.1132 20.4828C68.2183 20.7385 68.2218 21.0247 68.123 21.2829C68.0242 21.5411 67.8306 21.7518 67.5816 21.872L62.8812 24.1488L62.8304 24.1724L62.8292 24.1728C62.6543 24.2678 62.4586 24.318 62.2596 24.3188C61.8656 24.3188 61.5076 24.124 61.2772 23.784C61.1911 23.6583 61.1026 23.5343 61.0116 23.412C60.4559 22.6541 59.8156 21.9619 59.1032 21.3488C56.9416 19.4932 54.4184 18.4288 51.6036 18.1852C51.2219 18.1517 50.8388 18.1347 50.4556 18.1344ZM50.536 41.9464C50.5356 41.9464 50.5356 41.9464 50.536 41.9464C48.5307 41.9452 46.5656 41.3842 44.862 40.3264C43.1214 39.2507 41.7261 37.698 40.8416 35.8528C38.2872 30.5248 40.542 24.106 45.868 21.5444C47.312 20.8454 48.8957 20.4831 50.5 20.4848C52.4976 20.4848 54.456 21.042 56.1616 22.0956C57.9092 23.1739 59.3095 24.7325 60.1952 26.5852C61.4188 29.142 61.5812 32.032 60.6524 34.724C59.7156 37.4384 57.7748 39.6236 55.188 40.8772C53.7164 41.5868 52.152 41.9464 50.536 41.9464ZM50.5004 22.6552C49.2168 22.6552 47.9752 22.9396 46.8088 23.5004C42.5596 25.544 40.7608 30.6648 42.7988 34.9152C44.2144 37.868 47.2516 39.776 50.5356 39.776C51.8224 39.776 53.0704 39.4892 54.244 38.9228C58.474 36.8736 60.2668 31.7592 58.2384 27.5224C57.532 26.0451 56.4155 24.8022 55.022 23.942C53.6636 23.1015 52.0979 22.656 50.5004 22.6552Z" fill="#B21A9D"/>
</svg>
