<svg width="37" height="20" viewBox="0 0 37 20" fill="none" xmlns="http://www.w3.org/2000/svg">
<g clip-path="url(#clip0_88_6978)">
<path d="M10.0012 3.77415C11.9587 2.01665 14.9837 2.07498 16.8695 3.96415C18.7545 5.85415 18.8195 8.86415 17.0662 10.8275L9.9995 17.9042L2.9345 10.8275C1.18116 8.86415 1.247 5.84915 3.13116 3.96415C5.01866 2.07748 8.03783 2.01415 10.0012 3.77415ZM15.6895 5.14165C14.4395 3.88998 12.4228 3.83915 11.1145 5.01415L10.002 6.01248L8.88866 5.01498C7.57616 3.83832 5.56366 3.88998 4.31033 5.14332C3.06866 6.38498 3.00616 8.37248 4.15033 9.68582L10.0003 15.545L15.8503 9.68665C16.9953 8.37248 16.9328 6.38748 15.6895 5.14165Z" fill="#433E42"/>
</g>
<defs>
<clipPath id="clip0_88_6978">
<rect width="20" height="20" fill="white"/>
</clipPath>
</defs>
</svg>
