<svg width="37" height="20" viewBox="0 0 37 20" fill="none" xmlns="http://www.w3.org/2000/svg">
<g clip-path="url(#clip0_60_598)">
<g clip-path="url(#clip1_60_598)">
<g clip-path="url(#clip2_60_598)">
<path d="M22.96 15.3697C22.1598 15.4103 21.3727 15.1539 20.75 14.6497C20.4685 14.3305 20.1222 14.0748 19.7343 13.8997C19.3464 13.7246 18.9256 13.634 18.5 13.634C18.0744 13.634 17.6536 13.7246 17.2657 13.8997C16.8778 14.0748 16.5315 14.3305 16.25 14.6497C15.6383 15.0794 14.9202 15.3328 14.1742 15.3822C13.4283 15.4316 12.6831 15.2751 12.02 14.9297C10.55 14.2597 8.15 12.2297 8.5 6.2397L8.69 4.9997L9.5 6.0897C9.56081 6.14929 9.63697 6.19083 9.72 6.2097C10 6.2897 10.72 6.2797 12.09 5.4197C14.71 3.8297 17.64 4.9997 18.5 5.4597C19.37 5.0297 22.29 3.8197 24.9 5.4597C26.32 6.3197 27 6.3297 27.27 6.2497C27.319 6.23803 27.365 6.2159 27.4047 6.18484C27.4444 6.15377 27.4769 6.1145 27.5 6.0697L28.31 4.9297L28.5 6.2397C28.9 12.2397 26.5 14.2397 25.02 14.9397C24.3732 15.2324 23.6699 15.3792 22.96 15.3697ZM18.61 12.6397C19.7061 12.679 20.7434 13.1456 21.5 13.9397C21.9681 14.2183 22.5 14.372 23.0445 14.386C23.5891 14.4 24.1282 14.2739 24.61 14.0197C25.78 13.4797 27.61 11.8897 27.55 7.1797C26.436 7.27602 25.3264 6.95133 24.44 6.2697C21.9 4.7197 18.84 6.4397 18.81 6.4597L18.5 6.5997L18.25 6.4597C18.25 6.4597 15.15 4.7297 12.62 6.2697C11.731 6.95376 10.6173 7.27858 9.5 7.1797C9.41 11.8997 11.28 13.4897 12.44 13.9997C12.9139 14.2479 13.4428 14.3725 13.9777 14.362C14.5126 14.3516 15.0362 14.2063 15.5 13.9397C15.8839 13.5292 16.3486 13.2026 16.8649 12.9806C17.3813 12.7586 17.938 12.6459 18.5 12.6497L18.61 12.6397ZM23.13 10.8697C24.03 10.8697 24.67 10.0797 25.01 9.5697C24.5679 9.29069 24.0684 9.11519 23.5489 9.05632C23.0294 8.99744 22.5034 9.05671 22.01 9.2297C21.3868 9.58738 20.9249 10.171 20.72 10.8597C21.3 10.8597 22.19 10.8597 23.15 10.8597L23.13 10.8697ZM11.79 9.5797C11.972 9.93451 12.2389 10.2388 12.5668 10.4656C12.8948 10.6924 13.2738 10.8347 13.67 10.8797C14.67 10.8797 15.52 10.8797 16.1 10.8797C15.8996 10.1835 15.4373 9.59211 14.81 9.2297C14.3131 9.05499 13.7829 8.99571 13.2596 9.05635C12.7364 9.117 12.2338 9.29597 11.79 9.5797ZM23.14 10.8797C24.04 10.8797 24.68 10.0897 25.02 9.5797C24.5779 9.30069 24.0784 9.12519 23.5589 9.06632C23.0394 9.00744 22.5134 9.06671 22.02 9.2397C21.3968 9.59738 20.9349 10.181 20.73 10.8697C21.31 10.8697 22.2 10.8697 23.16 10.8697L23.14 10.8797ZM11.79 9.5797C11.972 9.93451 12.2389 10.2388 12.5668 10.4656C12.8948 10.6924 13.2738 10.8347 13.67 10.8797C14.67 10.8797 15.52 10.8797 16.1 10.8797C15.8996 10.1835 15.4373 9.59211 14.81 9.2297C14.3131 9.05499 13.7829 8.99571 13.2596 9.05635C12.7364 9.117 12.2338 9.29597 11.79 9.5797Z" fill="#ED7A7A"/>
</g>
</g>
</g>
<defs>
<clipPath id="clip0_60_598">
<rect width="20" height="20" fill="white" transform="translate(8.5)"/>
</clipPath>
<clipPath id="clip1_60_598">
<rect width="20" height="20" fill="white" transform="translate(8.5)"/>
</clipPath>
<clipPath id="clip2_60_598">
<rect width="20" height="20" fill="white" transform="translate(8.5)"/>
</clipPath>
</defs>
</svg>
