<svg width="80" height="80" viewBox="0 0 80 80" fill="none" xmlns="http://www.w3.org/2000/svg">
<path fill-rule="evenodd" clip-rule="evenodd" d="M54.5732 42.9352C54.8092 43.2412 55.0316 43.4736 55.1872 43.7436C55.5592 44.3872 56.1012 44.918 56.5264 45.4684C58.7444 48.35 62.1592 48.3364 65.1188 49.4076C67.688 50.3384 70.46 50.5768 72.8812 52.0648C77.9344 55.1688 79.9936 61.9564 77.602 67.3572C75.4776 72.1508 71.7168 74.4176 66.7504 74.844C62.9368 75.1724 57.8516 72.6724 55.8744 69.1712C54.0852 66.0028 53.7152 62.492 52.7068 59.14C52.0336 56.9044 51.7708 54.5228 49.6704 53.0148C49.596 52.9612 49.4936 52.8816 49.4892 52.8092C49.4076 51.3504 48.0048 51.092 47.222 50.2808C42.5408 52.5476 35.9936 50.2844 33.3892 46.2204C29.3624 39.9348 29.7212 34.0192 37.0128 28.2752C40.6368 25.4204 47.7416 25.9788 51.2984 29.4456C55.4752 33.5196 57.0256 39.7636 54.5732 42.9352ZM70.6536 58.292C68.5776 55.8456 64.22 56.0856 62.1208 58.0428C59.4932 60.4916 60.0508 64.8336 61.8712 66.6504C64.2548 69.028 68.074 69.1336 70.4844 66.8548C72.9052 64.5672 72.8948 60.5888 70.6536 58.292ZM42.6332 34.8012C43.828 33.722 44.2916 32.3084 43.7224 30.9168C43.43 30.2008 42.3304 29.476 41.5236 29.3816C39.9876 29.204 38.2056 30.246 37.6108 32.0448C37.2104 33.254 37.15 34.3592 38.1156 35.2528C39.0596 36.1264 40.2272 36.1232 41.3632 35.6444C41.8236 35.4504 42.212 35.0876 42.6332 34.8012Z" fill="#B21A9D"/>
<path fill-rule="evenodd" clip-rule="evenodd" d="M20.4824 21.2972C15.074 22.044 10.6828 17.0968 12.6984 11.2188C10.2972 11.5856 8.45922 10.6392 7.35522 8.67279C6.90322 7.86759 6.88042 6.70999 6.96242 5.73759C7.14482 3.57839 8.83922 2.13639 11.128 1.97359C13.9028 1.77599 15.0248 3.03879 16.3552 7.91679C19.1116 7.08079 21.6708 7.25599 23.8804 9.40159C25.7448 11.212 26.35 13.3584 25.9864 15.5812C28.172 15.606 30.4808 15.2444 32.5936 15.7312C38.2704 17.042 41.5836 22.88 40.026 28.3444C39.88 28.8584 39.5608 29.3784 39.1828 29.7576C37.376 31.5724 35.5876 33.4116 33.6656 35.0988C32.0072 36.5552 29.9064 36.22 27.9856 35.8692C22.2676 34.8264 18.6688 29.2304 19.9332 23.5448C20.0896 22.844 20.2736 22.1488 20.4824 21.2972ZM29.3916 21.2116C30.4124 20.238 30.7136 18.634 30.0252 17.84C29.3424 17.05 27.4976 17.2316 26.5152 18.1856C25.4408 19.2284 25.2536 20.6272 26.07 21.5128C26.8892 22.4028 28.2752 22.2776 29.3916 21.2116ZM19.0968 12.2032C18.9832 10.9984 19.1848 10.0028 18.7776 9.48999C18.0312 8.55039 17.0712 9.16639 16.3956 9.83279C15.7112 10.5072 15.3424 11.4828 16.3292 12.064C16.9232 12.4136 17.868 12.168 19.0968 12.2032ZM11.7028 3.05799C10.74 3.25839 10.0508 3.21079 9.71322 3.53239C9.44002 3.79359 9.58882 4.49759 9.54842 5.00519C10.058 4.92599 10.6588 4.98359 11.0472 4.72479C11.3476 4.52439 11.3844 3.92759 11.7028 3.05799Z" fill="#B21A9D"/>
<path fill-rule="evenodd" clip-rule="evenodd" d="M13.2032 49.0272C13.4732 48.436 13.5952 47.6836 14.0372 47.2792C18.2036 43.4624 22.432 39.7144 26.6264 35.928C28.5268 34.2116 30.4184 32.4824 32.2676 30.71C37.0384 26.1392 41.7653 21.5208 46.5476 16.96C49.5724 14.0756 52.5661 11.1472 55.7545 8.4508C58.6697 5.9852 61.8305 3.9208 65.9244 3.8104C70.9356 3.6756 75.618 9.1936 73.05 14.6896C71.7472 17.4752 70.1136 19.9424 67.9108 22.1016C62.612 27.3012 57.3349 32.5252 52.1641 37.8516C47.3764 42.7852 42.712 47.8384 38.0468 52.8888C35.3692 55.7872 32.8144 58.7988 30.1732 61.7312C28.7472 63.314 27.39 63.6732 24.6136 62.4712C19.6196 60.3084 16.1188 56.5084 13.8244 51.6112C13.452 50.8144 13.2032 49.0272 13.2032 49.0272ZM68.718 5.312C71.7845 5.55 67.688 5.2524 67.7016 5.1332C67.2296 5.0368 66.7596 4.8588 66.2876 4.8556C62.748 4.8308 59.9493 6.714 57.5185 8.8804C52.2276 13.5944 47.178 18.5792 42.0344 23.4592C37.638 27.63 33.2568 31.8168 28.854 35.9812C24.7436 39.8692 20.1564 43.2056 16.0468 47.0932C15.0656 48.0224 14.5836 53 16.1428 54.9496C15.41 53.6224 16.4528 49.0388 17.4072 48.1796C22.0756 43.9776 26.7776 39.8116 31.3652 35.5236C34.7776 32.3344 38.0028 28.946 41.3688 25.706C44.7624 22.4396 48.2388 19.2588 51.6548 16.0152C53.2536 14.4976 54.7388 12.858 56.3748 11.3836C59.6168 8.4604 64.1868 4.6096 68.718 5.312Z" fill="#EAE4E9"/>
<path d="M27.3732 64.31C26.458 64.31 25.4392 64.0532 24.1672 63.5024C19.162 61.3348 15.3396 57.4944 12.8068 52.0876C12.3836 51.1828 12.1356 49.5088 12.09 49.1816C12.0607 48.97 12.0922 48.7544 12.1808 48.56C12.2444 48.4208 12.3048 48.2476 12.3684 48.0644C12.546 47.554 12.7668 46.918 13.278 46.45C15.9604 43.9928 18.7116 41.5252 21.3728 39.1388C22.8492 37.8144 24.3764 36.4448 25.8732 35.0936C27.5516 33.578 29.5316 31.7752 31.49 29.898C33.6164 27.8578 35.7384 25.813 37.856 23.7636C40.4448 21.2616 43.1212 18.6744 45.772 16.1468C46.2228 15.7168 46.6728 15.286 47.1232 14.8552C49.6632 12.4232 52.29 9.90882 55.0292 7.59282C57.8144 5.23642 61.2836 2.81122 65.894 2.68682C65.9644 2.68522 66.0348 2.68402 66.1044 2.68402C69.0272 2.68402 71.8744 4.30602 73.5364 6.91682C75.144 9.44202 75.3376 12.4484 74.068 15.1648C72.6308 18.2392 70.8744 20.7704 68.6976 22.9036C63.94 27.572 58.35 33.092 52.9704 38.6344C48.2516 43.4972 43.5704 48.5652 39.044 53.4656L38.8724 53.6512C37.3104 55.3428 35.76 57.1064 34.2612 58.8124C33.1844 60.0426 32.1001 61.2663 31.0084 62.4832C30.242 63.334 29.1368 64.31 27.3732 64.31ZM17.2404 55.19C19.3156 57.992 21.9332 60.0864 25.06 61.4404C26.0268 61.8588 26.784 62.0628 27.3732 62.0628C27.9672 62.0628 28.5284 61.8784 29.3384 60.9796C30.424 59.7695 31.5022 58.5527 32.5728 57.3292C34.0812 55.6132 35.6404 53.8384 37.2216 52.1268L37.3928 51.9412C41.9292 47.0304 46.6192 41.9524 51.3572 37.0696C56.7544 31.5104 62.3564 25.978 67.1244 21.2996C69.1056 19.3576 70.7112 17.0396 72.0324 14.214C73.3156 11.4672 72.338 9.21962 71.6408 8.12442C71.2438 7.5028 70.7518 6.94725 70.1828 6.47802C70.0796 6.50922 69.9704 6.52602 69.8576 6.52602C69.812 6.52602 69.794 6.52442 69.7088 6.51762C69.5852 6.50802 69.2588 6.48162 68.632 6.43282C68.6034 6.43041 68.5748 6.42721 68.5464 6.42322C68.2389 6.37574 67.9283 6.35207 67.6172 6.35242C63.6348 6.35242 59.4016 10.1688 57.1272 12.2192C56.2144 13.042 55.3232 13.944 54.4616 14.8168C53.804 15.4824 53.1244 16.1704 52.4292 16.8312C50.9856 18.198 49.5368 19.5592 48.0828 20.9148C46.1276 22.742 44.106 24.6316 42.1484 26.5164C40.7156 27.8956 39.2816 29.3288 37.8944 30.7148C36.0284 32.5796 34.0992 34.5076 32.1332 36.3452C28.578 39.6676 24.898 42.9684 21.3392 46.1604C20.2784 47.1111 19.2185 48.0628 18.1596 49.0156C17.9888 49.1904 17.5348 50.154 17.2336 51.6672C16.9108 53.2896 17.0228 54.214 17.1272 54.4072C17.2632 54.654 17.2972 54.932 17.2404 55.19Z" fill="#B21A9D"/>
<path fill-rule="evenodd" clip-rule="evenodd" d="M10.5372 51.6556C10.4984 52.1056 10.152 53.5996 10.4748 54.3492C12.9352 60.056 16.8548 64.3076 22.966 66.182C23.644 66.3904 24.3992 66.346 25.3636 66.4436C22.9056 68.9012 20.6036 71.216 18.2864 73.5144C17.4436 74.3484 16.3668 74.38 15.304 74.174C12.9332 73.7152 10.9064 72.4988 9.114 70.9608C6.696 68.8856 4.5584 66.576 3.138 63.63C1.8724 61.0044 2.006 59.2588 4.0564 57.2088C5.868 55.3972 7.6692 53.5748 9.504 51.7864C9.7528 51.544 10.1008 50.6588 10.5372 51.6904V51.6556Z" fill="#EAE4E9"/>
<path d="M16.3048 75.4044C15.9276 75.4044 15.53 75.3628 15.0896 75.278C12.7684 74.8284 10.574 73.6952 8.3816 71.8144C5.4184 69.272 3.4304 66.8264 2.1248 64.1184C0.607599 60.9708 0.936399 58.7388 3.2608 56.4144C3.688 55.9872 4.1148 55.5592 4.5416 55.1312C5.896 53.7728 7.2964 52.3692 8.6964 51.0048L8.7532 50.9276C8.9528 50.652 9.368 50.0788 10.1092 50.0788C10.5096 50.0788 11.0516 50.2472 11.4552 51.008C11.586 51.1936 11.662 51.4196 11.6608 51.6628C11.6605 51.7315 11.655 51.8001 11.6444 51.868C11.6316 51.974 11.6128 52.0944 11.592 52.2304C11.4516 53.1412 11.4228 53.7048 11.5072 53.9056C14.0436 59.7892 17.8996 63.454 23.2956 65.1092C23.6148 65.2072 24.0136 65.2292 24.5184 65.2572C24.8036 65.2732 25.1268 65.2912 25.4768 65.3264C25.9088 65.37 26.2768 65.6584 26.4224 66.0676C26.4939 66.2679 26.507 66.4844 26.4603 66.6919C26.4135 66.8993 26.3088 67.0893 26.1584 67.2396C25.4416 67.9564 24.738 68.6612 24.0432 69.3568C22.3348 71.0676 20.7212 72.6836 19.078 74.314C18.3444 75.0372 17.412 75.4044 16.3048 75.4044ZM9.2168 53.6424C8.1776 54.6676 7.1428 55.7056 6.1332 56.7176C5.70587 57.1465 5.27813 57.5751 4.85 58.0032C3.2072 59.6464 3.0432 60.8468 4.1496 63.1416C5.316 65.5608 7.1256 67.7744 9.8456 70.108C11.734 71.7284 13.5892 72.6976 15.5172 73.0708C15.8148 73.1284 16.0728 73.1564 16.3048 73.1564C16.82 73.1564 17.1876 73.02 17.4956 72.7152C19.1336 71.0904 20.7456 69.476 22.452 67.7668C22.5984 67.6204 22.7452 67.474 22.8924 67.326C22.8062 67.3054 22.7207 67.2821 22.636 67.256C19.522 66.3012 16.8064 64.7024 14.5644 62.5048C12.4988 60.4804 10.776 57.886 9.4428 54.7936C9.2928 54.4468 9.2292 54.0556 9.2168 53.6424Z" fill="#B21A9D"/>
</svg>
