<svg width="80" height="80" viewBox="0 0 80 80" fill="none" xmlns="http://www.w3.org/2000/svg">
<g clip-path="url(#clip0_30_11659)">
<path fill-rule="evenodd" clip-rule="evenodd" d="M38.4188 64.0508L40.9056 63.7576C41.0072 65.2908 41.2192 66.8408 41.18 68.3848C41.1412 69.8636 40.9868 71.374 40.6256 72.8044C39.714 76.4096 39.6056 77.3068 35.7624 78.0604C33.4772 78.5076 31.1324 78.6416 28.8192 78.9516C25.7364 79.364 23.5472 78.192 22.5004 75.2496C21.6124 72.7536 20.888 70.1976 20.1324 67.6564C20.0096 67.2444 20.0964 66.7712 20.0852 66.2564C20.7156 66.1468 21.2828 66.0464 21.466 66.0148C20.3872 65.3832 19.0792 64.6688 17.8352 63.8556C17.5268 63.6528 17.328 63.1508 17.25 62.7516C16.5537 59.2133 15.8798 55.6705 15.2284 52.1236C13.786 44.2804 12.37 36.4316 10.9244 28.5888C9.96081 23.3628 8.96401 18.1428 7.98961 12.9192C7.89921 12.4352 7.86961 11.94 7.80041 11.3556L40.4248 7.51242C40.5384 8.47402 40.7012 9.35402 40.7376 10.2396C41.0292 17.3464 41.2828 24.4548 41.5756 31.5612C41.8984 39.3732 42.2472 47.1832 42.5916 54.994C42.6556 56.4476 42.8616 57.9024 42.8164 59.3528C42.7428 61.6604 41.6944 62.8204 39.4456 63.4612C39.0892 63.564 38.7888 63.8728 38.4612 64.0844C35.8792 64.5792 33.316 65.2092 30.7136 65.5304C28.1888 65.8412 25.6264 65.8368 23.08 65.9696C24.7856 66.2908 26.486 66.5036 28.1328 66.2972C31.276 65.9048 34.3912 65.2868 37.5096 64.7148C37.8428 64.6528 38.1168 64.2788 38.4188 64.0508ZM38.3468 9.90802C37.0408 9.68962 36.5516 10.074 36.7592 11.2716C36.8684 11.9032 36.7672 12.5684 36.7964 13.2156C37.0604 19.176 37.3224 25.1356 37.6072 31.0936C37.7224 33.5 37.9224 35.9016 38.0336 38.3068C38.322 44.5576 38.5592 50.8112 38.8756 57.0596C38.9544 58.612 38.1204 59.7012 36.9592 60.1672C34.7532 61.0516 32.4352 61.8292 30.0944 62.1592C26.9804 62.598 23.7996 62.5644 20.6472 62.7332C21.6008 63.1612 22.6172 63.5132 23.6552 63.5988C28.26 63.9752 32.796 63.4444 37.1608 61.984C39.9492 61.0508 40.9972 60.0288 40.8128 57.2052C40.5544 53.2136 40.502 49.2092 40.2956 45.2136C40.0824 41.1016 39.746 36.9964 39.5448 32.8844C38.1616 4.67362 39.9952 42.1936 38.64 12.4752C38.6016 11.6332 38.4516 10.7976 38.3468 9.90802ZM26.2632 39.2172C27.8604 37.0976 29.4792 35.0836 30.9452 32.9636C32.2484 31.0792 31.9232 29.2332 30.2656 27.97C28.6532 26.7408 26.7828 26.9416 25.3396 28.6268C24.822 29.2308 24.604 29.2704 23.942 28.7792C22.1348 27.4368 20.008 27.7904 18.7704 29.4924C17.612 31.0848 18.034 33.334 19.7584 34.5808C21.8712 36.1084 24.0036 37.608 26.2632 39.2172ZM32.1112 32.8024C33.8236 30.9108 33.992 28.8636 32.714 27.4488C31.5792 26.192 30.6216 25.9944 29.4808 26.782C31.986 27.874 32.8396 29.7104 32.1112 32.8024ZM39.9348 3.72162C40.0384 4.33922 40.1392 4.82362 40.1968 5.31402C40.2548 5.80202 40.2704 6.29522 40.3116 6.87522L7.82521 10.7024L7.45361 7.54802L39.9348 3.72162Z" fill="#B21A9D"/>
<path fill-rule="evenodd" clip-rule="evenodd" d="M59.6084 25.4604C59.2524 23.8324 58.9272 22.1968 58.5332 20.578C57.714 17.222 56.8404 13.8788 56.0248 10.522C55.5004 8.36244 56.3548 7.06564 58.5792 6.52244C60.7848 5.98324 62.2056 6.72444 62.772 8.86564C63.6744 12.2756 64.4536 15.7184 65.3456 19.132C67.39 26.954 69.4708 34.7668 71.536 42.584C71.6296 42.9396 71.7256 43.2964 71.7868 43.658C72.804 49.6792 72.6196 55.4284 66.95 59.27C60.7188 63.4928 54.0392 64.6044 47.2192 60.7124C40.5812 56.9248 33.6688 53.9944 26.1056 52.6816C23.7608 52.274 22.6804 50.5252 22.99 47.946C23.2996 45.3712 24.7908 44.0196 27.2812 44.2908C29.4688 44.5284 31.6484 44.9052 33.8044 45.3536C35.8676 45.7828 37.8956 46.3844 40.2208 46.9816C40.036 46.1324 39.95 45.5108 39.764 44.9212C36.7646 35.3835 33.7546 25.8491 30.734 16.318C29.9736 13.9196 30.8488 12.2256 33.3464 11.3884C35.7512 10.5828 37.1984 11.3312 38.0468 13.8428C39.8564 19.2 41.6584 24.5592 43.9428 29.7896C43.362 27.852 42.7992 25.9084 42.1976 23.9772C40.536 18.6424 39.0384 13.246 37.1152 8.00684C36.0088 4.99204 39.0192 2.45324 41.7464 2.85924C43.3712 3.10124 44.0568 4.12884 44.4912 5.60804C46.6624 13.006 48.8976 20.3844 51.1104 27.7696C51.4148 27.68 51.7196 27.5896 52.0248 27.5004C50.5892 22.71 49.1496 17.9212 47.7216 13.1288C47.0695 10.9447 46.4327 8.75593 45.8112 6.56284C45.068 3.93764 45.8728 2.43804 48.4004 1.67924C50.9464 0.914436 52.4176 1.71684 53.198 4.31764C55.3104 11.3536 57.4164 18.3916 59.5244 25.4288L59.6084 25.4604Z" fill="#EAE4E9"/>
<path d="M55.768 64.1124C52.7048 64.1124 49.6608 63.262 46.7212 61.5844C39.3228 57.3628 32.7176 54.848 25.9332 53.6704C23.0856 53.176 21.6132 50.9916 21.9936 47.8268C22.1628 46.42 22.6448 45.3048 23.4264 44.5132C24.2392 43.6892 25.3616 43.2544 26.6716 43.2544C26.9036 43.2544 27.1451 43.2676 27.3895 43.2944C29.4119 43.5144 31.5772 43.8672 34.0084 44.3728C35.4512 44.6728 36.8668 45.0528 38.3656 45.4548L38.9107 45.6008C38.8792 45.4692 38.8455 45.3448 38.8075 45.224C35.8077 35.6868 32.7975 26.1528 29.7772 16.622C28.8492 13.6948 30.0336 11.4408 33.0272 10.438C33.7536 10.1948 34.4 10.0764 35.0036 10.0764C35.7448 10.0764 36.4032 10.2572 36.9752 10.6172C36.7158 9.85975 36.4484 9.10505 36.1731 8.35322C35.6367 6.89242 35.8283 5.38962 36.7131 4.12282C37.7071 2.69842 39.4119 1.81402 41.1619 1.81402C41.4079 1.81402 41.6539 1.83202 41.8939 1.86762C42.8896 2.01642 43.7019 2.42962 44.3071 3.09602C44.4551 3.25922 44.5919 3.43682 44.7179 3.63202C45.1255 2.25042 46.2588 1.27562 48.1112 0.719224C48.8256 0.504424 49.4604 0.400024 50.0508 0.400024C52.0536 0.400024 53.4352 1.62122 54.158 4.02962L55.2536 7.67962C55.7712 6.65082 56.812 5.92122 58.3404 5.54802C58.8772 5.41682 59.3872 5.35002 59.8552 5.35002C61.8052 5.35002 63.1852 6.50762 63.7416 8.60882C64.2152 10.3988 64.6611 12.2236 65.0928 13.988C65.4851 15.594 65.8916 17.2548 66.3156 18.878C67.7236 24.2628 69.1724 29.7344 70.5736 35.026C71.218 37.4596 71.8628 39.8936 72.5052 42.3276L72.5151 42.3636C72.61 42.7236 72.7084 43.0964 72.7752 43.4908C73.4016 47.2 73.4263 50.066 72.8516 52.5104C72.1048 55.6888 70.358 58.1716 67.5116 60.1004C63.584 62.762 59.6328 64.112 55.768 64.1124ZM26.6712 45.26C25.0912 45.26 24.2128 46.1776 23.9856 48.066C23.7332 50.1652 24.504 51.3856 26.2768 51.6932C29.9852 52.3368 33.6155 53.3652 37.3743 54.8348C40.7275 56.1464 44.1104 57.784 47.7156 59.8416C50.3488 61.3444 53.058 62.106 55.7684 62.1056C59.2248 62.1056 62.7971 60.872 66.3867 58.4396C68.7963 56.8064 70.2724 54.7168 70.8988 52.0512C71.41 49.876 71.3776 47.262 70.7968 43.8248C70.7452 43.5208 70.6628 43.208 70.5752 42.8772L70.5656 42.8404C69.9228 40.4068 69.2784 37.9732 68.634 35.54C67.2324 30.2472 65.7827 24.774 64.3748 19.386C63.9468 17.7476 63.5383 16.0788 63.1443 14.4652C62.7147 12.7096 62.2708 10.8944 61.8023 9.12282C61.5712 8.24962 61.1595 7.35682 59.856 7.35682C59.548 7.35682 59.1984 7.40442 58.8176 7.49762C57.1228 7.91162 56.6132 8.69322 57 10.286C57.4192 12.0108 57.8616 13.7636 58.2896 15.458C58.6931 17.0568 59.1104 18.71 59.5084 20.3408C59.7836 21.4696 60.028 22.6188 60.264 23.7296C60.37 24.2276 60.4792 24.7424 60.5892 25.2464C60.6277 25.4223 60.6183 25.6053 60.5617 25.7762C60.5052 25.9472 60.4036 26.0998 60.2678 26.2179C60.132 26.3361 59.9668 26.4155 59.7897 26.4478C59.6125 26.4802 59.43 26.4642 59.2612 26.4016L59.1724 26.3688C59.0275 26.3146 58.8972 26.2276 58.7916 26.1145C58.686 26.0015 58.6081 25.8655 58.564 25.7172L56.8228 19.906C55.2957 14.8057 53.767 9.70581 52.2367 4.60642C51.8939 3.46402 51.392 2.40642 50.0512 2.40642C49.6648 2.40642 49.2064 2.48522 48.6888 2.64042C46.6844 3.24242 46.1835 4.19762 46.7764 6.29042C47.3608 8.35442 47.9848 10.498 48.6836 12.8428C49.7072 16.2796 50.7548 19.7724 51.768 23.15L52.986 27.2128C53.0623 27.4688 53.034 27.7444 52.9068 27.9792C52.8438 28.0954 52.7585 28.198 52.6558 28.2811C52.553 28.3642 52.4348 28.4261 52.308 28.4632L51.3948 28.7324C51.1403 28.8077 50.8663 28.779 50.6329 28.6526C50.3996 28.5261 50.2259 28.3123 50.15 28.058C49.5724 26.13 48.9932 24.2028 48.4135 22.2752C46.8015 16.9092 45.1343 11.3604 43.5292 5.89122C43.1323 4.53922 42.6271 4.00562 41.5991 3.85202C41.4547 3.83062 41.3088 3.81993 41.1627 3.82002C40.0751 3.82002 38.9744 4.38962 38.3588 5.27082C38.0064 5.77602 37.6679 6.60042 38.0575 7.66122C39.4543 11.4664 40.6428 15.404 41.7924 19.212C42.24 20.7031 42.6942 22.1922 43.1551 23.6792C43.5682 25.0146 43.9717 26.3529 44.3656 27.694C44.5443 28.2968 44.7236 28.8996 44.9036 29.502C44.9779 29.7471 44.9556 30.0113 44.8414 30.2405C44.7271 30.4696 44.5295 30.6464 44.2891 30.7346C44.0486 30.8227 43.7836 30.8155 43.5483 30.7145C43.313 30.6135 43.1252 30.4262 43.0236 30.1912C40.7596 25.008 38.9436 19.6308 37.1868 14.4304L37.0963 14.164C36.4763 12.3296 35.6908 12.0824 35.0044 12.0824C34.626 12.0824 34.1756 12.1688 33.6652 12.34C31.7024 12.998 31.0932 14.1316 31.6903 16.0152C34.7113 25.547 37.7216 35.0822 40.7212 44.6208C40.8608 45.0628 40.9456 45.4952 41.0431 45.9956C41.0912 46.2388 41.1403 46.4904 41.2015 46.7692C41.2378 46.9365 41.2307 47.1102 41.1809 47.2739C41.1311 47.4377 41.0402 47.5859 40.917 47.7047C40.7937 47.8234 40.6422 47.9086 40.4767 47.9523C40.3112 47.9959 40.1373 47.9965 39.9715 47.954C39.2355 47.7652 38.5291 47.5756 37.8463 47.3924C36.3759 46.998 34.9872 46.6252 33.6007 46.3364C31.2336 45.8444 29.1311 45.5016 27.1739 45.2884C27.007 45.27 26.8391 45.2605 26.6712 45.26Z" fill="#B21A9D"/>
</g>
<defs>
<clipPath id="clip0_30_11659">
<rect width="80" height="80" fill="white"/>
</clipPath>
</defs>
</svg>
