<svg width="56" height="56" viewBox="0 0 56 56" fill="none" xmlns="http://www.w3.org/2000/svg">
<g clip-path="url(#clip0_60_11764)">
<path d="M25.0255 40.1785C23.7752 40.1785 22.6031 39.9441 21.5091 39.4752C20.4151 39.0064 19.4578 38.3617 18.6373 37.5412C17.8168 36.7207 17.1721 35.7635 16.7033 34.6695C16.2344 33.5755 16 32.4033 16 31.1531C16 29.9184 16.2344 28.7463 16.7033 27.6366C17.1721 26.5426 17.8168 25.5893 18.6373 24.7766C19.4578 23.9639 20.4151 23.3232 21.5091 22.8543C22.6031 22.3698 23.7752 22.1276 25.0255 22.1276C26.2601 22.1276 27.4245 22.3698 28.5184 22.8543C29.6124 23.3232 30.5697 23.9639 31.3902 24.7766C32.2107 25.5893 32.8554 26.5426 33.3242 27.6366C33.7931 28.7463 34.0275 29.9184 34.0275 31.1531C34.0275 32.4033 33.7931 33.5755 33.3242 34.6695C32.8554 35.7635 32.2107 36.7168 31.3902 37.5295C30.5697 38.3422 29.6124 38.9908 28.5184 39.4752C27.4245 39.9441 26.2601 40.1785 25.0255 40.1785ZM25.0255 23.0887C23.9002 23.0887 22.8531 23.2997 21.8841 23.7217C20.8995 24.1437 20.0439 24.7219 19.3172 25.4565C18.5904 26.191 18.0161 27.0428 17.5941 28.0117C17.1721 28.9963 16.9612 30.0434 16.9612 31.1531C16.9612 32.2627 17.1721 33.3098 17.5941 34.2944C18.0161 35.279 18.5904 36.1346 19.3172 36.8614C20.0439 37.5881 20.8995 38.1624 21.8841 38.5844C22.8687 39.0064 23.9158 39.2174 25.0255 39.2174C26.1351 39.2174 27.1822 39.0064 28.1668 38.5844C29.1358 38.1624 29.9875 37.5881 30.7221 36.8614C31.4566 36.1346 32.0349 35.279 32.4568 34.2944C32.8788 33.3098 33.0898 32.2627 33.0898 31.1531C33.0898 30.0434 32.8788 28.9963 32.4568 28.0117C32.0192 27.0428 31.4371 26.191 30.7103 25.4565C29.9836 24.7219 29.128 24.1437 28.1434 23.7217C27.1744 23.2997 26.1351 23.0887 25.0255 23.0887ZM25.0255 36.8028C24.244 36.7871 23.5095 36.6387 22.8219 36.3574C22.1342 36.0604 21.5364 35.6541 21.0285 35.1383C20.5206 34.6226 20.1181 34.0287 19.8212 33.3567C19.5242 32.669 19.3758 31.9345 19.3758 31.1531C19.3758 30.3716 19.5242 29.6449 19.8212 28.9729C20.1181 28.2852 20.5206 27.6874 21.0285 27.1795C21.5364 26.6716 22.1342 26.2691 22.8219 25.9722C23.5095 25.6753 24.244 25.5268 25.0255 25.5268C25.8069 25.5268 26.5336 25.6753 27.2057 25.9722C27.8933 26.2691 28.4911 26.6716 28.999 27.1795C29.507 27.6874 29.9094 28.2852 30.2063 28.9729C30.5033 29.6449 30.6517 30.3716 30.6517 31.1531C30.6517 31.9345 30.5033 32.669 30.2063 33.3567C29.9094 34.0287 29.507 34.6226 28.999 35.1383C28.4911 35.6541 27.8933 36.0604 27.2057 36.3574C26.518 36.6387 25.7913 36.7871 25.0255 36.8028ZM25.0255 26.4879C24.3691 26.4879 23.7596 26.613 23.1969 26.863C22.6343 27.0975 22.142 27.4257 21.72 27.8476C21.2981 28.2696 20.9621 28.7697 20.712 29.348C20.4619 29.9106 20.3369 30.5123 20.3369 31.1531C20.3369 31.7938 20.4619 32.4033 20.712 32.9816C20.9621 33.5442 21.2981 34.0365 21.72 34.4585C22.142 34.8805 22.6343 35.2165 23.1969 35.4665C23.7752 35.701 24.3847 35.8182 25.0255 35.8182C25.6662 35.8182 26.2679 35.701 26.8306 35.4665C27.4088 35.2165 27.9089 34.8805 28.3309 34.4585C28.7529 34.0365 29.0811 33.5442 29.3155 32.9816C29.5656 32.419 29.6906 31.8095 29.6906 31.1531C29.6906 30.5123 29.5656 29.9106 29.3155 29.348C29.0811 28.7697 28.7529 28.2696 28.3309 27.8476C27.9089 27.4257 27.4088 27.0975 26.8306 26.863C26.2679 26.613 25.6662 26.4879 25.0255 26.4879ZM32.7381 18.9628C31.8473 18.9628 31.0581 19.2207 30.3704 19.7364C29.6828 20.2522 29.2061 20.9086 28.9404 21.7056V21.7291C29.2374 21.8541 29.5265 21.9947 29.8078 22.151C29.9953 21.5103 30.3548 20.9789 30.8862 20.5569C31.4175 20.1349 32.0349 19.924 32.7381 19.924C33.5665 19.924 34.2776 20.217 34.8714 20.8031C35.4653 21.3891 35.7623 22.1041 35.7623 22.9481C35.7623 23.6045 35.5708 24.1945 35.1879 24.718C34.805 25.2416 34.3166 25.6049 33.7227 25.8081H33.6993C33.8712 26.0894 34.0275 26.3785 34.1682 26.6755C34.9183 26.3785 35.5317 25.8941 36.0084 25.222C36.4851 24.55 36.7234 23.792 36.7234 22.9481C36.7234 21.8541 36.3327 20.9164 35.5513 20.1349C34.7699 19.3535 33.8321 18.9628 32.7381 18.9628ZM32.7381 16.1262C31.9567 16.1262 31.2222 16.2513 30.5345 16.5013C29.8312 16.7357 29.1944 17.0678 28.6239 17.4976C28.0535 17.9274 27.5573 18.4393 27.1353 19.0331C26.7134 19.627 26.4008 20.2756 26.1976 20.9789L26.1742 21.0258C26.3461 21.0414 26.5102 21.0648 26.6665 21.0961C26.8228 21.1274 26.979 21.1586 27.1353 21.1899C27.3229 20.5804 27.6042 20.0255 27.9793 19.5254C28.3387 19.0253 28.7607 18.5955 29.2452 18.2361C29.7297 17.8766 30.2688 17.5953 30.8627 17.3921C31.4566 17.189 32.0818 17.0874 32.7381 17.0874C33.5352 17.0874 34.2932 17.2437 35.0121 17.5562C35.731 17.8532 36.3562 18.2673 36.8875 18.7987C37.4189 19.3301 37.833 19.9552 38.13 20.6741C38.4426 21.3774 38.5988 22.1354 38.5988 22.9481C38.5988 24.1984 38.2511 25.3158 37.5556 26.3004C36.8602 27.285 35.9654 27.9883 34.8714 28.4102L34.848 28.4337C34.8793 28.59 34.9144 28.7463 34.9535 28.9025C34.9926 29.0588 35.0277 29.2151 35.059 29.3714C35.7154 29.1213 36.3249 28.7853 36.8875 28.3634C37.4345 27.9414 37.9073 27.453 38.3058 26.8982C38.7043 26.3434 39.013 25.73 39.2318 25.0579C39.4506 24.3859 39.56 23.6826 39.56 22.9481C39.56 22.0104 39.3803 21.1274 39.0208 20.299C38.6614 19.4707 38.173 18.7479 37.5556 18.1306C36.9383 17.5133 36.2155 17.0249 35.3872 16.6654C34.5589 16.306 33.6759 16.1262 32.7381 16.1262Z" fill="#707070"/>
</g>
<defs>
<clipPath id="clip0_60_11764">
<rect width="23.56" height="24" fill="white" transform="matrix(1 0 0 -1 16 40)"/>
</clipPath>
</defs>
</svg>
