<svg width="23" height="26" viewBox="0 0 23 26" fill="none" xmlns="http://www.w3.org/2000/svg">
<path opacity="0.7" d="M2.84601 23.0575C0 20.115 0.0482375 15.436 2.89425 12.5417L13.0241 2.17069C15.1466 0 18.6197 0 20.7904 2.17069C22.8646 4.34137 22.9128 7.86271 20.7904 10.0334L11.9629 19.0538C10.5158 20.5009 8.15213 20.5009 6.75325 19.0056C5.35436 17.5584 5.4026 15.243 6.80148 13.8442L13.7477 6.75325C14.0371 6.46382 14.5195 6.41558 14.8571 6.75325L15.9184 7.81447C16.256 8.1039 16.256 8.58627 15.9666 8.92393L9.02041 15.9666C8.77922 16.2078 8.77922 16.6419 8.97217 16.8831C9.21336 17.0761 9.55102 17.0761 9.74397 16.8831L18.5714 7.86271C19.4879 6.89796 19.4879 5.30612 18.5714 4.34137C17.6549 3.42486 16.1596 3.42486 15.243 4.34137L5.11317 14.7124C3.42486 16.4007 3.42486 19.1985 5.06494 20.8868C6.70501 22.5751 9.35807 22.5751 10.9981 20.8868L19.295 12.397C19.5844 12.1076 20.0668 12.1076 20.3562 12.397L21.4657 13.5065C21.8033 13.7959 21.8033 14.2783 21.5139 14.5677L13.2171 23.0575C10.3228 26 5.69202 25.9518 2.84601 23.0575Z" fill="#A9B0B7"/>
</svg>
