<svg width="24" height="24" viewBox="0 0 24 24" fill="none" xmlns="http://www.w3.org/2000/svg">
<g clip-path="url(#clip0_57_1221)">
<path d="M0 15.3151V3.74025C0.0696754 3.62149 0.152811 3.50985 0.203484 3.38554C0.984956 1.43701 2.3848 0.492432 4.49644 0.492432C9.59066 0.493223 14.6841 0.492432 19.7799 0.495599C21.2193 0.495599 22.3484 1.11951 23.2162 2.25411C23.5907 2.74342 23.7387 3.33883 24 3.88119V15.3151C23.9644 15.346 23.9089 15.3665 23.8963 15.4006C23.342 16.9802 22.3096 18.0483 20.6445 18.4228C20.2613 18.5083 20.3365 18.7846 20.3349 19.0269C20.327 20.1314 20.3207 21.2375 20.3349 22.3436C20.3413 22.8218 20.2684 23.2517 19.7688 23.4489C19.2922 23.6334 18.9691 23.3523 18.658 23.0395C17.3476 21.722 16.0127 20.4283 14.7245 19.091C14.3317 18.684 13.9303 18.5106 13.3682 18.5154C10.4054 18.5352 7.44181 18.532 4.47743 18.5225C2.3753 18.5162 1.01742 17.5874 0.226445 15.6563C0.175772 15.5336 0.0768013 15.4291 0 15.3151ZM18.4062 20.5312C18.4822 20.4845 18.5582 20.4426 18.6334 20.3966V18.1781C18.635 17.0728 18.7617 16.9295 19.8535 16.8218C21.3848 16.6706 22.2985 15.6975 22.3048 14.1718C22.3143 11.068 22.3159 7.96512 22.3064 4.86456C22.3001 3.22323 21.2518 2.18681 19.6033 2.18285C14.5724 2.17968 9.54315 2.17968 4.51148 2.18206C2.68963 2.18364 1.69517 3.1979 1.69279 5.03242C1.68963 7.94849 1.68963 10.863 1.69121 13.7783C1.69279 15.8939 2.62629 16.8337 4.73951 16.8353C7.53603 16.8416 10.3341 16.897 13.1291 16.8107C14.3618 16.7703 15.2882 17.0625 16.0713 18.034C16.7838 18.92 17.6231 19.7046 18.4062 20.5312Z" fill="black"/>
</g>
<defs>
<clipPath id="clip0_57_1221">
<rect width="24" height="24" fill="white"/>
</clipPath>
</defs>
</svg>
