<svg width="30" height="32" viewBox="0 0 30 32" fill="none" xmlns="http://www.w3.org/2000/svg">
<path d="M0 0.595738H15.2115C15.5151 0.593743 15.8129 0.677838 16.0705 0.838404C16.322 1.00031 16.5283 1.22355 16.67 1.4869L17.8379 3.83844H27.5676C27.7811 3.83631 27.9928 3.87674 28.1905 3.95746C28.3882 4.03818 28.5678 4.15743 28.7188 4.30841C28.8698 4.45939 28.9893 4.639 29.07 4.83667C29.1507 5.03434 29.1912 5.24605 29.189 5.45955V23.2961C29.1912 23.5097 29.1507 23.7213 29.07 23.919C28.9893 24.1167 28.8698 24.2965 28.7188 24.4475C28.5678 24.5986 28.3884 24.7181 28.1907 24.799C27.993 24.8798 27.7811 24.9202 27.5676 24.9182H17.2215C16.9178 24.9202 16.6196 24.8358 16.3622 24.6746C16.1108 24.5126 15.9047 24.2896 15.763 24.0263L14.5961 21.6748H3.24396V31.4046H0V0.595738Z" fill="#FCCBF7"/>
</svg>
