<svg width="32" height="32" viewBox="0 0 32 32" fill="none" xmlns="http://www.w3.org/2000/svg">
<path d="M16.6263 0C11.6377 0 8.40646 2.04394 5.86965 5.68913C5.40946 6.35038 5.55134 7.257 6.19328 7.74375L8.8894 9.78806C9.53771 10.2796 10.4602 10.1647 10.9677 9.52881C12.5333 7.5675 13.6946 6.43825 16.14 6.43825C18.0628 6.43825 20.441 7.67569 20.441 9.54019C20.441 10.9497 19.2775 11.6736 17.379 12.7379C15.165 13.9792 12.2353 15.5239 12.2353 19.3883V20C12.2353 20.8284 12.9068 21.5 13.7353 21.5H18.2647C19.0932 21.5 19.7647 20.8284 19.7647 20V19.6392C19.7647 16.9604 27.594 16.8489 27.594 9.6C27.594 4.141 21.9314 0 16.6263 0ZM16 23.3412C13.6128 23.3412 11.6706 25.2834 11.6706 27.6706C11.6706 30.0578 13.6128 32 16 32C18.3873 32 20.3295 30.0578 20.3295 27.6706C20.3295 25.2833 18.3873 23.3412 16 23.3412Z" fill="#E98A0A"/>
</svg>
