<svg width="37" height="20" viewBox="0 0 37 20" fill="none" xmlns="http://www.w3.org/2000/svg">
<g clip-path="url(#clip0_88_6941)">
<path d="M7.95866 9.58317C7.46138 9.58317 6.98446 9.38563 6.63283 9.034C6.2812 8.68236 6.08366 8.20545 6.08366 7.70817C6.08366 7.21089 6.2812 6.73398 6.63283 6.38235C6.98446 6.03071 7.46138 5.83317 7.95866 5.83317C8.45594 5.83317 8.93285 6.03071 9.28448 6.38235C9.63611 6.73398 9.83366 7.21089 9.83366 7.70817C9.83366 8.20545 9.63611 8.68236 9.28448 9.034C8.93285 9.38563 8.45594 9.58317 7.95866 9.58317ZM8.33366 16.4565V13.6665C8.33366 13.2598 8.45366 12.8857 8.67033 12.5515C7.92755 12.4458 7.17089 12.4963 6.44871 12.6996C5.72653 12.9029 5.0547 13.2547 4.47616 13.7323C5.38705 15.0803 6.75877 16.0493 8.33366 16.4573V16.4565ZM3.71116 12.2165C4.92824 11.3158 6.40289 10.8308 7.91699 10.8332C8.78616 10.8332 9.61949 10.9898 10.3895 11.2765C11.1212 10.9907 11.9937 10.8332 12.917 10.8332C14.3003 10.8332 15.5712 11.1865 16.422 11.7965C16.7033 10.7881 16.7431 9.72755 16.5382 8.70085C16.3334 7.67415 15.8896 6.71013 15.2428 5.88687C14.5961 5.0636 13.7645 4.40423 12.8155 3.96216C11.8665 3.52008 10.8267 3.30774 9.78029 3.34231C8.73392 3.37689 7.71041 3.65741 6.79264 4.16117C5.87486 4.66492 5.08864 5.37775 4.49763 6.24192C3.90662 7.10608 3.52744 8.09729 3.39081 9.13528C3.25417 10.1733 3.36392 11.2288 3.71116 12.2165ZM15.7328 13.4048C15.4053 12.9607 14.3095 12.4998 12.917 12.4998C11.2453 12.4998 10.0003 13.164 10.0003 13.6665V16.6665C11.1569 16.6671 12.2936 16.3668 13.2989 15.7949C14.3041 15.223 15.1424 14.3993 15.7328 13.4048ZM10.0003 18.3332C5.39783 18.3332 1.66699 14.6023 1.66699 9.99984C1.66699 5.39734 5.39783 1.6665 10.0003 1.6665C14.6028 1.6665 18.3337 5.39734 18.3337 9.99984C18.3337 14.6023 14.6028 18.3332 10.0003 18.3332ZM12.917 10.4165C12.475 10.4165 12.051 10.2409 11.7385 9.92835C11.4259 9.61579 11.2503 9.19186 11.2503 8.74984C11.2503 8.30781 11.4259 7.88389 11.7385 7.57133C12.051 7.25877 12.475 7.08317 12.917 7.08317C13.359 7.08317 13.7829 7.25877 14.0955 7.57133C14.4081 7.88389 14.5837 8.30781 14.5837 8.74984C14.5837 9.19186 14.4081 9.61579 14.0955 9.92835C13.7829 10.2409 13.359 10.4165 12.917 10.4165Z" fill="#433E42"/>
</g>
<defs>
<clipPath id="clip0_88_6941">
<rect width="20" height="20" fill="white"/>
</clipPath>
</defs>
</svg>
