<svg width="37" height="20" viewBox="0 0 37 20" fill="none" xmlns="http://www.w3.org/2000/svg">
<g clip-path="url(#clip0_88_6959)">
<path d="M10.0003 9.1665C11.1054 9.1665 12.1652 9.60549 12.9466 10.3869C13.728 11.1683 14.167 12.2281 14.167 13.3332V18.3332H12.5003V13.3332C12.5004 12.6955 12.2567 12.0819 11.8193 11.618C11.3818 11.154 10.7836 10.8747 10.147 10.8373L10.0003 10.8332C9.36265 10.8331 8.74906 11.0768 8.28511 11.5142C7.82115 11.9517 7.5419 12.5499 7.50449 13.1865L7.50033 13.3332V18.3332H5.83366V13.3332C5.83366 12.2281 6.27265 11.1683 7.05405 10.3869C7.83545 9.60549 8.89526 9.1665 10.0003 9.1665ZM4.58366 11.6665C4.81616 11.6665 5.04199 11.694 5.25866 11.7448C5.11618 12.169 5.0318 12.6105 5.00783 13.0573L5.00033 13.3332V13.4048C4.90454 13.3706 4.8049 13.3482 4.70366 13.3382L4.58366 13.3332C4.27292 13.3332 3.97333 13.4489 3.74331 13.6579C3.51329 13.8668 3.36932 14.1539 3.33949 14.4632L3.33366 14.5832V18.3332H1.66699V14.5832C1.66699 13.8096 1.97428 13.0678 2.52126 12.5208C3.06825 11.9738 3.81011 11.6665 4.58366 11.6665ZM15.417 11.6665C16.1905 11.6665 16.9324 11.9738 17.4794 12.5208C18.0264 13.0678 18.3337 13.8096 18.3337 14.5832V18.3332H16.667V14.5832C16.667 14.2724 16.5512 13.9728 16.3423 13.7428C16.1334 13.5128 15.8463 13.3688 15.537 13.339L15.417 13.3332C15.2712 13.3332 15.1312 13.3582 15.0003 13.404V13.3332C15.0003 12.7782 14.9103 12.2448 14.7428 11.7465C14.9587 11.694 15.1845 11.6665 15.417 11.6665ZM4.58366 6.6665C5.13619 6.6665 5.6661 6.886 6.0568 7.2767C6.4475 7.6674 6.66699 8.1973 6.66699 8.74984C6.66699 9.30237 6.4475 9.83228 6.0568 10.223C5.6661 10.6137 5.13619 10.8332 4.58366 10.8332C4.03112 10.8332 3.50122 10.6137 3.11052 10.223C2.71982 9.83228 2.50033 9.30237 2.50033 8.74984C2.50033 8.1973 2.71982 7.6674 3.11052 7.2767C3.50122 6.886 4.03112 6.6665 4.58366 6.6665ZM15.417 6.6665C15.9695 6.6665 16.4994 6.886 16.8901 7.2767C17.2808 7.6674 17.5003 8.1973 17.5003 8.74984C17.5003 9.30237 17.2808 9.83228 16.8901 10.223C16.4994 10.6137 15.9695 10.8332 15.417 10.8332C14.8645 10.8332 14.3346 10.6137 13.9439 10.223C13.5532 9.83228 13.3337 9.30237 13.3337 8.74984C13.3337 8.1973 13.5532 7.6674 13.9439 7.2767C14.3346 6.886 14.8645 6.6665 15.417 6.6665ZM4.58366 8.33317C4.47315 8.33317 4.36717 8.37707 4.28903 8.45521C4.21089 8.53335 4.16699 8.63933 4.16699 8.74984C4.16699 8.86034 4.21089 8.96633 4.28903 9.04447C4.36717 9.12261 4.47315 9.1665 4.58366 9.1665C4.69417 9.1665 4.80015 9.12261 4.87829 9.04447C4.95643 8.96633 5.00033 8.86034 5.00033 8.74984C5.00033 8.63933 4.95643 8.53335 4.87829 8.45521C4.80015 8.37707 4.69417 8.33317 4.58366 8.33317ZM15.417 8.33317C15.3065 8.33317 15.2005 8.37707 15.1224 8.45521C15.0442 8.53335 15.0003 8.63933 15.0003 8.74984C15.0003 8.86034 15.0442 8.96633 15.1224 9.04447C15.2005 9.12261 15.3065 9.1665 15.417 9.1665C15.5275 9.1665 15.6335 9.12261 15.7116 9.04447C15.7898 8.96633 15.8337 8.86034 15.8337 8.74984C15.8337 8.63933 15.7898 8.53335 15.7116 8.45521C15.6335 8.37707 15.5275 8.33317 15.417 8.33317ZM10.0003 1.6665C10.8844 1.6665 11.7322 2.01769 12.3573 2.64281C12.9825 3.26794 13.3337 4.11578 13.3337 4.99984C13.3337 5.88389 12.9825 6.73174 12.3573 7.35686C11.7322 7.98198 10.8844 8.33317 10.0003 8.33317C9.11627 8.33317 8.26842 7.98198 7.6433 7.35686C7.01818 6.73174 6.66699 5.88389 6.66699 4.99984C6.66699 4.11578 7.01818 3.26794 7.6433 2.64281C8.26842 2.01769 9.11627 1.6665 10.0003 1.6665ZM10.0003 3.33317C9.5583 3.33317 9.13438 3.50877 8.82181 3.82133C8.50925 4.13389 8.33366 4.55781 8.33366 4.99984C8.33366 5.44186 8.50925 5.86579 8.82181 6.17835C9.13438 6.49091 9.5583 6.6665 10.0003 6.6665C10.4424 6.6665 10.8663 6.49091 11.1788 6.17835C11.4914 5.86579 11.667 5.44186 11.667 4.99984C11.667 4.55781 11.4914 4.13389 11.1788 3.82133C10.8663 3.50877 10.4424 3.33317 10.0003 3.33317Z" fill="#433E42"/>
</g>
<defs>
<clipPath id="clip0_88_6959">
<rect width="20" height="20" fill="white"/>
</clipPath>
</defs>
</svg>
