<svg width="24" height="24" viewBox="0 0 24 24" fill="none" xmlns="http://www.w3.org/2000/svg">
<g clip-path="url(#clip0_57_1359)">
<path d="M8.15449 20.6554L4.94596 20.6535C2.54118 20.6522 0.593187 18.9135 0.0989208 16.3259C-0.332673 14.08 0.679764 11.6895 2.51662 10.5737C2.56379 6.92578 4.88652 3.94404 8.08535 3.43233C10.3932 3.06276 12.3858 3.8594 13.9487 5.75957C14.639 5.40125 15.4045 5.21213 16.1823 5.20781C18.8487 5.20781 21.1062 7.4207 21.4344 10.3553C21.4583 10.5666 21.4719 10.5756 21.5759 10.6402C23.3443 11.7476 24.3057 14.0574 23.9128 16.2567C23.509 18.5414 21.8486 20.2878 19.781 20.6018C19.5219 20.6388 19.2604 20.6566 18.9986 20.6547L8.15449 20.6554ZM9.15335 4.76717C8.87052 4.76811 8.58819 4.79101 8.3089 4.83565C5.76456 5.2427 3.92577 7.70563 3.9374 10.6919C3.93869 11.1687 3.7468 11.5092 3.35009 11.7321C1.94418 12.5204 1.16434 14.3398 1.49449 16.0577C1.8576 17.956 3.24478 19.2307 4.94725 19.232L18.9986 19.2333C19.2125 19.2333 19.3998 19.2204 19.5704 19.1952C21.0319 18.9736 22.2155 17.6924 22.5134 16.0074C22.8067 14.363 22.1109 12.6515 20.8219 11.8445C20.2055 11.4595 20.0718 10.9549 20.022 10.5123C19.7746 8.29745 18.1238 6.62793 16.1829 6.62793C15.5543 6.62793 14.945 6.80303 14.3719 7.1474C14.2485 7.22234 14.0553 7.32249 13.813 7.32249C13.362 7.32249 13.1101 6.99104 13.0267 6.8825C11.9548 5.47917 10.6517 4.76717 9.15335 4.76717Z" fill="black"/>
</g>
<defs>
<clipPath id="clip0_57_1359">
<rect width="24" height="24" fill="white"/>
</clipPath>
</defs>
</svg>
