<svg width="80" height="80" viewBox="0 0 80 80" fill="none" xmlns="http://www.w3.org/2000/svg">
<path fill-rule="evenodd" clip-rule="evenodd" d="M58.9241 63.7388C58.9241 62.6792 58.8961 61.7308 58.9445 60.7872C58.9557 60.5628 59.1753 60.2264 59.3769 60.152C61.9105 59.222 62.5041 57.1464 62.5205 54.786C62.5537 49.8812 62.5285 44.9776 62.5285 40.0724C62.5285 34.2892 62.5317 28.5064 62.5285 22.7232C62.5285 22.1016 62.5025 21.4796 62.4841 20.858C62.4425 19.4544 61.7745 18.4836 60.4257 18.078C59.8545 17.906 59.6785 17.6184 59.7021 17.0584C59.7377 16.2248 59.7109 15.3876 59.7109 14.4364C62.7773 14.6768 65.4069 15.7524 67.7813 17.4624C70.8877 19.7 73.1973 22.6048 74.5101 26.2036C77.6753 34.8816 78.0117 43.6284 74.2965 52.1928C71.7981 57.9512 67.5673 62.0624 61.2417 63.6012C60.7481 63.7212 60.2305 63.7492 59.7221 63.7952C59.5109 63.814 59.2953 63.7676 58.9241 63.7388Z" fill="#EAE4E9"/>
<path d="M59.6176 64.6676C59.4636 64.6676 59.3196 64.6512 59.166 64.6344C59.0629 64.6226 58.9597 64.6123 58.8564 64.6036C58.6386 64.5868 58.4353 64.4883 58.287 64.328C58.1388 64.1676 58.0565 63.9572 58.0568 63.7388C58.0568 63.45 58.0544 63.1696 58.052 62.8956C58.0464 62.154 58.0416 61.4536 58.0776 60.7432C58.104 60.2344 58.494 59.5524 59.0768 59.3376C60.8884 58.6728 61.6348 57.3524 61.652 54.7804C61.676 51.354 61.6708 47.868 61.6652 44.4968C61.6632 43.0216 61.6608 41.5472 61.6608 40.0724C61.6608 38.1448 61.6608 36.2172 61.6616 34.2892C61.662 30.434 61.6624 26.5788 61.6608 22.7236C61.6608 22.2612 61.6452 21.784 61.63 21.3224C61.6252 21.1759 61.6207 21.0293 61.6164 20.8828C61.5852 19.8224 61.1268 19.1948 60.1752 18.9084C59.244 18.6284 58.7932 17.9936 58.834 17.0212C58.858 16.4644 58.8528 15.8932 58.8476 15.288C58.8444 15.004 58.8426 14.72 58.8424 14.436C58.8425 14.3164 58.8674 14.1981 58.9154 14.0885C58.9634 13.9789 59.0335 13.8804 59.1213 13.7992C59.2091 13.7179 59.3128 13.6557 59.4258 13.6164C59.5388 13.5771 59.6587 13.5616 59.778 13.5708C62.862 13.8124 65.6456 14.8548 68.2868 16.758C71.6176 19.1568 73.9848 22.2344 75.3244 25.906C76.9848 30.4596 77.8344 34.9448 77.85 39.2372C77.8656 43.8056 76.938 48.2812 75.0908 52.5376C73.7612 55.6036 71.9752 58.1564 69.7824 60.1252C67.46 62.21 64.6548 63.6628 61.4452 64.4436C60.9684 64.5596 60.4996 64.5992 60.0464 64.6372C59.9632 64.6448 59.8808 64.6512 59.7988 64.6592C59.7385 64.6649 59.6781 64.6677 59.6176 64.6676ZM59.8068 60.9172C59.778 61.5488 59.782 62.1976 59.7872 62.8824V62.9184L59.9004 62.9088C60.3064 62.8744 60.6896 62.842 61.0368 62.7576C66.7708 61.3636 70.964 57.6924 73.4996 51.8472C75.2504 47.8116 76.13 43.5716 76.1152 39.244C76.1008 35.1528 75.2868 30.8656 73.6948 26.5012C72.4768 23.1628 70.3168 20.3588 67.2736 18.1668C65.1704 16.652 62.974 15.7436 60.584 15.4048C60.5888 15.9848 60.5916 16.5368 60.5676 17.096C60.5656 17.1468 60.5664 17.184 60.5684 17.21C60.592 17.22 60.6268 17.2332 60.6744 17.2476C62.3476 17.7508 63.2976 19.024 63.3508 20.8328C63.3548 20.9776 63.3592 21.1224 63.364 21.2668C63.3796 21.7416 63.3952 22.2332 63.3952 22.7232C63.3968 26.5788 63.3964 30.4344 63.3956 34.29L63.3952 40.0728C63.3952 41.5468 63.398 43.0208 63.4 44.4948C63.4056 47.8692 63.4108 51.3584 63.3876 54.7916C63.374 56.8348 62.984 59.6784 59.8068 60.9172Z" fill="#B21A9D"/>
<path fill-rule="evenodd" clip-rule="evenodd" d="M57.0793 14.4608C57.0793 15.45 57.1237 16.3628 57.0525 17.2664C57.0305 17.536 56.7357 17.9064 56.4769 18.0144C55.0749 18.5972 54.4737 19.6668 54.4697 21.1172C54.4581 25.7308 54.4277 30.3444 54.4737 34.9576C54.5005 37.646 56.0969 38.6472 58.5569 37.6272C58.8909 37.4888 59.2221 37.3456 59.7233 37.1332C59.7233 38.4104 59.7477 39.5916 59.7009 40.7712C59.6929 40.992 59.4489 41.2868 59.2349 41.404C52.6957 44.9924 45.7553 43.1504 42.2981 38.0708C39.4389 33.8688 39.5205 29.2844 41.2697 24.7304C43.8725 17.9552 49.6233 14.27 57.0793 14.4608Z" fill="#EAE4E9"/>
<path d="M52.2735 44.1384C50.1367 44.1384 48.0327 43.6296 46.1899 42.6664C44.3392 41.6967 42.7561 40.2857 41.5807 38.5584C38.8019 34.4748 38.4247 29.7168 40.4599 24.4192C41.7847 20.9696 43.8751 18.2692 46.6727 16.3932C49.4507 14.5304 52.7675 13.5856 56.5311 13.5856C56.7199 13.5856 56.9115 13.588 57.1023 13.5932C57.3284 13.599 57.5433 13.693 57.7011 13.855C57.8589 14.017 57.9472 14.2342 57.9471 14.4604C57.9471 14.7332 57.9507 15.0048 57.9543 15.2676C57.9631 15.976 57.9719 16.6456 57.9171 17.3348C57.8703 17.926 57.3839 18.576 56.8095 18.8148C55.7947 19.2376 55.3403 19.948 55.3371 21.1188C55.3351 22.0232 55.3319 22.9276 55.3287 23.832C55.3175 27.4764 55.3039 31.2452 55.3411 34.9484C55.3483 35.7244 55.5059 36.3296 55.7975 36.6988C56.0371 37.0028 56.3775 37.1504 56.8387 37.1504C57.2379 37.1504 57.7047 37.0412 58.2255 36.8248C58.4435 36.7348 58.6599 36.6416 58.9251 36.5292L59.3839 36.334C59.5159 36.278 59.6596 36.2556 59.8023 36.2688C59.9449 36.2819 60.0822 36.3301 60.2017 36.4092C60.3212 36.4883 60.4192 36.5957 60.4871 36.7219C60.555 36.8481 60.5906 36.9891 60.5907 37.1324C60.5907 37.4644 60.5923 37.7892 60.5943 38.1096C60.5991 39.0368 60.6035 39.9136 60.5687 40.804C60.5463 41.3792 60.0911 41.9236 59.6523 42.1636C57.2651 43.4744 54.7831 44.1384 52.2735 44.1384ZM56.2191 15.324C52.9355 15.374 50.0499 16.218 47.6395 17.8348C45.1447 19.508 43.2735 21.9328 42.0799 25.0416C41.2055 27.3168 40.8167 29.4848 40.9215 31.4868C41.0367 33.6592 41.7411 35.71 43.0151 37.5828C44.0295 39.0735 45.3955 40.2914 46.9923 41.1288C48.5887 41.9624 50.4151 42.4036 52.2731 42.4036C54.4847 42.4036 56.6831 41.8128 58.8083 40.648C58.8191 40.6395 58.8292 40.6302 58.8383 40.62C58.8635 39.9076 58.8631 39.19 58.8599 38.4408C58.1379 38.7368 57.4579 38.8864 56.8379 38.8864C55.8387 38.8864 55.0071 38.5016 54.4335 37.7732C53.8955 37.09 53.6171 36.1456 53.6055 34.966C53.5683 31.2516 53.5807 27.4772 53.5935 23.8272C53.5967 22.9232 53.5999 22.0192 53.6019 21.1152C53.6063 19.2624 54.4759 17.9176 56.1155 17.2248C56.1403 17.2048 56.1723 17.166 56.1915 17.1356C56.2343 16.5556 56.2271 15.956 56.2191 15.324Z" fill="#B21A9D"/>
<path fill-rule="evenodd" clip-rule="evenodd" d="M56.2083 60.2788V63.9524C54.6727 63.6764 53.1999 63.5344 51.8007 63.1348C48.7091 62.2508 46.0179 60.708 44.1311 57.9872C41.1439 53.6792 42.9727 47.9588 47.7479 46.7108C51.5987 45.7044 55.3531 47.9616 55.8983 51.6148C56.0955 52.9352 55.8419 54.16 55.0883 55.2712C54.8007 55.6944 54.5019 56.11 54.2143 56.5336C53.0707 58.2212 53.6039 59.6568 55.5659 60.1708C55.7423 60.2164 55.9259 60.2324 56.2083 60.2788Z" fill="#EAE4E9"/>
<path d="M56.2083 64.82C56.1575 64.82 56.1055 64.816 56.0543 64.8064C55.5791 64.7212 55.1007 64.6476 54.6379 64.576C53.5755 64.4124 52.5707 64.2572 51.5623 63.9688C47.9215 62.9284 45.2579 61.1336 43.4191 58.4812C41.7787 56.1172 41.3683 53.1712 42.3187 50.6012C43.1951 48.2312 45.0943 46.5076 47.5287 45.8712C48.2099 45.6932 48.9047 45.6032 49.5947 45.6032C53.2355 45.6032 56.2475 48.0776 56.7563 51.486C56.9895 53.048 56.6699 54.4852 55.8059 55.7576C55.6627 55.9688 55.5155 56.1792 55.3739 56.3824C55.2279 56.5916 55.0767 56.8076 54.9327 57.0204C54.5399 57.5988 54.4007 58.1228 54.5399 58.4932C54.6779 58.8592 55.1199 59.1572 55.7863 59.3324C55.8539 59.35 55.9451 59.3628 56.0719 59.3808C56.1543 59.3928 56.2459 59.406 56.3487 59.4232C56.5519 59.4564 56.7366 59.5607 56.8699 59.7176C57.0031 59.8746 57.0761 60.0738 57.0759 60.2796V63.9532C57.0759 64.2112 56.9615 64.4536 56.7647 64.6192C56.6084 64.749 56.4115 64.82 56.2083 64.82ZM49.5947 47.338C49.0531 47.338 48.5047 47.4092 47.9675 47.5504C46.0895 48.0408 44.6235 49.3724 43.9463 51.2032C43.1911 53.2424 43.5271 55.5936 44.8447 57.4928C46.4459 59.802 48.7995 61.3748 52.0391 62.3008C52.9431 62.5592 53.8951 62.706 54.9027 62.8612C55.0471 62.8836 55.1931 62.906 55.3407 62.9296V61.0088C53.7731 60.596 53.1567 59.7444 52.9159 59.1028C52.6731 58.4576 52.5775 57.4036 53.4963 56.0464C53.6475 55.824 53.8019 55.6028 53.9515 55.3884C54.0903 55.1896 54.2339 54.984 54.3707 54.7824C54.9907 53.8696 55.2099 52.8744 55.0407 51.742C54.6591 49.1904 52.3691 47.338 49.5947 47.338Z" fill="#B21A9D"/>
<path fill-rule="evenodd" clip-rule="evenodd" d="M20.9653 14.6664C20.9653 15.9952 21.0185 16.9104 20.9361 17.8124C20.9081 18.12 20.6001 18.5492 20.3165 18.6624C18.1833 19.5152 17.3493 21.1848 17.3469 23.3372C17.3345 34.6124 17.3525 45.8872 17.3469 57.162C17.3465 58.8084 17.9497 59.9808 19.6073 60.502C19.8361 60.574 20.1193 60.9228 20.1325 61.1572C20.1905 62.1728 20.1573 63.1936 20.1573 64.298C17.6761 64.092 15.5009 63.314 13.4637 62.124C9.7969 59.982 7.1057 56.9356 5.5669 53.0004C2.3029 44.6536 1.8917 36.1544 5.0557 27.7128C7.0941 22.2728 10.7401 18.0868 16.2673 15.8652C17.6905 15.2936 20.9653 14.6664 20.9653 14.6664Z" fill="#EAE4E9"/>
<path d="M20.1573 65.1652C20.1333 65.1652 20.1093 65.1644 20.0853 65.162C17.6217 64.9572 15.3129 64.2084 13.0257 62.8724C9.12971 60.5968 6.34851 57.3816 4.75851 53.3156C1.29451 44.4564 1.12131 35.7396 4.24331 27.4076C5.32371 24.5244 6.82891 22.0292 8.71691 19.9916C10.7037 17.8476 13.1353 16.1884 15.9441 15.0592C17.4281 14.4632 20.6653 13.8396 20.8025 13.8132C20.928 13.7893 21.0573 13.7934 21.181 13.8252C21.3048 13.857 21.42 13.9157 21.5184 13.9971C21.6169 14.0785 21.6962 14.1806 21.7507 14.2962C21.8052 14.4117 21.8335 14.5379 21.8337 14.6656C21.8337 15.0616 21.8381 15.4152 21.8429 15.7568C21.8529 16.54 21.8621 17.216 21.8005 17.8904C21.7421 18.5276 21.2209 19.2352 20.6385 19.4676C18.9873 20.1276 18.2173 21.3572 18.2149 23.3372C18.2077 29.704 18.2105 36.178 18.2133 42.438C18.2153 47.2636 18.2177 52.254 18.2153 57.162C18.2149 58.5768 18.6933 59.304 19.8681 59.6736C20.4477 59.8564 20.9657 60.5128 20.9993 61.1076C21.0429 61.876 21.0369 62.6284 21.0301 63.4244C21.0281 63.7104 21.0257 64 21.0257 64.2968C21.0257 64.5392 20.9241 64.7712 20.7453 64.9352C20.5852 65.0831 20.3753 65.1652 20.1573 65.1652ZM20.1069 15.728C19.0509 15.9544 17.4417 16.3284 16.5909 16.6704C11.5361 18.702 7.92851 22.5196 5.86771 28.0168C4.36051 32.0388 3.65411 36.1944 3.76811 40.3684C3.87811 44.3988 4.75491 48.5424 6.37491 52.684C7.81851 56.3768 10.3509 59.3012 13.9009 61.3748C15.6657 62.4056 17.4389 63.0476 19.2949 63.3248C19.3009 62.6264 19.3045 61.962 19.2713 61.3088L19.2673 61.304C17.4165 60.6928 16.4781 59.2988 16.4793 57.162C16.4813 52.2548 16.4793 47.2656 16.4773 42.44C16.4745 36.1792 16.4717 29.7048 16.4785 23.3368C16.4801 22.0604 16.7525 20.96 17.2873 20.0668C17.8717 19.092 18.7705 18.3536 19.9589 17.8716C19.9989 17.8356 20.0549 17.756 20.0741 17.7076C20.1245 17.1316 20.1169 16.534 20.1069 15.7808V15.728Z" fill="#B21A9D"/>
<path fill-rule="evenodd" clip-rule="evenodd" d="M22.7893 64.3252C22.7893 63.21 22.7497 62.2208 22.8149 61.2392C22.8329 60.9712 23.1117 60.5856 23.3617 60.4908C24.7945 59.9436 25.3885 58.864 25.3957 57.4196C25.4185 52.8812 25.4633 48.342 25.4029 43.8044C25.3657 41.0308 23.7665 40.0588 21.2433 41.1292L20.1453 41.5968C20.1453 40.326 20.1217 39.1656 20.1653 38.008C20.1737 37.7816 20.3901 37.4712 20.5977 37.3556C28.6869 32.854 37.5369 36.8472 39.4005 44.7924C40.8385 50.922 37.9613 60.5544 28.9409 63.4092C26.9737 64.0316 24.9937 64.4108 22.7893 64.3252Z" fill="#EAE4E9"/>
<path d="M23.406 65.2052C23.1908 65.2052 22.9716 65.2008 22.7556 65.1924C22.5315 65.1838 22.3195 65.0887 22.1641 64.9271C22.0086 64.7654 21.9219 64.5499 21.922 64.3256C21.922 64.0172 21.9188 63.7156 21.9156 63.4236C21.9076 62.6512 21.9 61.922 21.9492 61.182C21.9904 60.57 22.4852 59.896 23.0524 59.68C24.0668 59.2928 24.522 58.5944 24.528 57.4156L24.5412 55.05C24.5628 51.3668 24.5848 47.558 24.5348 43.8168C24.5048 41.572 23.4096 41.572 23.0496 41.572C22.6328 41.572 22.1388 41.6924 21.5816 41.9292C21.3668 42.02 21.1524 42.1116 20.9048 42.2168L20.4848 42.396C20.3528 42.4521 20.209 42.4747 20.0662 42.4616C19.9233 42.4485 19.786 42.4003 19.6663 42.3211C19.5467 42.242 19.4486 42.1345 19.3807 42.0081C19.3128 41.8818 19.2772 41.7406 19.2772 41.5972C19.2772 41.2628 19.2756 40.936 19.274 40.6148C19.2696 39.7052 19.2652 38.8456 19.298 37.9756C19.3204 37.3852 19.7668 36.8252 20.1756 36.5976C22.5188 35.2932 25.0748 34.604 27.5664 34.604C30.5488 34.604 33.3356 35.544 35.6264 37.322C37.956 39.1308 39.5532 41.646 40.2444 44.5948C41.05 48.028 40.5388 52.1788 38.8764 55.7C37.9472 57.668 36.7004 59.3824 35.1712 60.7956C33.4752 62.362 31.4668 63.52 29.202 64.2368C27.1152 64.8976 25.2732 65.2052 23.406 65.2052ZM23.6768 61.3508C23.636 62.0072 23.6428 62.6872 23.6504 63.406L23.6508 63.468C25.2536 63.442 26.8588 63.1584 28.678 62.5828C33.5656 61.036 36.0684 57.5836 37.3072 54.9588C38.8072 51.782 39.274 48.0556 38.5552 44.9908C37.9552 42.4332 36.574 40.2556 34.562 38.6928C32.5788 37.1528 30.1596 36.3392 27.566 36.3392C25.3472 36.3392 23.1536 36.9312 21.0456 38.0988C21.0404 38.1052 21.034 38.1128 21.0288 38.1208C21.004 38.8276 21.004 39.5416 21.0076 40.288C21.7412 39.9888 22.428 39.8372 23.0496 39.8372C25.0328 39.8372 26.2368 41.316 26.27 43.7932C26.32 47.5512 26.2972 51.3684 26.276 55.06L26.2624 57.4236C26.2536 59.2956 25.3776 60.6268 23.7284 61.2784C23.7091 61.301 23.6919 61.3252 23.6768 61.3508Z" fill="#B21A9D"/>
<path fill-rule="evenodd" clip-rule="evenodd" d="M23.6685 18.3816V14.9036C27.3073 15.004 30.5261 16.0772 33.3681 18.2428C35.1641 19.6116 36.5041 21.3372 36.9645 23.584C37.5037 26.2124 37.0381 28.6028 34.9433 30.4892C32.9325 32.3004 30.5757 32.6644 28.0857 31.9008C24.0677 30.6696 22.7529 26.3624 25.2989 23.0336C25.6097 22.6276 25.9625 22.252 26.2589 21.836C27.1745 20.5496 26.8545 19.488 25.3657 18.902C24.8597 18.702 24.3233 18.5788 23.6685 18.3816Z" fill="#EAE4E9"/>
<path d="M30.4549 33.1444C29.6109 33.1444 28.7281 33.0052 27.8317 32.7304C25.6633 32.066 24.0545 30.5464 23.4181 28.5604C22.7725 26.5476 23.2073 24.3408 24.6097 22.5064C24.7541 22.318 24.9029 22.14 25.0473 21.9676C25.2297 21.7496 25.4021 21.5436 25.5517 21.3332C25.8345 20.9356 25.9525 20.5904 25.8845 20.3608C25.8149 20.1256 25.5177 19.894 25.0485 19.7092C24.7489 19.5912 24.4221 19.4992 24.0437 19.3928C23.8346 19.3346 23.626 19.2743 23.4181 19.212C23.2397 19.1582 23.0834 19.0484 22.9723 18.8988C22.8612 18.7493 22.8012 18.5679 22.8013 18.3816V14.9036C22.8012 14.7877 22.8243 14.6729 22.8694 14.566C22.9144 14.4592 22.9805 14.3625 23.0636 14.2816C23.1467 14.2008 23.2451 14.1374 23.3532 14.0953C23.4612 14.0532 23.5766 14.0332 23.6925 14.0364C27.5933 14.144 30.9301 15.2944 33.8937 17.5528C36.0325 19.1828 37.3517 21.1532 37.8145 23.41C38.4645 26.5804 37.6941 29.1792 35.5237 31.134C34.0425 32.468 32.3373 33.1444 30.4549 33.1444ZM24.5365 17.7284C24.9341 17.8404 25.3109 17.9468 25.6841 18.0948C26.9361 18.5876 27.3889 19.3304 27.5477 19.8668C27.7061 20.3992 27.7333 21.26 26.9657 22.3392C26.7765 22.6052 26.5741 22.8472 26.3781 23.0812C26.2397 23.2464 26.1093 23.4024 25.9877 23.5612C24.9353 24.9372 24.6009 26.5668 25.0705 28.0308C25.5309 29.4676 26.7229 30.576 28.3401 31.0716C29.0717 31.2956 29.7829 31.4096 30.4549 31.4096C31.8953 31.4096 33.2101 30.8828 34.3629 29.8444C36.0669 28.3096 36.6397 26.3192 36.1149 23.7584C35.7333 21.8992 34.6629 20.3208 32.8421 18.9328C30.4053 17.0756 27.6805 16.052 24.5365 15.816V17.7284Z" fill="#B21A9D"/>
</svg>
