<svg width="24" height="24" viewBox="0 0 24 24" fill="none" xmlns="http://www.w3.org/2000/svg">
<path d="M3.60406 7.19701L10.7421 4.08801C10.8598 4.03753 10.9865 4.01113 11.1147 4.01039C11.2428 4.00965 11.3698 4.03457 11.4882 4.08369C11.6066 4.1328 11.7139 4.20512 11.8039 4.29637C11.8938 4.38762 11.9646 4.49597 12.0121 4.61501L16.9361 16.517C17.0373 16.7585 17.0403 17.0299 16.9443 17.2735C16.8482 17.5172 16.6609 17.7136 16.4221 17.821L9.28506 20.93C9.16722 20.9807 9.04043 21.0072 8.91217 21.008C8.78392 21.0088 8.6568 20.9839 8.53832 20.9348C8.41984 20.8857 8.31241 20.8133 8.22236 20.722C8.13232 20.6306 8.06149 20.5222 8.01406 20.403L3.09006 8.50001C2.98904 8.25852 2.98623 7.98715 3.08222 7.74362C3.17821 7.50009 3.36544 7.30462 3.60406 7.19701Z" stroke="#CC42BD" stroke-width="1.5" stroke-linecap="round" stroke-linejoin="round"/>
<path d="M15 4H16C16.2652 4 16.5196 4.10536 16.7071 4.29289C16.8946 4.48043 17 4.73478 17 5V8.5" stroke="#CC42BD" stroke-width="1.5" stroke-linecap="round" stroke-linejoin="round"/>
<path d="M20 6C20.264 6.112 20.52 6.217 20.768 6.315C21.0121 6.41859 21.2051 6.6149 21.3045 6.86075C21.4039 7.1066 21.4015 7.38187 21.298 7.626L19 13" stroke="#CC42BD" stroke-width="1.5" stroke-linecap="round" stroke-linejoin="round"/>
</svg>
