<svg width="37" height="20" viewBox="0 0 37 20" fill="none" xmlns="http://www.w3.org/2000/svg">
<g clip-path="url(#clip0_88_7021)">
<path d="M15.0003 14.1665V18.3332H13.3337V14.1665C13.3337 10.4573 15.537 7.26234 18.7062 5.81984L19.3962 7.3365C18.0851 7.93282 16.9734 8.89396 16.1939 10.1051C15.4144 11.3162 15 12.7262 15.0003 14.1665ZM6.66699 14.1665V18.3332H5.00033V14.1665C5.00045 12.7263 4.58601 11.3166 3.80652 10.1056C3.02703 8.89461 1.91543 7.93359 0.604492 7.33734L1.29449 5.81984C2.89673 6.54858 4.25533 7.72314 5.20801 9.20321C6.16069 10.6833 6.66719 12.4063 6.66699 14.1665ZM10.0003 9.99984C8.89526 9.99984 7.83545 9.56085 7.05405 8.77945C6.27265 7.99805 5.83366 6.93824 5.83366 5.83317C5.83366 4.7281 6.27265 3.66829 7.05405 2.88689C7.83545 2.10549 8.89526 1.6665 10.0003 1.6665C11.1054 1.6665 12.1652 2.10549 12.9466 2.88689C13.728 3.66829 14.167 4.7281 14.167 5.83317C14.167 6.93824 13.728 7.99805 12.9466 8.77945C12.1652 9.56085 11.1054 9.99984 10.0003 9.99984ZM10.0003 8.33317C10.3286 8.33317 10.6537 8.26851 10.957 8.14287C11.2603 8.01723 11.5359 7.83308 11.7681 7.60094C12.0002 7.36879 12.1844 7.09319 12.31 6.78988C12.4357 6.48657 12.5003 6.16148 12.5003 5.83317C12.5003 5.50487 12.4357 5.17978 12.31 4.87646C12.1844 4.57315 12.0002 4.29755 11.7681 4.0654C11.5359 3.83326 11.2603 3.64911 10.957 3.52347C10.6537 3.39784 10.3286 3.33317 10.0003 3.33317C9.33728 3.33317 8.7014 3.59656 8.23256 4.0654C7.76372 4.53424 7.50033 5.17013 7.50033 5.83317C7.50033 6.49621 7.76372 7.1321 8.23256 7.60094C8.7014 8.06978 9.33728 8.33317 10.0003 8.33317Z" fill="#433E42"/>
</g>
<defs>
<clipPath id="clip0_88_7021">
<rect width="20" height="20" fill="white"/>
</clipPath>
</defs>
</svg>
