<svg width="45" height="24" viewBox="0 0 45 24" fill="none" xmlns="http://www.w3.org/2000/svg">
<g clip-path="url(#clip0_60_556)">
<g clip-path="url(#clip1_60_556)">
<g clip-path="url(#clip2_60_556)">
<path d="M15.5954 20.3064H29.4048C29.5407 20.1377 29.6813 19.9596 29.822 19.7768C31.1907 17.9627 31.9267 16.2471 31.9501 14.8127C31.9688 13.5939 31.4954 12.558 30.511 11.6439C29.7892 10.9736 28.9782 10.6502 28.0313 10.6502C27.2157 10.6502 26.311 10.8939 25.3313 11.3674L25.2938 11.3861C24.2579 11.8736 23.386 12.108 22.5517 12.1314H22.5048H22.4579C21.6235 12.108 20.7517 11.8736 19.7157 11.3861L19.6782 11.3674C18.6985 10.8893 17.7892 10.6455 16.9782 10.6455C16.0313 10.6455 15.2204 10.9689 14.4985 11.6393C13.5048 12.558 13.0313 13.5939 13.0501 14.8127C13.0735 16.2471 13.8095 17.9674 15.1782 19.7768C15.3188 19.9596 15.4595 20.1377 15.5954 20.3064Z" fill="#FF4C4C"/>
<path d="M30.5062 11.6437C29.7843 10.9733 28.9733 10.6499 28.0265 10.6499C27.6515 10.6499 27.2577 10.7015 26.8452 10.8046C27.3562 10.964 27.8296 11.2405 28.2655 11.6437C29.2546 12.5577 29.7233 13.5937 29.7046 14.8124C29.6812 16.2468 28.9452 17.9671 27.5765 19.7765C27.4358 19.9593 27.2952 20.1374 27.1593 20.3062H29.3999C29.5358 20.1374 29.6765 19.9593 29.8171 19.7765C31.1858 17.9624 31.9218 16.2468 31.9452 14.8124C31.9687 13.5937 31.4952 12.5577 30.5062 11.6437Z" fill="#EA2828"/>
<path d="M32.3344 8.17012C30.3235 6.34199 27.6797 6.13574 24.6844 7.57012L24.6704 7.57949C24.511 7.65449 24.3188 7.60293 24.1313 7.50449C23.7938 7.32637 23.536 7.02168 23.4141 6.65605L22.5001 4.02637L21.586 6.65605C21.4594 7.02168 21.2063 7.32637 20.8641 7.50449C20.6813 7.59824 20.4844 7.64981 20.3251 7.57481L20.3157 7.57012C17.3204 6.14043 14.6719 6.34668 12.6657 8.17012C11.1985 9.50606 10.4719 11.1092 10.5001 12.942C10.5469 15.942 12.6891 18.8529 14.2735 20.6014H17.3204C17.1516 20.4514 16.0454 19.467 14.9579 18.0748C13.4719 16.1811 12.6751 14.3904 12.6563 12.9045C12.6376 11.6998 13.1157 10.6732 14.1188 9.76387C14.8407 9.10762 15.661 8.78887 16.6172 8.78887H16.6219C16.8516 8.78887 17.0954 8.81699 17.3391 8.86387C19.6547 9.30449 21.3047 11.3623 21.3047 13.7201V20.6061H23.7047V13.7154C23.7047 11.3576 25.3594 9.29981 27.6751 8.85918C27.9188 8.8123 28.1579 8.78887 28.3922 8.78418H28.3969C29.3532 8.78418 30.1735 9.10293 30.8954 9.75918C31.8938 10.6686 32.3719 11.6951 32.3579 12.8998C32.3344 14.3904 31.5376 16.1764 30.0563 18.0701C28.9641 19.4623 27.8626 20.4467 27.6938 20.5967H30.7407C32.3251 18.8482 34.4672 15.9373 34.5141 12.9373C34.5282 11.1092 33.8016 9.50606 32.3344 8.17012Z" fill="#FFB125"/>
<path d="M32.3345 8.1705C30.9188 6.88612 29.1938 6.40331 27.2485 6.72675C28.2938 6.91893 29.2501 7.40175 30.0938 8.1705C31.1579 9.14081 31.8329 10.2517 32.1095 11.4892C32.2735 11.9346 32.3532 12.4033 32.3438 12.9002C32.3345 13.4392 32.2267 14.0158 32.0204 14.6252C31.4157 16.9971 29.7657 19.1814 28.4813 20.5971H30.722C32.3063 18.8486 34.4485 15.9377 34.4954 12.9377C34.5282 11.1096 33.8017 9.50643 32.3345 8.1705Z" fill="#FF901D"/>
<path d="M31.0829 23.489C25.3782 22.3733 19.6172 22.3733 13.9126 23.489C13.3313 23.6015 12.7641 23.2358 12.6329 22.6593C12.5766 22.4108 12.5204 22.1577 12.4594 21.9093C12.3188 21.3046 12.7079 20.7046 13.3172 20.5874C19.4157 19.3921 25.5797 19.3921 31.6782 20.5874C32.2876 20.7046 32.6766 21.3046 32.536 21.9093C32.4797 22.1577 32.4235 22.4108 32.3626 22.6593C32.236 23.2358 31.6688 23.6015 31.0829 23.489Z" fill="#FF6D3A"/>
<path d="M32.564 21.7405C32.564 21.7124 32.5687 21.689 32.5687 21.6655C32.5687 21.6608 32.5687 21.6562 32.5687 21.6468C32.5687 21.6233 32.5687 21.5999 32.564 21.5718C32.564 21.5483 32.5593 21.5202 32.5546 21.4968C32.5546 21.4921 32.5546 21.4874 32.5546 21.4827C32.5453 21.4358 32.5359 21.3843 32.5218 21.3374C32.5218 21.3327 32.5171 21.328 32.5171 21.3233C32.3999 20.953 32.0906 20.6577 31.6828 20.578C31.2749 20.4983 30.8671 20.4233 30.4593 20.353L30.2062 21.5624C30.1078 22.0405 29.6484 22.3593 29.1656 22.289C24.0937 21.5202 18.9796 21.6327 13.9171 22.6218C13.3359 22.7343 12.764 22.3687 12.6328 21.7921C12.5906 21.614 12.5531 21.4358 12.5109 21.2577C12.4312 21.464 12.4078 21.6937 12.464 21.9233C12.5156 22.153 12.5718 22.3827 12.6234 22.6124C12.7359 23.2124 13.3171 23.6015 13.9124 23.4843C19.2046 22.4483 24.5531 22.378 29.8499 23.264C30.0468 23.2968 30.2437 23.3296 30.4453 23.3671C30.4546 23.3671 30.464 23.3718 30.4734 23.3718C30.6796 23.4093 30.8812 23.4468 31.0874 23.489C31.6687 23.6015 32.2312 23.2312 32.3624 22.6546C32.4187 22.4062 32.4749 22.153 32.5359 21.9046C32.5406 21.8812 32.5453 21.853 32.5499 21.8296C32.5499 21.8249 32.5499 21.8155 32.5546 21.8108C32.5593 21.7874 32.5593 21.764 32.564 21.7405Z" fill="#ED5729"/>
<path d="M22.5 10.6455C23.186 10.6455 23.7422 10.0894 23.7422 9.40332C23.7422 8.71728 23.186 8.16113 22.5 8.16113C21.814 8.16113 21.2578 8.71728 21.2578 9.40332C21.2578 10.0894 21.814 10.6455 22.5 10.6455Z" fill="#E1EFFB"/>
<path d="M22.4765 6.37051C23.8848 6.37051 25.0265 5.22883 25.0265 3.82051C25.0265 2.41218 23.8848 1.27051 22.4765 1.27051C21.0682 1.27051 19.9265 2.41218 19.9265 3.82051C19.9265 5.22883 21.0682 6.37051 22.4765 6.37051Z" fill="#FFB125"/>
</g>
</g>
</g>
<defs>
<clipPath id="clip0_60_556">
<rect width="24" height="24" fill="white" transform="translate(10.5)"/>
</clipPath>
<clipPath id="clip1_60_556">
<rect width="24" height="24" fill="white" transform="translate(10.5)"/>
</clipPath>
<clipPath id="clip2_60_556">
<rect width="24" height="24" fill="white" transform="translate(10.5)"/>
</clipPath>
</defs>
</svg>
