<svg width="24" height="24" viewBox="0 0 24 24" fill="none" xmlns="http://www.w3.org/2000/svg">
<path fill-rule="evenodd" clip-rule="evenodd" d="M0 11.9547C0 5.25283 5.3434 0 12.0453 0C18.7472 0 24 5.3434 24 11.9547C24 18.7472 18.6566 24 11.9547 24C5.25283 24 0 18.6566 0 11.9547ZM22.2792 12.0453C22.2792 6.33962 17.6604 1.72075 11.9547 1.72075C6.24906 1.72075 1.63019 6.43019 1.72075 12.2264C1.72075 17.7509 6.43019 22.3698 12.0453 22.3698C17.6604 22.2792 22.3698 17.5698 22.2792 12.0453Z" fill="black"/>
<path fill-rule="evenodd" clip-rule="evenodd" d="M11.1395 5.16235H12.8603V11.2303C12.8603 11.5925 12.9509 11.7737 13.2226 11.9548C14.0377 12.7699 14.9433 13.585 15.7584 14.3095C15.849 14.4001 16.0301 14.4907 16.2112 14.6718L14.7622 16.1208C13.8565 15.1246 12.9509 14.1284 11.9546 13.2227C11.3207 12.5888 11.049 11.9548 11.1395 11.1397C11.2301 9.41896 11.1395 7.6982 11.1395 5.88688V5.16235Z" fill="black"/>
</svg>
