<svg width="191" height="80" viewBox="0 0 191 80" fill="none" xmlns="http://www.w3.org/2000/svg">
<g clip-path="url(#clip0_1_2505)">
<g clip-path="url(#clip1_1_2505)">
<g clip-path="url(#clip2_1_2505)">
<path d="M80.3542 1.56484C79.6611 1.5651 78.9965 1.84054 78.5064 2.33064C78.0163 2.82073 77.7409 3.48536 77.7406 4.17845V65.8035C77.7414 66.4959 78.0168 67.1597 78.5064 67.6494C78.996 68.139 79.6599 68.4144 80.3523 68.4152H110.642C111.335 68.4144 111.999 68.139 112.488 67.6494C112.978 67.1597 113.253 66.4959 113.254 65.8035V4.17845C113.254 3.48603 112.979 2.82199 112.49 2.33202C112 1.84204 111.337 1.56614 110.644 1.56484H80.3542ZM80.3542 0.000976562H110.644C111.752 0.000976563 112.815 0.441102 113.598 1.22453C114.382 2.00796 114.822 3.07051 114.822 4.17845V65.8035C114.822 66.3523 114.714 66.8959 114.505 67.4031C114.295 67.9102 113.987 68.3711 113.599 68.7593C113.211 69.1475 112.751 69.4555 112.244 69.6656C111.737 69.8758 111.193 69.9839 110.644 69.9839H80.3542C79.8054 69.9839 79.2619 69.8758 78.7549 69.6656C78.2479 69.4555 77.7872 69.1475 77.3993 68.7593C77.0113 68.3711 76.7037 67.9102 76.4939 67.4031C76.2841 66.8959 76.1764 66.3523 76.1768 65.8035V4.17845C76.1768 3.07051 76.6169 2.00796 77.4003 1.22453C78.1837 0.441102 79.2463 0.000976563 80.3542 0.000976562Z" fill="#707070"/>
<path d="M81.9184 28.7211V42.3023H96.5434V28.7211H81.9184ZM81.3994 27.1572H97.0683C97.3454 27.1572 97.6112 27.2673 97.8071 27.4633C98.0031 27.6592 98.1132 27.925 98.1132 28.2021V42.8242C98.1134 42.9616 98.0866 43.0977 98.0342 43.2247C97.9818 43.3517 97.9049 43.4671 97.8078 43.5643C97.7108 43.6615 97.5955 43.7387 97.4686 43.7913C97.3417 43.8439 97.2057 43.871 97.0683 43.871H81.3994C81.262 43.871 81.1259 43.8439 80.999 43.7913C80.8722 43.7387 80.7569 43.6615 80.6598 43.5643C80.5628 43.4671 80.4859 43.3517 80.4335 43.2247C80.3811 43.0977 80.3542 42.9616 80.3545 42.8242V28.2021C80.3545 27.925 80.4646 27.6592 80.6605 27.4633C80.8565 27.2673 81.1222 27.1572 81.3994 27.1572Z" fill="#707070"/>
<path d="M81.9184 48.5658V63.1909H96.5434V48.5658H81.9184ZM81.3993 47.002H97.0683C97.3454 47.002 97.6112 47.112 97.8071 47.308C98.0031 47.5039 98.1131 47.7697 98.1131 48.0468V63.7158C98.1124 63.9924 98.0019 64.2574 97.8061 64.4527C97.6102 64.648 97.3449 64.7577 97.0683 64.7577H81.3993C81.1227 64.7577 80.8574 64.648 80.6616 64.4527C80.4657 64.2574 80.3553 63.9924 80.3545 63.7158V48.0468C80.3545 47.7697 80.4646 47.5039 80.6605 47.308C80.8565 47.112 81.1222 47.002 81.3993 47.002Z" fill="#707070"/>
<path d="M109.919 6.5293H81.079C80.5392 6.5293 80.1016 6.9669 80.1016 7.50671V10.2181C80.1016 10.7579 80.5392 11.1955 81.079 11.1955H109.919C110.458 11.1955 110.896 10.7579 110.896 10.2181V7.50671C110.896 6.9669 110.458 6.5293 109.919 6.5293Z" fill="#707070"/>
<path d="M81.9184 15.143V21.4131H109.078V15.143H81.9184ZM81.3993 13.5791H109.6C109.877 13.5791 110.143 13.6892 110.339 13.8851C110.535 14.0811 110.645 14.3468 110.645 14.624V21.935C110.645 22.2121 110.535 22.4779 110.339 22.6739C110.143 22.8698 109.877 22.9799 109.6 22.9799H81.3993C81.1222 22.9799 80.8565 22.8698 80.6605 22.6739C80.4646 22.4779 80.3545 22.2121 80.3545 21.935V14.624C80.3545 14.3468 80.4646 14.0811 80.6605 13.8851C80.8565 13.6892 81.1222 13.5791 81.3993 13.5791Z" fill="#707070"/>
<path d="M109.571 31.9316H100.472C100.265 31.9316 100.066 31.8492 99.9195 31.7026C99.7729 31.5559 99.6904 31.3582 99.6904 31.1509C99.6904 30.9435 99.7729 30.7439 99.9195 30.5972C100.066 30.4506 100.265 30.3682 100.472 30.3682H109.571C109.674 30.3682 109.775 30.388 109.87 30.4273C109.965 30.4666 110.051 30.5246 110.124 30.5972C110.197 30.6699 110.254 30.7563 110.294 30.8511C110.333 30.946 110.353 31.0482 110.353 31.1509C110.353 31.2535 110.333 31.3538 110.294 31.4487C110.254 31.5435 110.197 31.63 110.124 31.7026C110.051 31.7752 109.965 31.8332 109.87 31.8725C109.775 31.9118 109.674 31.9316 109.571 31.9316Z" fill="#707070"/>
<path d="M109.571 35.9077H100.472C100.265 35.9077 100.066 35.8253 99.9195 35.6786C99.7729 35.532 99.6904 35.3343 99.6904 35.1269C99.6904 34.9196 99.7729 34.72 99.9195 34.5733C100.066 34.4267 100.265 34.3442 100.472 34.3442H109.571C109.674 34.3442 109.775 34.3641 109.87 34.4034C109.965 34.4427 110.051 34.5007 110.124 34.5733C110.197 34.6459 110.254 34.7324 110.294 34.8272C110.333 34.9221 110.353 35.0242 110.353 35.1269C110.353 35.2296 110.333 35.3299 110.294 35.4247C110.254 35.5196 110.197 35.606 110.124 35.6786C110.051 35.7512 109.965 35.8092 109.87 35.8485C109.775 35.8878 109.674 35.9077 109.571 35.9077Z" fill="#707070"/>
<path d="M109.571 39.8843H100.472C100.265 39.8843 100.066 39.8018 99.9195 39.6552C99.7729 39.5086 99.6904 39.3109 99.6904 39.1035C99.6904 38.8961 99.7729 38.6965 99.9195 38.5499C100.066 38.4032 100.265 38.3208 100.472 38.3208H109.571C109.674 38.3208 109.775 38.3407 109.87 38.38C109.965 38.4193 110.051 38.4773 110.124 38.5499C110.197 38.6225 110.254 38.7089 110.294 38.8038C110.333 38.8986 110.353 39.0008 110.353 39.1035C110.353 39.2062 110.333 39.3064 110.294 39.4013C110.254 39.4962 110.197 39.5826 110.124 39.6552C110.051 39.7278 109.965 39.7858 109.87 39.8251C109.775 39.8644 109.674 39.8843 109.571 39.8843Z" fill="#707070"/>
<path d="M109.571 52.9648H100.472C100.265 52.9648 100.066 52.8824 99.9195 52.7358C99.7729 52.5891 99.6904 52.3914 99.6904 52.1841C99.6904 51.9767 99.7729 51.7771 99.9195 51.6304C100.066 51.4838 100.265 51.4014 100.472 51.4014H109.571C109.674 51.4014 109.775 51.4213 109.87 51.4605C109.965 51.4998 110.051 51.5578 110.124 51.6304C110.197 51.7031 110.254 51.7895 110.294 51.8843C110.333 51.9792 110.353 52.0814 110.353 52.1841C110.353 52.2867 110.333 52.387 110.294 52.4819C110.254 52.5767 110.197 52.6632 110.124 52.7358C110.051 52.8084 109.965 52.8664 109.87 52.9057C109.775 52.945 109.674 52.9648 109.571 52.9648Z" fill="#707070"/>
<path d="M109.571 56.9429H100.472C100.265 56.9429 100.066 56.8604 99.9195 56.7138C99.7729 56.5672 99.6904 56.3695 99.6904 56.1621C99.6904 55.9547 99.7729 55.7551 99.9195 55.6085C100.066 55.4618 100.265 55.3794 100.472 55.3794H109.571C109.674 55.3794 109.775 55.3993 109.87 55.4386C109.965 55.4779 110.051 55.5359 110.124 55.6085C110.197 55.6811 110.254 55.7675 110.294 55.8624C110.333 55.9572 110.353 56.0594 110.353 56.1621C110.353 56.2648 110.333 56.365 110.294 56.4599C110.254 56.5548 110.197 56.6412 110.124 56.7138C110.051 56.7864 109.965 56.8444 109.87 56.8837C109.775 56.923 109.674 56.9429 109.571 56.9429Z" fill="#707070"/>
<path d="M109.571 60.918H100.472C100.265 60.918 100.066 60.8355 99.9195 60.6889C99.7729 60.5423 99.6904 60.3446 99.6904 60.1372C99.6904 59.9298 99.7729 59.7302 99.9195 59.5836C100.066 59.4369 100.265 59.3545 100.472 59.3545H109.571C109.674 59.3545 109.775 59.3744 109.87 59.4137C109.965 59.453 110.051 59.511 110.124 59.5836C110.197 59.6562 110.254 59.7426 110.294 59.8375C110.333 59.9323 110.353 60.0345 110.353 60.1372C110.353 60.2399 110.333 60.3401 110.294 60.435C110.254 60.5299 110.197 60.6163 110.124 60.6889C110.051 60.7615 109.965 60.8195 109.87 60.8588C109.775 60.8981 109.674 60.918 109.571 60.918Z" fill="#707070"/>
<path d="M85.3516 40.1355C85.2373 40.1355 85.124 40.1126 85.0185 40.0687C84.913 40.0247 84.8169 39.9608 84.7364 39.8797C84.6559 39.7986 84.5924 39.703 84.5493 39.5972C84.5062 39.4913 84.4845 39.3774 84.4854 39.2631C84.4862 38.29 84.8133 37.3444 85.4141 36.579C86.0149 35.8136 86.8549 35.2722 87.7999 35.0403C87.3189 34.7401 86.949 34.2906 86.7457 33.7613C86.5423 33.232 86.5165 32.6512 86.6726 32.1062C86.8288 31.5611 87.1581 31.0825 87.6109 30.7412C88.0637 30.4 88.6155 30.2144 89.1825 30.2144C89.7495 30.2144 90.3008 30.4 90.7536 30.7412C91.2064 31.0825 91.5357 31.5611 91.6919 32.1062C91.8481 32.6512 91.8227 33.232 91.6194 33.7613C91.416 34.2906 91.0461 34.7401 90.5651 35.0403C91.5108 35.2715 92.3514 35.8135 92.9528 36.579C93.5542 37.3445 93.8817 38.2896 93.8825 39.2631C93.8828 39.3777 93.8604 39.4912 93.8166 39.5972C93.7729 39.7031 93.7086 39.7986 93.6276 39.8797C93.5466 39.9608 93.4505 40.0249 93.3446 40.0687C93.2387 40.1125 93.1252 40.1356 93.0106 40.1355H85.3516Z" fill="#7AAF72"/>
</g>
</g>
</g>
<defs>
<clipPath id="clip0_1_2505">
<rect width="38.66" height="69.98" fill="white" transform="translate(76.1699)"/>
</clipPath>
<clipPath id="clip1_1_2505">
<rect width="38.66" height="69.98" fill="white" transform="translate(76.1699)"/>
</clipPath>
<clipPath id="clip2_1_2505">
<rect width="38.646" height="69.98" fill="white" transform="translate(76.1768)"/>
</clipPath>
</defs>
</svg>
