<svg width="56" height="56" viewBox="0 0 56 56" fill="none" xmlns="http://www.w3.org/2000/svg">
<g clip-path="url(#clip0_60_11753)">
<path d="M27.4141 16.8086C29.1797 21.043 30.5078 23.3828 31.3984 23.8281C32.2891 24.2734 34.9531 24.0898 39.3906 23.2773C39.4062 23.2617 39.4219 23.2539 39.4375 23.2539C39.4531 23.2539 39.4688 23.2539 39.4844 23.2539C39.625 23.2539 39.7461 23.3047 39.8477 23.4062C39.9492 23.5078 40 23.6289 40 23.7695C40 23.8477 39.9844 23.9219 39.9531 23.9922C39.9219 24.0625 39.875 24.1211 39.8125 24.168L39.0156 24.8711C36.0469 27.4648 34.5352 29.2148 34.4805 30.1211C34.4258 31.0273 35.4609 33.3633 37.5859 37.1289C37.6016 37.1602 37.6172 37.1992 37.6328 37.2461C37.6484 37.293 37.6562 37.3398 37.6562 37.3867C37.6562 37.5273 37.6055 37.6445 37.5039 37.7383C37.4023 37.832 37.2812 37.8789 37.1406 37.8789C37.0938 37.8789 37.0469 37.875 37 37.8672C36.9531 37.8594 36.9141 37.8398 36.8828 37.8086C32.9766 35.5742 30.4414 34.5469 29.2773 34.7266C28.1133 34.9062 26.1016 36.5273 23.2422 39.5898C23.1953 39.6523 23.1367 39.7031 23.0664 39.7422C22.9961 39.7812 22.9141 39.8008 22.8203 39.8008C22.6797 39.8008 22.5586 39.75 22.457 39.6484C22.3555 39.5469 22.3047 39.4258 22.3047 39.2852C22.3047 39.2695 22.3086 39.25 22.3164 39.2266C22.3242 39.2031 22.3281 39.1836 22.3281 39.168C23.3125 35.0273 23.5273 32.4883 22.9727 31.5508C22.418 30.6133 20.2031 29.418 16.3281 27.9648C16.2344 27.9336 16.1562 27.875 16.0938 27.7891C16.0312 27.7031 16 27.6055 16 27.4961C16 27.3711 16.0391 27.2617 16.1172 27.168C16.1953 27.0742 16.2969 27.0195 16.4219 27.0039C20.6094 26.207 23.1367 25.4961 24.0039 24.8711C24.8711 24.2461 25.6797 21.5977 26.4297 16.9258C26.4609 16.8008 26.5234 16.6992 26.6172 16.6211C26.7109 16.543 26.8203 16.5039 26.9453 16.5039C27.0547 16.5039 27.1523 16.5312 27.2383 16.5859C27.3242 16.6406 27.3828 16.7148 27.4141 16.8086ZM30.8828 24.7305C30.1484 24.3398 29.5195 23.6797 28.9961 22.75C28.4727 21.8203 27.8594 20.5195 27.1562 18.8477C26.5156 22.6133 25.7578 24.8672 24.8828 25.6094C24.0078 26.3516 21.8438 27.0352 18.3906 27.6602C19.9219 28.2539 21.1328 28.8008 22.0234 29.3008C22.8984 29.8008 23.5234 30.3945 23.8984 31.082C24.2734 31.7695 24.4297 32.6133 24.3672 33.6133C24.3047 34.6289 24.0938 35.9492 23.7344 37.5742C26.0938 35.0742 27.8906 33.7383 29.125 33.5664C30.3594 33.3945 32.5781 34.207 35.7812 36.0039C34.0469 32.9414 33.2773 30.8555 33.4727 29.7461C33.668 28.6367 35.0938 26.9258 37.75 24.6133C36 24.9258 34.6016 25.1211 33.5547 25.1992C32.5078 25.2773 31.6172 25.1211 30.8828 24.7305Z" fill="#707070"/>
</g>
<defs>
<clipPath id="clip0_60_11753">
<rect width="24" height="24" fill="white" transform="matrix(1 0 0 -1 16 40)"/>
</clipPath>
</defs>
</svg>
