<svg width="16" height="16" viewBox="0 0 16 16" fill="none" xmlns="http://www.w3.org/2000/svg">
<path d="M15.1191 7.1193H8.88027V0.880482C8.88027 0.646963 8.7875 0.423014 8.62237 0.257892C8.45725 0.0927698 8.2333 0 7.99979 0C7.76627 0 7.54232 0.0927698 7.3772 0.257892C7.21207 0.423014 7.1193 0.646963 7.1193 0.880482V7.1193H0.880482C0.646963 7.1193 0.423014 7.21207 0.257892 7.3772C0.0927698 7.54232 0 7.76627 0 7.99979C0 8.2333 0.0927698 8.45728 0.257892 8.62241C0.423014 8.78753 0.646963 8.88027 0.880482 8.88027H7.1193V15.1191C7.1193 15.3526 7.21207 15.5766 7.3772 15.7417C7.54232 15.9068 7.76627 15.9996 7.99979 15.9996C8.2333 15.9996 8.45725 15.9068 8.62237 15.7417C8.7875 15.5766 8.88027 15.3526 8.88027 15.1191V8.88027H15.1191C15.3526 8.88027 15.5766 8.78753 15.7417 8.62241C15.9068 8.45728 15.9996 8.2333 15.9996 7.99979C15.9996 7.76627 15.9068 7.54232 15.7417 7.3772C15.5766 7.21207 15.3526 7.1193 15.1191 7.1193Z" fill="white"/>
</svg>
