<svg width="26" height="22" viewBox="0 0 26 22" fill="none" xmlns="http://www.w3.org/2000/svg">
<path d="M13.4734 20.8699H6.06521C2.36111 20.8699 1.13032 18.4083 1.13032 15.935V6.06521C1.13032 2.36111 2.36111 1.13032 6.06521 1.13032H13.4734C17.1775 1.13032 18.4083 2.36111 18.4083 6.06521V15.935C18.4083 19.6391 17.1658 20.8699 13.4734 20.8699Z" stroke="white" stroke-width="2.25" stroke-linecap="round" stroke-linejoin="round"/>
<path d="M21.6668 16.9773L18.4081 14.6915V7.29508L21.6668 5.00932C23.261 3.89575 24.5738 4.57561 24.5738 6.53316V15.4652C24.5738 17.4227 23.261 18.1026 21.6668 16.9773Z" stroke="white" stroke-width="2.25" stroke-linecap="round" stroke-linejoin="round"/>
<path d="M12.266 9.82749C13.237 9.82749 14.0242 9.04028 14.0242 8.06922C14.0242 7.09815 13.237 6.31094 12.266 6.31094C11.2949 6.31094 10.5077 7.09815 10.5077 8.06922C10.5077 9.04028 11.2949 9.82749 12.266 9.82749Z" stroke="white" stroke-width="2.25" stroke-linecap="round" stroke-linejoin="round"/>
</svg>
