<svg width="16" height="16" viewBox="0 0 16 16" fill="none" xmlns="http://www.w3.org/2000/svg">
<g clip-path="url(#clip0_445_6614)">
<path d="M0.578125 3.42969C0.567708 3.42969 0.5625 3.42969 0.5625 3.42969C0.40625 3.42969 0.273438 3.48698 0.164062 3.60156C0.0546875 3.71615 0 3.85156 0 4.00781C0 4.08073 0.0130208 4.15104 0.0390625 4.21875C0.0651042 4.28646 0.104167 4.34635 0.15625 4.39844L7.6875 12.1953C7.73958 12.2474 7.80208 12.2891 7.875 12.3203C7.94792 12.3516 8.02083 12.3672 8.09375 12.3672C8.17708 12.3672 8.25521 12.3516 8.32812 12.3203C8.40104 12.2891 8.46354 12.2474 8.51562 12.1953L15.9219 4.52344C15.974 4.47135 16.0156 4.40885 16.0469 4.33594C16.0781 4.26302 16.0938 4.1901 16.0938 4.11719C16.0938 3.95052 16.0391 3.8125 15.9297 3.70312C15.8203 3.59375 15.6875 3.53906 15.5312 3.53906C15.4479 3.53906 15.3698 3.55469 15.2969 3.58594C15.224 3.61719 15.1615 3.66406 15.1094 3.72656H15.0938L8.09375 10.9766L0.984375 3.60156C0.932292 3.54948 0.869792 3.50781 0.796875 3.47656C0.723958 3.44531 0.651042 3.42969 0.578125 3.42969Z" fill="#707070"/>
</g>
<defs>
<clipPath id="clip0_445_6614">
<rect width="16" height="16" fill="white"/>
</clipPath>
</defs>
</svg>
