<svg width="21" height="29" viewBox="0 0 21 29" fill="none" xmlns="http://www.w3.org/2000/svg">
<path d="M11 29C7.97969 28.9997 5.47066 28.6633 2.53909 27.9366C1.91711 27.7838 1.36435 27.4268 0.969193 26.9228C0.57404 26.4187 0.35933 25.7967 0.359402 25.1562C0.35322 22.3234 1.42645 19.5946 3.36076 17.5249C5.29508 15.4553 7.94519 14.2002 10.772 14.0151C13.5988 13.83 16.3899 14.7287 18.5776 16.5284C19.5 17.5 20.0647 18.1004 20.5486 19.7031C20.5648 19.8303 20.5558 19.9595 20.5221 20.0833C20.4884 20.207 20.4307 20.3229 20.3522 20.4243C20.2737 20.5257 20.176 20.6107 20.0647 20.6744C19.9534 20.7381 19.8306 20.7792 19.7034 20.7954C19.5762 20.8116 19.447 20.8026 19.3233 20.7689C19.1995 20.7352 19.0836 20.6775 18.9822 20.599C18.8808 20.5205 18.7958 20.4228 18.7321 20.3115C18.6685 20.2002 18.6273 20.0774 18.6111 19.9502C18 19 18.5 19.5 17.3001 18.1004C15.4984 16.6377 13.2106 15.9096 10.8948 16.0622C8.5791 16.2147 6.40649 17.2364 4.81213 18.9228C3.21776 20.6092 2.31938 22.8356 2.2969 25.1562C2.29517 25.3655 2.36403 25.5691 2.49235 25.7344C2.62068 25.8996 2.80097 26.0168 3.00409 26.0669C8.58451 27.4426 9.41554 27.4426 14.996 26.0669C15.1194 26.0351 15.2478 26.0279 15.374 26.0457C15.5002 26.0636 15.6216 26.1061 15.7314 26.1709C15.8411 26.2356 15.937 26.3214 16.0136 26.4232C16.0902 26.525 16.146 26.641 16.1778 26.7644C16.2096 26.8878 16.2168 27.0162 16.199 27.1424C16.1811 27.2686 16.1386 27.39 16.0739 27.4998C16.0091 27.6095 15.9233 27.7054 15.8215 27.782C15.7197 27.8586 15.6037 27.9144 15.4803 27.9462C12.5421 28.6716 13 28.4688 11 29ZM11.5 12.5625C10.0869 12.5625 8.73169 12.0011 7.73247 11.0019C6.73326 10.0027 6.1719 8.64748 6.1719 7.23438V6.26562C6.1719 4.85252 6.73326 3.49729 7.73247 2.49807C8.73169 1.49885 10.0869 0.9375 11.5 0.9375C12.9131 0.9375 14.2684 1.49885 15.2676 2.49807C16.2668 3.49729 16.8282 4.85252 16.8282 6.26562V7.23438C16.8282 8.64748 16.2668 10.0027 15.2676 11.0019C14.2684 12.0011 12.9131 12.5625 11.5 12.5625ZM11.5 2.875C10.6008 2.875 9.73836 3.23223 9.10249 3.86809C8.46663 4.50396 8.1094 5.36638 8.1094 6.26562V7.23438C8.1094 8.13362 8.46663 8.99604 9.10249 9.63191C9.73836 10.2678 10.6008 10.625 11.5 10.625C12.3993 10.625 13.2617 10.2678 13.8976 9.63191C14.5334 8.99604 14.8907 8.13362 14.8907 7.23438V6.26562C14.8907 5.36638 14.5334 4.50396 13.8976 3.86809C13.2617 3.23223 12.3993 2.875 11.5 2.875Z" fill="black"/>
<path d="M11 29C7.97969 28.9997 5.47066 28.6633 2.53909 27.9366C1.91711 27.7838 1.36435 27.4268 0.969193 26.9228C0.57404 26.4187 0.35933 25.7967 0.359402 25.1562C0.35322 22.3234 1.42645 19.5946 3.36076 17.5249C5.29508 15.4553 7.94519 14.2002 10.772 14.0151C13.5988 13.83 16.3899 14.7287 18.5776 16.5284C19.5 17.5 20.0647 18.1004 20.5486 19.7031C20.5648 19.8303 20.5558 19.9595 20.5221 20.0833C20.4884 20.207 20.4307 20.3229 20.3522 20.4243C20.2737 20.5257 20.176 20.6107 20.0647 20.6744C19.9534 20.7381 19.8306 20.7792 19.7034 20.7954C19.5762 20.8116 19.447 20.8026 19.3233 20.7689C19.1995 20.7352 19.0836 20.6775 18.9822 20.599C18.8808 20.5205 18.7958 20.4228 18.7321 20.3115C18.6685 20.2002 18.6273 20.0774 18.6111 19.9502C18 19 18.5 19.5 17.3001 18.1004C15.4984 16.6377 13.2106 15.9096 10.8948 16.0622C8.5791 16.2147 6.40649 17.2364 4.81213 18.9228C3.21776 20.6092 2.31938 22.8356 2.2969 25.1562C2.29517 25.3655 2.36403 25.5691 2.49235 25.7344C2.62068 25.8996 2.80097 26.0168 3.00409 26.0669C8.58451 27.4426 9.41554 27.4426 14.996 26.0669C15.1194 26.0351 15.2478 26.0279 15.374 26.0457C15.5002 26.0636 15.6216 26.1061 15.7314 26.1709C15.8411 26.2356 15.937 26.3214 16.0136 26.4232C16.0902 26.525 16.146 26.641 16.1778 26.7644C16.2096 26.8878 16.2168 27.0162 16.199 27.1424C16.1811 27.2686 16.1386 27.39 16.0739 27.4998C16.0091 27.6095 15.9233 27.7054 15.8215 27.782C15.7197 27.8586 15.6037 27.9144 15.4803 27.9462C12.5421 28.6716 13 28.4688 11 29ZM11.5 12.5625C10.0869 12.5625 8.73169 12.0011 7.73247 11.0019C6.73326 10.0027 6.1719 8.64748 6.1719 7.23438V6.26562C6.1719 4.85252 6.73326 3.49729 7.73247 2.49807C8.73169 1.49885 10.0869 0.9375 11.5 0.9375C12.9131 0.9375 14.2684 1.49885 15.2676 2.49807C16.2668 3.49729 16.8282 4.85252 16.8282 6.26562V7.23438C16.8282 8.64748 16.2668 10.0027 15.2676 11.0019C14.2684 12.0011 12.9131 12.5625 11.5 12.5625ZM11.5 2.875C10.6008 2.875 9.73836 3.23223 9.10249 3.86809C8.46663 4.50396 8.1094 5.36638 8.1094 6.26562V7.23438C8.1094 8.13362 8.46663 8.99604 9.10249 9.63191C9.73836 10.2678 10.6008 10.625 11.5 10.625C12.3993 10.625 13.2617 10.2678 13.8976 9.63191C14.5334 8.99604 14.8907 8.13362 14.8907 7.23438V6.26562C14.8907 5.36638 14.5334 4.50396 13.8976 3.86809C13.2617 3.23223 12.3993 2.875 11.5 2.875Z" fill="black"/>
<path d="M11 29C7.97969 28.9997 5.47066 28.6633 2.53909 27.9366C1.91711 27.7838 1.36435 27.4268 0.969193 26.9228C0.57404 26.4187 0.35933 25.7967 0.359402 25.1562C0.35322 22.3234 1.42645 19.5946 3.36076 17.5249C5.29508 15.4553 7.94519 14.2002 10.772 14.0151C13.5988 13.83 16.3899 14.7287 18.5776 16.5284C19.5 17.5 20.0647 18.1004 20.5486 19.7031C20.5648 19.8303 20.5558 19.9595 20.5221 20.0833C20.4884 20.207 20.4307 20.3229 20.3522 20.4243C20.2737 20.5257 20.176 20.6107 20.0647 20.6744C19.9534 20.7381 19.8306 20.7792 19.7034 20.7954C19.5762 20.8116 19.447 20.8026 19.3233 20.7689C19.1995 20.7352 19.0836 20.6775 18.9822 20.599C18.8808 20.5205 18.7958 20.4228 18.7321 20.3115C18.6685 20.2002 18.6273 20.0774 18.6111 19.9502C18 19 18.5 19.5 17.3001 18.1004C15.4984 16.6377 13.2106 15.9096 10.8948 16.0622C8.5791 16.2147 6.40649 17.2364 4.81213 18.9228C3.21776 20.6092 2.31938 22.8356 2.2969 25.1562C2.29517 25.3655 2.36403 25.5691 2.49235 25.7344C2.62068 25.8996 2.80097 26.0168 3.00409 26.0669C8.58451 27.4426 9.41554 27.4426 14.996 26.0669C15.1194 26.0351 15.2478 26.0279 15.374 26.0457C15.5002 26.0636 15.6216 26.1061 15.7314 26.1709C15.8411 26.2356 15.937 26.3214 16.0136 26.4232C16.0902 26.525 16.146 26.641 16.1778 26.7644C16.2096 26.8878 16.2168 27.0162 16.199 27.1424C16.1811 27.2686 16.1386 27.39 16.0739 27.4998C16.0091 27.6095 15.9233 27.7054 15.8215 27.782C15.7197 27.8586 15.6037 27.9144 15.4803 27.9462C12.5421 28.6716 13 28.4688 11 29ZM11.5 12.5625C10.0869 12.5625 8.73169 12.0011 7.73247 11.0019C6.73326 10.0027 6.1719 8.64748 6.1719 7.23438V6.26562C6.1719 4.85252 6.73326 3.49729 7.73247 2.49807C8.73169 1.49885 10.0869 0.9375 11.5 0.9375C12.9131 0.9375 14.2684 1.49885 15.2676 2.49807C16.2668 3.49729 16.8282 4.85252 16.8282 6.26562V7.23438C16.8282 8.64748 16.2668 10.0027 15.2676 11.0019C14.2684 12.0011 12.9131 12.5625 11.5 12.5625ZM11.5 2.875C10.6008 2.875 9.73836 3.23223 9.10249 3.86809C8.46663 4.50396 8.1094 5.36638 8.1094 6.26562V7.23438C8.1094 8.13362 8.46663 8.99604 9.10249 9.63191C9.73836 10.2678 10.6008 10.625 11.5 10.625C12.3993 10.625 13.2617 10.2678 13.8976 9.63191C14.5334 8.99604 14.8907 8.13362 14.8907 7.23438V6.26562C14.8907 5.36638 14.5334 4.50396 13.8976 3.86809C13.2617 3.23223 12.3993 2.875 11.5 2.875Z" fill="black"/>
</svg>
