<svg width="21" height="21" viewBox="0 0 21 21" fill="none" xmlns="http://www.w3.org/2000/svg">
<path d="M17.9156 1.3125H3.08438C2.1 1.3125 1.3125 2.1 1.3125 3.08437V17.9812C1.3125 18.9 2.1 19.6875 3.08438 19.6875H17.9813C18.9656 19.6875 19.7531 18.9 19.7531 17.9156V3.08437C19.6875 2.1 18.9 1.3125 17.9156 1.3125ZM3.08438 2.625H17.9813C18.1781 2.625 18.375 2.82187 18.375 3.08437V6.95625L16.9969 5.57812C16.3406 4.92188 15.225 4.92188 14.5031 5.57812L11.1563 8.925L9.77813 7.54688C9.12188 6.89062 8.00625 6.89062 7.28438 7.54688L2.625 12.2063V3.08437C2.625 2.82187 2.82187 2.625 3.08438 2.625ZM17.9156 18.375H3.08438C2.82187 18.375 2.625 18.1781 2.625 17.9156V14.0437L8.20313 8.46562C8.4 8.26875 8.6625 8.26875 8.79375 8.46562L14.5688 14.2406C14.7 14.3719 14.8969 14.4375 15.0281 14.4375C15.1594 14.4375 15.3563 14.3719 15.4875 14.2406C15.75 13.9781 15.75 13.5844 15.4875 13.3219L12.075 9.84375L15.4219 6.49687C15.6188 6.3 15.8813 6.3 16.0125 6.49687L18.1781 8.6625C18.2438 8.72813 18.2438 8.72813 18.3094 8.72813V17.9156C18.375 18.1781 18.1781 18.375 17.9156 18.375Z" fill="black"/>
<path d="M5.83984 5.90625H5.90547C6.29922 5.90625 6.56172 5.64375 6.56172 5.25C6.56172 4.85625 6.23359 4.59375 5.90547 4.59375H5.83984C5.44609 4.59375 5.18359 4.85625 5.18359 5.25C5.18359 5.64375 5.44609 5.90625 5.83984 5.90625Z" fill="black"/>
</svg>
