<svg width="24" height="24" viewBox="0 0 24 24" fill="none" xmlns="http://www.w3.org/2000/svg">
<g clip-path="url(#clip0_445_6599)">
<path d="M2.27344 12.5508C2.07031 12.5508 1.875 12.5312 1.6875 12.4922C1.5 12.4531 1.32031 12.4023 1.14844 12.3398H1.17188C0.828125 12.1992 0.546875 11.9727 0.328125 11.6602C0.109375 11.3477 0 10.9961 0 10.6055C0 10.5273 0.0078125 10.4453 0.0234375 10.3594C0.0390625 10.2734 0.0546875 10.1914 0.0703125 10.1133C0.148438 9.94141 0.238281 9.77734 0.339844 9.62109C0.441406 9.46484 0.5625 9.32422 0.703125 9.19922C0.90625 8.99609 1.12109 8.79297 1.34766 8.58984C1.57422 8.38672 1.80469 8.19922 2.03906 8.02734L2.08594 7.98047C2.19531 7.88672 2.30859 7.79297 2.42578 7.69922C2.54297 7.60547 2.65625 7.51172 2.76562 7.41797L6.65625 4.06641C7 3.78516 7.34375 3.50391 7.6875 3.22266C8.03125 2.94141 8.375 2.66016 8.71875 2.37891C9.0625 2.09766 9.41016 1.81641 9.76172 1.53516C10.1133 1.25391 10.4609 0.964844 10.8047 0.667969C10.9609 0.527344 11.1445 0.414062 11.3555 0.328125C11.5664 0.242188 11.7891 0.199219 12.0234 0.199219C12.2578 0.199219 12.4805 0.242188 12.6914 0.328125C12.9023 0.414062 13.0938 0.527344 13.2656 0.667969C14.1562 1.43359 15.0469 2.19531 15.9375 2.95312C16.8281 3.71094 17.7266 4.46484 18.6328 5.21484L19.1016 5.61328C20.0547 6.41016 21.0078 7.21484 21.9609 8.02734C22.0391 8.08984 22.1172 8.15234 22.1953 8.21484C22.2734 8.27734 22.3438 8.33984 22.4062 8.40234C22.5625 8.52734 22.7148 8.65234 22.8633 8.77734C23.0117 8.90234 23.1562 9.03516 23.2969 9.17578C23.5156 9.36328 23.6875 9.59375 23.8125 9.86719C23.9375 10.1406 24 10.4258 24 10.7227C24 10.7695 23.9961 10.8086 23.9883 10.8398C23.9805 10.8711 23.9766 10.9023 23.9766 10.9336V10.9102C23.9297 11.3477 23.7539 11.7148 23.4492 12.0117C23.1445 12.3086 22.7812 12.4805 22.3594 12.5273C22.2969 12.543 22.2305 12.5508 22.1602 12.5508C22.0898 12.5508 22.0156 12.5508 21.9375 12.5508C21.6094 12.5508 21.293 12.5 20.9883 12.3984C20.6836 12.2969 20.4062 12.1523 20.1562 11.9648L20.1797 11.9883C20.1172 11.9414 20.0625 11.8789 20.0156 11.8008C19.9688 11.7227 19.9453 11.6445 19.9453 11.5664C19.9453 11.4258 19.9961 11.3086 20.0977 11.2148C20.1992 11.1211 20.3203 11.0742 20.4609 11.0742C20.5234 11.0742 20.5859 11.0859 20.6484 11.1094C20.7109 11.1328 20.7656 11.168 20.8125 11.2148C20.9844 11.3242 21.1641 11.4102 21.3516 11.4727C21.5391 11.5352 21.7422 11.5664 21.9609 11.5664C22.0078 11.5664 22.0547 11.5625 22.1016 11.5547C22.1484 11.5469 22.1953 11.543 22.2422 11.543C22.4297 11.5273 22.5938 11.4492 22.7344 11.3086C22.875 11.168 22.9609 11.0039 22.9922 10.8164C22.9922 10.8008 22.9922 10.7852 22.9922 10.7695C22.9922 10.7539 22.9922 10.7461 22.9922 10.7461C22.9922 10.5742 22.9609 10.4141 22.8984 10.2656C22.8359 10.1172 22.7422 9.98828 22.6172 9.87891C22.4922 9.75391 22.3594 9.63281 22.2188 9.51562C22.0781 9.39844 21.9375 9.28516 21.7969 9.17578C21.7188 9.11328 21.6406 9.05078 21.5625 8.98828C21.4844 8.92578 21.4062 8.86328 21.3281 8.80078C20.375 7.98828 19.4141 7.17578 18.4453 6.36328L17.9766 5.96484C17.0859 5.21484 16.1914 4.46094 15.293 3.70312C14.3945 2.94531 13.5 2.18359 12.6094 1.41797C12.5312 1.33984 12.4414 1.28125 12.3398 1.24219C12.2383 1.20312 12.1328 1.18359 12.0234 1.18359C11.9141 1.18359 11.8086 1.20312 11.707 1.24219C11.6055 1.28125 11.5156 1.33984 11.4375 1.41797C11.0938 1.71484 10.7461 2.00781 10.3945 2.29688C10.043 2.58594 9.69531 2.87109 9.35156 3.15234C9.00781 3.41797 8.66406 3.69141 8.32031 3.97266C7.97656 4.25391 7.64062 4.53516 7.3125 4.81641L3.39844 8.16797C3.28906 8.27734 3.17578 8.37891 3.05859 8.47266C2.94141 8.56641 2.82031 8.66016 2.69531 8.75391C2.46094 8.94141 2.23828 9.12891 2.02734 9.31641C1.81641 9.50391 1.60938 9.69922 1.40625 9.90234C1.32812 9.96484 1.25391 10.043 1.18359 10.1367C1.11328 10.2305 1.0625 10.3242 1.03125 10.418V10.4414C1.01562 10.457 1.00781 10.4805 1.00781 10.5117C1.00781 10.543 1.00781 10.5664 1.00781 10.582C1.00781 10.7695 1.05859 10.9375 1.16016 11.0859C1.26172 11.2344 1.39062 11.3477 1.54688 11.4258C1.65625 11.4727 1.76562 11.5078 1.875 11.5312C1.98438 11.5547 2.10156 11.5664 2.22656 11.5664C2.33594 11.5664 2.4375 11.5547 2.53125 11.5312C2.625 11.5078 2.71875 11.4805 2.8125 11.4492C2.84375 11.4336 2.88281 11.418 2.92969 11.4023C2.97656 11.3867 3.02344 11.3789 3.07031 11.3789C3.21094 11.3789 3.33203 11.4258 3.43359 11.5195C3.53516 11.6133 3.58594 11.7305 3.58594 11.8711C3.58594 11.9805 3.55469 12.0781 3.49219 12.1641C3.42969 12.25 3.35156 12.3086 3.25781 12.3398C3.11719 12.4023 2.96875 12.4531 2.8125 12.4922C2.65625 12.5312 2.49219 12.5508 2.32031 12.5508C2.30469 12.5508 2.29297 12.5508 2.28516 12.5508C2.27734 12.5508 2.27344 12.5508 2.27344 12.5508ZM11.9766 5.44922C12.0703 5.44922 12.1602 5.46484 12.2461 5.49609C12.332 5.52734 12.4062 5.57422 12.4688 5.63672L20.3672 12.1289C20.4609 12.207 20.5352 12.3008 20.5898 12.4102C20.6445 12.5195 20.6719 12.6367 20.6719 12.7617C20.6719 12.7617 20.6719 12.7656 20.6719 12.7734C20.6719 12.7812 20.6719 12.7852 20.6719 12.7852V22.3008C20.6719 22.5195 20.5977 22.707 20.4492 22.8633C20.3008 23.0195 20.1172 23.1055 19.8984 23.1211H15.9375C15.9219 23.1055 15.9023 23.0898 15.8789 23.0742C15.8555 23.0586 15.8438 23.0352 15.8438 23.0039V16.8867C15.8438 16.8867 15.8438 16.8789 15.8438 16.8633C15.8438 16.6445 15.7695 16.4609 15.6211 16.3125C15.4727 16.1641 15.2891 16.082 15.0703 16.0664H8.92969C8.71094 16.082 8.52734 16.1641 8.37891 16.3125C8.23047 16.4609 8.15625 16.6445 8.15625 16.8633C8.15625 16.8789 8.15625 16.8867 8.15625 16.8867V23.0273C8.15625 23.043 8.14844 23.0625 8.13281 23.0859C8.11719 23.1094 8.09375 23.1211 8.0625 23.1211H4.07812C3.85938 23.1055 3.67188 23.0195 3.51562 22.8633C3.35938 22.707 3.28125 22.5195 3.28125 22.3008C3.28125 22.3008 3.28516 22.3008 3.29297 22.3008C3.30078 22.3008 3.30469 22.3008 3.30469 22.3008V12.7148C3.30469 12.5898 3.32812 12.4727 3.375 12.3633C3.42188 12.2539 3.49219 12.1602 3.58594 12.082L11.4844 5.63672C11.5469 5.57422 11.6211 5.52734 11.707 5.49609C11.793 5.46484 11.8828 5.44922 11.9766 5.44922ZM11.9766 4.46484C11.7578 4.46484 11.5547 4.5 11.3672 4.57031C11.1797 4.64062 11.0078 4.73828 10.8516 4.86328L2.95312 11.3086C2.75 11.4805 2.58984 11.6875 2.47266 11.9297C2.35547 12.1719 2.29688 12.4336 2.29688 12.7148V22.2773C2.29688 22.293 2.29688 22.3008 2.29688 22.3008C2.29688 22.8008 2.47266 23.2266 2.82422 23.5781C3.17578 23.9297 3.59375 24.1055 4.07812 24.1055H8.0625C8.35938 24.1055 8.61328 24 8.82422 23.7891C9.03516 23.5781 9.14062 23.3164 9.14062 23.0039V17.0742H14.8594V23.0039C14.8594 23.3164 14.9648 23.5781 15.1758 23.7891C15.3867 24 15.6406 24.1055 15.9375 24.1055H19.8984C20.3828 24.1055 20.7969 23.9297 21.1406 23.5781C21.4844 23.2266 21.6562 22.8086 21.6562 22.3242C21.6562 22.3086 21.6562 22.3008 21.6562 22.3008V12.7852C21.6562 12.7852 21.6562 12.7773 21.6562 12.7617C21.6562 12.4805 21.5977 12.2188 21.4805 11.9766C21.3633 11.7344 21.2031 11.5352 21 11.3789V11.3555L13.1016 4.86328C12.9453 4.73828 12.7734 4.64062 12.5859 4.57031C12.3984 4.5 12.1953 4.46484 11.9766 4.46484Z" fill="black"/>
</g>
<defs>
<clipPath id="clip0_445_6599">
<rect width="24" height="24" fill="white" transform="matrix(1 0 0 -1 0 24)"/>
</clipPath>
</defs>
</svg>
