<svg width="31" height="31" viewBox="0 0 31 31" fill="none" xmlns="http://www.w3.org/2000/svg">
<path d="M15.5 30.0312C12.4797 30.0309 9.47066 29.6633 6.53909 28.9366C5.91711 28.7838 5.36435 28.4268 4.96919 27.9228C4.57404 27.4187 4.35933 26.7967 4.3594 26.1562C4.35322 23.3234 5.42645 20.5946 7.36076 18.5249C9.29508 16.4553 11.9452 15.2002 14.772 15.0151C17.5988 14.83 20.3899 15.7287 22.5776 17.5284C24.7654 19.3281 26.1853 21.8937 26.5486 24.7031C26.5648 24.8303 26.5558 24.9595 26.5221 25.0833C26.4884 25.207 26.4307 25.3229 26.3522 25.4243C26.2737 25.5257 26.176 25.6107 26.0647 25.6744C25.9534 25.7381 25.8306 25.7792 25.7034 25.7954C25.5762 25.8116 25.447 25.8026 25.3233 25.7689C25.1995 25.7352 25.0836 25.6775 24.9822 25.599C24.8808 25.5205 24.7958 25.4228 24.7321 25.3115C24.6685 25.2002 24.6273 25.0774 24.6111 24.9502C24.2845 22.6525 23.1019 20.5631 21.3001 19.1004C19.4984 17.6377 17.2106 16.9096 14.8948 17.0622C12.5791 17.2147 10.4065 18.2364 8.81213 19.9228C7.21776 21.6092 6.31938 23.8356 6.2969 26.1562C6.29517 26.3655 6.36403 26.5691 6.49235 26.7344C6.62068 26.8996 6.80097 27.0168 7.00409 27.0669C12.5845 28.4426 18.4155 28.4426 23.996 27.0669C24.1194 27.0351 24.2478 27.0279 24.374 27.0457C24.5002 27.0636 24.6216 27.1061 24.7314 27.1709C24.8411 27.2356 24.937 27.3214 25.0136 27.4232C25.0902 27.525 25.146 27.641 25.1778 27.7644C25.2096 27.8878 25.2168 28.0162 25.199 28.1424C25.1812 28.2686 25.1386 28.39 25.0739 28.4998C25.0091 28.6095 24.9233 28.7054 24.8215 28.782C24.7197 28.8586 24.6037 28.9144 24.4803 28.9462C21.5421 29.6716 18.5264 30.0359 15.5 30.0312ZM15.5 13.5625C14.0869 13.5625 12.7317 13.0011 11.7325 12.0019C10.7333 11.0027 10.1719 9.64748 10.1719 8.23438V7.26562C10.1719 5.85252 10.7333 4.49729 11.7325 3.49807C12.7317 2.49885 14.0869 1.9375 15.5 1.9375C16.9131 1.9375 18.2684 2.49885 19.2676 3.49807C20.2668 4.49729 20.8282 5.85252 20.8282 7.26562V8.23438C20.8282 9.64748 20.2668 11.0027 19.2676 12.0019C18.2684 13.0011 16.9131 13.5625 15.5 13.5625ZM15.5 3.875C14.6008 3.875 13.7384 4.23223 13.1025 4.86809C12.4666 5.50396 12.1094 6.36638 12.1094 7.26562V8.23438C12.1094 9.13362 12.4666 9.99604 13.1025 10.6319C13.7384 11.2678 14.6008 11.625 15.5 11.625C16.3993 11.625 17.2617 11.2678 17.8976 10.6319C18.5334 9.99604 18.8907 9.13362 18.8907 8.23438V7.26562C18.8907 6.36638 18.5334 5.50396 17.8976 4.86809C17.2617 4.23223 16.3993 3.875 15.5 3.875Z" fill="black"/>
<path d="M15.5 30.0312C12.4797 30.0309 9.47066 29.6633 6.53909 28.9366C5.91711 28.7838 5.36435 28.4268 4.96919 27.9228C4.57404 27.4187 4.35933 26.7967 4.3594 26.1562C4.35322 23.3234 5.42645 20.5946 7.36076 18.5249C9.29508 16.4553 11.9452 15.2002 14.772 15.0151C17.5988 14.83 20.3899 15.7287 22.5776 17.5284C24.7654 19.3281 26.1853 21.8937 26.5486 24.7031C26.5648 24.8303 26.5558 24.9595 26.5221 25.0833C26.4884 25.207 26.4307 25.3229 26.3522 25.4243C26.2737 25.5257 26.176 25.6107 26.0647 25.6744C25.9534 25.7381 25.8306 25.7792 25.7034 25.7954C25.5762 25.8116 25.447 25.8026 25.3233 25.7689C25.1995 25.7352 25.0836 25.6775 24.9822 25.599C24.8808 25.5205 24.7958 25.4228 24.7321 25.3115C24.6685 25.2002 24.6273 25.0774 24.6111 24.9502C24.2845 22.6525 23.1019 20.5631 21.3001 19.1004C19.4984 17.6377 17.2106 16.9096 14.8948 17.0622C12.5791 17.2147 10.4065 18.2364 8.81213 19.9228C7.21776 21.6092 6.31938 23.8356 6.2969 26.1562C6.29517 26.3655 6.36403 26.5691 6.49235 26.7344C6.62068 26.8996 6.80097 27.0168 7.00409 27.0669C12.5845 28.4426 18.4155 28.4426 23.996 27.0669C24.1194 27.0351 24.2478 27.0279 24.374 27.0457C24.5002 27.0636 24.6216 27.1061 24.7314 27.1709C24.8411 27.2356 24.937 27.3214 25.0136 27.4232C25.0902 27.525 25.146 27.641 25.1778 27.7644C25.2096 27.8878 25.2168 28.0162 25.199 28.1424C25.1812 28.2686 25.1386 28.39 25.0739 28.4998C25.0091 28.6095 24.9233 28.7054 24.8215 28.782C24.7197 28.8586 24.6037 28.9144 24.4803 28.9462C21.5421 29.6716 18.5264 30.0359 15.5 30.0312ZM15.5 13.5625C14.0869 13.5625 12.7317 13.0011 11.7325 12.0019C10.7333 11.0027 10.1719 9.64748 10.1719 8.23438V7.26562C10.1719 5.85252 10.7333 4.49729 11.7325 3.49807C12.7317 2.49885 14.0869 1.9375 15.5 1.9375C16.9131 1.9375 18.2684 2.49885 19.2676 3.49807C20.2668 4.49729 20.8282 5.85252 20.8282 7.26562V8.23438C20.8282 9.64748 20.2668 11.0027 19.2676 12.0019C18.2684 13.0011 16.9131 13.5625 15.5 13.5625ZM15.5 3.875C14.6008 3.875 13.7384 4.23223 13.1025 4.86809C12.4666 5.50396 12.1094 6.36638 12.1094 7.26562V8.23438C12.1094 9.13362 12.4666 9.99604 13.1025 10.6319C13.7384 11.2678 14.6008 11.625 15.5 11.625C16.3993 11.625 17.2617 11.2678 17.8976 10.6319C18.5334 9.99604 18.8907 9.13362 18.8907 8.23438V7.26562C18.8907 6.36638 18.5334 5.50396 17.8976 4.86809C17.2617 4.23223 16.3993 3.875 15.5 3.875Z" fill="black"/>
<path d="M15.5 30.0312C12.4797 30.0309 9.47066 29.6633 6.53909 28.9366C5.91711 28.7838 5.36435 28.4268 4.96919 27.9228C4.57404 27.4187 4.35933 26.7967 4.3594 26.1562C4.35322 23.3234 5.42645 20.5946 7.36076 18.5249C9.29508 16.4553 11.9452 15.2002 14.772 15.0151C17.5988 14.83 20.3899 15.7287 22.5776 17.5284C24.7654 19.3281 26.1853 21.8937 26.5486 24.7031C26.5648 24.8303 26.5558 24.9595 26.5221 25.0833C26.4884 25.207 26.4307 25.3229 26.3522 25.4243C26.2737 25.5257 26.176 25.6107 26.0647 25.6744C25.9534 25.7381 25.8306 25.7792 25.7034 25.7954C25.5762 25.8116 25.447 25.8026 25.3233 25.7689C25.1995 25.7352 25.0836 25.6775 24.9822 25.599C24.8808 25.5205 24.7958 25.4228 24.7321 25.3115C24.6685 25.2002 24.6273 25.0774 24.6111 24.9502C24.2845 22.6525 23.1019 20.5631 21.3001 19.1004C19.4984 17.6377 17.2106 16.9096 14.8948 17.0622C12.5791 17.2147 10.4065 18.2364 8.81213 19.9228C7.21776 21.6092 6.31938 23.8356 6.2969 26.1562C6.29517 26.3655 6.36403 26.5691 6.49235 26.7344C6.62068 26.8996 6.80097 27.0168 7.00409 27.0669C12.5845 28.4426 18.4155 28.4426 23.996 27.0669C24.1194 27.0351 24.2478 27.0279 24.374 27.0457C24.5002 27.0636 24.6216 27.1061 24.7314 27.1709C24.8411 27.2356 24.937 27.3214 25.0136 27.4232C25.0902 27.525 25.146 27.641 25.1778 27.7644C25.2096 27.8878 25.2168 28.0162 25.199 28.1424C25.1812 28.2686 25.1386 28.39 25.0739 28.4998C25.0091 28.6095 24.9233 28.7054 24.8215 28.782C24.7197 28.8586 24.6037 28.9144 24.4803 28.9462C21.5421 29.6716 18.5264 30.0359 15.5 30.0312ZM15.5 13.5625C14.0869 13.5625 12.7317 13.0011 11.7325 12.0019C10.7333 11.0027 10.1719 9.64748 10.1719 8.23438V7.26562C10.1719 5.85252 10.7333 4.49729 11.7325 3.49807C12.7317 2.49885 14.0869 1.9375 15.5 1.9375C16.9131 1.9375 18.2684 2.49885 19.2676 3.49807C20.2668 4.49729 20.8282 5.85252 20.8282 7.26562V8.23438C20.8282 9.64748 20.2668 11.0027 19.2676 12.0019C18.2684 13.0011 16.9131 13.5625 15.5 13.5625ZM15.5 3.875C14.6008 3.875 13.7384 4.23223 13.1025 4.86809C12.4666 5.50396 12.1094 6.36638 12.1094 7.26562V8.23438C12.1094 9.13362 12.4666 9.99604 13.1025 10.6319C13.7384 11.2678 14.6008 11.625 15.5 11.625C16.3993 11.625 17.2617 11.2678 17.8976 10.6319C18.5334 9.99604 18.8907 9.13362 18.8907 8.23438V7.26562C18.8907 6.36638 18.5334 5.50396 17.8976 4.86809C17.2617 4.23223 16.3993 3.875 15.5 3.875Z" fill="black"/>
<path d="M9.65269 24.219C9.50143 24.2196 9.35214 24.1848 9.21676 24.1173C8.98774 24.002 8.81377 23.8006 8.73297 23.5573C8.65216 23.314 8.67111 23.0485 8.78566 22.8192C9.35036 21.7009 10.1822 20.7393 11.2075 20.0195C11.3115 19.946 11.429 19.8937 11.5532 19.8657C11.6774 19.8376 11.8059 19.8342 11.9314 19.8558C12.0569 19.8774 12.1769 19.9235 12.2846 19.9915C12.3922 20.0595 12.4855 20.148 12.5589 20.252C12.6324 20.356 12.6847 20.4734 12.7128 20.5976C12.7408 20.7218 12.7442 20.8503 12.7226 20.9758C12.701 21.1013 12.6549 21.2213 12.5869 21.329C12.519 21.4367 12.4304 21.5299 12.3264 21.6034C11.5689 22.1406 10.9551 22.8559 10.5391 23.6862C10.4568 23.8497 10.3298 23.9865 10.1729 24.0808C10.0161 24.1751 9.83569 24.223 9.65269 24.219Z" fill="#EF9A9A"/>
</svg>
