<svg width="28" height="28" viewBox="0 0 28 28" fill="none" xmlns="http://www.w3.org/2000/svg">
<path d="M27.2254 16.9925C26.4094 16.2105 25.9674 15.1225 25.9674 14.0005C25.9674 12.8785 26.4094 11.8245 27.2254 11.0085C27.3614 10.8725 27.4973 10.7705 27.6673 10.6345C27.9053 10.4645 27.9734 10.1585 27.9054 9.88651C27.6334 8.90051 27.2254 7.94851 26.7494 7.06451C26.6133 6.82651 26.3414 6.69051 26.0694 6.72451C25.8314 6.75851 25.6614 6.75851 25.4914 6.75851C23.1454 6.75851 21.2414 4.85451 21.2414 2.54251C21.2414 2.37251 21.2414 2.16851 21.2754 1.96451C21.3094 1.69251 21.1734 1.42051 20.9354 1.28451C20.0514 0.808508 19.0994 0.400508 18.1134 0.128508C17.8414 0.0605078 17.5354 0.162508 17.3654 0.366508C17.2294 0.536508 17.0934 0.706508 16.9914 0.808508C16.1754 1.59051 15.1214 2.03251 13.9994 2.03251C12.8774 2.03251 11.7894 1.59051 11.0074 0.808508C10.8714 0.672508 10.7694 0.536508 10.6334 0.366508C10.4634 0.128508 10.1574 0.0605078 9.88535 0.128508C8.89935 0.434508 7.94735 0.808508 7.06335 1.28451C6.82535 1.42051 6.68935 1.69251 6.72335 1.96451C6.75735 2.20251 6.75735 2.37251 6.75735 2.54251C6.75735 4.88851 4.85335 6.75851 2.50735 6.75851C2.33735 6.75851 2.13335 6.75851 1.92935 6.72451C1.65735 6.69051 1.38535 6.82651 1.24935 7.06451C0.773351 7.94851 0.365352 8.90051 0.0933516 9.88651C0.0253516 10.1585 0.0933515 10.4645 0.331352 10.6345C0.535352 10.7705 0.671352 10.9065 0.773352 11.0085C2.43935 12.6405 2.43935 15.3265 0.773352 16.9925C0.637352 17.1285 0.501352 17.2305 0.331352 17.3665C0.0933515 17.5365 0.0253516 17.8425 0.0933516 18.1145C0.399352 19.1005 0.773351 20.0525 1.24935 20.9365C1.38535 21.1745 1.65735 21.3105 1.92935 21.2765C2.16735 21.2425 2.33735 21.2425 2.50735 21.2425C4.85335 21.2425 6.75735 23.1465 6.75735 25.4585C6.75735 25.6285 6.75735 25.8325 6.72335 26.0365C6.68935 26.3085 6.82535 26.5805 7.06335 26.7165C7.94735 27.1925 8.89935 27.6005 9.88535 27.8725C10.1574 27.9405 10.4634 27.8725 10.6334 27.6345C10.7694 27.4645 10.9054 27.2945 11.0074 27.1925C11.8234 26.4105 12.8774 25.9685 13.9994 25.9685C15.1214 25.9685 16.2094 26.4105 16.9914 27.1925C17.1274 27.3285 17.2294 27.4645 17.3654 27.6345C17.5014 27.8045 17.7054 27.9065 17.9094 27.9065C17.9774 27.9065 18.0454 27.9065 18.1134 27.8725C19.0994 27.5665 20.0514 27.1925 20.9354 26.7165C21.1734 26.5805 21.3094 26.3085 21.2754 26.0365C21.2414 25.7985 21.2414 25.6285 21.2414 25.4585C21.2414 23.1125 23.1454 21.2425 25.4914 21.2425C25.6614 21.2425 25.8654 21.2425 26.0694 21.2765C26.3414 21.3105 26.6133 21.1745 26.7494 20.9365C27.2254 20.0525 27.6334 19.1005 27.9054 18.1145C27.9734 17.8425 27.9053 17.5365 27.6673 17.3665C27.4973 17.2305 27.3274 17.1285 27.2254 16.9925ZM25.7633 19.8825H25.4573C22.3633 19.8825 19.8474 22.3985 19.8474 25.4585V25.7645C19.3034 26.0365 18.7254 26.2745 18.1134 26.4785L17.9094 26.2745C16.8554 25.2205 15.4614 24.6425 13.9654 24.6425C12.4694 24.6425 11.0754 25.2205 10.0214 26.2745L9.81735 26.4785C9.23935 26.2745 8.66135 26.0365 8.08335 25.7645V25.4585C8.08335 22.3645 5.56735 19.8825 2.47335 19.8825H2.16735C1.89535 19.3385 1.65735 18.7605 1.45335 18.1485L1.65735 17.9445C3.83335 15.7685 3.83335 12.2325 1.65735 10.0225L1.45335 9.81851C1.65735 9.24051 1.89535 8.66251 2.16735 8.08451H2.47335C5.56735 8.08451 8.08335 5.56851 8.08335 2.50851V2.20251C8.62735 1.93051 9.20535 1.69251 9.81735 1.48851L10.0214 1.69251C11.0754 2.74651 12.4694 3.32451 13.9654 3.32451C15.4614 3.32451 16.8554 2.74651 17.9094 1.69251L18.1134 1.48851C18.6914 1.69251 19.2694 1.93051 19.8474 2.20251V2.50851C19.8474 5.60251 22.3633 8.08451 25.4573 8.08451H25.7633C26.0354 8.62851 26.2733 9.20651 26.4774 9.81851L26.2733 10.0225C25.2194 11.0765 24.6414 12.4705 24.6414 13.9665C24.6414 15.4625 25.2194 16.8565 26.2733 17.9105L26.4774 18.1145C26.2733 18.7605 26.0354 19.3385 25.7633 19.8825ZM13.9994 5.90851C9.54535 5.90851 5.90735 9.54651 5.90735 14.0005C5.90735 18.4545 9.54535 22.0925 13.9994 22.0925C18.4534 22.0925 22.0914 18.4545 22.0914 14.0005C22.0914 9.54651 18.4534 5.90851 13.9994 5.90851ZM13.9994 20.7325C10.2934 20.7325 7.26735 17.7065 7.26735 14.0005C7.26735 10.2945 10.2934 7.26851 13.9994 7.26851C17.7054 7.26851 20.7314 10.2945 20.7314 14.0005C20.7314 17.7065 17.7054 20.7325 13.9994 20.7325Z" fill="black"/>
</svg>
