<svg width="35" height="35" viewBox="0 0 35 35" fill="none" xmlns="http://www.w3.org/2000/svg">
<path d="M31.9653 14.7671C32.0823 13.9696 31.5307 13.2284 30.7334 13.1113L22.4918 11.9065L18.8089 4.40118C18.6763 4.17225 18.486 3.98212 18.2569 3.84977C17.5335 3.43169 16.6081 3.67913 16.1899 4.4026L12.5085 11.9065L4.26689 13.1114C3.95179 13.1576 3.66055 13.3057 3.43741 13.5329C2.87282 14.108 2.88145 15.032 3.45654 15.5965L9.42517 21.4484L8.01668 29.7085C8.00333 29.7875 7.99648 29.8675 7.9963 29.9478C7.99407 30.7549 8.64651 31.411 9.45365 31.4132C9.69158 31.4128 9.92585 31.3542 10.1358 31.2423L17.5001 27.3487L24.863 31.2409C25.1476 31.3919 25.474 31.4445 25.7916 31.3904C26.5852 31.255 27.1189 30.5021 26.9836 29.7085L25.5751 21.4484L31.5451 15.595C31.7716 15.3721 31.9191 15.0814 31.9653 14.7671ZM24.2819 20.6736C24.1112 20.8411 24.0331 21.0814 24.0726 21.3173L25.5452 29.9519L17.8405 25.8788C17.6271 25.7677 17.3731 25.7677 17.1597 25.8788L9.45508 29.9533L10.9276 21.3174C10.9672 21.0815 10.889 20.8412 10.7182 20.6736L4.47757 14.5555L13.0994 13.2951C13.3375 13.2595 13.5429 13.1094 13.6492 12.8935L17.5001 5.04508L21.3509 12.8934C21.4572 13.1093 21.6627 13.2594 21.9008 13.295L30.524 14.554L24.2819 20.6736Z" fill="black"/>
</svg>
