<svg width="20" height="20" viewBox="0 0 20 20" fill="none" xmlns="http://www.w3.org/2000/svg">
<path d="M14.1673 7.66732L18.5115 4.62565C18.5739 4.58186 18.6472 4.55607 18.7234 4.55107C18.7995 4.54607 18.8755 4.56207 18.9432 4.59731C19.0108 4.63256 19.0675 4.6857 19.107 4.75094C19.1465 4.81619 19.1674 4.89103 19.1673 4.96732V15.034C19.1674 15.1103 19.1465 15.1851 19.107 15.2504C19.0675 15.3156 19.0108 15.3687 18.9432 15.404C18.8755 15.4392 18.7995 15.4552 18.7234 15.4502C18.6472 15.4452 18.5739 15.4194 18.5115 15.3757L14.1673 12.334V15.834C14.1673 16.055 14.0795 16.267 13.9232 16.4232C13.767 16.5795 13.555 16.6673 13.334 16.6673H1.66732C1.4463 16.6673 1.23434 16.5795 1.07806 16.4232C0.921782 16.267 0.833984 16.055 0.833984 15.834V4.16732C0.833984 3.9463 0.921782 3.73434 1.07806 3.57806C1.23434 3.42178 1.4463 3.33398 1.66732 3.33398H13.334C13.555 3.33398 13.767 3.42178 13.9232 3.57806C14.0795 3.73434 14.1673 3.9463 14.1673 4.16732V7.66732ZM14.1673 10.2998L17.5006 12.6332V7.36732L14.1673 9.70065V10.299V10.2998ZM2.50065 5.00065V15.0007H12.5007V5.00065H2.50065ZM4.16732 6.66732H5.83398V8.33398H4.16732V6.66732Z" fill="#433E42"/>
</svg>
